<svg width="17" height="17" viewBox="0 0 17 17" fill="none" xmlns="http://www.w3.org/2000/svg">
<g clip-path="url(#clip0_1077_17902)">
<mask id="mask0_1077_17902" style="mask-type:luminance" maskUnits="userSpaceOnUse" x="1" y="0" width="16" height="17">
<path d="M16.5352 0.151367H1.53516V16.1514H16.5352V0.151367Z" fill="white"/>
</mask>
<g mask="url(#mask0_1077_17902)">
<path d="M13.0402 3.16842C12.8622 3.16842 12.6882 3.22204 12.5402 3.32251C12.3922 3.42296 12.2768 3.56576 12.2087 3.73282C12.1406 3.89989 12.1228 4.08372 12.1575 4.26108C12.1922 4.43843 12.2779 4.60134 12.4038 4.7292C12.5297 4.85707 12.69 4.94415 12.8646 4.97942C13.0392 5.0147 13.2201 4.9966 13.3846 4.9274C13.5491 4.8582 13.6896 4.74101 13.7885 4.59065C13.8874 4.44031 13.9402 4.26354 13.9402 4.08271C13.9402 3.84022 13.8454 3.60767 13.6766 3.43621C13.5078 3.26475 13.2789 3.16842 13.0402 3.16842ZM16.4902 5.01223C16.4756 4.38008 16.3591 3.75463 16.1452 3.1608C15.9545 2.65271 15.6577 2.19263 15.2752 1.81223C14.9038 1.4217 14.4499 1.12208 13.9477 0.936037C13.3647 0.71216 12.7483 0.591054 12.1252 0.577942C11.3302 0.532227 11.0752 0.532227 9.03515 0.532227C6.99515 0.532227 6.74016 0.532227 5.94516 0.577942C5.32202 0.591054 4.70567 0.71216 4.12266 0.936037C3.62142 1.12396 3.16786 1.42332 2.79516 1.81223C2.41073 2.18951 2.11579 2.65066 1.93266 3.1608C1.71228 3.75306 1.59306 4.3792 1.58016 5.01223C1.53516 5.81985 1.53516 6.0789 1.53516 8.15128C1.53516 10.2237 1.53516 10.4827 1.58016 11.2904C1.59306 11.9233 1.71228 12.5496 1.93266 13.1418C2.11579 13.652 2.41073 14.1131 2.79516 14.4904C3.16786 14.8792 3.62142 15.1787 4.12266 15.3665C4.70567 15.5904 5.32202 15.7115 5.94516 15.7246C6.74016 15.7704 6.99515 15.7704 9.03515 15.7704C11.0752 15.7704 11.3302 15.7704 12.1252 15.7246C12.7483 15.7115 13.3647 15.5904 13.9477 15.3665C14.4499 15.1805 14.9038 14.8809 15.2752 14.4904C15.6593 14.1114 15.9564 13.6509 16.1452 13.1418C16.3591 12.548 16.4756 11.9225 16.4902 11.2904C16.4902 10.4827 16.5352 10.2237 16.5352 8.15128C16.5352 6.0789 16.5352 5.81985 16.4902 5.01223ZM15.1402 11.1989C15.1347 11.6826 15.0485 12.1617 14.8852 12.6161C14.7654 12.9477 14.5731 13.2472 14.3227 13.4923C14.0794 13.7441 13.7851 13.939 13.4602 14.0637C13.013 14.2296 12.5413 14.3172 12.0652 14.3227C11.3152 14.3608 11.0377 14.3684 9.06516 14.3684C7.09266 14.3684 6.81516 14.3685 6.06516 14.3227C5.57083 14.3321 5.0786 14.2548 4.61016 14.0942C4.2995 13.9632 4.01868 13.7687 3.78516 13.5227C3.53623 13.2779 3.34629 12.9781 3.23016 12.6465C3.04706 12.1857 2.94549 11.6956 2.93016 11.1989C2.93016 10.437 2.88516 10.1551 2.88516 8.15128C2.88516 6.14747 2.88516 5.86556 2.93016 5.10366C2.93352 4.60923 3.02237 4.11924 3.19266 3.65604C3.3247 3.33445 3.52736 3.04778 3.78516 2.81794C4.01302 2.55598 4.29463 2.34792 4.61016 2.20842C5.06732 2.04083 5.54916 1.95324 6.03516 1.94937C6.78516 1.94937 7.06265 1.90366 9.03515 1.90366C11.0077 1.90366 11.2852 1.90366 12.0352 1.94937C12.5113 1.95492 12.983 2.04252 13.4302 2.20842C13.771 2.33692 14.0769 2.54583 14.3227 2.81794C14.5685 3.05199 14.7605 3.33812 14.8852 3.65604C15.0519 4.11999 15.1382 4.60978 15.1402 5.10366C15.1777 5.86556 15.1852 6.14747 15.1852 8.15128C15.1852 10.1551 15.1777 10.437 15.1402 11.1989ZM9.03515 4.24271C8.27451 4.24421 7.53138 4.47473 6.89965 4.90512C6.26792 5.33551 5.77595 5.94648 5.48588 6.6608C5.19583 7.37513 5.1207 8.1608 5.27 8.91844C5.41931 9.67615 5.78633 10.3719 6.32472 10.9178C6.8631 11.4636 7.54867 11.8351 8.29481 11.9853C9.04094 12.1355 9.81419 12.0577 10.5168 11.7616C11.2194 11.4656 11.8199 10.9646 12.2423 10.322C12.6647 9.67935 12.8902 8.924 12.8902 8.15128C12.8912 7.63707 12.7921 7.12774 12.5986 6.65258C12.4052 6.17742 12.1211 5.7458 11.7629 5.38255C11.4046 5.01931 10.9791 4.7316 10.511 4.53599C10.0429 4.34037 9.54134 4.24069 9.03515 4.24271ZM9.03515 10.6885C8.54119 10.6885 8.05833 10.5397 7.64761 10.2609C7.23692 9.98206 6.9168 9.58579 6.72777 9.12217C6.53873 8.65863 6.48928 8.14846 6.58565 7.65631C6.68201 7.16415 6.91988 6.71207 7.26916 6.35724C7.61843 6.00242 8.06345 5.76078 8.54791 5.66288C9.03238 5.56499 9.53459 5.61523 9.99089 5.80726C10.4473 5.99929 10.8374 6.32449 11.1118 6.74172C11.3862 7.15895 11.5327 7.64948 11.5327 8.15128C11.5327 8.48446 11.4681 8.81436 11.3426 9.12217C11.2171 9.43006 11.0331 9.70968 10.8012 9.94533C10.5692 10.1809 10.294 10.3678 9.99089 10.4953C9.68788 10.6228 9.36313 10.6885 9.03515 10.6885Z" fill="#F8F8F8"/>
</g>
</g>
<defs>
<clipPath id="clip0_1077_17902">
<rect width="16" height="16" fill="white" transform="translate(0.632812 0.151367)"/>
</clipPath>
</defs>
</svg>
