<svg width="163" height="23" viewBox="0 0 163 23" fill="none" xmlns="http://www.w3.org/2000/svg">
<path fill-rule="evenodd" clip-rule="evenodd" d="M46.1263 14.832C46.5816 13.7859 47.865 13.4822 49.1781 13.1687L49.0904 14.8844C47.9053 15.8422 47.0037 16.5401 46.1263 14.832ZM33.8401 13.0136C33.7925 10.9378 35.55 10.6958 36.7907 11.5059C36.4431 12.1526 37.0047 11.734 36.1016 12.2303L33.8401 13.0136ZM39.207 7.91425C40.1825 6.70153 40.5905 5.69457 41.8491 4.84243C45.9611 2.05848 50.7378 3.92435 52.4003 9.0575C53.8294 8.98686 54.361 9.24736 55.2305 9.77748C55.0424 6.05014 51.5829 2.43348 48.7059 1.36793C43.7788 -0.456734 40.5216 2.32192 38.2159 4.31878C35.9121 3.66886 33.7995 3.56878 31.7494 4.89541C28.8639 6.76335 30.2303 7.44359 27.7607 8.83351C23.7325 11.1009 23.9644 18.6321 29.2533 17.5418C29.9639 17.3952 31.8265 16.6523 32.3113 16.6349C33.1629 16.6046 33.8275 17.5292 34.8389 17.9671C36.7981 18.8158 39.2459 18.5408 40.8907 17.503C43.5275 15.839 42.2132 14.5256 43.151 11.8264C43.7403 10.1304 46.0889 8.55682 47.5544 10.6202C45.9823 11.6004 44.4096 11.7743 43.6231 13.3055C41.9621 16.5387 46.742 20.4202 50.3652 17.566C51.9176 16.3429 51.8107 14.9212 51.9676 12.4846C53.9874 12.2006 54.5667 13.5272 54.373 15.5726C54.2167 17.2257 53.3764 18.2656 52.2496 18.9582C50.2006 20.2174 44.6975 19.7218 41.9315 19.7218C38.2153 19.7218 34.4968 19.7082 30.7813 19.7229C29.0726 19.7297 27.2541 19.9611 26.4549 18.4319C25.3123 16.2449 25.8244 18.4761 24.4475 15.1708C21.4899 20.2881 25.9731 22.5472 30.7825 22.5301C35.9015 22.5122 41.0237 22.5275 46.143 22.5284C51.4764 22.529 55.1825 21.9844 56.6984 17.7119C57.4722 15.5314 57.3065 13.0568 56.0706 11.3487C54.8078 9.60382 53.261 9.5891 50.5804 9.8808C49.5242 7.52983 45.2406 5.2136 41.9421 8.64836C40.6405 10.0041 40.3417 11.1291 40.1342 13.5875C39.9782 15.4349 37.5875 16.4259 36.0121 15.3271C37.2728 14.4729 39.3245 14.2033 39.6491 12.5335C40.0197 10.6284 38.4105 9.11372 37.2805 8.57948C33.6818 6.87756 30.6085 10.1269 31.2004 14.0232C30.4398 14.2669 29.329 14.8064 28.5531 14.7746L27.9655 14.6225C27.4007 13.0009 28.1807 11.6013 29.2945 11.1124C30.305 10.6688 30.6211 11.0214 31.113 10.1966C31.4512 9.62942 31.342 9.29769 31.8992 8.5162C34.6166 4.70526 38.3955 7.69291 39.207 7.91367V7.91425Z" fill="#FE922A"/>
<path fill-rule="evenodd" clip-rule="evenodd" d="M89.6296 15.2157C89.5222 13.1452 90.8167 11.267 93.3261 12.0161C94.2282 12.2854 94.4337 12.5294 94.7207 13.1343L89.6296 15.2154V15.2157ZM85.4328 8.62461L81.5836 8.61961L78.9666 17.7633L76.3851 8.61019L72.6016 8.59077C73.5576 12.2322 75.5545 17.2608 76.7766 21.1321C77.3394 22.915 77.0521 22.5497 80.7933 22.4858L82.1864 18.9645L83.355 21.5562L87.533 19.9258C89.7821 21.4238 92.0374 23.2264 96.0306 22.3395C98.8015 21.724 101.513 19.4761 102.537 17.7503C102.036 17.1754 100.322 16.1205 99.5969 15.8382C98.8083 16.8252 97.8284 17.9722 96.2354 18.5866C94.849 19.1214 92.6803 19.1867 91.5876 18.3019C93.43 17.0556 96.4412 16.852 97.6654 15.0614C101.843 8.94987 85.4996 3.02639 86.1366 16.6756L82.2668 18.1147L85.4331 8.62432L85.4328 8.62461Z" fill="#FE922A"/>
<path fill-rule="evenodd" clip-rule="evenodd" d="M0.396807 6.65832L0.390625 22.4566C4.57744 22.8784 4.13474 22.7177 6.50219 18.7787L7.10413 17.8877C7.39171 17.5766 7.24778 17.7149 7.50916 17.5357L10.7597 22.4672L15.3297 22.4363L9.99111 13.6097C10.4529 12.447 11.8773 10.5802 12.6685 9.34131C13.4226 8.16038 14.9585 6.0602 15.4389 4.91548L10.475 4.91754C9.5434 7.04598 5.22266 12.686 4.18949 14.689L4.10796 4.88428L0.398868 4.91048L0.397102 6.65832H0.396807Z" fill="#FE922A"/>
<path fill-rule="evenodd" clip-rule="evenodd" d="M58.0435 11.2898L59.9844 11.3528L59.9974 22.5366L63.7009 22.4759L63.7026 11.2968L67.6769 11.3489L67.6917 22.5292L71.4005 22.4865L71.4019 8.59296L63.7238 8.57647L63.6923 5.18057L60 5.1582L59.9403 8.56794L57.9531 8.58619L58.0435 11.2898Z" fill="#FE922A"/>
<path fill-rule="evenodd" clip-rule="evenodd" d="M158.6 18.5332C156.126 20.0462 154.789 18.5362 155.16 15.5777C155.511 12.7766 158.696 12.9888 158.696 15.3233L158.713 17.5548L158.6 18.5332ZM158.63 12.0405C154.798 10.149 151.452 11.6525 151.426 16.3138C151.391 22.4669 157.424 22.2817 158.546 20.4615C159.988 21.4458 157.262 21.3813 162.389 21.3719L162.365 7.14014L158.706 7.21255L158.63 12.0405Z" fill="#FE922A"/>
<path fill-rule="evenodd" clip-rule="evenodd" d="M116.518 16.8214C115.862 17.2117 115.497 19.9912 112.199 18.8977C109.435 17.9814 109.303 11.2132 112.504 10.3325C115.497 9.50888 115.923 11.62 116.253 12.5513L119.934 12.5442C119.766 6.0441 106.383 5.2941 106.324 14.5873C106.266 23.9184 119.387 23.4336 119.93 16.8364L116.518 16.8211L116.518 16.8214Z" fill="#FE922A"/>
<path fill-rule="evenodd" clip-rule="evenodd" d="M139.493 11.3599C139.432 13.3867 139.143 18.4643 139.923 19.9178C140.953 21.8375 144.547 22.2131 146.198 20.5235C147.014 20.9804 145.83 21.9246 150.136 21.2891L150.128 11.3828L146.454 11.3737C146.409 12.9505 146.849 17.5391 146.189 18.4872C145.571 19.3235 144.436 19.3803 143.515 18.8128C142.767 17.5962 143.151 13.1498 143.149 11.4014L139.493 11.3602L139.493 11.3599Z" fill="#FE922A"/>
<path fill-rule="evenodd" clip-rule="evenodd" d="M131.664 13.8176C134.865 12.151 135.322 18.2723 133.279 19.0143C130.051 20.1867 129.513 14.9373 131.664 13.8176ZM126.772 17.0684C127.294 23.3654 138.98 23.4334 138.112 15.5766C137.433 9.4306 126.133 9.35966 126.772 17.0684Z" fill="#FE922A"/>
<path fill-rule="evenodd" clip-rule="evenodd" d="M23.5091 12.0665L23.7004 8.68471L20.6836 8.75771L19.7876 9.80618C19.3953 9.17657 19.7553 9.38143 19.4032 8.67323L15.8875 8.59229L15.8828 22.5368L19.5854 22.5179C19.7102 12.3052 18.5181 11.9714 23.5091 12.0665Z" fill="#FE922A"/>
<path fill-rule="evenodd" clip-rule="evenodd" d="M121.523 21.3641L125.236 21.3647L125.208 7.16972L124.205 7.15795L122.471 7.14941L121.529 7.20063L121.523 21.3641Z" fill="#FE922A"/>
<path fill-rule="evenodd" clip-rule="evenodd" d="M68.4585 3.38996C66.0985 4.72336 68.2295 7.95119 70.6638 6.63898C72.814 5.47984 71.1112 1.89143 68.4585 3.38996Z" fill="#FE922A"/>
</svg>
