<svg width="208" height="29" viewBox="0 0 208 29" fill="none" xmlns="http://www.w3.org/2000/svg">
<path fill-rule="evenodd" clip-rule="evenodd" d="M58.771 18.8664C59.3529 17.5297 60.9928 17.1415 62.6706 16.741L62.5585 18.9334C61.0443 20.1572 59.8922 21.049 58.771 18.8664ZM43.0719 16.5428C43.011 13.8904 45.2568 13.5812 46.8421 14.6163C46.3979 15.4426 47.1156 14.9078 45.9616 15.5419L43.0719 16.5428ZM49.9297 10.0269C51.1761 8.47732 51.6974 7.19063 53.3057 6.10178C58.56 2.54447 64.6637 4.92867 66.788 11.4878C68.614 11.3975 69.2933 11.7304 70.4043 12.4077C70.164 7.64498 65.7435 3.02364 62.0673 1.6621C55.7715 -0.66945 51.6094 2.88109 48.6633 5.43266C45.7194 4.6022 43.02 4.47432 40.4004 6.16948C36.7133 8.55631 38.4592 9.42552 35.3036 11.2015C30.1565 14.0988 30.4528 23.7221 37.2109 22.3289C38.1189 22.1416 40.4989 21.1923 41.1184 21.1701C42.2065 21.1314 43.0558 22.3128 44.3481 22.8724C46.8515 23.9568 49.9793 23.6055 52.0811 22.2793C55.4503 20.1531 53.7709 18.4749 54.9693 15.0259C55.7222 12.8587 58.7233 10.848 60.596 13.4846C58.5871 14.737 56.5775 14.9593 55.5725 16.9159C53.4501 21.0471 59.5579 26.007 64.1875 22.3598C66.1711 20.797 66.0346 18.9804 66.2351 15.8669C68.816 15.5039 69.5562 17.1991 69.3087 19.8127C69.109 21.925 68.0352 23.2538 66.5954 24.1388C63.9772 25.7478 56.9454 25.1145 53.411 25.1145C48.6625 25.1145 43.911 25.0972 39.1633 25.116C36.98 25.1246 34.6563 25.4202 33.6352 23.4663C32.1751 20.6718 32.8295 23.5227 31.07 19.2993C27.2908 25.8381 33.0195 28.7248 39.1648 28.703C45.7059 28.68 52.2511 28.6996 58.7925 28.7007C65.6073 28.7015 70.343 28.0057 72.28 22.5463C73.2688 19.7601 73.0571 16.5981 71.4778 14.4155C69.8642 12.1858 67.8877 12.167 64.4624 12.5398C63.1129 9.53572 57.6393 6.57606 53.4245 10.965C51.7614 12.6974 51.3796 14.1349 51.1144 17.2762C50.9151 19.6367 47.8603 20.9031 45.8473 19.499C47.4582 18.4076 50.0797 18.063 50.4946 15.9293C50.9681 13.4951 48.9119 11.5596 47.468 10.877C42.8696 8.70225 38.9425 12.8542 39.6989 17.8328C38.727 18.1443 37.3076 18.8337 36.3161 18.7931L35.5654 18.5986C34.8436 16.5266 35.8403 14.7382 37.2636 14.1134C38.5548 13.5466 38.9587 13.9972 39.5872 12.9433C40.0194 12.2186 39.8798 11.7947 40.5918 10.7961C44.0641 5.92651 48.8927 9.74409 49.9297 10.0262V10.0269Z" fill="white"/>
<path fill-rule="evenodd" clip-rule="evenodd" d="M114.368 19.357C114.23 16.7114 115.885 14.3114 119.091 15.2686C120.244 15.6127 120.506 15.9245 120.873 16.6975L114.368 19.3566V19.357ZM109.005 10.935L104.087 10.9286L100.743 22.6123L97.444 10.9165L92.6094 10.8917C93.831 15.5447 96.3826 21.9702 97.9442 26.9169C98.6633 29.1951 98.2963 28.7283 103.077 28.6467L104.857 24.1472L106.35 27.4589L111.689 25.3756C114.563 27.2896 117.444 29.593 122.547 28.4597C126.088 27.6733 129.552 24.8009 130.86 22.5957C130.221 21.8612 128.031 20.5132 127.104 20.1525C126.096 21.4136 124.844 22.8793 122.809 23.6643C121.037 24.3477 118.266 24.4312 116.87 23.3006C119.224 21.7081 123.071 21.4478 124.636 19.1599C129.974 11.3506 109.09 3.78162 109.904 21.2225L104.96 23.0614L109.005 10.9346L109.005 10.935Z" fill="white"/>
<path fill-rule="evenodd" clip-rule="evenodd" d="M0.343837 8.42188L0.335938 28.6088C5.68582 29.1478 5.12014 28.9424 8.14525 23.9092L8.91441 22.7707C9.28187 22.3732 9.09795 22.55 9.43194 22.3209L13.5854 28.6224L19.425 28.5829L12.6034 17.3043C13.1935 15.8186 15.0135 13.4333 16.0245 11.8502C16.9881 10.3412 18.9507 7.65762 19.5645 6.1949L13.2217 6.19754C12.0313 8.91723 6.51027 16.124 5.1901 18.6835L5.08592 6.15503L0.34647 6.18851L0.344213 8.42188H0.343837Z" fill="white"/>
<path fill-rule="evenodd" clip-rule="evenodd" d="M73.9983 14.3402L76.4784 14.4207L76.4949 28.7113L81.2272 28.6338L81.2295 14.3493L86.3078 14.4158L86.3266 28.7019L91.0657 28.6474L91.0676 10.8943L81.2566 10.8732L81.2163 6.53396L76.4983 6.50537L76.422 10.8623L73.8828 10.8856L73.9983 14.3402Z" fill="white"/>
<path fill-rule="evenodd" clip-rule="evenodd" d="M202.496 23.5958C199.334 25.5291 197.626 23.5996 198.1 19.8192C198.549 16.2401 202.618 16.5113 202.618 19.4943L202.639 22.3456L202.496 23.5958ZM202.534 15.2994C197.637 12.8825 193.362 14.8037 193.328 20.7599C193.284 28.6222 200.993 28.3857 202.426 26.0598C204.269 27.3175 200.786 27.2351 207.337 27.2231L207.306 9.03784L202.63 9.13037L202.534 15.2994Z" fill="white"/>
<path fill-rule="evenodd" clip-rule="evenodd" d="M148.721 21.4084C147.882 21.9072 147.416 25.4588 143.202 24.0616C139.671 22.8907 139.502 14.2423 143.592 13.1169C147.417 12.0646 147.96 14.7621 148.382 15.9521L153.086 15.9431C152.871 7.63731 135.77 6.67896 135.696 18.5537C135.62 30.477 152.386 29.8575 153.081 21.4276L148.721 21.4081L148.721 21.4084Z" fill="white"/>
<path fill-rule="evenodd" clip-rule="evenodd" d="M178.077 14.4299C177.999 17.0199 177.629 23.5079 178.626 25.3651C179.942 27.8182 184.534 28.2981 186.644 26.1392C187.686 26.7229 186.173 27.9295 191.676 27.1175L191.666 14.4593L186.97 14.4476C186.914 16.4625 187.475 22.3257 186.633 23.5372C185.843 24.6058 184.393 24.6784 183.215 23.9532C182.26 22.3987 182.751 16.7171 182.747 14.483L178.076 14.4303L178.077 14.4299Z" fill="white"/>
<path fill-rule="evenodd" clip-rule="evenodd" d="M168.073 17.5703C172.163 15.4407 172.747 23.2624 170.136 24.2106C166.012 25.7087 165.325 19.001 168.073 17.5703ZM161.822 21.7241C162.49 29.7704 177.421 29.8573 176.312 19.8179C175.445 11.9646 161.006 11.874 161.822 21.7241Z" fill="white"/>
<path fill-rule="evenodd" clip-rule="evenodd" d="M29.8698 15.3329L30.1143 11.0117L26.2595 11.1049L25.1146 12.4447C24.6132 11.6401 25.0732 11.9019 24.6234 10.997L20.131 10.8936L20.125 28.7117L24.8562 28.6876C25.0156 15.6379 23.4924 15.2114 29.8698 15.3329Z" fill="white"/>
<path fill-rule="evenodd" clip-rule="evenodd" d="M155.117 27.213L159.861 27.2137L159.825 9.07551L158.544 9.06047L156.328 9.04956L155.124 9.115L155.117 27.213Z" fill="white"/>
<path fill-rule="evenodd" clip-rule="evenodd" d="M87.3097 4.24612C84.294 5.94993 87.0171 10.0744 90.1275 8.39769C92.8751 6.91654 90.6992 2.33131 87.3097 4.24612Z" fill="white"/>
</svg>
