<svg width="327" height="188" viewBox="0 0 327 188" fill="none" xmlns="http://www.w3.org/2000/svg">
<path fill-rule="evenodd" clip-rule="evenodd" d="M249.09 114.437C249.833 127.967 251.914 134.86 244.421 148.304C230.065 174.06 197.531 180.022 175.152 163.031C170.528 159.52 167.969 154.994 164.729 152.791C148.984 188.689 110.162 193.414 86.7776 175.846C82.4305 172.579 79.0893 169.071 76.4545 165.484C72.3111 159.839 71.58 157.087 69.112 152.877C56.8312 153.623 49.4544 156.034 39.1852 146.749C36.0279 143.896 33.0547 140.115 31.2564 136.058C29.2988 131.647 29.23 129.297 28.8743 124.903L28.369 121.527C27.66 118.247 13.8459 117.899 4.37653 94.7012C-0.834137 81.9371 1.32227 65.6355 8.54944 53.6C18.718 36.6654 39.9187 28.0964 59.7456 33.15C68.17 35.2966 71.5555 38.3557 77.6689 41.8221C88.7672 -0.260404 138.705 -11.9181 167.236 20.9256C170.57 24.7624 171.806 28.8372 175.135 33.9252C186.415 32.0043 193.821 27.1322 211.44 34.33C227.009 40.6863 230.281 50.5433 234.986 55.7515C245.202 55.0204 249.865 51.1223 261.793 58.3543C268.328 62.3187 273.414 69.043 275.469 76.8222C275.874 77.2392 279.466 71.4104 300.043 76.1598C310.305 78.5272 326.666 90.808 324.575 90.0622C303.951 82.6928 301.071 81.7213 283.28 89.444C274.189 93.3912 275.467 95.8322 270.146 102.873C264.739 110.004 259.58 112.313 249.092 114.435L249.09 114.437Z" fill="#454545" stroke="#616161" stroke-width="2.55544" stroke-miterlimit="22.9256" stroke-linecap="square"/>
<path d="M45.2041 72.4731H49.7227C50.6159 72.4731 51.3359 72.7261 51.8828 73.2319C52.4297 73.7332 52.7031 74.4396 52.7031 75.3511C52.7031 76.1349 52.4593 76.8185 51.9717 77.4019C51.484 77.9806 50.7344 78.27 49.7227 78.27H46.5645V82.5151H45.2041V72.4731ZM51.3291 75.3579C51.3291 74.6196 51.0557 74.1183 50.5088 73.854C50.208 73.7127 49.7956 73.6421 49.2715 73.6421H46.5645V77.1216H49.2715C49.8822 77.1216 50.3766 76.9917 50.7549 76.7319C51.1377 76.4722 51.3291 76.0142 51.3291 75.3579ZM54.5322 75.1938H55.7012V76.4585C55.7969 76.2124 56.0316 75.9139 56.4053 75.563C56.779 75.2075 57.2096 75.0298 57.6973 75.0298C57.7201 75.0298 57.7588 75.0321 57.8135 75.0366C57.8682 75.0412 57.9616 75.0503 58.0938 75.064V76.3628C58.0208 76.3491 57.9525 76.34 57.8887 76.3354C57.8294 76.3309 57.7633 76.3286 57.6904 76.3286C57.0706 76.3286 56.5944 76.5291 56.2617 76.9302C55.929 77.3267 55.7627 77.7847 55.7627 78.3042V82.5151H54.5322V75.1938ZM62.3154 81.7222C63.1312 81.7222 63.6895 81.4146 63.9902 80.7993C64.2956 80.1795 64.4482 79.4914 64.4482 78.7349C64.4482 78.0513 64.3389 77.4953 64.1201 77.0669C63.7738 76.3924 63.1768 76.0552 62.3291 76.0552C61.5771 76.0552 61.0303 76.3423 60.6885 76.9165C60.3467 77.4907 60.1758 78.1834 60.1758 78.9946C60.1758 79.7739 60.3467 80.4233 60.6885 80.9429C61.0303 81.4624 61.5726 81.7222 62.3154 81.7222ZM62.3633 74.9819C63.3066 74.9819 64.1042 75.2964 64.7559 75.9253C65.4076 76.5542 65.7334 77.4793 65.7334 78.7007C65.7334 79.881 65.4463 80.8563 64.8721 81.6265C64.2979 82.3966 63.4069 82.7817 62.1992 82.7817C61.1921 82.7817 60.3923 82.4422 59.7998 81.7632C59.2074 81.0796 58.9111 80.1636 58.9111 79.0151C58.9111 77.7847 59.2233 76.8049 59.8477 76.0757C60.472 75.3465 61.3105 74.9819 62.3633 74.9819ZM68.6836 73.895H67.4531V72.4731H68.6836V73.895ZM66.291 84.3677C66.8424 84.3494 67.1729 84.2993 67.2822 84.2173C67.3962 84.1398 67.4531 83.8914 67.4531 83.4722V75.228H68.6836V83.6021C68.6836 84.1353 68.597 84.534 68.4238 84.7983C68.1367 85.245 67.5921 85.4683 66.79 85.4683C66.7308 85.4683 66.667 85.466 66.5986 85.4614C66.5348 85.4569 66.4323 85.4478 66.291 85.4341V84.3677ZM73.8691 75.0298C74.3887 75.0298 74.8923 75.1528 75.3799 75.3989C75.8675 75.6405 76.2389 75.9549 76.4941 76.3423C76.7402 76.7114 76.9043 77.1421 76.9863 77.6343C77.0592 77.9715 77.0957 78.5093 77.0957 79.2476H71.7295C71.7523 79.9904 71.9277 80.5874 72.2559 81.0386C72.584 81.4852 73.0921 81.7085 73.7803 81.7085C74.4229 81.7085 74.9355 81.4966 75.3184 81.0728C75.5371 80.8267 75.6921 80.5418 75.7832 80.2183H76.9932C76.9613 80.4871 76.8542 80.7879 76.6719 81.1206C76.4941 81.4487 76.2936 81.7176 76.0703 81.9272C75.6966 82.2918 75.234 82.5379 74.6826 82.6655C74.3864 82.7384 74.0514 82.7749 73.6777 82.7749C72.7663 82.7749 71.9938 82.4445 71.3604 81.7837C70.7269 81.1183 70.4102 80.1886 70.4102 78.9946C70.4102 77.8188 70.7292 76.8641 71.3672 76.1304C72.0052 75.3966 72.8392 75.0298 73.8691 75.0298ZM75.8311 78.27C75.7809 77.7368 75.6647 77.3107 75.4824 76.9917C75.1452 76.3993 74.5824 76.103 73.7939 76.103C73.2288 76.103 72.7549 76.3081 72.3721 76.7183C71.9893 77.1239 71.7865 77.6411 71.7637 78.27H75.8311ZM81.6865 74.9819C82.5114 74.9819 83.1813 75.1825 83.6963 75.5835C84.2158 75.9845 84.528 76.675 84.6328 77.6548H83.4365C83.3636 77.2036 83.1973 76.8299 82.9375 76.5337C82.6777 76.2329 82.2607 76.0825 81.6865 76.0825C80.9027 76.0825 80.3421 76.4653 80.0049 77.231C79.7861 77.7277 79.6768 78.3407 79.6768 79.0698C79.6768 79.8035 79.8317 80.4211 80.1416 80.9224C80.4515 81.4237 80.9391 81.6743 81.6045 81.6743C82.1149 81.6743 82.5182 81.5194 82.8145 81.2095C83.1152 80.895 83.3226 80.4666 83.4365 79.9243H84.6328C84.4961 80.895 84.1543 81.606 83.6074 82.0571C83.0605 82.5037 82.361 82.7271 81.5088 82.7271C80.5518 82.7271 79.7884 82.3784 79.2188 81.6812C78.6491 80.9793 78.3643 80.1043 78.3643 79.0562C78.3643 77.771 78.6764 76.7707 79.3008 76.0552C79.9251 75.3397 80.7204 74.9819 81.6865 74.9819ZM86.3594 73.1499H87.6035V75.1938H88.7725V76.1987H87.6035V80.9771C87.6035 81.2323 87.6901 81.4032 87.8633 81.4897C87.959 81.5399 88.1185 81.5649 88.3418 81.5649C88.401 81.5649 88.4648 81.5649 88.5332 81.5649C88.6016 81.5604 88.6813 81.5535 88.7725 81.5444V82.5151C88.6312 82.5562 88.4831 82.5858 88.3281 82.604C88.1777 82.6222 88.0137 82.6313 87.8359 82.6313C87.2617 82.6313 86.8721 82.4855 86.667 82.1938C86.4619 81.8976 86.3594 81.5148 86.3594 81.0454V76.1987H85.3682V75.1938H86.3594V73.1499ZM92.543 72.4731H93.582L90.3965 82.5151H89.3574L92.543 72.4731ZM98.4258 81.353C98.8861 81.353 99.2643 81.3052 99.5605 81.2095C100.089 81.0317 100.522 80.6899 100.859 80.1841C101.128 79.7785 101.322 79.259 101.44 78.6255C101.509 78.2472 101.543 77.8963 101.543 77.5728C101.543 76.3286 101.295 75.3625 100.798 74.6743C100.306 73.9862 99.5104 73.6421 98.4121 73.6421H95.999V81.353H98.4258ZM94.6318 72.4731H98.6992C100.08 72.4731 101.151 72.9631 101.912 73.9429C102.591 74.827 102.931 75.9595 102.931 77.3403C102.931 78.4067 102.73 79.3706 102.329 80.2319C101.623 81.7541 100.408 82.5151 98.6855 82.5151H94.6318V72.4731ZM107.822 75.0298C108.342 75.0298 108.845 75.1528 109.333 75.3989C109.821 75.6405 110.192 75.9549 110.447 76.3423C110.693 76.7114 110.857 77.1421 110.939 77.6343C111.012 77.9715 111.049 78.5093 111.049 79.2476H105.683C105.705 79.9904 105.881 80.5874 106.209 81.0386C106.537 81.4852 107.045 81.7085 107.733 81.7085C108.376 81.7085 108.889 81.4966 109.271 81.0728C109.49 80.8267 109.645 80.5418 109.736 80.2183H110.946C110.914 80.4871 110.807 80.7879 110.625 81.1206C110.447 81.4487 110.247 81.7176 110.023 81.9272C109.65 82.2918 109.187 82.5379 108.636 82.6655C108.34 82.7384 108.005 82.7749 107.631 82.7749C106.719 82.7749 105.947 82.4445 105.313 81.7837C104.68 81.1183 104.363 80.1886 104.363 78.9946C104.363 77.8188 104.682 76.8641 105.32 76.1304C105.958 75.3966 106.792 75.0298 107.822 75.0298ZM109.784 78.27C109.734 77.7368 109.618 77.3107 109.436 76.9917C109.098 76.3993 108.535 76.103 107.747 76.103C107.182 76.103 106.708 76.3081 106.325 76.7183C105.942 77.1239 105.74 77.6411 105.717 78.27H109.784ZM113.548 80.2183C113.584 80.6284 113.687 80.9429 113.855 81.1616C114.165 81.5581 114.703 81.7563 115.469 81.7563C115.924 81.7563 116.326 81.6584 116.672 81.4624C117.018 81.2619 117.191 80.9543 117.191 80.5396C117.191 80.2251 117.052 79.9858 116.774 79.8218C116.597 79.7215 116.246 79.6053 115.722 79.4731L114.744 79.2271C114.12 79.0721 113.66 78.8989 113.363 78.7075C112.835 78.3748 112.57 77.9146 112.57 77.3267C112.57 76.634 112.819 76.0734 113.315 75.645C113.817 75.2166 114.489 75.0024 115.332 75.0024C116.435 75.0024 117.23 75.326 117.718 75.9731C118.023 76.3833 118.171 76.8254 118.162 77.2993H117C116.977 77.0213 116.879 76.7684 116.706 76.5405C116.424 76.217 115.934 76.0552 115.236 76.0552C114.771 76.0552 114.418 76.144 114.177 76.3218C113.94 76.4995 113.821 76.7342 113.821 77.0259C113.821 77.3449 113.979 77.6001 114.293 77.7915C114.475 77.9054 114.744 78.0057 115.1 78.0923L115.913 78.2905C116.797 78.5047 117.39 78.7121 117.69 78.9126C118.169 79.2271 118.408 79.7215 118.408 80.396C118.408 81.0477 118.16 81.6105 117.663 82.0845C117.171 82.5584 116.419 82.7954 115.407 82.7954C114.318 82.7954 113.546 82.5493 113.09 82.0571C112.639 81.5604 112.397 80.9474 112.365 80.2183H113.548ZM120.066 75.228H121.317V82.5151H120.066V75.228ZM120.066 72.4731H121.317V73.8677H120.066V72.4731ZM126.018 75.064C126.592 75.064 127.093 75.2052 127.521 75.4878C127.754 75.6473 127.991 75.8797 128.232 76.1851V75.2622H129.367V81.9204C129.367 82.8501 129.23 83.5838 128.957 84.1216C128.447 85.1151 127.483 85.6118 126.065 85.6118C125.277 85.6118 124.614 85.4341 124.076 85.0786C123.538 84.7277 123.238 84.1763 123.174 83.4243H124.425C124.484 83.7524 124.603 84.0054 124.78 84.1831C125.058 84.4565 125.496 84.5933 126.093 84.5933C127.036 84.5933 127.654 84.2606 127.945 83.5952C128.118 83.2033 128.198 82.5037 128.185 81.4966C127.938 81.8703 127.642 82.1483 127.296 82.3306C126.95 82.5129 126.492 82.604 125.922 82.604C125.129 82.604 124.434 82.3237 123.837 81.7632C123.244 81.1981 122.948 80.2661 122.948 78.9673C122.948 77.7414 123.247 76.7843 123.844 76.0962C124.445 75.408 125.17 75.064 126.018 75.064ZM128.232 78.8237C128.232 77.9168 128.046 77.2446 127.672 76.8071C127.298 76.3696 126.822 76.1509 126.243 76.1509C125.377 76.1509 124.785 76.5565 124.466 77.3677C124.297 77.8006 124.213 78.368 124.213 79.0698C124.213 79.8947 124.379 80.5236 124.712 80.9565C125.049 81.3849 125.5 81.5991 126.065 81.5991C126.95 81.5991 127.572 81.2004 127.932 80.4028C128.132 79.9517 128.232 79.4253 128.232 78.8237ZM131.477 75.1938H132.646V76.2329C132.992 75.8045 133.359 75.4969 133.746 75.3101C134.133 75.1232 134.564 75.0298 135.038 75.0298C136.077 75.0298 136.779 75.3921 137.144 76.1167C137.344 76.5132 137.444 77.0806 137.444 77.8188V82.5151H136.193V77.9009C136.193 77.4543 136.127 77.0942 135.995 76.8208C135.776 76.3651 135.38 76.1372 134.806 76.1372C134.514 76.1372 134.275 76.1668 134.088 76.2261C133.751 76.3263 133.454 76.5269 133.199 76.8276C132.994 77.0692 132.86 77.3198 132.796 77.5796C132.737 77.8348 132.707 78.2017 132.707 78.6802V82.5151H131.477V75.1938ZM144.233 75.1938L145.642 80.9634L147.07 75.1938H148.451L149.887 80.9292L151.384 75.1938H152.614L150.488 82.5151H149.21L147.72 76.8481L146.277 82.5151H144.999L142.887 75.1938H144.233ZM154.033 75.228H155.284V82.5151H154.033V75.228ZM154.033 72.4731H155.284V73.8677H154.033V72.4731ZM157.435 72.4731H158.665V82.5151H157.435V72.4731ZM160.802 72.4731H162.032V82.5151H160.802V72.4731ZM168.186 72.439H169.382V76.0825C169.651 75.7316 169.972 75.465 170.346 75.2827C170.719 75.0959 171.125 75.0024 171.562 75.0024C172.474 75.0024 173.212 75.3169 173.777 75.9458C174.347 76.5701 174.632 77.493 174.632 78.7144C174.632 79.8719 174.352 80.8335 173.791 81.5991C173.23 82.3647 172.453 82.7476 171.46 82.7476C170.904 82.7476 170.435 82.6131 170.052 82.3442C169.824 82.1847 169.58 81.9295 169.32 81.5786V82.5151H168.186V72.439ZM171.385 81.6606C172.05 81.6606 172.547 81.3963 172.875 80.8677C173.208 80.339 173.374 79.6418 173.374 78.7759C173.374 78.0057 173.208 77.3677 172.875 76.8618C172.547 76.356 172.062 76.103 171.419 76.103C170.858 76.103 170.366 76.3104 169.942 76.7251C169.523 77.1398 169.313 77.8234 169.313 78.7759C169.313 79.464 169.4 80.0223 169.573 80.4507C169.897 81.2573 170.501 81.6606 171.385 81.6606ZM179.373 75.0298C179.893 75.0298 180.396 75.1528 180.884 75.3989C181.371 75.6405 181.743 75.9549 181.998 76.3423C182.244 76.7114 182.408 77.1421 182.49 77.6343C182.563 77.9715 182.6 78.5093 182.6 79.2476H177.233C177.256 79.9904 177.432 80.5874 177.76 81.0386C178.088 81.4852 178.596 81.7085 179.284 81.7085C179.927 81.7085 180.439 81.4966 180.822 81.0728C181.041 80.8267 181.196 80.5418 181.287 80.2183H182.497C182.465 80.4871 182.358 80.7879 182.176 81.1206C181.998 81.4487 181.798 81.7176 181.574 81.9272C181.201 82.2918 180.738 82.5379 180.187 82.6655C179.89 82.7384 179.555 82.7749 179.182 82.7749C178.27 82.7749 177.498 82.4445 176.864 81.7837C176.231 81.1183 175.914 80.1886 175.914 78.9946C175.914 77.8188 176.233 76.8641 176.871 76.1304C177.509 75.3966 178.343 75.0298 179.373 75.0298ZM181.335 78.27C181.285 77.7368 181.169 77.3107 180.986 76.9917C180.649 76.3993 180.086 76.103 179.298 76.103C178.733 76.103 178.259 76.3081 177.876 76.7183C177.493 77.1239 177.29 77.6411 177.268 78.27H181.335ZM188.548 75.1938H189.717V76.4585C189.812 76.2124 190.047 75.9139 190.421 75.563C190.795 75.2075 191.225 75.0298 191.713 75.0298C191.736 75.0298 191.774 75.0321 191.829 75.0366C191.884 75.0412 191.977 75.0503 192.109 75.064V76.3628C192.036 76.3491 191.968 76.34 191.904 76.3354C191.845 76.3309 191.779 76.3286 191.706 76.3286C191.086 76.3286 190.61 76.5291 190.277 76.9302C189.945 77.3267 189.778 77.7847 189.778 78.3042V82.5151H188.548V75.1938ZM196.475 75.0298C196.994 75.0298 197.498 75.1528 197.985 75.3989C198.473 75.6405 198.844 75.9549 199.1 76.3423C199.346 76.7114 199.51 77.1421 199.592 77.6343C199.665 77.9715 199.701 78.5093 199.701 79.2476H194.335C194.358 79.9904 194.533 80.5874 194.861 81.0386C195.189 81.4852 195.698 81.7085 196.386 81.7085C197.028 81.7085 197.541 81.4966 197.924 81.0728C198.143 80.8267 198.298 80.5418 198.389 80.2183H199.599C199.567 80.4871 199.46 80.7879 199.277 81.1206C199.1 81.4487 198.899 81.7176 198.676 81.9272C198.302 82.2918 197.84 82.5379 197.288 82.6655C196.992 82.7384 196.657 82.7749 196.283 82.7749C195.372 82.7749 194.599 82.4445 193.966 81.7837C193.332 81.1183 193.016 80.1886 193.016 78.9946C193.016 77.8188 193.335 76.8641 193.973 76.1304C194.611 75.3966 195.445 75.0298 196.475 75.0298ZM198.437 78.27C198.386 77.7368 198.27 77.3107 198.088 76.9917C197.751 76.3993 197.188 76.103 196.399 76.103C195.834 76.103 195.36 76.3081 194.978 76.7183C194.595 77.1239 194.392 77.6411 194.369 78.27H198.437ZM202.07 75.1938L204.025 81.1548L206.069 75.1938H207.416L204.654 82.5151H203.342L200.642 75.1938H202.07ZM208.719 75.228H209.97V82.5151H208.719V75.228ZM208.719 72.4731H209.97V73.8677H208.719V72.4731ZM215.135 75.0298C215.654 75.0298 216.158 75.1528 216.646 75.3989C217.133 75.6405 217.505 75.9549 217.76 76.3423C218.006 76.7114 218.17 77.1421 218.252 77.6343C218.325 77.9715 218.361 78.5093 218.361 79.2476H212.995C213.018 79.9904 213.193 80.5874 213.521 81.0386C213.85 81.4852 214.358 81.7085 215.046 81.7085C215.688 81.7085 216.201 81.4966 216.584 81.0728C216.803 80.8267 216.958 80.5418 217.049 80.2183H218.259C218.227 80.4871 218.12 80.7879 217.938 81.1206C217.76 81.4487 217.559 81.7176 217.336 81.9272C216.962 82.2918 216.5 82.5379 215.948 82.6655C215.652 82.7384 215.317 82.7749 214.943 82.7749C214.032 82.7749 213.259 82.4445 212.626 81.7837C211.993 81.1183 211.676 80.1886 211.676 78.9946C211.676 77.8188 211.995 76.8641 212.633 76.1304C213.271 75.3966 214.105 75.0298 215.135 75.0298ZM217.097 78.27C217.047 77.7368 216.93 77.3107 216.748 76.9917C216.411 76.3993 215.848 76.103 215.06 76.103C214.494 76.103 214.021 76.3081 213.638 76.7183C213.255 77.1239 213.052 77.6411 213.029 78.27H217.097ZM220.696 75.1938L222.104 80.9634L223.533 75.1938H224.914L226.35 80.9292L227.847 75.1938H229.077L226.951 82.5151H225.673L224.183 76.8481L222.74 82.5151H221.462L219.35 75.1938H220.696ZM233.545 75.0298C234.064 75.0298 234.568 75.1528 235.056 75.3989C235.543 75.6405 235.915 75.9549 236.17 76.3423C236.416 76.7114 236.58 77.1421 236.662 77.6343C236.735 77.9715 236.771 78.5093 236.771 79.2476H231.405C231.428 79.9904 231.604 80.5874 231.932 81.0386C232.26 81.4852 232.768 81.7085 233.456 81.7085C234.099 81.7085 234.611 81.4966 234.994 81.0728C235.213 80.8267 235.368 80.5418 235.459 80.2183H236.669C236.637 80.4871 236.53 80.7879 236.348 81.1206C236.17 81.4487 235.969 81.7176 235.746 81.9272C235.372 82.2918 234.91 82.5379 234.358 82.6655C234.062 82.7384 233.727 82.7749 233.354 82.7749C232.442 82.7749 231.67 82.4445 231.036 81.7837C230.403 81.1183 230.086 80.1886 230.086 78.9946C230.086 77.8188 230.405 76.8641 231.043 76.1304C231.681 75.3966 232.515 75.0298 233.545 75.0298ZM235.507 78.27C235.457 77.7368 235.34 77.3107 235.158 76.9917C234.821 76.3993 234.258 76.103 233.47 76.103C232.905 76.103 232.431 76.3081 232.048 76.7183C231.665 77.1239 231.462 77.6411 231.439 78.27H235.507ZM239.318 78.9399C239.318 79.7238 239.485 80.38 239.817 80.9087C240.15 81.4373 240.683 81.7017 241.417 81.7017C241.987 81.7017 242.454 81.4578 242.818 80.9702C243.188 80.478 243.372 79.7739 243.372 78.8579C243.372 77.9328 243.183 77.2492 242.805 76.8071C242.426 76.3605 241.959 76.1372 241.403 76.1372C240.784 76.1372 240.28 76.3742 239.893 76.8481C239.51 77.3221 239.318 78.0194 239.318 78.9399ZM241.171 75.064C241.731 75.064 242.201 75.1825 242.579 75.4194C242.798 75.5562 243.046 75.7954 243.324 76.1372V72.439H244.507V82.5151H243.399V81.4966C243.112 81.9478 242.773 82.2736 242.381 82.4741C241.989 82.6746 241.54 82.7749 241.034 82.7749C240.218 82.7749 239.512 82.4331 238.915 81.7495C238.318 81.0614 238.02 80.1476 238.02 79.0083C238.02 77.9419 238.291 77.019 238.833 76.2397C239.38 75.4559 240.159 75.064 241.171 75.064ZM45.1562 93.1499H46.4004V95.1938H47.5693V96.1987H46.4004V100.977C46.4004 101.232 46.487 101.403 46.6602 101.49C46.7559 101.54 46.9154 101.565 47.1387 101.565C47.1979 101.565 47.2617 101.565 47.3301 101.565C47.3984 101.56 47.4782 101.554 47.5693 101.544V102.515C47.4281 102.556 47.2799 102.586 47.125 102.604C46.9746 102.622 46.8105 102.631 46.6328 102.631C46.0586 102.631 45.6689 102.486 45.4639 102.194C45.2588 101.898 45.1562 101.515 45.1562 101.045V96.1987H44.165V95.1938H45.1562V93.1499ZM51.9619 101.722C52.7777 101.722 53.3359 101.415 53.6367 100.799C53.9421 100.18 54.0947 99.4914 54.0947 98.7349C54.0947 98.0513 53.9854 97.4953 53.7666 97.0669C53.4202 96.3924 52.8232 96.0552 51.9756 96.0552C51.2236 96.0552 50.6768 96.3423 50.335 96.9165C49.9932 97.4907 49.8223 98.1834 49.8223 98.9946C49.8223 99.7739 49.9932 100.423 50.335 100.943C50.6768 101.462 51.2191 101.722 51.9619 101.722ZM52.0098 94.9819C52.9531 94.9819 53.7507 95.2964 54.4023 95.9253C55.054 96.5542 55.3799 97.4793 55.3799 98.7007C55.3799 99.881 55.0928 100.856 54.5186 101.626C53.9443 102.397 53.0534 102.782 51.8457 102.782C50.8385 102.782 50.0387 102.442 49.4463 101.763C48.8538 101.08 48.5576 100.164 48.5576 99.0151C48.5576 97.7847 48.8698 96.8049 49.4941 96.0757C50.1185 95.3465 50.957 94.9819 52.0098 94.9819ZM64.2949 95.0298C64.8145 95.0298 65.318 95.1528 65.8057 95.3989C66.2933 95.6405 66.6647 95.9549 66.9199 96.3423C67.166 96.7114 67.3301 97.1421 67.4121 97.6343C67.485 97.9715 67.5215 98.5093 67.5215 99.2476H62.1553C62.1781 99.9904 62.3535 100.587 62.6816 101.039C63.0098 101.485 63.5179 101.708 64.2061 101.708C64.8486 101.708 65.3613 101.497 65.7441 101.073C65.9629 100.827 66.1178 100.542 66.209 100.218H67.4189C67.387 100.487 67.2799 100.788 67.0977 101.121C66.9199 101.449 66.7194 101.718 66.4961 101.927C66.1224 102.292 65.6598 102.538 65.1084 102.666C64.8122 102.738 64.4772 102.775 64.1035 102.775C63.1921 102.775 62.4196 102.444 61.7861 101.784C61.1527 101.118 60.8359 100.189 60.8359 98.9946C60.8359 97.8188 61.1549 96.8641 61.793 96.1304C62.431 95.3966 63.265 95.0298 64.2949 95.0298ZM66.2568 98.27C66.2067 97.7368 66.0905 97.3107 65.9082 96.9917C65.571 96.3993 65.0081 96.103 64.2197 96.103C63.6546 96.103 63.1807 96.3081 62.7979 96.7183C62.415 97.1239 62.2122 97.6411 62.1895 98.27H66.2568ZM69.2891 95.1938H70.458V96.2329C70.8044 95.8045 71.1712 95.4969 71.5586 95.3101C71.946 95.1232 72.3766 95.0298 72.8506 95.0298C73.8896 95.0298 74.5915 95.3921 74.9561 96.1167C75.1566 96.5132 75.2568 97.0806 75.2568 97.8188V102.515H74.0059V97.9009C74.0059 97.4543 73.9398 97.0942 73.8076 96.8208C73.5889 96.3651 73.1924 96.1372 72.6182 96.1372C72.3265 96.1372 72.0872 96.1668 71.9004 96.2261C71.5632 96.3263 71.2669 96.5269 71.0117 96.8276C70.8066 97.0692 70.6722 97.3198 70.6084 97.5796C70.5492 97.8348 70.5195 98.2017 70.5195 98.6802V102.515H69.2891V95.1938ZM78.0635 100.218C78.0999 100.628 78.2025 100.943 78.3711 101.162C78.681 101.558 79.2188 101.756 79.9844 101.756C80.4401 101.756 80.8411 101.658 81.1875 101.462C81.5339 101.262 81.707 100.954 81.707 100.54C81.707 100.225 81.568 99.9858 81.29 99.8218C81.1123 99.7215 80.7614 99.6053 80.2373 99.4731L79.2598 99.2271C78.6354 99.0721 78.1751 98.8989 77.8789 98.7075C77.3503 98.3748 77.0859 97.9146 77.0859 97.3267C77.0859 96.634 77.3343 96.0734 77.8311 95.645C78.3324 95.2166 79.0046 95.0024 79.8477 95.0024C80.9505 95.0024 81.7458 95.326 82.2334 95.9731C82.5387 96.3833 82.6868 96.8254 82.6777 97.2993H81.5156C81.4928 97.0213 81.3949 96.7684 81.2217 96.5405C80.9391 96.217 80.4492 96.0552 79.752 96.0552C79.2871 96.0552 78.9339 96.144 78.6924 96.3218C78.4554 96.4995 78.3369 96.7342 78.3369 97.0259C78.3369 97.3449 78.4941 97.6001 78.8086 97.7915C78.9909 97.9054 79.2598 98.0057 79.6152 98.0923L80.4287 98.2905C81.3128 98.5047 81.9053 98.7121 82.2061 98.9126C82.6846 99.2271 82.9238 99.7215 82.9238 100.396C82.9238 101.048 82.6755 101.611 82.1787 102.084C81.6865 102.558 80.9346 102.795 79.9229 102.795C78.8337 102.795 78.0612 102.549 77.6055 102.057C77.1543 101.56 76.9128 100.947 76.8809 100.218H78.0635ZM85.8125 95.1938V100.054C85.8125 100.428 85.8717 100.733 85.9902 100.97C86.209 101.408 86.6169 101.626 87.2139 101.626C88.0706 101.626 88.654 101.244 88.9639 100.478C89.1325 100.068 89.2168 99.505 89.2168 98.7896V95.1938H90.4473V102.515H89.2852L89.2988 101.435C89.1393 101.713 88.9411 101.948 88.7041 102.139C88.2347 102.522 87.665 102.713 86.9951 102.713C85.9515 102.713 85.2406 102.365 84.8623 101.667C84.6572 101.294 84.5547 100.795 84.5547 100.17V95.1938H85.8125ZM92.6592 95.1938H93.8281V96.4585C93.9238 96.2124 94.1585 95.9139 94.5322 95.563C94.9059 95.2075 95.3366 95.0298 95.8242 95.0298C95.847 95.0298 95.8857 95.0321 95.9404 95.0366C95.9951 95.0412 96.0885 95.0503 96.2207 95.064V96.3628C96.1478 96.3491 96.0794 96.34 96.0156 96.3354C95.9564 96.3309 95.8903 96.3286 95.8174 96.3286C95.1976 96.3286 94.7214 96.5291 94.3887 96.9302C94.056 97.3267 93.8896 97.7847 93.8896 98.3042V102.515H92.6592V95.1938ZM100.586 95.0298C101.105 95.0298 101.609 95.1528 102.097 95.3989C102.584 95.6405 102.956 95.9549 103.211 96.3423C103.457 96.7114 103.621 97.1421 103.703 97.6343C103.776 97.9715 103.812 98.5093 103.812 99.2476H98.4463C98.4691 99.9904 98.6445 100.587 98.9727 101.039C99.3008 101.485 99.8089 101.708 100.497 101.708C101.14 101.708 101.652 101.497 102.035 101.073C102.254 100.827 102.409 100.542 102.5 100.218H103.71C103.678 100.487 103.571 100.788 103.389 101.121C103.211 101.449 103.01 101.718 102.787 101.927C102.413 102.292 101.951 102.538 101.399 102.666C101.103 102.738 100.768 102.775 100.395 102.775C99.4831 102.775 98.7106 102.444 98.0771 101.784C97.4437 101.118 97.127 100.189 97.127 98.9946C97.127 97.8188 97.446 96.8641 98.084 96.1304C98.722 95.3966 99.556 95.0298 100.586 95.0298ZM102.548 98.27C102.498 97.7368 102.382 97.3107 102.199 96.9917C101.862 96.3993 101.299 96.103 100.511 96.103C99.9456 96.103 99.4717 96.3081 99.0889 96.7183C98.7061 97.1239 98.5033 97.6411 98.4805 98.27H102.548ZM109.727 95.228H110.978V102.515H109.727V95.228ZM109.727 92.4731H110.978V93.8677H109.727V92.4731ZM113.34 93.1499H114.584V95.1938H115.753V96.1987H114.584V100.977C114.584 101.232 114.671 101.403 114.844 101.49C114.939 101.54 115.099 101.565 115.322 101.565C115.382 101.565 115.445 101.565 115.514 101.565C115.582 101.56 115.662 101.554 115.753 101.544V102.515C115.612 102.556 115.464 102.586 115.309 102.604C115.158 102.622 114.994 102.631 114.816 102.631C114.242 102.631 113.853 102.486 113.647 102.194C113.442 101.898 113.34 101.515 113.34 101.045V96.1987H112.349V95.1938H113.34V93.1499ZM118.648 92.4731L118.423 96.4927H117.63L117.404 92.4731H118.648ZM120.901 100.218C120.938 100.628 121.04 100.943 121.209 101.162C121.519 101.558 122.057 101.756 122.822 101.756C123.278 101.756 123.679 101.658 124.025 101.462C124.372 101.262 124.545 100.954 124.545 100.54C124.545 100.225 124.406 99.9858 124.128 99.8218C123.95 99.7215 123.599 99.6053 123.075 99.4731L122.098 99.2271C121.473 99.0721 121.013 98.8989 120.717 98.7075C120.188 98.3748 119.924 97.9146 119.924 97.3267C119.924 96.634 120.172 96.0734 120.669 95.645C121.17 95.2166 121.842 95.0024 122.686 95.0024C123.788 95.0024 124.584 95.326 125.071 95.9731C125.377 96.3833 125.525 96.8254 125.516 97.2993H124.354C124.331 97.0213 124.233 96.7684 124.06 96.5405C123.777 96.217 123.287 96.0552 122.59 96.0552C122.125 96.0552 121.772 96.144 121.53 96.3218C121.293 96.4995 121.175 96.7342 121.175 97.0259C121.175 97.3449 121.332 97.6001 121.646 97.7915C121.829 97.9054 122.098 98.0057 122.453 98.0923L123.267 98.2905C124.151 98.5047 124.743 98.7121 125.044 98.9126C125.522 99.2271 125.762 99.7215 125.762 100.396C125.762 101.048 125.513 101.611 125.017 102.084C124.524 102.558 123.772 102.795 122.761 102.795C121.672 102.795 120.899 102.549 120.443 102.057C119.992 101.56 119.751 100.947 119.719 100.218H120.901ZM131.812 93.1499H133.057V95.1938H134.226V96.1987H133.057V100.977C133.057 101.232 133.143 101.403 133.316 101.49C133.412 101.54 133.572 101.565 133.795 101.565C133.854 101.565 133.918 101.565 133.986 101.565C134.055 101.56 134.134 101.554 134.226 101.544V102.515C134.084 102.556 133.936 102.586 133.781 102.604C133.631 102.622 133.467 102.631 133.289 102.631C132.715 102.631 132.325 102.486 132.12 102.194C131.915 101.898 131.812 101.515 131.812 101.045V96.1987H130.821V95.1938H131.812V93.1499ZM136.656 100.567C136.656 100.922 136.786 101.203 137.046 101.408C137.306 101.613 137.613 101.715 137.969 101.715C138.402 101.715 138.821 101.615 139.227 101.415C139.91 101.082 140.252 100.537 140.252 99.7808V98.7896C140.102 98.8853 139.908 98.965 139.671 99.0288C139.434 99.0926 139.201 99.1382 138.974 99.1655L138.229 99.2612C137.782 99.3205 137.447 99.4139 137.224 99.5415C136.845 99.7557 136.656 100.097 136.656 100.567ZM139.637 98.0786C139.919 98.0422 140.108 97.9237 140.204 97.7231C140.259 97.6138 140.286 97.4565 140.286 97.2515C140.286 96.8322 140.136 96.5291 139.835 96.3423C139.539 96.1509 139.113 96.0552 138.557 96.0552C137.914 96.0552 137.458 96.2284 137.189 96.5747C137.039 96.7661 136.941 97.0509 136.896 97.4292H135.747C135.77 96.5269 136.062 95.9002 136.622 95.5493C137.187 95.1938 137.841 95.0161 138.584 95.0161C139.445 95.0161 140.145 95.1802 140.683 95.5083C141.216 95.8364 141.482 96.3468 141.482 97.0396V101.257C141.482 101.385 141.507 101.487 141.558 101.565C141.612 101.642 141.724 101.681 141.893 101.681C141.947 101.681 142.009 101.679 142.077 101.674C142.146 101.665 142.218 101.654 142.296 101.64V102.549C142.104 102.604 141.959 102.638 141.858 102.652C141.758 102.666 141.621 102.672 141.448 102.672C141.024 102.672 140.717 102.522 140.525 102.221C140.425 102.062 140.354 101.836 140.313 101.544C140.063 101.873 139.703 102.157 139.233 102.399C138.764 102.64 138.247 102.761 137.682 102.761C137.003 102.761 136.447 102.556 136.014 102.146C135.585 101.731 135.371 101.214 135.371 100.594C135.371 99.9152 135.583 99.3888 136.007 99.0151C136.431 98.6414 136.987 98.4113 137.675 98.3247L139.637 98.0786ZM143.756 95.228H145.007V102.515H143.756V95.228ZM143.756 92.4731H145.007V93.8677H143.756V92.4731ZM147.157 92.4731H148.388V102.515H147.157V92.4731ZM153.396 101.722C154.211 101.722 154.77 101.415 155.07 100.799C155.376 100.18 155.528 99.4914 155.528 98.7349C155.528 98.0513 155.419 97.4953 155.2 97.0669C154.854 96.3924 154.257 96.0552 153.409 96.0552C152.657 96.0552 152.11 96.3423 151.769 96.9165C151.427 97.4907 151.256 98.1834 151.256 98.9946C151.256 99.7739 151.427 100.423 151.769 100.943C152.11 101.462 152.653 101.722 153.396 101.722ZM153.443 94.9819C154.387 94.9819 155.184 95.2964 155.836 95.9253C156.488 96.5542 156.813 97.4793 156.813 98.7007C156.813 99.881 156.526 100.856 155.952 101.626C155.378 102.397 154.487 102.782 153.279 102.782C152.272 102.782 151.472 102.442 150.88 101.763C150.287 101.08 149.991 100.164 149.991 99.0151C149.991 97.7847 150.303 96.8049 150.928 96.0757C151.552 95.3465 152.391 94.9819 153.443 94.9819ZM158.567 95.1938H159.736V96.4585C159.832 96.2124 160.067 95.9139 160.44 95.563C160.814 95.2075 161.245 95.0298 161.732 95.0298C161.755 95.0298 161.794 95.0321 161.849 95.0366C161.903 95.0412 161.997 95.0503 162.129 95.064V96.3628C162.056 96.3491 161.988 96.34 161.924 96.3354C161.865 96.3309 161.799 96.3286 161.726 96.3286C161.106 96.3286 160.63 96.5291 160.297 96.9302C159.964 97.3267 159.798 97.7847 159.798 98.3042V102.515H158.567V95.1938ZM166.494 95.0298C167.014 95.0298 167.517 95.1528 168.005 95.3989C168.493 95.6405 168.864 95.9549 169.119 96.3423C169.365 96.7114 169.529 97.1421 169.611 97.6343C169.684 97.9715 169.721 98.5093 169.721 99.2476H164.354C164.377 99.9904 164.553 100.587 164.881 101.039C165.209 101.485 165.717 101.708 166.405 101.708C167.048 101.708 167.561 101.497 167.943 101.073C168.162 100.827 168.317 100.542 168.408 100.218H169.618C169.586 100.487 169.479 100.788 169.297 101.121C169.119 101.449 168.919 101.718 168.695 101.927C168.322 102.292 167.859 102.538 167.308 102.666C167.011 102.738 166.676 102.775 166.303 102.775C165.391 102.775 164.619 102.444 163.985 101.784C163.352 101.118 163.035 100.189 163.035 98.9946C163.035 97.8188 163.354 96.8641 163.992 96.1304C164.63 95.3966 165.464 95.0298 166.494 95.0298ZM168.456 98.27C168.406 97.7368 168.29 97.3107 168.107 96.9917C167.77 96.3993 167.207 96.103 166.419 96.103C165.854 96.103 165.38 96.3081 164.997 96.7183C164.614 97.1239 164.411 97.6411 164.389 98.27H168.456ZM172.268 98.9399C172.268 99.7238 172.434 100.38 172.767 100.909C173.099 101.437 173.632 101.702 174.366 101.702C174.936 101.702 175.403 101.458 175.768 100.97C176.137 100.478 176.321 99.7739 176.321 98.8579C176.321 97.9328 176.132 97.2492 175.754 96.8071C175.376 96.3605 174.909 96.1372 174.353 96.1372C173.733 96.1372 173.229 96.3742 172.842 96.8481C172.459 97.3221 172.268 98.0194 172.268 98.9399ZM174.12 95.064C174.681 95.064 175.15 95.1825 175.528 95.4194C175.747 95.5562 175.995 95.7954 176.273 96.1372V92.439H177.456V102.515H176.349V101.497C176.062 101.948 175.722 102.274 175.33 102.474C174.938 102.675 174.489 102.775 173.983 102.775C173.168 102.775 172.461 102.433 171.864 101.75C171.267 101.061 170.969 100.148 170.969 99.0083C170.969 97.9419 171.24 97.019 171.782 96.2397C172.329 95.4559 173.108 95.064 174.12 95.064ZM183.924 93.1499H185.168V95.1938H186.337V96.1987H185.168V100.977C185.168 101.232 185.255 101.403 185.428 101.49C185.523 101.54 185.683 101.565 185.906 101.565C185.965 101.565 186.029 101.565 186.098 101.565C186.166 101.56 186.246 101.554 186.337 101.544V102.515C186.196 102.556 186.048 102.586 185.893 102.604C185.742 102.622 185.578 102.631 185.4 102.631C184.826 102.631 184.437 102.486 184.231 102.194C184.026 101.898 183.924 101.515 183.924 101.045V96.1987H182.933V95.1938H183.924V93.1499ZM190.729 101.722C191.545 101.722 192.104 101.415 192.404 100.799C192.71 100.18 192.862 99.4914 192.862 98.7349C192.862 98.0513 192.753 97.4953 192.534 97.0669C192.188 96.3924 191.591 96.0552 190.743 96.0552C189.991 96.0552 189.444 96.3423 189.103 96.9165C188.761 97.4907 188.59 98.1834 188.59 98.9946C188.59 99.7739 188.761 100.423 189.103 100.943C189.444 101.462 189.987 101.722 190.729 101.722ZM190.777 94.9819C191.721 94.9819 192.518 95.2964 193.17 95.9253C193.822 96.5542 194.147 97.4793 194.147 98.7007C194.147 99.881 193.86 100.856 193.286 101.626C192.712 102.397 191.821 102.782 190.613 102.782C189.606 102.782 188.806 102.442 188.214 101.763C187.621 101.08 187.325 100.164 187.325 99.0151C187.325 97.7847 187.637 96.8049 188.262 96.0757C188.886 95.3465 189.725 94.9819 190.777 94.9819ZM204.587 95.1938H205.947C205.774 95.6632 205.389 96.7342 204.792 98.4067C204.345 99.6646 203.972 100.69 203.671 101.483C202.96 103.351 202.459 104.491 202.167 104.901C201.875 105.311 201.374 105.516 200.663 105.516C200.49 105.516 200.355 105.509 200.26 105.496C200.169 105.482 200.055 105.457 199.918 105.42V104.299C200.132 104.359 200.287 104.395 200.383 104.409C200.479 104.422 200.563 104.429 200.636 104.429C200.864 104.429 201.03 104.39 201.135 104.313C201.244 104.24 201.335 104.149 201.408 104.04C201.431 104.003 201.513 103.816 201.654 103.479C201.796 103.142 201.898 102.891 201.962 102.727L199.255 95.1938H200.649L202.611 101.155L204.587 95.1938ZM210.169 101.722C210.985 101.722 211.543 101.415 211.844 100.799C212.149 100.18 212.302 99.4914 212.302 98.7349C212.302 98.0513 212.192 97.4953 211.974 97.0669C211.627 96.3924 211.03 96.0552 210.183 96.0552C209.431 96.0552 208.884 96.3423 208.542 96.9165C208.2 97.4907 208.029 98.1834 208.029 98.9946C208.029 99.7739 208.2 100.423 208.542 100.943C208.884 101.462 209.426 101.722 210.169 101.722ZM210.217 94.9819C211.16 94.9819 211.958 95.2964 212.609 95.9253C213.261 96.5542 213.587 97.4793 213.587 98.7007C213.587 99.881 213.3 100.856 212.726 101.626C212.151 102.397 211.26 102.782 210.053 102.782C209.046 102.782 208.246 102.442 207.653 101.763C207.061 101.08 206.765 100.164 206.765 99.0151C206.765 97.7847 207.077 96.8049 207.701 96.0757C208.326 95.3465 209.164 94.9819 210.217 94.9819ZM216.537 95.1938V100.054C216.537 100.428 216.596 100.733 216.715 100.97C216.934 101.408 217.341 101.626 217.938 101.626C218.795 101.626 219.379 101.244 219.688 100.478C219.857 100.068 219.941 99.505 219.941 98.7896V95.1938H221.172V102.515H220.01L220.023 101.435C219.864 101.713 219.666 101.948 219.429 102.139C218.959 102.522 218.39 102.713 217.72 102.713C216.676 102.713 215.965 102.365 215.587 101.667C215.382 101.294 215.279 100.795 215.279 100.17V95.1938H216.537ZM223.384 95.1938H224.553V96.4585C224.648 96.2124 224.883 95.9139 225.257 95.563C225.631 95.2075 226.061 95.0298 226.549 95.0298C226.572 95.0298 226.61 95.0321 226.665 95.0366C226.72 95.0412 226.813 95.0503 226.945 95.064V96.3628C226.872 96.3491 226.804 96.34 226.74 96.3354C226.681 96.3309 226.615 96.3286 226.542 96.3286C225.922 96.3286 225.446 96.5291 225.113 96.9302C224.781 97.3267 224.614 97.7847 224.614 98.3042V102.515H223.384V95.1938ZM45.6895 118.94C45.6895 119.724 45.8558 120.38 46.1885 120.909C46.5212 121.437 47.0544 121.702 47.7881 121.702C48.3577 121.702 48.8249 121.458 49.1895 120.97C49.5586 120.478 49.7432 119.774 49.7432 118.858C49.7432 117.933 49.554 117.249 49.1758 116.807C48.7975 116.361 48.3304 116.137 47.7744 116.137C47.1546 116.137 46.651 116.374 46.2637 116.848C45.8809 117.322 45.6895 118.019 45.6895 118.94ZM47.542 115.064C48.1025 115.064 48.5719 115.182 48.9502 115.419C49.1689 115.556 49.4173 115.795 49.6953 116.137V112.439H50.8779V122.515H49.7705V121.497C49.4834 121.948 49.1439 122.274 48.752 122.474C48.36 122.675 47.9111 122.775 47.4053 122.775C46.5895 122.775 45.8831 122.433 45.2861 121.75C44.6891 121.061 44.3906 120.148 44.3906 119.008C44.3906 117.942 44.6618 117.019 45.2041 116.24C45.751 115.456 46.5303 115.064 47.542 115.064ZM56.002 115.03C56.5215 115.03 57.0251 115.153 57.5127 115.399C58.0003 115.64 58.3717 115.955 58.627 116.342C58.873 116.711 59.0371 117.142 59.1191 117.634C59.1921 117.972 59.2285 118.509 59.2285 119.248H53.8623C53.8851 119.99 54.0605 120.587 54.3887 121.039C54.7168 121.485 55.2249 121.708 55.9131 121.708C56.5557 121.708 57.0684 121.497 57.4512 121.073C57.6699 120.827 57.8249 120.542 57.916 120.218H59.126C59.0941 120.487 58.987 120.788 58.8047 121.121C58.627 121.449 58.4264 121.718 58.2031 121.927C57.8294 122.292 57.3669 122.538 56.8154 122.666C56.5192 122.738 56.1842 122.775 55.8105 122.775C54.8991 122.775 54.1266 122.444 53.4932 121.784C52.8597 121.118 52.543 120.189 52.543 118.995C52.543 117.819 52.862 116.864 53.5 116.13C54.138 115.397 54.972 115.03 56.002 115.03ZM57.9639 118.27C57.9137 117.737 57.7975 117.311 57.6152 116.992C57.278 116.399 56.7152 116.103 55.9268 116.103C55.3617 116.103 54.8877 116.308 54.5049 116.718C54.1221 117.124 53.9193 117.641 53.8965 118.27H57.9639ZM61.7275 120.218C61.764 120.628 61.8665 120.943 62.0352 121.162C62.3451 121.558 62.8828 121.756 63.6484 121.756C64.1042 121.756 64.5052 121.658 64.8516 121.462C65.1979 121.262 65.3711 120.954 65.3711 120.54C65.3711 120.225 65.2321 119.986 64.9541 119.822C64.7764 119.722 64.4255 119.605 63.9014 119.473L62.9238 119.227C62.2995 119.072 61.8392 118.899 61.543 118.708C61.0143 118.375 60.75 117.915 60.75 117.327C60.75 116.634 60.9984 116.073 61.4951 115.645C61.9964 115.217 62.6686 115.002 63.5117 115.002C64.6146 115.002 65.4098 115.326 65.8975 115.973C66.2028 116.383 66.3509 116.825 66.3418 117.299H65.1797C65.1569 117.021 65.0589 116.768 64.8857 116.541C64.6032 116.217 64.1133 116.055 63.416 116.055C62.9512 116.055 62.598 116.144 62.3564 116.322C62.1195 116.5 62.001 116.734 62.001 117.026C62.001 117.345 62.1582 117.6 62.4727 117.792C62.6549 117.905 62.9238 118.006 63.2793 118.092L64.0928 118.291C64.9769 118.505 65.5693 118.712 65.8701 118.913C66.3486 119.227 66.5879 119.722 66.5879 120.396C66.5879 121.048 66.3395 121.611 65.8428 122.084C65.3506 122.558 64.5986 122.795 63.5869 122.795C62.4977 122.795 61.7253 122.549 61.2695 122.057C60.8184 121.56 60.5768 120.947 60.5449 120.218H61.7275ZM68.2461 115.228H69.4971V122.515H68.2461V115.228ZM68.2461 112.473H69.4971V113.868H68.2461V112.473ZM71.6475 115.194H72.8164V116.458C72.9121 116.212 73.1468 115.914 73.5205 115.563C73.8942 115.208 74.3249 115.03 74.8125 115.03C74.8353 115.03 74.874 115.032 74.9287 115.037C74.9834 115.041 75.0768 115.05 75.209 115.064V116.363C75.1361 116.349 75.0677 116.34 75.0039 116.335C74.9447 116.331 74.8786 116.329 74.8057 116.329C74.1859 116.329 73.7096 116.529 73.377 116.93C73.0443 117.327 72.8779 117.785 72.8779 118.304V122.515H71.6475V115.194ZM79.5742 115.03C80.0938 115.03 80.5973 115.153 81.085 115.399C81.5726 115.64 81.944 115.955 82.1992 116.342C82.4453 116.711 82.6094 117.142 82.6914 117.634C82.7643 117.972 82.8008 118.509 82.8008 119.248H77.4346C77.4574 119.99 77.6328 120.587 77.9609 121.039C78.2891 121.485 78.7972 121.708 79.4854 121.708C80.1279 121.708 80.6406 121.497 81.0234 121.073C81.2422 120.827 81.3971 120.542 81.4883 120.218H82.6982C82.6663 120.487 82.5592 120.788 82.377 121.121C82.1992 121.449 81.9987 121.718 81.7754 121.927C81.4017 122.292 80.9391 122.538 80.3877 122.666C80.0915 122.738 79.7565 122.775 79.3828 122.775C78.4714 122.775 77.6989 122.444 77.0654 121.784C76.432 121.118 76.1152 120.189 76.1152 118.995C76.1152 117.819 76.4342 116.864 77.0723 116.13C77.7103 115.397 78.5443 115.03 79.5742 115.03ZM81.5361 118.27C81.486 117.737 81.3698 117.311 81.1875 116.992C80.8503 116.399 80.2874 116.103 79.499 116.103C78.9339 116.103 78.46 116.308 78.0771 116.718C77.6943 117.124 77.4915 117.641 77.4688 118.27H81.5361ZM85.3477 118.94C85.3477 119.724 85.514 120.38 85.8467 120.909C86.1794 121.437 86.7126 121.702 87.4463 121.702C88.016 121.702 88.4831 121.458 88.8477 120.97C89.2168 120.478 89.4014 119.774 89.4014 118.858C89.4014 117.933 89.2122 117.249 88.834 116.807C88.4557 116.361 87.9886 116.137 87.4326 116.137C86.8128 116.137 86.3092 116.374 85.9219 116.848C85.5391 117.322 85.3477 118.019 85.3477 118.94ZM87.2002 115.064C87.7607 115.064 88.2301 115.182 88.6084 115.419C88.8271 115.556 89.0755 115.795 89.3535 116.137V112.439H90.5361V122.515H89.4287V121.497C89.1416 121.948 88.8021 122.274 88.4102 122.474C88.0182 122.675 87.5693 122.775 87.0635 122.775C86.2477 122.775 85.5413 122.433 84.9443 121.75C84.3473 121.061 84.0488 120.148 84.0488 119.008C84.0488 117.942 84.32 117.019 84.8623 116.24C85.4092 115.456 86.1885 115.064 87.2002 115.064ZM96.7578 115.194H97.9268V116.233C98.2731 115.805 98.64 115.497 99.0273 115.31C99.4147 115.123 99.8454 115.03 100.319 115.03C101.358 115.03 102.06 115.392 102.425 116.117C102.625 116.513 102.726 117.081 102.726 117.819V122.515H101.475V117.901C101.475 117.454 101.409 117.094 101.276 116.821C101.058 116.365 100.661 116.137 100.087 116.137C99.7952 116.137 99.556 116.167 99.3691 116.226C99.0319 116.326 98.7357 116.527 98.4805 116.828C98.2754 117.069 98.141 117.32 98.0771 117.58C98.0179 117.835 97.9883 118.202 97.9883 118.68V122.515H96.7578V115.194ZM107.85 115.03C108.369 115.03 108.873 115.153 109.36 115.399C109.848 115.64 110.219 115.955 110.475 116.342C110.721 116.711 110.885 117.142 110.967 117.634C111.04 117.972 111.076 118.509 111.076 119.248H105.71C105.733 119.99 105.908 120.587 106.236 121.039C106.564 121.485 107.073 121.708 107.761 121.708C108.403 121.708 108.916 121.497 109.299 121.073C109.518 120.827 109.673 120.542 109.764 120.218H110.974C110.942 120.487 110.835 120.788 110.652 121.121C110.475 121.449 110.274 121.718 110.051 121.927C109.677 122.292 109.215 122.538 108.663 122.666C108.367 122.738 108.032 122.775 107.658 122.775C106.747 122.775 105.974 122.444 105.341 121.784C104.707 121.118 104.391 120.189 104.391 118.995C104.391 117.819 104.71 116.864 105.348 116.13C105.986 115.397 106.82 115.03 107.85 115.03ZM109.812 118.27C109.761 117.737 109.645 117.311 109.463 116.992C109.126 116.399 108.563 116.103 107.774 116.103C107.209 116.103 106.735 116.308 106.353 116.718C105.97 117.124 105.767 117.641 105.744 118.27H109.812ZM115.893 115.03C116.412 115.03 116.916 115.153 117.403 115.399C117.891 115.64 118.262 115.955 118.518 116.342C118.764 116.711 118.928 117.142 119.01 117.634C119.083 117.972 119.119 118.509 119.119 119.248H113.753C113.776 119.99 113.951 120.587 114.279 121.039C114.607 121.485 115.116 121.708 115.804 121.708C116.446 121.708 116.959 121.497 117.342 121.073C117.561 120.827 117.715 120.542 117.807 120.218H119.017C118.985 120.487 118.878 120.788 118.695 121.121C118.518 121.449 118.317 121.718 118.094 121.927C117.72 122.292 117.257 122.538 116.706 122.666C116.41 122.738 116.075 122.775 115.701 122.775C114.79 122.775 114.017 122.444 113.384 121.784C112.75 121.118 112.434 120.189 112.434 118.995C112.434 117.819 112.753 116.864 113.391 116.13C114.029 115.397 114.863 115.03 115.893 115.03ZM117.854 118.27C117.804 117.737 117.688 117.311 117.506 116.992C117.169 116.399 116.606 116.103 115.817 116.103C115.252 116.103 114.778 116.308 114.396 116.718C114.013 117.124 113.81 117.641 113.787 118.27H117.854ZM121.666 118.94C121.666 119.724 121.832 120.38 122.165 120.909C122.498 121.437 123.031 121.702 123.765 121.702C124.334 121.702 124.801 121.458 125.166 120.97C125.535 120.478 125.72 119.774 125.72 118.858C125.72 117.933 125.531 117.249 125.152 116.807C124.774 116.361 124.307 116.137 123.751 116.137C123.131 116.137 122.628 116.374 122.24 116.848C121.857 117.322 121.666 118.019 121.666 118.94ZM123.519 115.064C124.079 115.064 124.549 115.182 124.927 115.419C125.146 115.556 125.394 115.795 125.672 116.137V112.439H126.854V122.515H125.747V121.497C125.46 121.948 125.12 122.274 124.729 122.474C124.337 122.675 123.888 122.775 123.382 122.775C122.566 122.775 121.86 122.433 121.263 121.75C120.666 121.061 120.367 120.148 120.367 119.008C120.367 117.942 120.638 117.019 121.181 116.24C121.728 115.456 122.507 115.064 123.519 115.064ZM129.661 120.218C129.698 120.628 129.8 120.943 129.969 121.162C130.279 121.558 130.816 121.756 131.582 121.756C132.038 121.756 132.439 121.658 132.785 121.462C133.132 121.262 133.305 120.954 133.305 120.54C133.305 120.225 133.166 119.986 132.888 119.822C132.71 119.722 132.359 119.605 131.835 119.473L130.857 119.227C130.233 119.072 129.773 118.899 129.477 118.708C128.948 118.375 128.684 117.915 128.684 117.327C128.684 116.634 128.932 116.073 129.429 115.645C129.93 115.217 130.602 115.002 131.445 115.002C132.548 115.002 133.343 115.326 133.831 115.973C134.136 116.383 134.285 116.825 134.275 117.299H133.113C133.09 117.021 132.993 116.768 132.819 116.541C132.537 116.217 132.047 116.055 131.35 116.055C130.885 116.055 130.532 116.144 130.29 116.322C130.053 116.5 129.935 116.734 129.935 117.026C129.935 117.345 130.092 117.6 130.406 117.792C130.589 117.905 130.857 118.006 131.213 118.092L132.026 118.291C132.91 118.505 133.503 118.712 133.804 118.913C134.282 119.227 134.521 119.722 134.521 120.396C134.521 121.048 134.273 121.611 133.776 122.084C133.284 122.558 132.532 122.795 131.521 122.795C130.431 122.795 129.659 122.549 129.203 122.057C128.752 121.56 128.51 120.947 128.479 120.218H129.661ZM143.423 116.376C143.856 116.071 144.154 115.823 144.318 115.631C144.587 115.321 144.722 114.977 144.722 114.599C144.722 114.303 144.624 114.048 144.428 113.833C144.232 113.619 143.967 113.512 143.635 113.512C143.129 113.512 142.778 113.681 142.582 114.018C142.482 114.191 142.432 114.38 142.432 114.585C142.432 114.863 142.507 115.13 142.657 115.385C142.812 115.64 143.067 115.971 143.423 116.376ZM143.108 121.667C143.614 121.667 144.049 121.551 144.414 121.319C144.779 121.086 145.059 120.827 145.255 120.54L142.985 117.771C142.343 118.199 141.924 118.528 141.728 118.755C141.427 119.097 141.276 119.514 141.276 120.006C141.276 120.54 141.47 120.95 141.857 121.237C142.249 121.524 142.666 121.667 143.108 121.667ZM142.302 116.93C141.878 116.443 141.593 116.032 141.447 115.7C141.306 115.367 141.235 115.046 141.235 114.736C141.235 114.089 141.454 113.553 141.892 113.129C142.329 112.701 142.915 112.487 143.648 112.487C144.346 112.487 144.89 112.685 145.282 113.082C145.674 113.478 145.87 113.952 145.87 114.503C145.87 115.146 145.667 115.709 145.262 116.192C145.025 116.474 144.628 116.8 144.072 117.169L145.904 119.357C146.027 118.992 146.112 118.721 146.157 118.543C146.207 118.361 146.257 118.108 146.308 117.785H147.477C147.399 118.427 147.244 119.045 147.012 119.637C146.779 120.225 146.663 120.462 146.663 120.348L148.447 122.515H146.861L145.918 121.367C145.544 121.772 145.202 122.069 144.893 122.255C144.35 122.583 143.726 122.748 143.02 122.748C141.976 122.748 141.217 122.467 140.743 121.907C140.269 121.342 140.032 120.706 140.032 120C140.032 119.238 140.262 118.603 140.723 118.092C141.005 117.782 141.532 117.395 142.302 116.93ZM157.109 115.03C157.629 115.03 158.132 115.153 158.62 115.399C159.108 115.64 159.479 115.955 159.734 116.342C159.98 116.711 160.145 117.142 160.227 117.634C160.299 117.972 160.336 118.509 160.336 119.248H154.97C154.993 119.99 155.168 120.587 155.496 121.039C155.824 121.485 156.332 121.708 157.021 121.708C157.663 121.708 158.176 121.497 158.559 121.073C158.777 120.827 158.932 120.542 159.023 120.218H160.233C160.201 120.487 160.094 120.788 159.912 121.121C159.734 121.449 159.534 121.718 159.311 121.927C158.937 122.292 158.474 122.538 157.923 122.666C157.627 122.738 157.292 122.775 156.918 122.775C156.007 122.775 155.234 122.444 154.601 121.784C153.967 121.118 153.65 120.189 153.65 118.995C153.65 117.819 153.969 116.864 154.607 116.13C155.245 115.397 156.079 115.03 157.109 115.03ZM159.071 118.27C159.021 117.737 158.905 117.311 158.723 116.992C158.385 116.399 157.823 116.103 157.034 116.103C156.469 116.103 155.995 116.308 155.612 116.718C155.229 117.124 155.027 117.641 155.004 118.27H159.071ZM161.406 115.194H162.999L164.681 117.771L166.383 115.194L167.88 115.228L165.412 118.762L167.989 122.515H166.417L164.599 119.767L162.835 122.515H161.276L163.854 118.762L161.406 115.194ZM172.443 121.688C173.018 121.688 173.494 121.449 173.872 120.97C174.255 120.487 174.446 119.767 174.446 118.81C174.446 118.227 174.362 117.725 174.193 117.306C173.874 116.5 173.291 116.096 172.443 116.096C171.591 116.096 171.008 116.522 170.693 117.375C170.525 117.83 170.44 118.409 170.44 119.111C170.44 119.676 170.525 120.157 170.693 120.553C171.012 121.31 171.596 121.688 172.443 121.688ZM169.258 115.228H170.454V116.199C170.7 115.866 170.969 115.609 171.261 115.426C171.675 115.153 172.163 115.016 172.724 115.016C173.553 115.016 174.257 115.335 174.836 115.973C175.415 116.607 175.704 117.514 175.704 118.694C175.704 120.289 175.287 121.428 174.453 122.112C173.924 122.545 173.309 122.761 172.607 122.761C172.056 122.761 171.593 122.64 171.22 122.399C171.001 122.262 170.757 122.028 170.488 121.695V125.434H169.258V115.228ZM180.445 115.03C180.965 115.03 181.468 115.153 181.956 115.399C182.444 115.64 182.815 115.955 183.07 116.342C183.316 116.711 183.48 117.142 183.562 117.634C183.635 117.972 183.672 118.509 183.672 119.248H178.306C178.328 119.99 178.504 120.587 178.832 121.039C179.16 121.485 179.668 121.708 180.356 121.708C180.999 121.708 181.512 121.497 181.895 121.073C182.113 120.827 182.268 120.542 182.359 120.218H183.569C183.537 120.487 183.43 120.788 183.248 121.121C183.07 121.449 182.87 121.718 182.646 121.927C182.273 122.292 181.81 122.538 181.259 122.666C180.963 122.738 180.628 122.775 180.254 122.775C179.342 122.775 178.57 122.444 177.937 121.784C177.303 121.118 176.986 120.189 176.986 118.995C176.986 117.819 177.305 116.864 177.943 116.13C178.581 115.397 179.415 115.03 180.445 115.03ZM182.407 118.27C182.357 117.737 182.241 117.311 182.059 116.992C181.721 116.399 181.159 116.103 180.37 116.103C179.805 116.103 179.331 116.308 178.948 116.718C178.565 117.124 178.363 117.641 178.34 118.27H182.407ZM188.263 114.982C189.088 114.982 189.757 115.182 190.272 115.583C190.792 115.985 191.104 116.675 191.209 117.655H190.013C189.94 117.204 189.773 116.83 189.514 116.534C189.254 116.233 188.837 116.083 188.263 116.083C187.479 116.083 186.918 116.465 186.581 117.231C186.362 117.728 186.253 118.341 186.253 119.07C186.253 119.804 186.408 120.421 186.718 120.922C187.028 121.424 187.515 121.674 188.181 121.674C188.691 121.674 189.094 121.519 189.391 121.209C189.691 120.895 189.899 120.467 190.013 119.924H191.209C191.072 120.895 190.73 121.606 190.184 122.057C189.637 122.504 188.937 122.727 188.085 122.727C187.128 122.727 186.365 122.378 185.795 121.681C185.225 120.979 184.94 120.104 184.94 119.056C184.94 117.771 185.253 116.771 185.877 116.055C186.501 115.34 187.297 114.982 188.263 114.982ZM192.936 113.15H194.18V115.194H195.349V116.199H194.18V120.977C194.18 121.232 194.266 121.403 194.439 121.49C194.535 121.54 194.695 121.565 194.918 121.565C194.977 121.565 195.041 121.565 195.109 121.565C195.178 121.56 195.257 121.554 195.349 121.544V122.515C195.207 122.556 195.059 122.586 194.904 122.604C194.754 122.622 194.59 122.631 194.412 122.631C193.838 122.631 193.448 122.486 193.243 122.194C193.038 121.898 192.936 121.515 192.936 121.045V116.199H191.944V115.194H192.936V113.15ZM197.779 120.567C197.779 120.922 197.909 121.203 198.169 121.408C198.429 121.613 198.736 121.715 199.092 121.715C199.525 121.715 199.944 121.615 200.35 121.415C201.033 121.082 201.375 120.537 201.375 119.781V118.79C201.225 118.885 201.031 118.965 200.794 119.029C200.557 119.093 200.325 119.138 200.097 119.166L199.352 119.261C198.905 119.32 198.57 119.414 198.347 119.542C197.968 119.756 197.779 120.097 197.779 120.567ZM200.76 118.079C201.042 118.042 201.231 117.924 201.327 117.723C201.382 117.614 201.409 117.457 201.409 117.251C201.409 116.832 201.259 116.529 200.958 116.342C200.662 116.151 200.236 116.055 199.68 116.055C199.037 116.055 198.581 116.228 198.312 116.575C198.162 116.766 198.064 117.051 198.019 117.429H196.87C196.893 116.527 197.185 115.9 197.745 115.549C198.31 115.194 198.964 115.016 199.707 115.016C200.568 115.016 201.268 115.18 201.806 115.508C202.339 115.836 202.605 116.347 202.605 117.04V121.257C202.605 121.385 202.631 121.487 202.681 121.565C202.735 121.642 202.847 121.681 203.016 121.681C203.07 121.681 203.132 121.679 203.2 121.674C203.269 121.665 203.341 121.654 203.419 121.64V122.549C203.228 122.604 203.082 122.638 202.981 122.652C202.881 122.666 202.744 122.672 202.571 122.672C202.147 122.672 201.84 122.522 201.648 122.221C201.548 122.062 201.478 121.836 201.437 121.544C201.186 121.873 200.826 122.157 200.356 122.399C199.887 122.64 199.37 122.761 198.805 122.761C198.126 122.761 197.57 122.556 197.137 122.146C196.708 121.731 196.494 121.214 196.494 120.594C196.494 119.915 196.706 119.389 197.13 119.015C197.554 118.641 198.11 118.411 198.798 118.325L200.76 118.079ZM205.125 113.15H206.369V115.194H207.538V116.199H206.369V120.977C206.369 121.232 206.456 121.403 206.629 121.49C206.725 121.54 206.884 121.565 207.107 121.565C207.167 121.565 207.23 121.565 207.299 121.565C207.367 121.56 207.447 121.554 207.538 121.544V122.515C207.397 122.556 207.249 122.586 207.094 122.604C206.943 122.622 206.779 122.631 206.602 122.631C206.027 122.631 205.638 122.486 205.433 122.194C205.228 121.898 205.125 121.515 205.125 121.045V116.199H204.134V115.194H205.125V113.15ZM209.025 115.228H210.276V122.515H209.025V115.228ZM209.025 112.473H210.276V113.868H209.025V112.473ZM215.298 121.722C216.114 121.722 216.672 121.415 216.973 120.799C217.278 120.18 217.431 119.491 217.431 118.735C217.431 118.051 217.321 117.495 217.103 117.067C216.756 116.392 216.159 116.055 215.312 116.055C214.56 116.055 214.013 116.342 213.671 116.917C213.329 117.491 213.158 118.183 213.158 118.995C213.158 119.774 213.329 120.423 213.671 120.943C214.013 121.462 214.555 121.722 215.298 121.722ZM215.346 114.982C216.289 114.982 217.087 115.296 217.738 115.925C218.39 116.554 218.716 117.479 218.716 118.701C218.716 119.881 218.429 120.856 217.854 121.626C217.28 122.397 216.389 122.782 215.182 122.782C214.174 122.782 213.375 122.442 212.782 121.763C212.19 121.08 211.894 120.164 211.894 119.015C211.894 117.785 212.206 116.805 212.83 116.076C213.454 115.347 214.293 114.982 215.346 114.982ZM220.436 115.194H221.604V116.233C221.951 115.805 222.318 115.497 222.705 115.31C223.092 115.123 223.523 115.03 223.997 115.03C225.036 115.03 225.738 115.392 226.103 116.117C226.303 116.513 226.403 117.081 226.403 117.819V122.515H225.152V117.901C225.152 117.454 225.086 117.094 224.954 116.821C224.735 116.365 224.339 116.137 223.765 116.137C223.473 116.137 223.234 116.167 223.047 116.226C222.71 116.326 222.413 116.527 222.158 116.828C221.953 117.069 221.819 117.32 221.755 117.58C221.696 117.835 221.666 118.202 221.666 118.68V122.515H220.436V115.194ZM228.772 121.025H230.201V122.515H228.772V121.025Z" fill="white"/>
</svg>
