<svg width="327" height="187" viewBox="0 0 327 187" fill="none" xmlns="http://www.w3.org/2000/svg">
<path fill-rule="evenodd" clip-rule="evenodd" d="M77.1444 114.148C76.4011 127.677 74.3208 134.571 81.8129 148.014C96.1691 173.771 128.704 179.732 151.082 162.741C155.706 159.23 158.265 154.704 161.506 152.501C177.25 188.399 216.073 193.124 239.457 175.557C243.804 172.289 247.145 168.781 249.78 165.194C253.923 159.549 254.654 156.797 257.122 152.587C269.403 153.333 276.78 155.744 287.049 146.459C290.206 143.606 293.18 139.825 294.978 135.768C296.936 131.357 297.004 129.007 297.36 124.613L297.865 121.237C298.574 117.957 312.388 117.609 321.858 94.4114C327.069 81.6474 324.912 65.3457 317.685 53.3102C307.516 36.3756 286.316 27.8066 266.489 32.8602C258.064 35.0068 254.679 38.0659 248.566 41.5323C237.467 -0.550199 187.529 -12.2079 158.999 20.6358C155.665 24.4726 154.428 28.5474 151.099 33.6354C139.819 31.7145 132.413 26.8424 114.794 34.0402C99.2258 40.3965 95.9533 50.2535 91.248 55.4617C81.0328 54.7306 76.3692 50.8325 64.4417 58.0646C57.9063 62.029 52.8208 68.7532 50.765 76.5324C50.3602 76.9494 46.7687 71.1206 26.1911 75.87C15.9293 78.2374 -0.431263 90.5182 1.65888 89.7724C22.2831 82.403 25.1632 81.4315 42.9539 89.1542C52.0456 93.1014 50.7674 95.5424 56.0884 102.583C61.4953 109.715 66.6545 112.023 77.142 114.145L77.1444 114.148Z" fill="#454545" stroke="#616161" stroke-width="2.55544" stroke-miterlimit="22.9256" stroke-linecap="square"/>
<path d="M98.4082 64.1997C100.181 64.1997 101.493 64.7694 102.346 65.9087C103.011 66.7974 103.344 67.9344 103.344 69.3198C103.344 70.8192 102.963 72.0656 102.202 73.0591C101.309 74.2257 100.035 74.8091 98.3809 74.8091C96.8359 74.8091 95.6214 74.2987 94.7373 73.2778C93.9489 72.2935 93.5547 71.0493 93.5547 69.5454C93.5547 68.1873 93.8919 67.0252 94.5664 66.0591C95.4323 64.8195 96.7129 64.1997 98.4082 64.1997ZM98.5449 73.5923C99.7435 73.5923 100.609 73.1639 101.143 72.3071C101.68 71.4458 101.949 70.4569 101.949 69.3403C101.949 68.16 101.639 67.2098 101.02 66.4897C100.404 65.7697 99.5612 65.4097 98.4902 65.4097C97.4512 65.4097 96.6035 65.7674 95.9473 66.4829C95.291 67.1938 94.9629 68.2443 94.9629 69.6343C94.9629 70.7463 95.2432 71.6851 95.8037 72.4507C96.3688 73.2118 97.2826 73.5923 98.5449 73.5923ZM106.287 67.1938V72.0542C106.287 72.4279 106.346 72.7332 106.465 72.9702C106.684 73.4077 107.091 73.6265 107.688 73.6265C108.545 73.6265 109.129 73.2437 109.438 72.478C109.607 72.0679 109.691 71.505 109.691 70.7896V67.1938H110.922V74.5151H109.76L109.773 73.4351C109.614 73.7131 109.416 73.9478 109.179 74.1392C108.709 74.522 108.14 74.7134 107.47 74.7134C106.426 74.7134 105.715 74.3647 105.337 73.6675C105.132 73.2938 105.029 72.7948 105.029 72.1704V67.1938H106.287ZM113.134 67.1938H114.303V68.4585C114.398 68.2124 114.633 67.9139 115.007 67.563C115.381 67.2075 115.811 67.0298 116.299 67.0298C116.322 67.0298 116.36 67.0321 116.415 67.0366C116.47 67.0412 116.563 67.0503 116.695 67.064V68.3628C116.622 68.3491 116.554 68.34 116.49 68.3354C116.431 68.3309 116.365 68.3286 116.292 68.3286C115.672 68.3286 115.196 68.5291 114.863 68.9302C114.531 69.3267 114.364 69.7847 114.364 70.3042V74.5151H113.134V67.1938ZM122.404 65.1499H123.648V67.1938H124.817V68.1987H123.648V72.9771C123.648 73.2323 123.735 73.4032 123.908 73.4897C124.004 73.5399 124.163 73.5649 124.387 73.5649C124.446 73.5649 124.51 73.5649 124.578 73.5649C124.646 73.5604 124.726 73.5535 124.817 73.5444V74.5151C124.676 74.5562 124.528 74.5858 124.373 74.604C124.223 74.6222 124.059 74.6313 123.881 74.6313C123.307 74.6313 122.917 74.4855 122.712 74.1938C122.507 73.8976 122.404 73.5148 122.404 73.0454V68.1987H121.413V67.1938H122.404V65.1499ZM129.354 67.0298C129.873 67.0298 130.377 67.1528 130.864 67.3989C131.352 67.6405 131.723 67.9549 131.979 68.3423C132.225 68.7114 132.389 69.1421 132.471 69.6343C132.544 69.9715 132.58 70.5093 132.58 71.2476H127.214C127.237 71.9904 127.412 72.5874 127.74 73.0386C128.068 73.4852 128.576 73.7085 129.265 73.7085C129.907 73.7085 130.42 73.4966 130.803 73.0728C131.021 72.8267 131.176 72.5418 131.268 72.2183H132.478C132.446 72.4871 132.339 72.7879 132.156 73.1206C131.979 73.4487 131.778 73.7176 131.555 73.9272C131.181 74.2918 130.718 74.5379 130.167 74.6655C129.871 74.7384 129.536 74.7749 129.162 74.7749C128.251 74.7749 127.478 74.4445 126.845 73.7837C126.211 73.1183 125.895 72.1886 125.895 70.9946C125.895 69.8188 126.214 68.8641 126.852 68.1304C127.49 67.3966 128.324 67.0298 129.354 67.0298ZM131.315 70.27C131.265 69.7368 131.149 69.3107 130.967 68.9917C130.63 68.3993 130.067 68.103 129.278 68.103C128.713 68.103 128.239 68.3081 127.856 68.7183C127.474 69.1239 127.271 69.6411 127.248 70.27H131.315ZM135.291 72.5669C135.291 72.9224 135.421 73.2026 135.681 73.4077C135.94 73.6128 136.248 73.7153 136.604 73.7153C137.036 73.7153 137.456 73.6151 137.861 73.4146C138.545 73.0819 138.887 72.5373 138.887 71.7808V70.7896C138.736 70.8853 138.543 70.965 138.306 71.0288C138.069 71.0926 137.836 71.1382 137.608 71.1655L136.863 71.2612C136.417 71.3205 136.082 71.4139 135.858 71.5415C135.48 71.7557 135.291 72.0975 135.291 72.5669ZM138.271 70.0786C138.554 70.0422 138.743 69.9237 138.839 69.7231C138.894 69.6138 138.921 69.4565 138.921 69.2515C138.921 68.8322 138.771 68.5291 138.47 68.3423C138.174 68.1509 137.747 68.0552 137.191 68.0552C136.549 68.0552 136.093 68.2284 135.824 68.5747C135.674 68.7661 135.576 69.0509 135.53 69.4292H134.382C134.405 68.5269 134.696 67.9002 135.257 67.5493C135.822 67.1938 136.476 67.0161 137.219 67.0161C138.08 67.0161 138.78 67.1802 139.317 67.5083C139.851 67.8364 140.117 68.3468 140.117 69.0396V73.2573C140.117 73.3849 140.142 73.4875 140.192 73.5649C140.247 73.6424 140.359 73.6812 140.527 73.6812C140.582 73.6812 140.644 73.6789 140.712 73.6743C140.78 73.6652 140.853 73.6538 140.931 73.6401V74.5493C140.739 74.604 140.593 74.6382 140.493 74.6519C140.393 74.6655 140.256 74.6724 140.083 74.6724C139.659 74.6724 139.352 74.522 139.16 74.2212C139.06 74.0617 138.989 73.8361 138.948 73.5444C138.698 73.8726 138.338 74.1574 137.868 74.3989C137.399 74.6405 136.882 74.7612 136.316 74.7612C135.637 74.7612 135.081 74.5562 134.648 74.146C134.22 73.7313 134.006 73.214 134.006 72.5942C134.006 71.9152 134.218 71.3888 134.642 71.0151C135.065 70.6414 135.621 70.4113 136.31 70.3247L138.271 70.0786ZM142.391 67.1938H143.607V68.2329C143.899 67.8729 144.163 67.6108 144.4 67.4468C144.806 67.1688 145.266 67.0298 145.781 67.0298C146.365 67.0298 146.834 67.1733 147.189 67.4604C147.39 67.6245 147.572 67.866 147.736 68.1851C148.01 67.7931 148.331 67.5037 148.7 67.3169C149.069 67.1255 149.484 67.0298 149.944 67.0298C150.929 67.0298 151.599 67.3853 151.954 68.0962C152.146 68.479 152.241 68.994 152.241 69.6411V74.5151H150.963V69.4292C150.963 68.9416 150.84 68.6066 150.594 68.4243C150.352 68.242 150.056 68.1509 149.705 68.1509C149.222 68.1509 148.805 68.3127 148.454 68.6362C148.108 68.9598 147.935 69.4998 147.935 70.2563V74.5151H146.684V69.7368C146.684 69.2401 146.624 68.8778 146.506 68.6499C146.319 68.3081 145.97 68.1372 145.46 68.1372C144.995 68.1372 144.571 68.3172 144.188 68.6772C143.81 69.0373 143.621 69.689 143.621 70.6323V74.5151H142.391V67.1938ZM159.017 67.1938L160.425 72.9634L161.854 67.1938H163.234L164.67 72.9292L166.167 67.1938H167.397L165.271 74.5151H163.993L162.503 68.8481L161.061 74.5151H159.782L157.67 67.1938H159.017ZM168.816 67.228H170.067V74.5151H168.816V67.228ZM168.816 64.4731H170.067V65.8677H168.816V64.4731ZM172.218 64.4731H173.448V74.5151H172.218V64.4731ZM175.585 64.4731H176.815V74.5151H175.585V64.4731ZM182.969 64.439H184.165V68.0825C184.434 67.7316 184.755 67.465 185.129 67.2827C185.503 67.0959 185.908 67.0024 186.346 67.0024C187.257 67.0024 187.995 67.3169 188.561 67.9458C189.13 68.5701 189.415 69.493 189.415 70.7144C189.415 71.8719 189.135 72.8335 188.574 73.5991C188.014 74.3647 187.237 74.7476 186.243 74.7476C185.687 74.7476 185.218 74.6131 184.835 74.3442C184.607 74.1847 184.363 73.9295 184.104 73.5786V74.5151H182.969V64.439ZM186.168 73.6606C186.833 73.6606 187.33 73.3963 187.658 72.8677C187.991 72.339 188.157 71.6418 188.157 70.7759C188.157 70.0057 187.991 69.3677 187.658 68.8618C187.33 68.356 186.845 68.103 186.202 68.103C185.642 68.103 185.149 68.3104 184.726 68.7251C184.306 69.1398 184.097 69.8234 184.097 70.7759C184.097 71.464 184.183 72.0223 184.356 72.4507C184.68 73.2573 185.284 73.6606 186.168 73.6606ZM194.156 67.0298C194.676 67.0298 195.179 67.1528 195.667 67.3989C196.155 67.6405 196.526 67.9549 196.781 68.3423C197.027 68.7114 197.191 69.1421 197.273 69.6343C197.346 69.9715 197.383 70.5093 197.383 71.2476H192.017C192.039 71.9904 192.215 72.5874 192.543 73.0386C192.871 73.4852 193.379 73.7085 194.067 73.7085C194.71 73.7085 195.223 73.4966 195.605 73.0728C195.824 72.8267 195.979 72.5418 196.07 72.2183H197.28C197.248 72.4871 197.141 72.7879 196.959 73.1206C196.781 73.4487 196.581 73.7176 196.357 73.9272C195.984 74.2918 195.521 74.5379 194.97 74.6655C194.674 74.7384 194.339 74.7749 193.965 74.7749C193.053 74.7749 192.281 74.4445 191.647 73.7837C191.014 73.1183 190.697 72.1886 190.697 70.9946C190.697 69.8188 191.016 68.8641 191.654 68.1304C192.292 67.3966 193.126 67.0298 194.156 67.0298ZM196.118 70.27C196.068 69.7368 195.952 69.3107 195.77 68.9917C195.432 68.3993 194.869 68.103 194.081 68.103C193.516 68.103 193.042 68.3081 192.659 68.7183C192.276 69.1239 192.074 69.6411 192.051 70.27H196.118ZM201.734 67.064C202.309 67.064 202.81 67.2052 203.238 67.4878C203.471 67.6473 203.708 67.8797 203.949 68.1851V67.2622H205.084V73.9204C205.084 74.8501 204.947 75.5838 204.674 76.1216C204.163 77.1151 203.2 77.6118 201.782 77.6118C200.994 77.6118 200.331 77.4341 199.793 77.0786C199.255 76.7277 198.954 76.1763 198.891 75.4243H200.142C200.201 75.7524 200.319 76.0054 200.497 76.1831C200.775 76.4565 201.213 76.5933 201.81 76.5933C202.753 76.5933 203.37 76.2606 203.662 75.5952C203.835 75.2033 203.915 74.5037 203.901 73.4966C203.655 73.8703 203.359 74.1483 203.013 74.3306C202.666 74.5129 202.208 74.604 201.639 74.604C200.846 74.604 200.151 74.3237 199.554 73.7632C198.961 73.1981 198.665 72.2661 198.665 70.9673C198.665 69.7414 198.964 68.7843 199.561 68.0962C200.162 67.408 200.887 67.064 201.734 67.064ZM203.949 70.8237C203.949 69.9168 203.762 69.2446 203.389 68.8071C203.015 68.3696 202.539 68.1509 201.96 68.1509C201.094 68.1509 200.502 68.5565 200.183 69.3677C200.014 69.8006 199.93 70.368 199.93 71.0698C199.93 71.8947 200.096 72.5236 200.429 72.9565C200.766 73.3849 201.217 73.5991 201.782 73.5991C202.666 73.5991 203.288 73.2004 203.648 72.4028C203.849 71.9517 203.949 71.4253 203.949 70.8237ZM207.193 67.228H208.444V74.5151H207.193V67.228ZM207.193 64.4731H208.444V65.8677H207.193V64.4731ZM210.561 67.1938H211.729V68.2329C212.076 67.8045 212.443 67.4969 212.83 67.3101C213.217 67.1232 213.648 67.0298 214.122 67.0298C215.161 67.0298 215.863 67.3921 216.228 68.1167C216.428 68.5132 216.528 69.0806 216.528 69.8188V74.5151H215.277V69.9009C215.277 69.4543 215.211 69.0942 215.079 68.8208C214.86 68.3651 214.464 68.1372 213.89 68.1372C213.598 68.1372 213.359 68.1668 213.172 68.2261C212.835 68.3263 212.538 68.5269 212.283 68.8276C212.078 69.0692 211.944 69.3198 211.88 69.5796C211.821 69.8348 211.791 70.2017 211.791 70.6802V74.5151H210.561V67.1938ZM222.996 65.1499H224.24V67.1938H225.409V68.1987H224.24V72.9771C224.24 73.2323 224.327 73.4032 224.5 73.4897C224.596 73.5399 224.755 73.5649 224.979 73.5649C225.038 73.5649 225.102 73.5649 225.17 73.5649C225.238 73.5604 225.318 73.5535 225.409 73.5444V74.5151C225.268 74.5562 225.12 74.5858 224.965 74.604C224.814 74.6222 224.65 74.6313 224.473 74.6313C223.898 74.6313 223.509 74.4855 223.304 74.1938C223.099 73.8976 222.996 73.5148 222.996 73.0454V68.1987H222.005V67.1938H222.996V65.1499ZM226.896 64.439H228.127V68.1851C228.419 67.8159 228.681 67.5562 228.913 67.4058C229.31 67.146 229.804 67.0161 230.396 67.0161C231.458 67.0161 232.178 67.3875 232.557 68.1304C232.762 68.536 232.864 69.0988 232.864 69.8188V74.5151H231.6V69.9009C231.6 69.3631 231.531 68.9689 231.395 68.7183C231.171 68.3172 230.752 68.1167 230.137 68.1167C229.626 68.1167 229.164 68.2922 228.749 68.6431C228.334 68.994 228.127 69.6571 228.127 70.6323V74.5151H226.896V64.439ZM237.988 67.0298C238.508 67.0298 239.011 67.1528 239.499 67.3989C239.987 67.6405 240.358 67.9549 240.613 68.3423C240.859 68.7114 241.023 69.1421 241.105 69.6343C241.178 69.9715 241.215 70.5093 241.215 71.2476H235.849C235.871 71.9904 236.047 72.5874 236.375 73.0386C236.703 73.4852 237.211 73.7085 237.899 73.7085C238.542 73.7085 239.055 73.4966 239.438 73.0728C239.656 72.8267 239.811 72.5418 239.902 72.2183H241.112C241.08 72.4871 240.973 72.7879 240.791 73.1206C240.613 73.4487 240.413 73.7176 240.189 73.9272C239.816 74.2918 239.353 74.5379 238.802 74.6655C238.506 74.7384 238.171 74.7749 237.797 74.7749C236.885 74.7749 236.113 74.4445 235.479 73.7837C234.846 73.1183 234.529 72.1886 234.529 70.9946C234.529 69.8188 234.848 68.8641 235.486 68.1304C236.124 67.3966 236.958 67.0298 237.988 67.0298ZM239.95 70.27C239.9 69.7368 239.784 69.3107 239.602 68.9917C239.264 68.3993 238.701 68.103 237.913 68.103C237.348 68.103 236.874 68.3081 236.491 68.7183C236.108 69.1239 235.906 69.6411 235.883 70.27H239.95ZM249.952 66.9819C250.777 66.9819 251.447 67.1825 251.962 67.5835C252.481 67.9845 252.794 68.675 252.898 69.6548H251.702C251.629 69.2036 251.463 68.8299 251.203 68.5337C250.943 68.2329 250.526 68.0825 249.952 68.0825C249.168 68.0825 248.608 68.4653 248.271 69.231C248.052 69.7277 247.942 70.3407 247.942 71.0698C247.942 71.8035 248.097 72.4211 248.407 72.9224C248.717 73.4237 249.205 73.6743 249.87 73.6743C250.381 73.6743 250.784 73.5194 251.08 73.2095C251.381 72.895 251.588 72.4666 251.702 71.9243H252.898C252.762 72.895 252.42 73.606 251.873 74.0571C251.326 74.5037 250.627 74.7271 249.774 74.7271C248.817 74.7271 248.054 74.3784 247.484 73.6812C246.915 72.9793 246.63 72.1043 246.63 71.0562C246.63 69.771 246.942 68.7707 247.566 68.0552C248.191 67.3397 248.986 66.9819 249.952 66.9819ZM254.413 67.1938H255.582V68.4585C255.678 68.2124 255.912 67.9139 256.286 67.563C256.66 67.2075 257.09 67.0298 257.578 67.0298C257.601 67.0298 257.64 67.0321 257.694 67.0366C257.749 67.0412 257.842 67.0503 257.975 67.064V68.3628C257.902 68.3491 257.833 68.34 257.77 68.3354C257.71 68.3309 257.644 68.3286 257.571 68.3286C256.951 68.3286 256.475 68.5291 256.143 68.9302C255.81 69.3267 255.644 69.7847 255.644 70.3042V74.5151H254.413V67.1938ZM262.34 67.0298C262.859 67.0298 263.363 67.1528 263.851 67.3989C264.338 67.6405 264.71 67.9549 264.965 68.3423C265.211 68.7114 265.375 69.1421 265.457 69.6343C265.53 69.9715 265.566 70.5093 265.566 71.2476H260.2C260.223 71.9904 260.398 72.5874 260.727 73.0386C261.055 73.4852 261.563 73.7085 262.251 73.7085C262.894 73.7085 263.406 73.4966 263.789 73.0728C264.008 72.8267 264.163 72.5418 264.254 72.2183H265.464C265.432 72.4871 265.325 72.7879 265.143 73.1206C264.965 73.4487 264.764 73.7176 264.541 73.9272C264.167 74.2918 263.705 74.5379 263.153 74.6655C262.857 74.7384 262.522 74.7749 262.148 74.7749C261.237 74.7749 260.465 74.4445 259.831 73.7837C259.198 73.1183 258.881 72.1886 258.881 70.9946C258.881 69.8188 259.2 68.8641 259.838 68.1304C260.476 67.3966 261.31 67.0298 262.34 67.0298ZM264.302 70.27C264.252 69.7368 264.135 69.3107 263.953 68.9917C263.616 68.3993 263.053 68.103 262.265 68.103C261.7 68.103 261.226 68.3081 260.843 68.7183C260.46 69.1239 260.257 69.6411 260.234 70.27H264.302ZM268.277 72.5669C268.277 72.9224 268.407 73.2026 268.667 73.4077C268.927 73.6128 269.234 73.7153 269.59 73.7153C270.023 73.7153 270.442 73.6151 270.848 73.4146C271.531 73.0819 271.873 72.5373 271.873 71.7808V70.7896C271.723 70.8853 271.529 70.965 271.292 71.0288C271.055 71.0926 270.823 71.1382 270.595 71.1655L269.85 71.2612C269.403 71.3205 269.068 71.4139 268.845 71.5415C268.466 71.7557 268.277 72.0975 268.277 72.5669ZM271.258 70.0786C271.54 70.0422 271.729 69.9237 271.825 69.7231C271.88 69.6138 271.907 69.4565 271.907 69.2515C271.907 68.8322 271.757 68.5291 271.456 68.3423C271.16 68.1509 270.734 68.0552 270.178 68.0552C269.535 68.0552 269.079 68.2284 268.811 68.5747C268.66 68.7661 268.562 69.0509 268.517 69.4292H267.368C267.391 68.5269 267.683 67.9002 268.243 67.5493C268.808 67.1938 269.462 67.0161 270.205 67.0161C271.066 67.0161 271.766 67.1802 272.304 67.5083C272.837 67.8364 273.104 68.3468 273.104 69.0396V73.2573C273.104 73.3849 273.129 73.4875 273.179 73.5649C273.233 73.6424 273.345 73.6812 273.514 73.6812C273.568 73.6812 273.63 73.6789 273.698 73.6743C273.767 73.6652 273.84 73.6538 273.917 73.6401V74.5493C273.726 74.604 273.58 74.6382 273.479 74.6519C273.379 74.6655 273.243 74.6724 273.069 74.6724C272.646 74.6724 272.338 74.522 272.146 74.2212C272.046 74.0617 271.976 73.8361 271.935 73.5444C271.684 73.8726 271.324 74.1574 270.854 74.3989C270.385 74.6405 269.868 74.7612 269.303 74.7612C268.624 74.7612 268.068 74.5562 267.635 74.146C267.206 73.7313 266.992 73.214 266.992 72.5942C266.992 71.9152 267.204 71.3888 267.628 71.0151C268.052 70.6414 268.608 70.4113 269.296 70.3247L271.258 70.0786ZM275.623 65.1499H276.867V67.1938H278.036V68.1987H276.867V72.9771C276.867 73.2323 276.954 73.4032 277.127 73.4897C277.223 73.5399 277.382 73.5649 277.605 73.5649C277.665 73.5649 277.729 73.5649 277.797 73.5649C277.865 73.5604 277.945 73.5535 278.036 73.5444V74.5151C277.895 74.5562 277.747 74.5858 277.592 74.604C277.441 74.6222 277.277 74.6313 277.1 74.6313C276.525 74.6313 276.136 74.4855 275.931 74.1938C275.726 73.8976 275.623 73.5148 275.623 73.0454V68.1987H274.632V67.1938H275.623V65.1499ZM279.523 67.228H280.774V74.5151H279.523V67.228ZM279.523 64.4731H280.774V65.8677H279.523V64.4731ZM283.492 67.1938L285.447 73.1548L287.491 67.1938H288.838L286.076 74.5151H284.764L282.063 67.1938H283.492ZM293.189 67.0298C293.709 67.0298 294.213 67.1528 294.7 67.3989C295.188 67.6405 295.559 67.9549 295.814 68.3423C296.061 68.7114 296.225 69.1421 296.307 69.6343C296.38 69.9715 296.416 70.5093 296.416 71.2476H291.05C291.073 71.9904 291.248 72.5874 291.576 73.0386C291.904 73.4852 292.412 73.7085 293.101 73.7085C293.743 73.7085 294.256 73.4966 294.639 73.0728C294.857 72.8267 295.012 72.5418 295.104 72.2183H296.313C296.282 72.4871 296.174 72.7879 295.992 73.1206C295.814 73.4487 295.614 73.7176 295.391 73.9272C295.017 74.2918 294.554 74.5379 294.003 74.6655C293.707 74.7384 293.372 74.7749 292.998 74.7749C292.087 74.7749 291.314 74.4445 290.681 73.7837C290.047 73.1183 289.73 72.1886 289.73 70.9946C289.73 69.8188 290.049 68.8641 290.688 68.1304C291.326 67.3966 292.16 67.0298 293.189 67.0298ZM295.151 70.27C295.101 69.7368 294.985 69.3107 294.803 68.9917C294.465 68.3993 293.903 68.103 293.114 68.103C292.549 68.103 292.075 68.3081 291.692 68.7183C291.31 69.1239 291.107 69.6411 291.084 70.27H295.151ZM97 93.688C97.5742 93.688 98.0505 93.4487 98.4287 92.9702C98.8115 92.4871 99.0029 91.7671 99.0029 90.8101C99.0029 90.2267 98.9186 89.7254 98.75 89.3062C98.431 88.4995 97.8477 88.0962 97 88.0962C96.1478 88.0962 95.5645 88.5223 95.25 89.3745C95.0814 89.8302 94.9971 90.409 94.9971 91.1108C94.9971 91.6759 95.0814 92.1567 95.25 92.5532C95.569 93.3097 96.1523 93.688 97 93.688ZM93.8145 87.228H95.0107V88.1987C95.2568 87.866 95.5257 87.6086 95.8174 87.4263C96.2321 87.1528 96.7197 87.0161 97.2803 87.0161C98.1097 87.0161 98.8138 87.3351 99.3926 87.9731C99.9714 88.6066 100.261 89.5135 100.261 90.6938C100.261 92.2889 99.8438 93.4282 99.0098 94.1118C98.4811 94.5448 97.8659 94.7612 97.1641 94.7612C96.6126 94.7612 96.1501 94.6405 95.7764 94.3989C95.5576 94.2622 95.3138 94.0275 95.0449 93.6948V97.4341H93.8145V87.228ZM101.987 87.1938H103.156V88.4585C103.252 88.2124 103.487 87.9139 103.86 87.563C104.234 87.2075 104.665 87.0298 105.152 87.0298C105.175 87.0298 105.214 87.0321 105.269 87.0366C105.323 87.0412 105.417 87.0503 105.549 87.064V88.3628C105.476 88.3491 105.408 88.34 105.344 88.3354C105.285 88.3309 105.218 88.3286 105.146 88.3286C104.526 88.3286 104.049 88.5291 103.717 88.9302C103.384 89.3267 103.218 89.7847 103.218 90.3042V94.5151H101.987V87.1938ZM109.771 93.7222C110.586 93.7222 111.145 93.4146 111.445 92.7993C111.751 92.1795 111.903 91.4914 111.903 90.7349C111.903 90.0513 111.794 89.4953 111.575 89.0669C111.229 88.3924 110.632 88.0552 109.784 88.0552C109.032 88.0552 108.485 88.3423 108.144 88.9165C107.802 89.4907 107.631 90.1834 107.631 90.9946C107.631 91.7739 107.802 92.4233 108.144 92.9429C108.485 93.4624 109.028 93.7222 109.771 93.7222ZM109.818 86.9819C110.762 86.9819 111.559 87.2964 112.211 87.9253C112.863 88.5542 113.188 89.4793 113.188 90.7007C113.188 91.881 112.901 92.8563 112.327 93.6265C111.753 94.3966 110.862 94.7817 109.654 94.7817C108.647 94.7817 107.847 94.4422 107.255 93.7632C106.662 93.0796 106.366 92.1636 106.366 91.0151C106.366 89.7847 106.678 88.8049 107.303 88.0757C107.927 87.3465 108.766 86.9819 109.818 86.9819ZM117.731 86.9819C118.556 86.9819 119.226 87.1825 119.741 87.5835C120.261 87.9845 120.573 88.675 120.678 89.6548H119.481C119.409 89.2036 119.242 88.8299 118.982 88.5337C118.723 88.2329 118.306 88.0825 117.731 88.0825C116.948 88.0825 116.387 88.4653 116.05 89.231C115.831 89.7277 115.722 90.3407 115.722 91.0698C115.722 91.8035 115.877 92.4211 116.187 92.9224C116.496 93.4237 116.984 93.6743 117.649 93.6743C118.16 93.6743 118.563 93.5194 118.859 93.2095C119.16 92.895 119.368 92.4666 119.481 91.9243H120.678C120.541 92.895 120.199 93.606 119.652 94.0571C119.105 94.5037 118.406 94.7271 117.554 94.7271C116.597 94.7271 115.833 94.3784 115.264 93.6812C114.694 92.9793 114.409 92.1043 114.409 91.0562C114.409 89.771 114.721 88.7707 115.346 88.0552C115.97 87.3397 116.765 86.9819 117.731 86.9819ZM125.207 87.0298C125.727 87.0298 126.23 87.1528 126.718 87.3989C127.205 87.6405 127.577 87.9549 127.832 88.3423C128.078 88.7114 128.242 89.1421 128.324 89.6343C128.397 89.9715 128.434 90.5093 128.434 91.2476H123.067C123.09 91.9904 123.266 92.5874 123.594 93.0386C123.922 93.4852 124.43 93.7085 125.118 93.7085C125.761 93.7085 126.273 93.4966 126.656 93.0728C126.875 92.8267 127.03 92.5418 127.121 92.2183H128.331C128.299 92.4871 128.192 92.7879 128.01 93.1206C127.832 93.4487 127.632 93.7176 127.408 93.9272C127.035 94.2918 126.572 94.5379 126.021 94.6655C125.724 94.7384 125.389 94.7749 125.016 94.7749C124.104 94.7749 123.332 94.4445 122.698 93.7837C122.065 93.1183 121.748 92.1886 121.748 90.9946C121.748 89.8188 122.067 88.8641 122.705 88.1304C123.343 87.3966 124.177 87.0298 125.207 87.0298ZM127.169 90.27C127.119 89.7368 127.003 89.3107 126.82 88.9917C126.483 88.3993 125.92 88.103 125.132 88.103C124.567 88.103 124.093 88.3081 123.71 88.7183C123.327 89.1239 123.124 89.6411 123.102 90.27H127.169ZM130.933 92.2183C130.969 92.6284 131.072 92.9429 131.24 93.1616C131.55 93.5581 132.088 93.7563 132.854 93.7563C133.309 93.7563 133.71 93.6584 134.057 93.4624C134.403 93.2619 134.576 92.9543 134.576 92.5396C134.576 92.2251 134.437 91.9858 134.159 91.8218C133.981 91.7215 133.631 91.6053 133.106 91.4731L132.129 91.2271C131.505 91.0721 131.044 90.8989 130.748 90.7075C130.219 90.3748 129.955 89.9146 129.955 89.3267C129.955 88.634 130.203 88.0734 130.7 87.645C131.201 87.2166 131.874 87.0024 132.717 87.0024C133.82 87.0024 134.615 87.326 135.103 87.9731C135.408 88.3833 135.556 88.8254 135.547 89.2993H134.385C134.362 89.0213 134.264 88.7684 134.091 88.5405C133.808 88.217 133.318 88.0552 132.621 88.0552C132.156 88.0552 131.803 88.144 131.562 88.3218C131.325 88.4995 131.206 88.7342 131.206 89.0259C131.206 89.3449 131.363 89.6001 131.678 89.7915C131.86 89.9054 132.129 90.0057 132.484 90.0923L133.298 90.2905C134.182 90.5047 134.774 90.7121 135.075 90.9126C135.554 91.2271 135.793 91.7215 135.793 92.396C135.793 93.0477 135.545 93.6105 135.048 94.0845C134.556 94.5584 133.804 94.7954 132.792 94.7954C131.703 94.7954 130.93 94.5493 130.475 94.0571C130.023 93.5604 129.782 92.9474 129.75 92.2183H130.933ZM138.183 92.2183C138.219 92.6284 138.322 92.9429 138.49 93.1616C138.8 93.5581 139.338 93.7563 140.104 93.7563C140.559 93.7563 140.96 93.6584 141.307 93.4624C141.653 93.2619 141.826 92.9543 141.826 92.5396C141.826 92.2251 141.687 91.9858 141.409 91.8218C141.231 91.7215 140.881 91.6053 140.356 91.4731L139.379 91.2271C138.755 91.0721 138.294 90.8989 137.998 90.7075C137.469 90.3748 137.205 89.9146 137.205 89.3267C137.205 88.634 137.453 88.0734 137.95 87.645C138.451 87.2166 139.124 87.0024 139.967 87.0024C141.07 87.0024 141.865 87.326 142.353 87.9731C142.658 88.3833 142.806 88.8254 142.797 89.2993H141.635C141.612 89.0213 141.514 88.7684 141.341 88.5405C141.058 88.217 140.568 88.0552 139.871 88.0552C139.406 88.0552 139.053 88.144 138.812 88.3218C138.575 88.4995 138.456 88.7342 138.456 89.0259C138.456 89.3449 138.613 89.6001 138.928 89.7915C139.11 89.9054 139.379 90.0057 139.734 90.0923L140.548 90.2905C141.432 90.5047 142.024 90.7121 142.325 90.9126C142.804 91.2271 143.043 91.7215 143.043 92.396C143.043 93.0477 142.795 93.6105 142.298 94.0845C141.806 94.5584 141.054 94.7954 140.042 94.7954C138.953 94.7954 138.18 94.5493 137.725 94.0571C137.273 93.5604 137.032 92.9474 137 92.2183H138.183ZM144.961 95.9438C145.275 95.8892 145.496 95.6681 145.624 95.2808C145.692 95.0757 145.727 94.8774 145.727 94.686C145.727 94.6541 145.724 94.6245 145.72 94.5972C145.72 94.5744 145.715 94.547 145.706 94.5151H144.961V93.0249H146.424V94.4058C146.424 94.9481 146.314 95.4243 146.096 95.8345C145.877 96.2446 145.499 96.4976 144.961 96.5933V95.9438ZM153.773 90.9399C153.773 91.7238 153.94 92.38 154.272 92.9087C154.605 93.4373 155.138 93.7017 155.872 93.7017C156.442 93.7017 156.909 93.4578 157.273 92.9702C157.643 92.478 157.827 91.7739 157.827 90.8579C157.827 89.9328 157.638 89.2492 157.26 88.8071C156.882 88.3605 156.414 88.1372 155.858 88.1372C155.239 88.1372 154.735 88.3742 154.348 88.8481C153.965 89.3221 153.773 90.0194 153.773 90.9399ZM155.626 87.064C156.187 87.064 156.656 87.1825 157.034 87.4194C157.253 87.5562 157.501 87.7954 157.779 88.1372V84.439H158.962V94.5151H157.854V93.4966C157.567 93.9478 157.228 94.2736 156.836 94.4741C156.444 94.6746 155.995 94.7749 155.489 94.7749C154.674 94.7749 153.967 94.4331 153.37 93.7495C152.773 93.0614 152.475 92.1476 152.475 91.0083C152.475 89.9419 152.746 89.019 153.288 88.2397C153.835 87.4559 154.614 87.064 155.626 87.064ZM164.086 87.0298C164.605 87.0298 165.109 87.1528 165.597 87.3989C166.084 87.6405 166.456 87.9549 166.711 88.3423C166.957 88.7114 167.121 89.1421 167.203 89.6343C167.276 89.9715 167.312 90.5093 167.312 91.2476H161.946C161.969 91.9904 162.145 92.5874 162.473 93.0386C162.801 93.4852 163.309 93.7085 163.997 93.7085C164.64 93.7085 165.152 93.4966 165.535 93.0728C165.754 92.8267 165.909 92.5418 166 92.2183H167.21C167.178 92.4871 167.071 92.7879 166.889 93.1206C166.711 93.4487 166.51 93.7176 166.287 93.9272C165.913 94.2918 165.451 94.5379 164.899 94.6655C164.603 94.7384 164.268 94.7749 163.895 94.7749C162.983 94.7749 162.211 94.4445 161.577 93.7837C160.944 93.1183 160.627 92.1886 160.627 90.9946C160.627 89.8188 160.946 88.8641 161.584 88.1304C162.222 87.3966 163.056 87.0298 164.086 87.0298ZM166.048 90.27C165.998 89.7368 165.882 89.3107 165.699 88.9917C165.362 88.3993 164.799 88.103 164.011 88.103C163.446 88.103 162.972 88.3081 162.589 88.7183C162.206 89.1239 162.003 89.6411 161.98 90.27H166.048ZM169.682 87.1938L171.637 93.1548L173.681 87.1938H175.027L172.266 94.5151H170.953L168.253 87.1938H169.682ZM179.379 87.0298C179.898 87.0298 180.402 87.1528 180.89 87.3989C181.377 87.6405 181.749 87.9549 182.004 88.3423C182.25 88.7114 182.414 89.1421 182.496 89.6343C182.569 89.9715 182.605 90.5093 182.605 91.2476H177.239C177.262 91.9904 177.438 92.5874 177.766 93.0386C178.094 93.4852 178.602 93.7085 179.29 93.7085C179.933 93.7085 180.445 93.4966 180.828 93.0728C181.047 92.8267 181.202 92.5418 181.293 92.2183H182.503C182.471 92.4871 182.364 92.7879 182.182 93.1206C182.004 93.4487 181.803 93.7176 181.58 93.9272C181.206 94.2918 180.744 94.5379 180.192 94.6655C179.896 94.7384 179.561 94.7749 179.188 94.7749C178.276 94.7749 177.504 94.4445 176.87 93.7837C176.237 93.1183 175.92 92.1886 175.92 90.9946C175.92 89.8188 176.239 88.8641 176.877 88.1304C177.515 87.3966 178.349 87.0298 179.379 87.0298ZM181.341 90.27C181.291 89.7368 181.174 89.3107 180.992 88.9917C180.655 88.3993 180.092 88.103 179.304 88.103C178.739 88.103 178.265 88.3081 177.882 88.7183C177.499 89.1239 177.296 89.6411 177.273 90.27H181.341ZM184.407 84.4731H185.638V94.5151H184.407V84.4731ZM190.646 93.7222C191.461 93.7222 192.02 93.4146 192.32 92.7993C192.626 92.1795 192.778 91.4914 192.778 90.7349C192.778 90.0513 192.669 89.4953 192.45 89.0669C192.104 88.3924 191.507 88.0552 190.659 88.0552C189.907 88.0552 189.36 88.3423 189.019 88.9165C188.677 89.4907 188.506 90.1834 188.506 90.9946C188.506 91.7739 188.677 92.4233 189.019 92.9429C189.36 93.4624 189.903 93.7222 190.646 93.7222ZM190.693 86.9819C191.637 86.9819 192.434 87.2964 193.086 87.9253C193.738 88.5542 194.063 89.4793 194.063 90.7007C194.063 91.881 193.776 92.8563 193.202 93.6265C192.628 94.3966 191.737 94.7817 190.529 94.7817C189.522 94.7817 188.722 94.4422 188.13 93.7632C187.537 93.0796 187.241 92.1636 187.241 91.0151C187.241 89.7847 187.553 88.8049 188.178 88.0757C188.802 87.3465 189.641 86.9819 190.693 86.9819ZM198.873 93.688C199.447 93.688 199.924 93.4487 200.302 92.9702C200.685 92.4871 200.876 91.7671 200.876 90.8101C200.876 90.2267 200.792 89.7254 200.623 89.3062C200.304 88.4995 199.721 88.0962 198.873 88.0962C198.021 88.0962 197.438 88.5223 197.123 89.3745C196.954 89.8302 196.87 90.409 196.87 91.1108C196.87 91.6759 196.954 92.1567 197.123 92.5532C197.442 93.3097 198.025 93.688 198.873 93.688ZM195.688 87.228H196.884V88.1987C197.13 87.866 197.399 87.6086 197.69 87.4263C198.105 87.1528 198.593 87.0161 199.153 87.0161C199.983 87.0161 200.687 87.3351 201.266 87.9731C201.844 88.6066 202.134 89.5135 202.134 90.6938C202.134 92.2889 201.717 93.4282 200.883 94.1118C200.354 94.5448 199.739 94.7612 199.037 94.7612C198.486 94.7612 198.023 94.6405 197.649 94.3989C197.431 94.2622 197.187 94.0275 196.918 93.6948V97.4341H195.688V87.228ZM203.826 87.228H205.077V94.5151H203.826V87.228ZM203.826 84.4731H205.077V85.8677H203.826V84.4731ZM207.193 87.1938H208.362V88.2329C208.709 87.8045 209.076 87.4969 209.463 87.3101C209.85 87.1232 210.281 87.0298 210.755 87.0298C211.794 87.0298 212.496 87.3921 212.86 88.1167C213.061 88.5132 213.161 89.0806 213.161 89.8188V94.5151H211.91V89.9009C211.91 89.4543 211.844 89.0942 211.712 88.8208C211.493 88.3651 211.097 88.1372 210.522 88.1372C210.231 88.1372 209.992 88.1668 209.805 88.2261C209.467 88.3263 209.171 88.5269 208.916 88.8276C208.711 89.0692 208.576 89.3198 208.513 89.5796C208.453 89.8348 208.424 90.2017 208.424 90.6802V94.5151H207.193V87.1938ZM217.82 87.064C218.395 87.064 218.896 87.2052 219.324 87.4878C219.557 87.6473 219.794 87.8797 220.035 88.1851V87.2622H221.17V93.9204C221.17 94.8501 221.033 95.5838 220.76 96.1216C220.249 97.1151 219.285 97.6118 217.868 97.6118C217.08 97.6118 216.417 97.4341 215.879 97.0786C215.341 96.7277 215.04 96.1763 214.977 95.4243H216.228C216.287 95.7524 216.405 96.0054 216.583 96.1831C216.861 96.4565 217.299 96.5933 217.896 96.5933C218.839 96.5933 219.456 96.2606 219.748 95.5952C219.921 95.2033 220.001 94.5037 219.987 93.4966C219.741 93.8703 219.445 94.1483 219.099 94.3306C218.752 94.5129 218.294 94.604 217.725 94.604C216.932 94.604 216.237 94.3237 215.64 93.7632C215.047 93.1981 214.751 92.2661 214.751 90.9673C214.751 89.7414 215.049 88.7843 215.646 88.0962C216.248 87.408 216.973 87.064 217.82 87.064ZM220.035 90.8237C220.035 89.9168 219.848 89.2446 219.475 88.8071C219.101 88.3696 218.625 88.1509 218.046 88.1509C217.18 88.1509 216.588 88.5565 216.269 89.3677C216.1 89.8006 216.016 90.368 216.016 91.0698C216.016 91.8947 216.182 92.5236 216.515 92.9565C216.852 93.3849 217.303 93.5991 217.868 93.5991C218.752 93.5991 219.374 93.2004 219.734 92.4028C219.935 91.9517 220.035 91.4253 220.035 90.8237ZM230.249 86.9819C231.074 86.9819 231.744 87.1825 232.259 87.5835C232.778 87.9845 233.09 88.675 233.195 89.6548H231.999C231.926 89.2036 231.76 88.8299 231.5 88.5337C231.24 88.2329 230.823 88.0825 230.249 88.0825C229.465 88.0825 228.905 88.4653 228.567 89.231C228.349 89.7277 228.239 90.3407 228.239 91.0698C228.239 91.8035 228.394 92.4211 228.704 92.9224C229.014 93.4237 229.502 93.6743 230.167 93.6743C230.677 93.6743 231.081 93.5194 231.377 93.2095C231.678 92.895 231.885 92.4666 231.999 91.9243H233.195C233.059 92.895 232.717 93.606 232.17 94.0571C231.623 94.5037 230.924 94.7271 230.071 94.7271C229.114 94.7271 228.351 94.3784 227.781 93.6812C227.212 92.9793 226.927 92.1043 226.927 91.0562C226.927 89.771 227.239 88.7707 227.863 88.0552C228.488 87.3397 229.283 86.9819 230.249 86.9819ZM237.581 93.7222C238.397 93.7222 238.955 93.4146 239.256 92.7993C239.561 92.1795 239.714 91.4914 239.714 90.7349C239.714 90.0513 239.604 89.4953 239.386 89.0669C239.039 88.3924 238.442 88.0552 237.595 88.0552C236.843 88.0552 236.296 88.3423 235.954 88.9165C235.612 89.4907 235.441 90.1834 235.441 90.9946C235.441 91.7739 235.612 92.4233 235.954 92.9429C236.296 93.4624 236.838 93.7222 237.581 93.7222ZM237.629 86.9819C238.572 86.9819 239.37 87.2964 240.021 87.9253C240.673 88.5542 240.999 89.4793 240.999 90.7007C240.999 91.881 240.712 92.8563 240.138 93.6265C239.563 94.3966 238.673 94.7817 237.465 94.7817C236.458 94.7817 235.658 94.4422 235.065 93.7632C234.473 93.0796 234.177 92.1636 234.177 91.0151C234.177 89.7847 234.489 88.8049 235.113 88.0757C235.738 87.3465 236.576 86.9819 237.629 86.9819ZM242.719 87.1938H243.888V88.2329C244.234 87.8045 244.601 87.4969 244.988 87.3101C245.376 87.1232 245.806 87.0298 246.28 87.0298C247.319 87.0298 248.021 87.3921 248.386 88.1167C248.586 88.5132 248.687 89.0806 248.687 89.8188V94.5151H247.436V89.9009C247.436 89.4543 247.369 89.0942 247.237 88.8208C247.019 88.3651 246.622 88.1372 246.048 88.1372C245.756 88.1372 245.517 88.1668 245.33 88.2261C244.993 88.3263 244.697 88.5269 244.441 88.8276C244.236 89.0692 244.102 89.3198 244.038 89.5796C243.979 89.8348 243.949 90.2017 243.949 90.6802V94.5151H242.719V87.1938ZM253.585 86.9819C254.41 86.9819 255.08 87.1825 255.595 87.5835C256.114 87.9845 256.426 88.675 256.531 89.6548H255.335C255.262 89.2036 255.096 88.8299 254.836 88.5337C254.576 88.2329 254.159 88.0825 253.585 88.0825C252.801 88.0825 252.241 88.4653 251.903 89.231C251.685 89.7277 251.575 90.3407 251.575 91.0698C251.575 91.8035 251.73 92.4211 252.04 92.9224C252.35 93.4237 252.838 93.6743 253.503 93.6743C254.013 93.6743 254.417 93.5194 254.713 93.2095C255.014 92.895 255.221 92.4666 255.335 91.9243H256.531C256.395 92.895 256.053 93.606 255.506 94.0571C254.959 94.5037 254.259 94.7271 253.407 94.7271C252.45 94.7271 251.687 94.3784 251.117 93.6812C250.548 92.9793 250.263 92.1043 250.263 91.0562C250.263 89.771 250.575 88.7707 251.199 88.0552C251.824 87.3397 252.619 86.9819 253.585 86.9819ZM261.061 87.0298C261.58 87.0298 262.084 87.1528 262.571 87.3989C263.059 87.6405 263.43 87.9549 263.686 88.3423C263.932 88.7114 264.096 89.1421 264.178 89.6343C264.251 89.9715 264.287 90.5093 264.287 91.2476H258.921C258.944 91.9904 259.119 92.5874 259.447 93.0386C259.775 93.4852 260.284 93.7085 260.972 93.7085C261.614 93.7085 262.127 93.4966 262.51 93.0728C262.729 92.8267 262.883 92.5418 262.975 92.2183H264.185C264.153 92.4871 264.046 92.7879 263.863 93.1206C263.686 93.4487 263.485 93.7176 263.262 93.9272C262.888 94.2918 262.425 94.5379 261.874 94.6655C261.578 94.7384 261.243 94.7749 260.869 94.7749C259.958 94.7749 259.185 94.4445 258.552 93.7837C257.918 93.1183 257.602 92.1886 257.602 90.9946C257.602 89.8188 257.921 88.8641 258.559 88.1304C259.197 87.3966 260.031 87.0298 261.061 87.0298ZM263.022 90.27C262.972 89.7368 262.856 89.3107 262.674 88.9917C262.337 88.3993 261.774 88.103 260.985 88.103C260.42 88.103 259.946 88.3081 259.563 88.7183C259.181 89.1239 258.978 89.6411 258.955 90.27H263.022ZM269.145 93.688C269.719 93.688 270.195 93.4487 270.573 92.9702C270.956 92.4871 271.147 91.7671 271.147 90.8101C271.147 90.2267 271.063 89.7254 270.895 89.3062C270.576 88.4995 269.992 88.0962 269.145 88.0962C268.292 88.0962 267.709 88.5223 267.395 89.3745C267.226 89.8302 267.142 90.409 267.142 91.1108C267.142 91.6759 267.226 92.1567 267.395 92.5532C267.714 93.3097 268.297 93.688 269.145 93.688ZM265.959 87.228H267.155V88.1987C267.401 87.866 267.67 87.6086 267.962 87.4263C268.377 87.1528 268.864 87.0161 269.425 87.0161C270.254 87.0161 270.958 87.3351 271.537 87.9731C272.116 88.6066 272.405 89.5135 272.405 90.6938C272.405 92.2889 271.988 93.4282 271.154 94.1118C270.626 94.5448 270.01 94.7612 269.309 94.7612C268.757 94.7612 268.295 94.6405 267.921 94.3989C267.702 94.2622 267.458 94.0275 267.189 93.6948V97.4341H265.959V87.228ZM274.344 85.1499H275.588V87.1938H276.757V88.1987H275.588V92.9771C275.588 93.2323 275.674 93.4032 275.848 93.4897C275.943 93.5399 276.103 93.5649 276.326 93.5649C276.385 93.5649 276.449 93.5649 276.518 93.5649C276.586 93.5604 276.666 93.5535 276.757 93.5444V94.5151C276.616 94.5562 276.467 94.5858 276.312 94.604C276.162 94.6222 275.998 94.6313 275.82 94.6313C275.246 94.6313 274.856 94.4855 274.651 94.1938C274.446 93.8976 274.344 93.5148 274.344 93.0454V88.1987H273.353V87.1938H274.344V85.1499ZM278.976 92.2183C279.012 92.6284 279.115 92.9429 279.283 93.1616C279.593 93.5581 280.131 93.7563 280.896 93.7563C281.352 93.7563 281.753 93.6584 282.1 93.4624C282.446 93.2619 282.619 92.9543 282.619 92.5396C282.619 92.2251 282.48 91.9858 282.202 91.8218C282.024 91.7215 281.674 91.6053 281.149 91.4731L280.172 91.2271C279.548 91.0721 279.087 90.8989 278.791 90.7075C278.262 90.3748 277.998 89.9146 277.998 89.3267C277.998 88.634 278.246 88.0734 278.743 87.645C279.244 87.2166 279.917 87.0024 280.76 87.0024C281.863 87.0024 282.658 87.326 283.146 87.9731C283.451 88.3833 283.599 88.8254 283.59 89.2993H282.428C282.405 89.0213 282.307 88.7684 282.134 88.5405C281.851 88.217 281.361 88.0552 280.664 88.0552C280.199 88.0552 279.846 88.144 279.604 88.3218C279.368 88.4995 279.249 88.7342 279.249 89.0259C279.249 89.3449 279.406 89.6001 279.721 89.7915C279.903 89.9054 280.172 90.0057 280.527 90.0923L281.341 90.2905C282.225 90.5047 282.817 90.7121 283.118 90.9126C283.597 91.2271 283.836 91.7215 283.836 92.396C283.836 93.0477 283.588 93.6105 283.091 94.0845C282.599 94.5584 281.847 94.7954 280.835 94.7954C279.746 94.7954 278.973 94.5493 278.518 94.0571C278.066 93.5604 277.825 92.9474 277.793 92.2183H278.976ZM94.8535 112.567C94.8535 112.922 94.9834 113.203 95.2432 113.408C95.5029 113.613 95.8105 113.715 96.166 113.715C96.599 113.715 97.0182 113.615 97.4238 113.415C98.1074 113.082 98.4492 112.537 98.4492 111.781V110.79C98.2988 110.885 98.1051 110.965 97.8682 111.029C97.6312 111.093 97.3988 111.138 97.1709 111.166L96.4258 111.261C95.9792 111.32 95.6442 111.414 95.4209 111.542C95.0426 111.756 94.8535 112.097 94.8535 112.567ZM97.834 110.079C98.1165 110.042 98.3057 109.924 98.4014 109.723C98.4561 109.614 98.4834 109.457 98.4834 109.251C98.4834 108.832 98.333 108.529 98.0322 108.342C97.736 108.151 97.3099 108.055 96.7539 108.055C96.1113 108.055 95.6556 108.228 95.3867 108.575C95.2363 108.766 95.1383 109.051 95.0928 109.429H93.9443C93.9671 108.527 94.2588 107.9 94.8193 107.549C95.3844 107.194 96.0384 107.016 96.7812 107.016C97.6426 107.016 98.3421 107.18 98.8799 107.508C99.4131 107.836 99.6797 108.347 99.6797 109.04V113.257C99.6797 113.385 99.7048 113.487 99.7549 113.565C99.8096 113.642 99.9212 113.681 100.09 113.681C100.145 113.681 100.206 113.679 100.274 113.674C100.343 113.665 100.416 113.654 100.493 113.64V114.549C100.302 114.604 100.156 114.638 100.056 114.652C99.9554 114.666 99.8187 114.672 99.6455 114.672C99.2217 114.672 98.9141 114.522 98.7227 114.221C98.6224 114.062 98.5518 113.836 98.5107 113.544C98.2601 113.873 97.9001 114.157 97.4307 114.399C96.9613 114.64 96.444 114.761 95.8789 114.761C95.1999 114.761 94.6439 114.556 94.2109 114.146C93.7826 113.731 93.5684 113.214 93.5684 112.594C93.5684 111.915 93.7803 111.389 94.2041 111.015C94.6279 110.641 95.1839 110.411 95.8721 110.325L97.834 110.079ZM101.953 107.194H103.122V108.233C103.468 107.805 103.835 107.497 104.223 107.31C104.61 107.123 105.041 107.03 105.515 107.03C106.554 107.03 107.256 107.392 107.62 108.117C107.821 108.513 107.921 109.081 107.921 109.819V114.515H106.67V109.901C106.67 109.454 106.604 109.094 106.472 108.821C106.253 108.365 105.856 108.137 105.282 108.137C104.991 108.137 104.751 108.167 104.564 108.226C104.227 108.326 103.931 108.527 103.676 108.828C103.471 109.069 103.336 109.32 103.272 109.58C103.213 109.835 103.184 110.202 103.184 110.68V114.515H101.953V107.194ZM110.775 110.94C110.775 111.724 110.942 112.38 111.274 112.909C111.607 113.437 112.14 113.702 112.874 113.702C113.444 113.702 113.911 113.458 114.275 112.97C114.645 112.478 114.829 111.774 114.829 110.858C114.829 109.933 114.64 109.249 114.262 108.807C113.883 108.361 113.416 108.137 112.86 108.137C112.241 108.137 111.737 108.374 111.35 108.848C110.967 109.322 110.775 110.019 110.775 110.94ZM112.628 107.064C113.188 107.064 113.658 107.182 114.036 107.419C114.255 107.556 114.503 107.795 114.781 108.137V104.439H115.964V114.515H114.856V113.497C114.569 113.948 114.23 114.274 113.838 114.474C113.446 114.675 112.997 114.775 112.491 114.775C111.675 114.775 110.969 114.433 110.372 113.75C109.775 113.061 109.477 112.148 109.477 111.008C109.477 109.942 109.748 109.019 110.29 108.24C110.837 107.456 111.616 107.064 112.628 107.064ZM122.917 112.218C122.953 112.628 123.056 112.943 123.225 113.162C123.535 113.558 124.072 113.756 124.838 113.756C125.294 113.756 125.695 113.658 126.041 113.462C126.387 113.262 126.561 112.954 126.561 112.54C126.561 112.225 126.422 111.986 126.144 111.822C125.966 111.722 125.615 111.605 125.091 111.473L124.113 111.227C123.489 111.072 123.029 110.899 122.732 110.708C122.204 110.375 121.939 109.915 121.939 109.327C121.939 108.634 122.188 108.073 122.685 107.645C123.186 107.217 123.858 107.002 124.701 107.002C125.804 107.002 126.599 107.326 127.087 107.973C127.392 108.383 127.54 108.825 127.531 109.299H126.369C126.346 109.021 126.248 108.768 126.075 108.541C125.793 108.217 125.303 108.055 124.605 108.055C124.141 108.055 123.787 108.144 123.546 108.322C123.309 108.5 123.19 108.734 123.19 109.026C123.19 109.345 123.348 109.6 123.662 109.792C123.844 109.905 124.113 110.006 124.469 110.092L125.282 110.291C126.166 110.505 126.759 110.712 127.06 110.913C127.538 111.227 127.777 111.722 127.777 112.396C127.777 113.048 127.529 113.611 127.032 114.084C126.54 114.558 125.788 114.795 124.776 114.795C123.687 114.795 122.915 114.549 122.459 114.057C122.008 113.56 121.766 112.947 121.734 112.218H122.917ZM129.682 105.15H130.926V107.194H132.095V108.199H130.926V112.977C130.926 113.232 131.012 113.403 131.186 113.49C131.281 113.54 131.441 113.565 131.664 113.565C131.723 113.565 131.787 113.565 131.855 113.565C131.924 113.56 132.004 113.554 132.095 113.544V114.515C131.953 114.556 131.805 114.586 131.65 114.604C131.5 114.622 131.336 114.631 131.158 114.631C130.584 114.631 130.194 114.486 129.989 114.194C129.784 113.898 129.682 113.515 129.682 113.045V108.199H128.69V107.194H129.682V105.15ZM133.616 107.194H134.785V108.458C134.881 108.212 135.116 107.914 135.489 107.563C135.863 107.208 136.294 107.03 136.781 107.03C136.804 107.03 136.843 107.032 136.897 107.037C136.952 107.041 137.046 107.05 137.178 107.064V108.363C137.105 108.349 137.036 108.34 136.973 108.335C136.913 108.331 136.847 108.329 136.774 108.329C136.155 108.329 135.678 108.529 135.346 108.93C135.013 109.327 134.847 109.785 134.847 110.304V114.515H133.616V107.194ZM139.725 107.194V112.054C139.725 112.428 139.784 112.733 139.902 112.97C140.121 113.408 140.529 113.626 141.126 113.626C141.983 113.626 142.566 113.244 142.876 112.478C143.045 112.068 143.129 111.505 143.129 110.79V107.194H144.359V114.515H143.197L143.211 113.435C143.051 113.713 142.853 113.948 142.616 114.139C142.147 114.522 141.577 114.713 140.907 114.713C139.864 114.713 139.153 114.365 138.774 113.667C138.569 113.294 138.467 112.795 138.467 112.17V107.194H139.725ZM149.36 106.982C150.185 106.982 150.855 107.182 151.37 107.583C151.89 107.985 152.202 108.675 152.307 109.655H151.11C151.037 109.204 150.871 108.83 150.611 108.534C150.352 108.233 149.935 108.083 149.36 108.083C148.576 108.083 148.016 108.465 147.679 109.231C147.46 109.728 147.351 110.341 147.351 111.07C147.351 111.804 147.506 112.421 147.815 112.922C148.125 113.424 148.613 113.674 149.278 113.674C149.789 113.674 150.192 113.519 150.488 113.209C150.789 112.895 150.996 112.467 151.11 111.924H152.307C152.17 112.895 151.828 113.606 151.281 114.057C150.734 114.504 150.035 114.727 149.183 114.727C148.226 114.727 147.462 114.378 146.893 113.681C146.323 112.979 146.038 112.104 146.038 111.056C146.038 109.771 146.35 108.771 146.975 108.055C147.599 107.34 148.394 106.982 149.36 106.982ZM154.033 105.15H155.277V107.194H156.446V108.199H155.277V112.977C155.277 113.232 155.364 113.403 155.537 113.49C155.633 113.54 155.792 113.565 156.016 113.565C156.075 113.565 156.139 113.565 156.207 113.565C156.275 113.56 156.355 113.554 156.446 113.544V114.515C156.305 114.556 156.157 114.586 156.002 114.604C155.852 114.622 155.688 114.631 155.51 114.631C154.936 114.631 154.546 114.486 154.341 114.194C154.136 113.898 154.033 113.515 154.033 113.045V108.199H153.042V107.194H154.033V105.15ZM159.164 107.194V112.054C159.164 112.428 159.223 112.733 159.342 112.97C159.561 113.408 159.968 113.626 160.565 113.626C161.422 113.626 162.006 113.244 162.315 112.478C162.484 112.068 162.568 111.505 162.568 110.79V107.194H163.799V114.515H162.637L162.65 113.435C162.491 113.713 162.293 113.948 162.056 114.139C161.586 114.522 161.017 114.713 160.347 114.713C159.303 114.713 158.592 114.365 158.214 113.667C158.009 113.294 157.906 112.795 157.906 112.17V107.194H159.164ZM166.011 107.194H167.18V108.458C167.275 108.212 167.51 107.914 167.884 107.563C168.257 107.208 168.688 107.03 169.176 107.03C169.199 107.03 169.237 107.032 169.292 107.037C169.347 107.041 169.44 107.05 169.572 107.064V108.363C169.499 108.349 169.431 108.34 169.367 108.335C169.308 108.331 169.242 108.329 169.169 108.329C168.549 108.329 168.073 108.529 167.74 108.93C167.408 109.327 167.241 109.785 167.241 110.304V114.515H166.011V107.194ZM170.889 107.228H172.14V114.515H170.889V107.228ZM170.889 104.473H172.14V105.868H170.889V104.473ZM174.256 107.194H175.425V108.233C175.771 107.805 176.138 107.497 176.525 107.31C176.913 107.123 177.343 107.03 177.817 107.03C178.856 107.03 179.558 107.392 179.923 108.117C180.123 108.513 180.224 109.081 180.224 109.819V114.515H178.973V109.901C178.973 109.454 178.907 109.094 178.774 108.821C178.556 108.365 178.159 108.137 177.585 108.137C177.293 108.137 177.054 108.167 176.867 108.226C176.53 108.326 176.234 108.527 175.979 108.828C175.773 109.069 175.639 109.32 175.575 109.58C175.516 109.835 175.486 110.202 175.486 110.68V114.515H174.256V107.194ZM184.883 107.064C185.457 107.064 185.958 107.205 186.387 107.488C186.619 107.647 186.856 107.88 187.098 108.185V107.262H188.232V113.92C188.232 114.85 188.096 115.584 187.822 116.122C187.312 117.115 186.348 117.612 184.931 117.612C184.142 117.612 183.479 117.434 182.941 117.079C182.404 116.728 182.103 116.176 182.039 115.424H183.29C183.349 115.752 183.468 116.005 183.646 116.183C183.924 116.457 184.361 116.593 184.958 116.593C185.901 116.593 186.519 116.261 186.811 115.595C186.984 115.203 187.063 114.504 187.05 113.497C186.804 113.87 186.507 114.148 186.161 114.331C185.815 114.513 185.357 114.604 184.787 114.604C183.994 114.604 183.299 114.324 182.702 113.763C182.11 113.198 181.813 112.266 181.813 110.967C181.813 109.741 182.112 108.784 182.709 108.096C183.311 107.408 184.035 107.064 184.883 107.064ZM187.098 110.824C187.098 109.917 186.911 109.245 186.537 108.807C186.163 108.37 185.687 108.151 185.108 108.151C184.243 108.151 183.65 108.556 183.331 109.368C183.162 109.801 183.078 110.368 183.078 111.07C183.078 111.895 183.244 112.524 183.577 112.957C183.914 113.385 184.366 113.599 184.931 113.599C185.815 113.599 186.437 113.2 186.797 112.403C186.997 111.952 187.098 111.425 187.098 110.824ZM194.734 105.15H195.979V107.194H197.147V108.199H195.979V112.977C195.979 113.232 196.065 113.403 196.238 113.49C196.334 113.54 196.493 113.565 196.717 113.565C196.776 113.565 196.84 113.565 196.908 113.565C196.977 113.56 197.056 113.554 197.147 113.544V114.515C197.006 114.556 196.858 114.586 196.703 114.604C196.553 114.622 196.389 114.631 196.211 114.631C195.637 114.631 195.247 114.486 195.042 114.194C194.837 113.898 194.734 113.515 194.734 113.045V108.199H193.743V107.194H194.734V105.15ZM198.635 104.439H199.865V108.185C200.157 107.816 200.419 107.556 200.651 107.406C201.048 107.146 201.542 107.016 202.135 107.016C203.197 107.016 203.917 107.388 204.295 108.13C204.5 108.536 204.603 109.099 204.603 109.819V114.515H203.338V109.901C203.338 109.363 203.27 108.969 203.133 108.718C202.91 108.317 202.49 108.117 201.875 108.117C201.365 108.117 200.902 108.292 200.487 108.643C200.073 108.994 199.865 109.657 199.865 110.632V114.515H198.635V104.439ZM209.727 107.03C210.246 107.03 210.75 107.153 211.237 107.399C211.725 107.64 212.096 107.955 212.352 108.342C212.598 108.711 212.762 109.142 212.844 109.634C212.917 109.972 212.953 110.509 212.953 111.248H207.587C207.61 111.99 207.785 112.587 208.113 113.039C208.441 113.485 208.95 113.708 209.638 113.708C210.28 113.708 210.793 113.497 211.176 113.073C211.395 112.827 211.549 112.542 211.641 112.218H212.851C212.819 112.487 212.712 112.788 212.529 113.121C212.352 113.449 212.151 113.718 211.928 113.927C211.554 114.292 211.091 114.538 210.54 114.666C210.244 114.738 209.909 114.775 209.535 114.775C208.624 114.775 207.851 114.444 207.218 113.784C206.584 113.118 206.268 112.189 206.268 110.995C206.268 109.819 206.587 108.864 207.225 108.13C207.863 107.397 208.697 107.03 209.727 107.03ZM211.688 110.27C211.638 109.737 211.522 109.311 211.34 108.992C211.003 108.399 210.44 108.103 209.651 108.103C209.086 108.103 208.612 108.308 208.229 108.718C207.847 109.124 207.644 109.641 207.621 110.27H211.688ZM221.957 113.688C222.531 113.688 223.007 113.449 223.386 112.97C223.769 112.487 223.96 111.767 223.96 110.81C223.96 110.227 223.876 109.725 223.707 109.306C223.388 108.5 222.805 108.096 221.957 108.096C221.105 108.096 220.521 108.522 220.207 109.375C220.038 109.83 219.954 110.409 219.954 111.111C219.954 111.676 220.038 112.157 220.207 112.553C220.526 113.31 221.109 113.688 221.957 113.688ZM218.771 107.228H219.968V108.199C220.214 107.866 220.483 107.609 220.774 107.426C221.189 107.153 221.677 107.016 222.237 107.016C223.067 107.016 223.771 107.335 224.35 107.973C224.928 108.607 225.218 109.514 225.218 110.694C225.218 112.289 224.801 113.428 223.967 114.112C223.438 114.545 222.823 114.761 222.121 114.761C221.57 114.761 221.107 114.64 220.733 114.399C220.515 114.262 220.271 114.028 220.002 113.695V117.434H218.771V107.228ZM226.944 107.194H228.113V108.458C228.209 108.212 228.444 107.914 228.817 107.563C229.191 107.208 229.622 107.03 230.109 107.03C230.132 107.03 230.171 107.032 230.226 107.037C230.28 107.041 230.374 107.05 230.506 107.064V108.363C230.433 108.349 230.365 108.34 230.301 108.335C230.242 108.331 230.175 108.329 230.103 108.329C229.483 108.329 229.007 108.529 228.674 108.93C228.341 109.327 228.175 109.785 228.175 110.304V114.515H226.944V107.194ZM234.728 113.722C235.543 113.722 236.102 113.415 236.402 112.799C236.708 112.18 236.86 111.491 236.86 110.735C236.86 110.051 236.751 109.495 236.532 109.067C236.186 108.392 235.589 108.055 234.741 108.055C233.989 108.055 233.442 108.342 233.101 108.917C232.759 109.491 232.588 110.183 232.588 110.995C232.588 111.774 232.759 112.423 233.101 112.943C233.442 113.462 233.985 113.722 234.728 113.722ZM234.775 106.982C235.719 106.982 236.516 107.296 237.168 107.925C237.82 108.554 238.146 109.479 238.146 110.701C238.146 111.881 237.858 112.856 237.284 113.626C236.71 114.397 235.819 114.782 234.611 114.782C233.604 114.782 232.804 114.442 232.212 113.763C231.619 113.08 231.323 112.164 231.323 111.015C231.323 109.785 231.635 108.805 232.26 108.076C232.884 107.347 233.723 106.982 234.775 106.982ZM241.096 105.895H239.865V104.473H241.096V105.895ZM238.703 116.368C239.255 116.349 239.585 116.299 239.694 116.217C239.808 116.14 239.865 115.891 239.865 115.472V107.228H241.096V115.602C241.096 116.135 241.009 116.534 240.836 116.798C240.549 117.245 240.004 117.468 239.202 117.468C239.143 117.468 239.079 117.466 239.011 117.461C238.947 117.457 238.844 117.448 238.703 117.434V116.368ZM246.281 107.03C246.801 107.03 247.304 107.153 247.792 107.399C248.28 107.64 248.651 107.955 248.906 108.342C249.152 108.711 249.316 109.142 249.398 109.634C249.471 109.972 249.508 110.509 249.508 111.248H244.142C244.164 111.99 244.34 112.587 244.668 113.039C244.996 113.485 245.504 113.708 246.192 113.708C246.835 113.708 247.348 113.497 247.73 113.073C247.949 112.827 248.104 112.542 248.195 112.218H249.405C249.373 112.487 249.266 112.788 249.084 113.121C248.906 113.449 248.706 113.718 248.482 113.927C248.109 114.292 247.646 114.538 247.095 114.666C246.799 114.738 246.464 114.775 246.09 114.775C245.178 114.775 244.406 114.444 243.772 113.784C243.139 113.118 242.822 112.189 242.822 110.995C242.822 109.819 243.141 108.864 243.779 108.13C244.417 107.397 245.251 107.03 246.281 107.03ZM248.243 110.27C248.193 109.737 248.077 109.311 247.895 108.992C247.557 108.399 246.994 108.103 246.206 108.103C245.641 108.103 245.167 108.308 244.784 108.718C244.401 109.124 244.199 109.641 244.176 110.27H248.243ZM254.099 106.982C254.924 106.982 255.593 107.182 256.108 107.583C256.628 107.985 256.94 108.675 257.045 109.655H255.849C255.776 109.204 255.609 108.83 255.35 108.534C255.09 108.233 254.673 108.083 254.099 108.083C253.315 108.083 252.754 108.465 252.417 109.231C252.198 109.728 252.089 110.341 252.089 111.07C252.089 111.804 252.244 112.421 252.554 112.922C252.864 113.424 253.351 113.674 254.017 113.674C254.527 113.674 254.93 113.519 255.227 113.209C255.527 112.895 255.735 112.467 255.849 111.924H257.045C256.908 112.895 256.566 113.606 256.02 114.057C255.473 114.504 254.773 114.727 253.921 114.727C252.964 114.727 252.201 114.378 251.631 113.681C251.061 112.979 250.776 112.104 250.776 111.056C250.776 109.771 251.089 108.771 251.713 108.055C252.337 107.34 253.132 106.982 254.099 106.982ZM258.771 105.15H260.016V107.194H261.185V108.199H260.016V112.977C260.016 113.232 260.102 113.403 260.275 113.49C260.371 113.54 260.531 113.565 260.754 113.565C260.813 113.565 260.877 113.565 260.945 113.565C261.014 113.56 261.093 113.554 261.185 113.544V114.515C261.043 114.556 260.895 114.586 260.74 114.604C260.59 114.622 260.426 114.631 260.248 114.631C259.674 114.631 259.284 114.486 259.079 114.194C258.874 113.898 258.771 113.515 258.771 113.045V108.199H257.78V107.194H258.771V105.15ZM267.064 105.15H268.309V107.194H269.478V108.199H268.309V112.977C268.309 113.232 268.395 113.403 268.568 113.49C268.664 113.54 268.824 113.565 269.047 113.565C269.106 113.565 269.17 113.565 269.238 113.565C269.307 113.56 269.386 113.554 269.478 113.544V114.515C269.336 114.556 269.188 114.586 269.033 114.604C268.883 114.622 268.719 114.631 268.541 114.631C267.967 114.631 267.577 114.486 267.372 114.194C267.167 113.898 267.064 113.515 267.064 113.045V108.199H266.073V107.194H267.064V105.15ZM273.87 113.722C274.686 113.722 275.244 113.415 275.545 112.799C275.85 112.18 276.003 111.491 276.003 110.735C276.003 110.051 275.894 109.495 275.675 109.067C275.328 108.392 274.731 108.055 273.884 108.055C273.132 108.055 272.585 108.342 272.243 108.917C271.901 109.491 271.73 110.183 271.73 110.995C271.73 111.774 271.901 112.423 272.243 112.943C272.585 113.462 273.127 113.722 273.87 113.722ZM273.918 106.982C274.861 106.982 275.659 107.296 276.311 107.925C276.962 108.554 277.288 109.479 277.288 110.701C277.288 111.881 277.001 112.856 276.427 113.626C275.853 114.397 274.962 114.782 273.754 114.782C272.747 114.782 271.947 114.442 271.354 113.763C270.762 113.08 270.466 112.164 270.466 111.015C270.466 109.785 270.778 108.805 271.402 108.076C272.027 107.347 272.865 106.982 273.918 106.982ZM93.8145 124.439H95.0107V128.083C95.2796 127.732 95.6009 127.465 95.9746 127.283C96.3483 127.096 96.7539 127.002 97.1914 127.002C98.1029 127.002 98.8411 127.317 99.4062 127.946C99.9759 128.57 100.261 129.493 100.261 130.714C100.261 131.872 99.9805 132.833 99.4199 133.599C98.8594 134.365 98.0824 134.748 97.0889 134.748C96.5329 134.748 96.0635 134.613 95.6807 134.344C95.4528 134.185 95.209 133.93 94.9492 133.579V134.515H93.8145V124.439ZM97.0137 133.661C97.679 133.661 98.1758 133.396 98.5039 132.868C98.8366 132.339 99.0029 131.642 99.0029 130.776C99.0029 130.006 98.8366 129.368 98.5039 128.862C98.1758 128.356 97.6904 128.103 97.0479 128.103C96.4873 128.103 95.9951 128.31 95.5713 128.725C95.152 129.14 94.9424 129.823 94.9424 130.776C94.9424 131.464 95.029 132.022 95.2021 132.451C95.5257 133.257 96.1296 133.661 97.0137 133.661ZM101.987 127.194H103.156V128.458C103.252 128.212 103.487 127.914 103.86 127.563C104.234 127.208 104.665 127.03 105.152 127.03C105.175 127.03 105.214 127.032 105.269 127.037C105.323 127.041 105.417 127.05 105.549 127.064V128.363C105.476 128.349 105.408 128.34 105.344 128.335C105.285 128.331 105.218 128.329 105.146 128.329C104.526 128.329 104.049 128.529 103.717 128.93C103.384 129.327 103.218 129.785 103.218 130.304V134.515H101.987V127.194ZM106.865 127.228H108.116V134.515H106.865V127.228ZM106.865 124.473H108.116V125.868H106.865V124.473ZM110.232 127.194H111.401V128.233C111.748 127.805 112.115 127.497 112.502 127.31C112.889 127.123 113.32 127.03 113.794 127.03C114.833 127.03 115.535 127.392 115.899 128.117C116.1 128.513 116.2 129.081 116.2 129.819V134.515H114.949V129.901C114.949 129.454 114.883 129.094 114.751 128.821C114.532 128.365 114.136 128.137 113.562 128.137C113.27 128.137 113.031 128.167 112.844 128.226C112.507 128.326 112.21 128.527 111.955 128.828C111.75 129.069 111.616 129.32 111.552 129.58C111.493 129.835 111.463 130.202 111.463 130.68V134.515H110.232V127.194ZM120.859 127.064C121.434 127.064 121.935 127.205 122.363 127.488C122.596 127.647 122.833 127.88 123.074 128.185V127.262H124.209V133.92C124.209 134.85 124.072 135.584 123.799 136.122C123.288 137.115 122.325 137.612 120.907 137.612C120.119 137.612 119.456 137.434 118.918 137.079C118.38 136.728 118.079 136.176 118.016 135.424H119.267C119.326 135.752 119.444 136.005 119.622 136.183C119.9 136.457 120.338 136.593 120.935 136.593C121.878 136.593 122.495 136.261 122.787 135.595C122.96 135.203 123.04 134.504 123.026 133.497C122.78 133.87 122.484 134.148 122.138 134.331C121.791 134.513 121.333 134.604 120.764 134.604C119.971 134.604 119.276 134.324 118.679 133.763C118.086 133.198 117.79 132.266 117.79 130.967C117.79 129.741 118.089 128.784 118.686 128.096C119.287 127.408 120.012 127.064 120.859 127.064ZM123.074 130.824C123.074 129.917 122.887 129.245 122.514 128.807C122.14 128.37 121.664 128.151 121.085 128.151C120.219 128.151 119.627 128.556 119.308 129.368C119.139 129.801 119.055 130.368 119.055 131.07C119.055 131.895 119.221 132.524 119.554 132.957C119.891 133.385 120.342 133.599 120.907 133.599C121.791 133.599 122.413 133.2 122.773 132.403C122.974 131.952 123.074 131.425 123.074 130.824ZM135.038 127.194H136.398C136.225 127.663 135.84 128.734 135.243 130.407C134.797 131.665 134.423 132.69 134.122 133.483C133.411 135.351 132.91 136.491 132.618 136.901C132.326 137.311 131.825 137.516 131.114 137.516C130.941 137.516 130.807 137.509 130.711 137.496C130.62 137.482 130.506 137.457 130.369 137.42V136.299C130.583 136.359 130.738 136.395 130.834 136.409C130.93 136.422 131.014 136.429 131.087 136.429C131.315 136.429 131.481 136.39 131.586 136.313C131.695 136.24 131.786 136.149 131.859 136.04C131.882 136.003 131.964 135.816 132.105 135.479C132.247 135.142 132.349 134.891 132.413 134.727L129.706 127.194H131.101L133.062 133.155L135.038 127.194ZM140.62 133.722C141.436 133.722 141.994 133.415 142.295 132.799C142.6 132.18 142.753 131.491 142.753 130.735C142.753 130.051 142.644 129.495 142.425 129.067C142.078 128.392 141.481 128.055 140.634 128.055C139.882 128.055 139.335 128.342 138.993 128.917C138.651 129.491 138.48 130.183 138.48 130.995C138.48 131.774 138.651 132.423 138.993 132.943C139.335 133.462 139.877 133.722 140.62 133.722ZM140.668 126.982C141.611 126.982 142.409 127.296 143.061 127.925C143.712 128.554 144.038 129.479 144.038 130.701C144.038 131.881 143.751 132.856 143.177 133.626C142.603 134.397 141.712 134.782 140.504 134.782C139.497 134.782 138.697 134.442 138.104 133.763C137.512 133.08 137.216 132.164 137.216 131.015C137.216 129.785 137.528 128.805 138.152 128.076C138.777 127.347 139.615 126.982 140.668 126.982ZM146.988 127.194V132.054C146.988 132.428 147.048 132.733 147.166 132.97C147.385 133.408 147.793 133.626 148.39 133.626C149.246 133.626 149.83 133.244 150.14 132.478C150.308 132.068 150.393 131.505 150.393 130.79V127.194H151.623V134.515H150.461L150.475 133.435C150.315 133.713 150.117 133.948 149.88 134.139C149.41 134.522 148.841 134.713 148.171 134.713C147.127 134.713 146.416 134.365 146.038 133.667C145.833 133.294 145.73 132.795 145.73 132.17V127.194H146.988ZM153.835 127.194H155.004V128.458C155.1 128.212 155.334 127.914 155.708 127.563C156.082 127.208 156.512 127.03 157 127.03C157.023 127.03 157.062 127.032 157.116 127.037C157.171 127.041 157.264 127.05 157.396 127.064V128.363C157.324 128.349 157.255 128.34 157.191 128.335C157.132 128.331 157.066 128.329 156.993 128.329C156.373 128.329 155.897 128.529 155.564 128.93C155.232 129.327 155.065 129.785 155.065 130.304V134.515H153.835V127.194ZM163.461 127.194L165.416 133.155L167.46 127.194H168.807L166.045 134.515H164.732L162.032 127.194H163.461ZM170.109 127.228H171.36V134.515H170.109V127.228ZM170.109 124.473H171.36V125.868H170.109V124.473ZM174.208 132.218C174.244 132.628 174.347 132.943 174.516 133.162C174.826 133.558 175.363 133.756 176.129 133.756C176.585 133.756 176.986 133.658 177.332 133.462C177.678 133.262 177.852 132.954 177.852 132.54C177.852 132.225 177.713 131.986 177.435 131.822C177.257 131.722 176.906 131.605 176.382 131.473L175.404 131.227C174.78 131.072 174.32 130.899 174.023 130.708C173.495 130.375 173.23 129.915 173.23 129.327C173.23 128.634 173.479 128.073 173.976 127.645C174.477 127.217 175.149 127.002 175.992 127.002C177.095 127.002 177.89 127.326 178.378 127.973C178.683 128.383 178.831 128.825 178.822 129.299H177.66C177.637 129.021 177.539 128.768 177.366 128.541C177.084 128.217 176.594 128.055 175.896 128.055C175.432 128.055 175.078 128.144 174.837 128.322C174.6 128.5 174.481 128.734 174.481 129.026C174.481 129.345 174.639 129.6 174.953 129.792C175.135 129.905 175.404 130.006 175.76 130.092L176.573 130.291C177.457 130.505 178.05 130.712 178.351 130.913C178.829 131.227 179.068 131.722 179.068 132.396C179.068 133.048 178.82 133.611 178.323 134.084C177.831 134.558 177.079 134.795 176.067 134.795C174.978 134.795 174.206 134.549 173.75 134.057C173.299 133.56 173.057 132.947 173.025 132.218H174.208ZM180.727 127.228H181.978V134.515H180.727V127.228ZM180.727 124.473H181.978V125.868H180.727V124.473ZM186.999 133.722C187.815 133.722 188.373 133.415 188.674 132.799C188.979 132.18 189.132 131.491 189.132 130.735C189.132 130.051 189.022 129.495 188.804 129.067C188.457 128.392 187.86 128.055 187.013 128.055C186.261 128.055 185.714 128.342 185.372 128.917C185.03 129.491 184.859 130.183 184.859 130.995C184.859 131.774 185.03 132.423 185.372 132.943C185.714 133.462 186.256 133.722 186.999 133.722ZM187.047 126.982C187.99 126.982 188.788 127.296 189.439 127.925C190.091 128.554 190.417 129.479 190.417 130.701C190.417 131.881 190.13 132.856 189.556 133.626C188.981 134.397 188.09 134.782 186.883 134.782C185.876 134.782 185.076 134.442 184.483 133.763C183.891 133.08 183.595 132.164 183.595 131.015C183.595 129.785 183.907 128.805 184.531 128.076C185.156 127.347 185.994 126.982 187.047 126.982ZM192.137 127.194H193.306V128.233C193.652 127.805 194.019 127.497 194.406 127.31C194.794 127.123 195.224 127.03 195.698 127.03C196.737 127.03 197.439 127.392 197.804 128.117C198.004 128.513 198.104 129.081 198.104 129.819V134.515H196.854V129.901C196.854 129.454 196.787 129.094 196.655 128.821C196.437 128.365 196.04 128.137 195.466 128.137C195.174 128.137 194.935 128.167 194.748 128.226C194.411 128.326 194.115 128.527 193.859 128.828C193.654 129.069 193.52 129.32 193.456 129.58C193.397 129.835 193.367 130.202 193.367 130.68V134.515H192.137V127.194ZM204.572 125.15H205.816V127.194H206.985V128.199H205.816V132.977C205.816 133.232 205.903 133.403 206.076 133.49C206.172 133.54 206.331 133.565 206.555 133.565C206.614 133.565 206.678 133.565 206.746 133.565C206.814 133.56 206.894 133.554 206.985 133.544V134.515C206.844 134.556 206.696 134.586 206.541 134.604C206.391 134.622 206.227 134.631 206.049 134.631C205.475 134.631 205.085 134.486 204.88 134.194C204.675 133.898 204.572 133.515 204.572 133.045V128.199H203.581V127.194H204.572V125.15ZM211.378 133.722C212.194 133.722 212.752 133.415 213.053 132.799C213.358 132.18 213.511 131.491 213.511 130.735C213.511 130.051 213.401 129.495 213.183 129.067C212.836 128.392 212.239 128.055 211.392 128.055C210.64 128.055 210.093 128.342 209.751 128.917C209.409 129.491 209.238 130.183 209.238 130.995C209.238 131.774 209.409 132.423 209.751 132.943C210.093 133.462 210.635 133.722 211.378 133.722ZM211.426 126.982C212.369 126.982 213.167 127.296 213.818 127.925C214.47 128.554 214.796 129.479 214.796 130.701C214.796 131.881 214.509 132.856 213.935 133.626C213.36 134.397 212.469 134.782 211.262 134.782C210.255 134.782 209.455 134.442 208.862 133.763C208.27 133.08 207.974 132.164 207.974 131.015C207.974 129.785 208.286 128.805 208.91 128.076C209.535 127.347 210.373 126.982 211.426 126.982ZM220.696 124.473H221.927V134.515H220.696V124.473ZM224.029 127.228H225.28V134.515H224.029V127.228ZM224.029 124.473H225.28V125.868H224.029V124.473ZM227.704 126.08C227.722 125.569 227.811 125.195 227.971 124.958C228.258 124.539 228.812 124.33 229.632 124.33C229.709 124.33 229.789 124.332 229.871 124.336C229.953 124.341 230.047 124.348 230.151 124.357V125.478C230.024 125.469 229.93 125.464 229.871 125.464C229.816 125.46 229.764 125.458 229.714 125.458C229.34 125.458 229.117 125.556 229.044 125.751C228.971 125.943 228.935 126.435 228.935 127.228H230.151V128.199H228.921V134.515H227.704V128.199H226.686V127.228H227.704V126.08ZM234.592 127.03C235.111 127.03 235.615 127.153 236.103 127.399C236.59 127.64 236.962 127.955 237.217 128.342C237.463 128.711 237.627 129.142 237.709 129.634C237.782 129.972 237.818 130.509 237.818 131.248H232.452C232.475 131.99 232.65 132.587 232.979 133.039C233.307 133.485 233.815 133.708 234.503 133.708C235.146 133.708 235.658 133.497 236.041 133.073C236.26 132.827 236.415 132.542 236.506 132.218H237.716C237.684 132.487 237.577 132.788 237.395 133.121C237.217 133.449 237.016 133.718 236.793 133.927C236.419 134.292 235.957 134.538 235.405 134.666C235.109 134.738 234.774 134.775 234.4 134.775C233.489 134.775 232.716 134.444 232.083 133.784C231.45 133.118 231.133 132.189 231.133 130.995C231.133 129.819 231.452 128.864 232.09 128.13C232.728 127.397 233.562 127.03 234.592 127.03ZM236.554 130.27C236.504 129.737 236.387 129.311 236.205 128.992C235.868 128.399 235.305 128.103 234.517 128.103C233.951 128.103 233.478 128.308 233.095 128.718C232.712 129.124 232.509 129.641 232.486 130.27H236.554ZM239.88 133.025H241.309V134.515H239.88V133.025Z" fill="white"/>
</svg>
