<svg width="327" height="188" viewBox="0 0 327 188" fill="none" xmlns="http://www.w3.org/2000/svg">
<path fill-rule="evenodd" clip-rule="evenodd" d="M77.1444 114.437C76.4011 127.967 74.3208 134.86 81.8129 148.304C96.1691 174.06 128.704 180.022 151.082 163.031C155.706 159.52 158.265 154.994 161.506 152.791C177.25 188.689 216.073 193.414 239.457 175.846C243.804 172.579 247.145 169.07 249.78 165.484C253.923 159.839 254.654 157.086 257.122 152.877C269.403 153.623 276.78 156.034 287.049 146.749C290.206 143.895 293.18 140.115 294.978 136.058C296.936 131.647 297.004 129.296 297.36 124.903L297.865 121.527C298.574 118.247 312.388 117.899 321.858 94.7011C327.069 81.937 324.912 65.6354 317.685 53.5999C307.516 36.6653 286.316 28.0962 266.489 33.1499C258.064 35.2964 254.679 38.3556 248.566 41.822C237.467 -0.260526 187.529 -11.9182 158.999 20.9255C155.665 24.7623 154.428 28.8371 151.099 33.9251C139.819 32.0042 132.413 27.1321 114.794 34.3298C99.2258 40.6861 95.9533 50.5432 91.248 55.7514C81.0328 55.0203 76.3692 51.1221 64.4417 58.3542C57.9063 62.3186 52.8208 69.0429 50.765 76.822C50.3602 77.2391 46.7687 71.4102 26.1911 76.1597C15.9293 78.527 -0.431263 90.8079 1.65888 90.0621C22.2831 82.6926 25.1632 81.7212 42.9539 89.4439C52.0456 93.3911 50.7674 95.8321 56.0884 102.873C61.4953 110.004 66.6545 112.313 77.142 114.435L77.1444 114.437Z" fill="#454545" stroke="#616161" stroke-width="2.55544" stroke-miterlimit="22.9256" stroke-linecap="square"/>
<path d="M94.6982 64.8127L96.5918 72.9817L98.8613 64.8127H100.338L102.607 72.9817L104.501 64.8127H105.991L103.353 74.8547H101.924L99.6064 66.5286L97.2754 74.8547H95.8467L93.2217 64.8127H94.6982ZM110.145 67.3694C110.664 67.3694 111.168 67.4924 111.655 67.7385C112.143 67.9801 112.514 68.2945 112.77 68.6819C113.016 69.051 113.18 69.4817 113.262 69.9739C113.335 70.3111 113.371 70.8489 113.371 71.5872H108.005C108.028 72.33 108.203 72.927 108.531 73.3782C108.859 73.8248 109.368 74.0481 110.056 74.0481C110.698 74.0481 111.211 73.8362 111.594 73.4124C111.812 73.1663 111.967 72.8814 112.059 72.5579H113.269C113.237 72.8267 113.13 73.1275 112.947 73.4602C112.77 73.7883 112.569 74.0572 112.346 74.2668C111.972 74.6314 111.509 74.8775 110.958 75.0051C110.662 75.078 110.327 75.1145 109.953 75.1145C109.042 75.1145 108.269 74.7841 107.636 74.1233C107.002 73.4579 106.686 72.5282 106.686 71.3342C106.686 70.1584 107.005 69.2037 107.643 68.47C108.281 67.7362 109.115 67.3694 110.145 67.3694ZM112.106 70.6096C112.056 70.0764 111.94 69.6503 111.758 69.3313C111.421 68.7389 110.858 68.4426 110.069 68.4426C109.504 68.4426 109.03 68.6477 108.647 69.0579C108.265 69.4635 108.062 69.9807 108.039 70.6096H112.106ZM116.547 64.8127L116.321 68.8323H115.528L115.303 64.8127H116.547ZM118.103 64.8127H119.333V74.8547H118.103V64.8127ZM121.47 64.8127H122.7V74.8547H121.47V64.8127ZM129.681 72.5579C129.717 72.968 129.82 73.2825 129.988 73.5012C130.298 73.8977 130.836 74.0959 131.602 74.0959C132.057 74.0959 132.458 73.998 132.805 73.802C133.151 73.6015 133.324 73.2939 133.324 72.8792C133.324 72.5647 133.185 72.3254 132.907 72.1614C132.729 72.0611 132.379 71.9449 131.854 71.8127L130.877 71.5667C130.253 71.4117 129.792 71.2385 129.496 71.0471C128.967 70.7144 128.703 70.2542 128.703 69.6663C128.703 68.9736 128.951 68.413 129.448 67.9846C129.95 67.5562 130.622 67.342 131.465 67.342C132.568 67.342 133.363 67.6656 133.851 68.3127C134.156 68.7229 134.304 69.165 134.295 69.6389H133.133C133.11 69.3609 133.012 69.108 132.839 68.8801C132.556 68.5566 132.066 68.3948 131.369 68.3948C130.904 68.3948 130.551 68.4836 130.31 68.6614C130.073 68.8391 129.954 69.0738 129.954 69.3655C129.954 69.6845 130.111 69.9397 130.426 70.1311C130.608 70.245 130.877 70.3453 131.232 70.4319L132.046 70.6301C132.93 70.8443 133.522 71.0517 133.823 71.2522C134.302 71.5667 134.541 72.0611 134.541 72.7356C134.541 73.3873 134.293 73.9501 133.796 74.4241C133.304 74.898 132.552 75.135 131.54 75.135C130.451 75.135 129.678 74.8889 129.223 74.3967C128.771 73.9 128.53 73.287 128.498 72.5579H129.681ZM139.022 67.3215C139.847 67.3215 140.517 67.5221 141.032 67.9231C141.552 68.3241 141.864 69.0146 141.969 69.9944H140.772C140.7 69.5432 140.533 69.1695 140.273 68.8733C140.014 68.5725 139.597 68.4221 139.022 68.4221C138.239 68.4221 137.678 68.8049 137.341 69.5706C137.122 70.0673 137.013 70.6803 137.013 71.4094C137.013 72.1431 137.168 72.7607 137.478 73.262C137.787 73.7633 138.275 74.0139 138.94 74.0139C139.451 74.0139 139.854 73.859 140.15 73.5491C140.451 73.2346 140.659 72.8062 140.772 72.2639H141.969C141.832 73.2346 141.49 73.9456 140.943 74.3967C140.396 74.8433 139.697 75.0667 138.845 75.0667C137.888 75.0667 137.124 74.718 136.555 74.0208C135.985 73.3189 135.7 72.4439 135.7 71.3958C135.7 70.1106 136.012 69.1103 136.637 68.3948C137.261 67.6793 138.056 67.3215 139.022 67.3215ZM143.449 64.7786H144.68V68.5247C144.971 68.1555 145.233 67.8958 145.466 67.7454C145.862 67.4856 146.357 67.3557 146.949 67.3557C148.011 67.3557 148.731 67.7271 149.109 68.47C149.314 68.8756 149.417 69.4384 149.417 70.1584V74.8547H148.152V70.2405C148.152 69.7027 148.084 69.3085 147.947 69.0579C147.724 68.6568 147.305 68.4563 146.689 68.4563C146.179 68.4563 145.716 68.6318 145.302 68.9827C144.887 69.3336 144.68 69.9967 144.68 70.9719V74.8547H143.449V64.7786ZM154.541 67.3694C155.061 67.3694 155.564 67.4924 156.052 67.7385C156.539 67.9801 156.911 68.2945 157.166 68.6819C157.412 69.051 157.576 69.4817 157.658 69.9739C157.731 70.3111 157.768 70.8489 157.768 71.5872H152.401C152.424 72.33 152.6 72.927 152.928 73.3782C153.256 73.8248 153.764 74.0481 154.452 74.0481C155.095 74.0481 155.607 73.8362 155.99 73.4124C156.209 73.1663 156.364 72.8814 156.455 72.5579H157.665C157.633 72.8267 157.526 73.1275 157.344 73.4602C157.166 73.7883 156.965 74.0572 156.742 74.2668C156.368 74.6314 155.906 74.8775 155.354 75.0051C155.058 75.078 154.723 75.1145 154.35 75.1145C153.438 75.1145 152.666 74.7841 152.032 74.1233C151.399 73.4579 151.082 72.5282 151.082 71.3342C151.082 70.1584 151.401 69.2037 152.039 68.47C152.677 67.7362 153.511 67.3694 154.541 67.3694ZM156.503 70.6096C156.453 70.0764 156.337 69.6503 156.154 69.3313C155.817 68.7389 155.254 68.4426 154.466 68.4426C153.901 68.4426 153.427 68.6477 153.044 69.0579C152.661 69.4635 152.458 69.9807 152.436 70.6096H156.503ZM160.314 71.2795C160.314 72.0634 160.481 72.7196 160.813 73.2483C161.146 73.7769 161.679 74.0413 162.413 74.0413C162.983 74.0413 163.45 73.7974 163.814 73.3098C164.184 72.8176 164.368 72.1135 164.368 71.1975C164.368 70.2724 164.179 69.5888 163.801 69.1467C163.423 68.7001 162.955 68.4768 162.399 68.4768C161.78 68.4768 161.276 68.7138 160.889 69.1877C160.506 69.6617 160.314 70.359 160.314 71.2795ZM162.167 67.4036C162.728 67.4036 163.197 67.5221 163.575 67.759C163.794 67.8958 164.042 68.135 164.32 68.4768V64.7786H165.503V74.8547H164.396V73.8362C164.108 74.2874 163.769 74.6132 163.377 74.8137C162.985 75.0142 162.536 75.1145 162.03 75.1145C161.215 75.1145 160.508 74.7727 159.911 74.0891C159.314 73.401 159.016 72.4872 159.016 71.3479C159.016 70.2815 159.287 69.3586 159.829 68.5793C160.376 67.7955 161.155 67.4036 162.167 67.4036ZM168.809 67.5334V72.3938C168.809 72.7675 168.868 73.0728 168.986 73.3098C169.205 73.7473 169.613 73.9661 170.21 73.9661C171.067 73.9661 171.65 73.5833 171.96 72.8176C172.129 72.4075 172.213 71.8446 172.213 71.1292V67.5334H173.443V74.8547H172.281L172.295 73.7747C172.135 74.0527 171.937 74.2874 171.7 74.4788C171.231 74.8616 170.661 75.053 169.991 75.053C168.948 75.053 168.237 74.7043 167.858 74.0071C167.653 73.6334 167.551 73.1344 167.551 72.51V67.5334H168.809ZM175.655 64.8127H176.886V74.8547H175.655V64.8127ZM182.037 67.3694C182.557 67.3694 183.06 67.4924 183.548 67.7385C184.035 67.9801 184.407 68.2945 184.662 68.6819C184.908 69.051 185.072 69.4817 185.154 69.9739C185.227 70.3111 185.264 70.8489 185.264 71.5872H179.897C179.92 72.33 180.096 72.927 180.424 73.3782C180.752 73.8248 181.26 74.0481 181.948 74.0481C182.591 74.0481 183.104 73.8362 183.486 73.4124C183.705 73.1663 183.86 72.8814 183.951 72.5579H185.161C185.129 72.8267 185.022 73.1275 184.84 73.4602C184.662 73.7883 184.462 74.0572 184.238 74.2668C183.865 74.6314 183.402 74.8775 182.851 75.0051C182.554 75.078 182.219 75.1145 181.846 75.1145C180.934 75.1145 180.162 74.7841 179.528 74.1233C178.895 73.4579 178.578 72.5282 178.578 71.3342C178.578 70.1584 178.897 69.2037 179.535 68.47C180.173 67.7362 181.007 67.3694 182.037 67.3694ZM183.999 70.6096C183.949 70.0764 183.833 69.6503 183.65 69.3313C183.313 68.7389 182.75 68.4426 181.962 68.4426C181.397 68.4426 180.923 68.6477 180.54 69.0579C180.157 69.4635 179.954 69.9807 179.932 70.6096H183.999ZM192.121 72.9065C192.121 73.262 192.251 73.5422 192.511 73.7473C192.771 73.9524 193.078 74.0549 193.434 74.0549C193.867 74.0549 194.286 73.9547 194.691 73.7542C195.375 73.4215 195.717 72.8769 195.717 72.1204V71.1292C195.566 71.2249 195.373 71.3046 195.136 71.3684C194.899 71.4322 194.666 71.4778 194.438 71.5051L193.693 71.6008C193.247 71.6601 192.912 71.7535 192.688 71.8811C192.31 72.0953 192.121 72.4371 192.121 72.9065ZM195.102 70.4182C195.384 70.3818 195.573 70.2633 195.669 70.0627C195.724 69.9534 195.751 69.7961 195.751 69.5911C195.751 69.1718 195.601 68.8687 195.3 68.6819C195.004 68.4905 194.577 68.3948 194.021 68.3948C193.379 68.3948 192.923 68.568 192.654 68.9143C192.504 69.1057 192.406 69.3905 192.36 69.7688H191.212C191.235 68.8665 191.526 68.2398 192.087 67.8889C192.652 67.5334 193.306 67.3557 194.049 67.3557C194.91 67.3557 195.61 67.5198 196.147 67.8479C196.681 68.176 196.947 68.6864 196.947 69.3792V73.5969C196.947 73.7245 196.972 73.8271 197.022 73.9045C197.077 73.982 197.189 74.0208 197.357 74.0208C197.412 74.0208 197.474 74.0185 197.542 74.0139C197.61 74.0048 197.683 73.9934 197.761 73.9797V74.8889C197.569 74.9436 197.424 74.9778 197.323 74.9915C197.223 75.0051 197.086 75.012 196.913 75.012C196.489 75.012 196.182 74.8616 195.99 74.5608C195.89 74.4013 195.819 74.1757 195.778 73.884C195.528 74.2122 195.168 74.497 194.698 74.7385C194.229 74.9801 193.712 75.1008 193.146 75.1008C192.467 75.1008 191.911 74.8958 191.479 74.4856C191.05 74.0709 190.836 73.5536 190.836 72.9338C190.836 72.2548 191.048 71.7284 191.472 71.3547C191.896 70.981 192.451 70.7509 193.14 70.6643L195.102 70.4182ZM203.367 67.5334H204.584V68.5725C204.876 68.2125 205.14 67.9504 205.377 67.7864C205.783 67.5084 206.243 67.3694 206.758 67.3694C207.341 67.3694 207.811 67.5129 208.166 67.8C208.367 67.9641 208.549 68.2056 208.713 68.5247C208.986 68.1327 209.308 67.8433 209.677 67.6565C210.046 67.4651 210.461 67.3694 210.921 67.3694C211.905 67.3694 212.575 67.7249 212.931 68.4358C213.122 68.8186 213.218 69.3336 213.218 69.9807V74.8547H211.939V69.7688C211.939 69.2812 211.816 68.9462 211.57 68.7639C211.329 68.5816 211.033 68.4905 210.682 68.4905C210.199 68.4905 209.782 68.6523 209.431 68.9758C209.084 69.2994 208.911 69.8394 208.911 70.5959V74.8547H207.66V70.0764C207.66 69.5797 207.601 69.2174 207.482 68.9895C207.296 68.6477 206.947 68.4768 206.437 68.4768C205.972 68.4768 205.548 68.6568 205.165 69.0168C204.787 69.3769 204.598 70.0286 204.598 70.9719V74.8547H203.367V67.5334ZM218.328 67.3694C218.848 67.3694 219.351 67.4924 219.839 67.7385C220.326 67.9801 220.698 68.2945 220.953 68.6819C221.199 69.051 221.363 69.4817 221.445 69.9739C221.518 70.3111 221.555 70.8489 221.555 71.5872H216.188C216.211 72.33 216.387 72.927 216.715 73.3782C217.043 73.8248 217.551 74.0481 218.239 74.0481C218.882 74.0481 219.395 73.8362 219.777 73.4124C219.996 73.1663 220.151 72.8814 220.242 72.5579H221.452C221.42 72.8267 221.313 73.1275 221.131 73.4602C220.953 73.7883 220.753 74.0572 220.529 74.2668C220.156 74.6314 219.693 74.8775 219.142 75.0051C218.845 75.078 218.51 75.1145 218.137 75.1145C217.225 75.1145 216.453 74.7841 215.819 74.1233C215.186 73.4579 214.869 72.5282 214.869 71.3342C214.869 70.1584 215.188 69.2037 215.826 68.47C216.464 67.7362 217.298 67.3694 218.328 67.3694ZM220.29 70.6096C220.24 70.0764 220.124 69.6503 219.941 69.3313C219.604 68.7389 219.041 68.4426 218.253 68.4426C217.688 68.4426 217.214 68.6477 216.831 69.0579C216.448 69.4635 216.245 69.9807 216.223 70.6096H220.29ZM226.371 67.3694C226.891 67.3694 227.394 67.4924 227.882 67.7385C228.369 67.9801 228.741 68.2945 228.996 68.6819C229.242 69.051 229.406 69.4817 229.488 69.9739C229.561 70.3111 229.598 70.8489 229.598 71.5872H224.231C224.254 72.33 224.43 72.927 224.758 73.3782C225.086 73.8248 225.594 74.0481 226.282 74.0481C226.925 74.0481 227.438 73.8362 227.82 73.4124C228.039 73.1663 228.194 72.8814 228.285 72.5579H229.495C229.463 72.8267 229.356 73.1275 229.174 73.4602C228.996 73.7883 228.796 74.0572 228.572 74.2668C228.199 74.6314 227.736 74.8775 227.185 75.0051C226.888 75.078 226.553 75.1145 226.18 75.1145C225.268 75.1145 224.496 74.7841 223.862 74.1233C223.229 73.4579 222.912 72.5282 222.912 71.3342C222.912 70.1584 223.231 69.2037 223.869 68.47C224.507 67.7362 225.341 67.3694 226.371 67.3694ZM228.333 70.6096C228.283 70.0764 228.167 69.6503 227.984 69.3313C227.647 68.7389 227.084 68.4426 226.296 68.4426C225.731 68.4426 225.257 68.6477 224.874 69.0579C224.491 69.4635 224.288 69.9807 224.266 70.6096H228.333ZM231.611 65.4895H232.855V67.5334H234.024V68.5383H232.855V73.3167C232.855 73.5719 232.942 73.7428 233.115 73.8293C233.211 73.8795 233.37 73.9045 233.594 73.9045C233.653 73.9045 233.717 73.9045 233.785 73.9045C233.854 73.9 233.933 73.8931 234.024 73.884V74.8547C233.883 74.8958 233.735 74.9254 233.58 74.9436C233.43 74.9618 233.266 74.9709 233.088 74.9709C232.514 74.9709 232.124 74.8251 231.919 74.5334C231.714 74.2372 231.611 73.8544 231.611 73.385V68.5383H230.62V67.5334H231.611V65.4895ZM235.512 67.5676H236.763V74.8547H235.512V67.5676ZM235.512 64.8127H236.763V66.2073H235.512V64.8127ZM238.879 67.5334H240.048V68.5725C240.394 68.1441 240.761 67.8365 241.148 67.6497C241.536 67.4628 241.966 67.3694 242.44 67.3694C243.479 67.3694 244.181 67.7317 244.546 68.4563C244.746 68.8528 244.847 69.4202 244.847 70.1584V74.8547H243.596V70.2405C243.596 69.7939 243.53 69.4338 243.397 69.1604C243.179 68.7047 242.782 68.4768 242.208 68.4768C241.916 68.4768 241.677 68.5064 241.49 68.5657C241.153 68.6659 240.857 68.8665 240.602 69.1672C240.396 69.4088 240.262 69.6594 240.198 69.9192C240.139 70.1744 240.109 70.5413 240.109 71.0198V74.8547H238.879V67.5334ZM249.506 67.4036C250.08 67.4036 250.581 67.5448 251.01 67.8274C251.242 67.9869 251.479 68.2193 251.721 68.5247V67.6018H252.855V74.26C252.855 75.1897 252.719 75.9234 252.445 76.4612C251.935 77.4547 250.971 77.9514 249.554 77.9514C248.765 77.9514 248.102 77.7737 247.564 77.4182C247.027 77.0673 246.726 76.5159 246.662 75.7639H247.913C247.972 76.092 248.091 76.345 248.269 76.5227C248.547 76.7961 248.984 76.9329 249.581 76.9329C250.524 76.9329 251.142 76.6002 251.434 75.9348C251.607 75.5429 251.687 74.8433 251.673 73.8362C251.427 74.2099 251.131 74.4879 250.784 74.6702C250.438 74.8525 249.98 74.9436 249.41 74.9436C248.617 74.9436 247.922 74.6633 247.325 74.1028C246.733 73.5377 246.437 72.6057 246.437 71.3069C246.437 70.081 246.735 69.1239 247.332 68.4358C247.934 67.7476 248.658 67.4036 249.506 67.4036ZM251.721 71.1633C251.721 70.2564 251.534 69.5842 251.16 69.1467C250.786 68.7092 250.31 68.4905 249.731 68.4905C248.866 68.4905 248.273 68.8961 247.954 69.7073C247.785 70.1402 247.701 70.7076 247.701 71.4094C247.701 72.2343 247.868 72.8632 248.2 73.2961C248.537 73.7245 248.989 73.9387 249.554 73.9387C250.438 73.9387 251.06 73.54 251.42 72.7424C251.62 72.2913 251.721 71.7649 251.721 71.1633ZM259.357 65.4895H260.602V67.5334H261.771V68.5383H260.602V73.3167C260.602 73.5719 260.688 73.7428 260.861 73.8293C260.957 73.8795 261.117 73.9045 261.34 73.9045C261.399 73.9045 261.463 73.9045 261.531 73.9045C261.6 73.9 261.679 73.8931 261.771 73.884V74.8547C261.629 74.8958 261.481 74.9254 261.326 74.9436C261.176 74.9618 261.012 74.9709 260.834 74.9709C260.26 74.9709 259.87 74.8251 259.665 74.5334C259.46 74.2372 259.357 73.8544 259.357 73.385V68.5383H258.366V67.5334H259.357V65.4895ZM266.163 74.0618C266.979 74.0618 267.537 73.7542 267.838 73.1389C268.143 72.5191 268.296 71.831 268.296 71.0745C268.296 70.3909 268.187 69.8349 267.968 69.4065C267.621 68.732 267.024 68.3948 266.177 68.3948C265.425 68.3948 264.878 68.6819 264.536 69.2561C264.194 69.8303 264.023 70.523 264.023 71.3342C264.023 72.1135 264.194 72.7629 264.536 73.2825C264.878 73.802 265.42 74.0618 266.163 74.0618ZM266.211 67.3215C267.154 67.3215 267.952 67.636 268.604 68.2649C269.255 68.8938 269.581 69.8189 269.581 71.0403C269.581 72.2206 269.294 73.1959 268.72 73.9661C268.146 74.7362 267.255 75.1213 266.047 75.1213C265.04 75.1213 264.24 74.7818 263.647 74.1028C263.055 73.4192 262.759 72.5032 262.759 71.3547C262.759 70.1243 263.071 69.1444 263.695 68.4153C264.32 67.6861 265.158 67.3215 266.211 67.3215ZM95.1016 87.5334V92.3938C95.1016 92.7675 95.1608 93.0728 95.2793 93.3098C95.498 93.7473 95.9059 93.9661 96.5029 93.9661C97.3597 93.9661 97.943 93.5833 98.2529 92.8176C98.4215 92.4075 98.5059 91.8446 98.5059 91.1292V87.5334H99.7363V94.8547H98.5742L98.5879 93.7747C98.4284 94.0527 98.2301 94.2874 97.9932 94.4788C97.5238 94.8616 96.9541 95.053 96.2842 95.053C95.2406 95.053 94.5296 94.7043 94.1514 94.0071C93.9463 93.6334 93.8438 93.1344 93.8438 92.51V87.5334H95.1016ZM101.914 87.5334H103.083V88.5725C103.429 88.1441 103.796 87.8365 104.184 87.6497C104.571 87.4628 105.002 87.3694 105.476 87.3694C106.515 87.3694 107.216 87.7317 107.581 88.4563C107.782 88.8528 107.882 89.4202 107.882 90.1584V94.8547H106.631V90.2405C106.631 89.7939 106.565 89.4338 106.433 89.1604C106.214 88.7047 105.817 88.4768 105.243 88.4768C104.951 88.4768 104.712 88.5064 104.525 88.5657C104.188 88.6659 103.892 88.8665 103.637 89.1672C103.432 89.4088 103.297 89.6594 103.233 89.9192C103.174 90.1744 103.145 90.5413 103.145 91.0198V94.8547H101.914V87.5334ZM110.736 91.2795C110.736 92.0634 110.903 92.7196 111.235 93.2483C111.568 93.7769 112.101 94.0413 112.835 94.0413C113.405 94.0413 113.872 93.7974 114.236 93.3098C114.605 92.8176 114.79 92.1135 114.79 91.1975C114.79 90.2724 114.601 89.5888 114.223 89.1467C113.844 88.7001 113.377 88.4768 112.821 88.4768C112.201 88.4768 111.698 88.7138 111.311 89.1877C110.928 89.6617 110.736 90.359 110.736 91.2795ZM112.589 87.4036C113.149 87.4036 113.619 87.5221 113.997 87.759C114.216 87.8958 114.464 88.135 114.742 88.4768V84.7786H115.925V94.8547H114.817V93.8362C114.53 94.2874 114.191 94.6132 113.799 94.8137C113.407 95.0142 112.958 95.1145 112.452 95.1145C111.636 95.1145 110.93 94.7727 110.333 94.0891C109.736 93.401 109.438 92.4872 109.438 91.3479C109.438 90.2815 109.709 89.3586 110.251 88.5793C110.798 87.7955 111.577 87.4036 112.589 87.4036ZM121.049 87.3694C121.568 87.3694 122.072 87.4924 122.56 87.7385C123.047 87.9801 123.419 88.2945 123.674 88.6819C123.92 89.051 124.084 89.4817 124.166 89.9739C124.239 90.3111 124.275 90.8489 124.275 91.5872H118.909C118.932 92.33 119.107 92.927 119.436 93.3782C119.764 93.8248 120.272 94.0481 120.96 94.0481C121.603 94.0481 122.115 93.8362 122.498 93.4124C122.717 93.1663 122.872 92.8814 122.963 92.5579H124.173C124.141 92.8267 124.034 93.1275 123.852 93.4602C123.674 93.7883 123.473 94.0572 123.25 94.2668C122.876 94.6314 122.414 94.8775 121.862 95.0051C121.566 95.078 121.231 95.1145 120.857 95.1145C119.946 95.1145 119.174 94.7841 118.54 94.1233C117.907 93.4579 117.59 92.5282 117.59 91.3342C117.59 90.1584 117.909 89.2037 118.547 88.47C119.185 87.7362 120.019 87.3694 121.049 87.3694ZM123.011 90.6096C122.961 90.0764 122.844 89.6503 122.662 89.3313C122.325 88.7389 121.762 88.4426 120.974 88.4426C120.409 88.4426 119.935 88.6477 119.552 89.0579C119.169 89.4635 118.966 89.9807 118.943 90.6096H123.011ZM126.077 87.5334H127.246V88.7981C127.342 88.552 127.576 88.2535 127.95 87.9026C128.324 87.5471 128.755 87.3694 129.242 87.3694C129.265 87.3694 129.304 87.3717 129.358 87.3762C129.413 87.3808 129.507 87.3899 129.639 87.4036V88.7024C129.566 88.6887 129.497 88.6796 129.434 88.675C129.374 88.6705 129.308 88.6682 129.235 88.6682C128.616 88.6682 128.139 88.8687 127.807 89.2698C127.474 89.6663 127.308 90.1243 127.308 90.6438V94.8547H126.077V87.5334ZM131.687 92.5579C131.723 92.968 131.826 93.2825 131.994 93.5012C132.304 93.8977 132.842 94.0959 133.607 94.0959C134.063 94.0959 134.464 93.998 134.811 93.802C135.157 93.6015 135.33 93.2939 135.33 92.8792C135.33 92.5647 135.191 92.3254 134.913 92.1614C134.735 92.0611 134.384 91.9449 133.86 91.8127L132.883 91.5667C132.258 91.4117 131.798 91.2385 131.502 91.0471C130.973 90.7144 130.709 90.2542 130.709 89.6663C130.709 88.9736 130.957 88.413 131.454 87.9846C131.955 87.5562 132.628 87.342 133.471 87.342C134.574 87.342 135.369 87.6656 135.856 88.3127C136.162 88.7229 136.31 89.165 136.301 89.6389H135.139C135.116 89.3609 135.018 89.108 134.845 88.8801C134.562 88.5566 134.072 88.3948 133.375 88.3948C132.91 88.3948 132.557 88.4836 132.315 88.6614C132.078 88.8391 131.96 89.0738 131.96 89.3655C131.96 89.6845 132.117 89.9397 132.432 90.1311C132.614 90.245 132.883 90.3453 133.238 90.4319L134.052 90.6301C134.936 90.8443 135.528 91.0517 135.829 91.2522C136.308 91.5667 136.547 92.0611 136.547 92.7356C136.547 93.3873 136.299 93.9501 135.802 94.4241C135.31 94.898 134.558 95.135 133.546 95.135C132.457 95.135 131.684 94.8889 131.229 94.3967C130.777 93.9 130.536 93.287 130.504 92.5579H131.687ZM138.451 85.4895H139.695V87.5334H140.864V88.5383H139.695V93.3167C139.695 93.5719 139.782 93.7428 139.955 93.8293C140.051 93.8795 140.21 93.9045 140.434 93.9045C140.493 93.9045 140.557 93.9045 140.625 93.9045C140.693 93.9 140.773 93.8931 140.864 93.884V94.8547C140.723 94.8958 140.575 94.9254 140.42 94.9436C140.27 94.9618 140.105 94.9709 139.928 94.9709C139.354 94.9709 138.964 94.8251 138.759 94.5334C138.554 94.2372 138.451 93.8544 138.451 93.385V88.5383H137.46V87.5334H138.451V85.4895ZM143.295 92.9065C143.295 93.262 143.425 93.5422 143.685 93.7473C143.944 93.9524 144.252 94.0549 144.607 94.0549C145.04 94.0549 145.46 93.9547 145.865 93.7542C146.549 93.4215 146.891 92.8769 146.891 92.1204V91.1292C146.74 91.2249 146.547 91.3046 146.31 91.3684C146.073 91.4322 145.84 91.4778 145.612 91.5051L144.867 91.6008C144.421 91.6601 144.086 91.7535 143.862 91.8811C143.484 92.0953 143.295 92.4371 143.295 92.9065ZM146.275 90.4182C146.558 90.3818 146.747 90.2633 146.843 90.0627C146.897 89.9534 146.925 89.7961 146.925 89.5911C146.925 89.1718 146.774 88.8687 146.474 88.6819C146.177 88.4905 145.751 88.3948 145.195 88.3948C144.553 88.3948 144.097 88.568 143.828 88.9143C143.678 89.1057 143.58 89.3905 143.534 89.7688H142.386C142.409 88.8665 142.7 88.2398 143.261 87.8889C143.826 87.5334 144.48 87.3557 145.223 87.3557C146.084 87.3557 146.784 87.5198 147.321 87.8479C147.854 88.176 148.121 88.6864 148.121 89.3792V93.5969C148.121 93.7245 148.146 93.8271 148.196 93.9045C148.251 93.982 148.363 94.0208 148.531 94.0208C148.586 94.0208 148.647 94.0185 148.716 94.0139C148.784 94.0048 148.857 93.9934 148.935 93.9797V94.8889C148.743 94.9436 148.597 94.9778 148.497 94.9915C148.397 95.0051 148.26 95.012 148.087 95.012C147.663 95.012 147.355 94.8616 147.164 94.5608C147.064 94.4013 146.993 94.1757 146.952 93.884C146.701 94.2122 146.341 94.497 145.872 94.7385C145.403 94.9801 144.885 95.1008 144.32 95.1008C143.641 95.1008 143.085 94.8958 142.652 94.4856C142.224 94.0709 142.01 93.5536 142.01 92.9338C142.01 92.2548 142.222 91.7284 142.646 91.3547C143.069 90.981 143.625 90.7509 144.313 90.6643L146.275 90.4182ZM150.395 87.5334H151.563V88.5725C151.91 88.1441 152.277 87.8365 152.664 87.6497C153.051 87.4628 153.482 87.3694 153.956 87.3694C154.995 87.3694 155.697 87.7317 156.062 88.4563C156.262 88.8528 156.362 89.4202 156.362 90.1584V94.8547H155.111V90.2405C155.111 89.7939 155.045 89.4338 154.913 89.1604C154.694 88.7047 154.298 88.4768 153.724 88.4768C153.432 88.4768 153.193 88.5064 153.006 88.5657C152.669 88.6659 152.372 88.8665 152.117 89.1672C151.912 89.4088 151.778 89.6594 151.714 89.9192C151.655 90.1744 151.625 90.5413 151.625 91.0198V94.8547H150.395V87.5334ZM159.217 91.2795C159.217 92.0634 159.383 92.7196 159.716 93.2483C160.049 93.7769 160.582 94.0413 161.315 94.0413C161.885 94.0413 162.352 93.7974 162.717 93.3098C163.086 92.8176 163.271 92.1135 163.271 91.1975C163.271 90.2724 163.081 89.5888 162.703 89.1467C162.325 88.7001 161.858 88.4768 161.302 88.4768C160.682 88.4768 160.178 88.7138 159.791 89.1877C159.408 89.6617 159.217 90.359 159.217 91.2795ZM161.069 87.4036C161.63 87.4036 162.099 87.5221 162.478 87.759C162.696 87.8958 162.945 88.135 163.223 88.4768V84.7786H164.405V94.8547H163.298V93.8362C163.011 94.2874 162.671 94.6132 162.279 94.8137C161.887 95.0142 161.438 95.1145 160.933 95.1145C160.117 95.1145 159.41 94.7727 158.813 94.0891C158.216 93.401 157.918 92.4872 157.918 91.3479C157.918 90.2815 158.189 89.3586 158.731 88.5793C159.278 87.7955 160.058 87.4036 161.069 87.4036ZM175.2 87.5334H176.561C176.387 88.0028 176.002 89.0738 175.405 90.7463C174.959 92.0042 174.585 93.0295 174.284 93.8225C173.573 95.691 173.072 96.8303 172.78 97.2405C172.489 97.6506 171.987 97.8557 171.276 97.8557C171.103 97.8557 170.969 97.8489 170.873 97.8352C170.782 97.8215 170.668 97.7965 170.531 97.76V96.6389C170.745 96.6982 170.9 96.7346 170.996 96.7483C171.092 96.762 171.176 96.7688 171.249 96.7688C171.477 96.7688 171.643 96.7301 171.748 96.6526C171.857 96.5797 171.949 96.4885 172.021 96.3792C172.044 96.3427 172.126 96.1558 172.268 95.8186C172.409 95.4814 172.511 95.2307 172.575 95.0667L169.868 87.5334H171.263L173.225 93.4944L175.2 87.5334ZM180.782 94.0618C181.598 94.0618 182.156 93.7542 182.457 93.1389C182.762 92.5191 182.915 91.831 182.915 91.0745C182.915 90.3909 182.806 89.8349 182.587 89.4065C182.241 88.732 181.644 88.3948 180.796 88.3948C180.044 88.3948 179.497 88.6819 179.155 89.2561C178.813 89.8303 178.643 90.523 178.643 91.3342C178.643 92.1135 178.813 92.7629 179.155 93.2825C179.497 93.802 180.039 94.0618 180.782 94.0618ZM180.83 87.3215C181.773 87.3215 182.571 87.636 183.223 88.2649C183.874 88.8938 184.2 89.8189 184.2 91.0403C184.2 92.2206 183.913 93.1959 183.339 93.9661C182.765 94.7362 181.874 95.1213 180.666 95.1213C179.659 95.1213 178.859 94.7818 178.267 94.1028C177.674 93.4192 177.378 92.5032 177.378 91.3547C177.378 90.1243 177.69 89.1444 178.314 88.4153C178.939 87.6861 179.777 87.3215 180.83 87.3215ZM187.15 87.5334V92.3938C187.15 92.7675 187.21 93.0728 187.328 93.3098C187.547 93.7473 187.955 93.9661 188.552 93.9661C189.409 93.9661 189.992 93.5833 190.302 92.8176C190.47 92.4075 190.555 91.8446 190.555 91.1292V87.5334H191.785V94.8547H190.623L190.637 93.7747C190.477 94.0527 190.279 94.2874 190.042 94.4788C189.573 94.8616 189.003 95.053 188.333 95.053C187.289 95.053 186.578 94.7043 186.2 94.0071C185.995 93.6334 185.893 93.1344 185.893 92.51V87.5334H187.15ZM193.997 87.5334H195.166V88.7981C195.262 88.552 195.496 88.2535 195.87 87.9026C196.244 87.5471 196.674 87.3694 197.162 87.3694C197.185 87.3694 197.224 87.3717 197.278 87.3762C197.333 87.3808 197.426 87.3899 197.559 87.4036V88.7024C197.486 88.6887 197.417 88.6796 197.354 88.675C197.294 88.6705 197.228 88.6682 197.155 88.6682C196.535 88.6682 196.059 88.8687 195.727 89.2698C195.394 89.6663 195.228 90.1243 195.228 90.6438V94.8547H193.997V87.5334ZM203.623 87.5334L205.578 93.4944L207.622 87.5334H208.969L206.207 94.8547H204.895L202.194 87.5334H203.623ZM210.271 87.5676H211.522V94.8547H210.271V87.5676ZM210.271 84.8127H211.522V86.2073H210.271V84.8127ZM214.37 92.5579C214.407 92.968 214.509 93.2825 214.678 93.5012C214.988 93.8977 215.525 94.0959 216.291 94.0959C216.747 94.0959 217.148 93.998 217.494 93.802C217.84 93.6015 218.014 93.2939 218.014 92.8792C218.014 92.5647 217.875 92.3254 217.597 92.1614C217.419 92.0611 217.068 91.9449 216.544 91.8127L215.566 91.5667C214.942 91.4117 214.482 91.2385 214.186 91.0471C213.657 90.7144 213.393 90.2542 213.393 89.6663C213.393 88.9736 213.641 88.413 214.138 87.9846C214.639 87.5562 215.311 87.342 216.154 87.342C217.257 87.342 218.052 87.6656 218.54 88.3127C218.845 88.7229 218.993 89.165 218.984 89.6389H217.822C217.799 89.3609 217.701 89.108 217.528 88.8801C217.246 88.5566 216.756 88.3948 216.059 88.3948C215.594 88.3948 215.241 88.4836 214.999 88.6614C214.762 88.8391 214.644 89.0738 214.644 89.3655C214.644 89.6845 214.801 89.9397 215.115 90.1311C215.298 90.245 215.566 90.3453 215.922 90.4319L216.735 90.6301C217.619 90.8443 218.212 91.0517 218.513 91.2522C218.991 91.5667 219.23 92.0611 219.23 92.7356C219.23 93.3873 218.982 93.9501 218.485 94.4241C217.993 94.898 217.241 95.135 216.229 95.135C215.14 95.135 214.368 94.8889 213.912 94.3967C213.461 93.9 213.219 93.287 213.188 92.5579H214.37ZM220.889 87.5676H222.14V94.8547H220.889V87.5676ZM220.889 84.8127H222.14V86.2073H220.889V84.8127ZM227.161 94.0618C227.977 94.0618 228.535 93.7542 228.836 93.1389C229.141 92.5191 229.294 91.831 229.294 91.0745C229.294 90.3909 229.185 89.8349 228.966 89.4065C228.619 88.732 228.022 88.3948 227.175 88.3948C226.423 88.3948 225.876 88.6819 225.534 89.2561C225.192 89.8303 225.021 90.523 225.021 91.3342C225.021 92.1135 225.192 92.7629 225.534 93.2825C225.876 93.802 226.418 94.0618 227.161 94.0618ZM227.209 87.3215C228.152 87.3215 228.95 87.636 229.602 88.2649C230.253 88.8938 230.579 89.8189 230.579 91.0403C230.579 92.2206 230.292 93.1959 229.718 93.9661C229.144 94.7362 228.253 95.1213 227.045 95.1213C226.038 95.1213 225.238 94.7818 224.646 94.1028C224.053 93.4192 223.757 92.5032 223.757 91.3547C223.757 90.1243 224.069 89.1444 224.693 88.4153C225.318 87.6861 226.156 87.3215 227.209 87.3215ZM232.299 87.5334H233.468V88.5725C233.814 88.1441 234.181 87.8365 234.568 87.6497C234.956 87.4628 235.386 87.3694 235.86 87.3694C236.899 87.3694 237.601 87.7317 237.966 88.4563C238.166 88.8528 238.267 89.4202 238.267 90.1584V94.8547H237.016V90.2405C237.016 89.7939 236.95 89.4338 236.817 89.1604C236.599 88.7047 236.202 88.4768 235.628 88.4768C235.336 88.4768 235.097 88.5064 234.91 88.5657C234.573 88.6659 234.277 88.8665 234.021 89.1672C233.816 89.4088 233.682 89.6594 233.618 89.9192C233.559 90.1744 233.529 90.5413 233.529 91.0198V94.8547H232.299V87.5334ZM240.602 96.2834C240.916 96.2288 241.137 96.0077 241.265 95.6204C241.333 95.4153 241.367 95.217 241.367 95.0256C241.367 94.9937 241.365 94.9641 241.36 94.9368C241.36 94.914 241.356 94.8866 241.347 94.8547H240.602V93.3645H242.064V94.7454C242.064 95.2877 241.955 95.7639 241.736 96.1741C241.518 96.5842 241.139 96.8372 240.602 96.9329V96.2834ZM251.219 87.4036C251.793 87.4036 252.294 87.5448 252.723 87.8274C252.955 87.9869 253.192 88.2193 253.434 88.5247V87.6018H254.568V94.26C254.568 95.1897 254.432 95.9234 254.158 96.4612C253.648 97.4547 252.684 97.9514 251.267 97.9514C250.478 97.9514 249.815 97.7737 249.277 97.4182C248.74 97.0673 248.439 96.5159 248.375 95.7639H249.626C249.685 96.092 249.804 96.345 249.981 96.5227C250.259 96.7961 250.697 96.9329 251.294 96.9329C252.237 96.9329 252.855 96.6002 253.146 95.9348C253.32 95.5429 253.399 94.8433 253.386 93.8362C253.14 94.2099 252.843 94.4879 252.497 94.6702C252.151 94.8525 251.693 94.9436 251.123 94.9436C250.33 94.9436 249.635 94.6633 249.038 94.1028C248.446 93.5377 248.149 92.6057 248.149 91.3069C248.149 90.081 248.448 89.1239 249.045 88.4358C249.646 87.7476 250.371 87.4036 251.219 87.4036ZM253.434 91.1633C253.434 90.2564 253.247 89.5842 252.873 89.1467C252.499 88.7092 252.023 88.4905 251.444 88.4905C250.578 88.4905 249.986 88.8961 249.667 89.7073C249.498 90.1402 249.414 90.7076 249.414 91.4094C249.414 92.2343 249.58 92.8632 249.913 93.2961C250.25 93.7245 250.701 93.9387 251.267 93.9387C252.151 93.9387 252.773 93.54 253.133 92.7424C253.333 92.2913 253.434 91.7649 253.434 91.1633ZM259.583 94.0618C260.399 94.0618 260.957 93.7542 261.258 93.1389C261.563 92.5191 261.716 91.831 261.716 91.0745C261.716 90.3909 261.606 89.8349 261.388 89.4065C261.041 88.732 260.444 88.3948 259.597 88.3948C258.845 88.3948 258.298 88.6819 257.956 89.2561C257.614 89.8303 257.443 90.523 257.443 91.3342C257.443 92.1135 257.614 92.7629 257.956 93.2825C258.298 93.802 258.84 94.0618 259.583 94.0618ZM259.631 87.3215C260.574 87.3215 261.372 87.636 262.023 88.2649C262.675 88.8938 263.001 89.8189 263.001 91.0403C263.001 92.2206 262.714 93.1959 262.14 93.9661C261.565 94.7362 260.674 95.1213 259.467 95.1213C258.46 95.1213 257.66 94.7818 257.067 94.1028C256.475 93.4192 256.179 92.5032 256.179 91.3547C256.179 90.1243 256.491 89.1444 257.115 88.4153C257.74 87.6861 258.578 87.3215 259.631 87.3215ZM265.664 92.9065C265.664 93.262 265.794 93.5422 266.054 93.7473C266.313 93.9524 266.621 94.0549 266.977 94.0549C267.41 94.0549 267.829 93.9547 268.234 93.7542C268.918 93.4215 269.26 92.8769 269.26 92.1204V91.1292C269.109 91.2249 268.916 91.3046 268.679 91.3684C268.442 91.4322 268.209 91.4778 267.981 91.5051L267.236 91.6008C266.79 91.6601 266.455 91.7535 266.231 91.8811C265.853 92.0953 265.664 92.4371 265.664 92.9065ZM268.645 90.4182C268.927 90.3818 269.116 90.2633 269.212 90.0627C269.267 89.9534 269.294 89.7961 269.294 89.5911C269.294 89.1718 269.144 88.8687 268.843 88.6819C268.547 88.4905 268.12 88.3948 267.564 88.3948C266.922 88.3948 266.466 88.568 266.197 88.9143C266.047 89.1057 265.949 89.3905 265.903 89.7688H264.755C264.778 88.8665 265.069 88.2398 265.63 87.8889C266.195 87.5334 266.849 87.3557 267.592 87.3557C268.453 87.3557 269.153 87.5198 269.69 87.8479C270.224 88.176 270.49 88.6864 270.49 89.3792V93.5969C270.49 93.7245 270.515 93.8271 270.565 93.9045C270.62 93.982 270.732 94.0208 270.9 94.0208C270.955 94.0208 271.017 94.0185 271.085 94.0139C271.153 94.0048 271.226 93.9934 271.304 93.9797V94.8889C271.112 94.9436 270.966 94.9778 270.866 94.9915C270.766 95.0051 270.629 95.012 270.456 95.012C270.032 95.012 269.725 94.8616 269.533 94.5608C269.433 94.4013 269.362 94.1757 269.321 93.884C269.071 94.2122 268.711 94.497 268.241 94.7385C267.772 94.9801 267.255 95.1008 266.689 95.1008C266.01 95.1008 265.454 94.8958 265.021 94.4856C264.593 94.0709 264.379 93.5536 264.379 92.9338C264.379 92.2548 264.591 91.7284 265.015 91.3547C265.438 90.981 265.994 90.7509 266.683 90.6643L268.645 90.4182ZM272.798 84.8127H274.028V94.8547H272.798V84.8127ZM276.862 92.5579C276.899 92.968 277.001 93.2825 277.17 93.5012C277.48 93.8977 278.018 94.0959 278.783 94.0959C279.239 94.0959 279.64 93.998 279.986 93.802C280.333 93.6015 280.506 93.2939 280.506 92.8792C280.506 92.5647 280.367 92.3254 280.089 92.1614C279.911 92.0611 279.56 91.9449 279.036 91.8127L278.059 91.5667C277.434 91.4117 276.974 91.2385 276.678 91.0471C276.149 90.7144 275.885 90.2542 275.885 89.6663C275.885 88.9736 276.133 88.413 276.63 87.9846C277.131 87.5562 277.803 87.342 278.646 87.342C279.749 87.342 280.545 87.6656 281.032 88.3127C281.338 88.7229 281.486 89.165 281.477 89.6389H280.314C280.292 89.3609 280.194 89.108 280.021 88.8801C279.738 88.5566 279.248 88.3948 278.551 88.3948C278.086 88.3948 277.733 88.4836 277.491 88.6614C277.254 88.8391 277.136 89.0738 277.136 89.3655C277.136 89.6845 277.293 89.9397 277.607 90.1311C277.79 90.245 278.059 90.3453 278.414 90.4319L279.228 90.6301C280.112 90.8443 280.704 91.0517 281.005 91.2522C281.483 91.5667 281.723 92.0611 281.723 92.7356C281.723 93.3873 281.474 93.9501 280.978 94.4241C280.485 94.898 279.733 95.135 278.722 95.135C277.632 95.135 276.86 94.8889 276.404 94.3967C275.953 93.9 275.712 93.287 275.68 92.5579H276.862ZM283.641 96.2834C283.955 96.2288 284.176 96.0077 284.304 95.6204C284.372 95.4153 284.406 95.217 284.406 95.0256C284.406 94.9937 284.404 94.9641 284.399 94.9368C284.399 94.914 284.395 94.8866 284.386 94.8547H283.641V93.3645H285.104V94.7454C285.104 95.2877 284.994 95.7639 284.775 96.1741C284.557 96.5842 284.178 96.8372 283.641 96.9329V96.2834ZM94.8145 112.906C94.8145 113.262 94.9443 113.542 95.2041 113.747C95.4639 113.952 95.7715 114.055 96.127 114.055C96.5599 114.055 96.9792 113.955 97.3848 113.754C98.0684 113.421 98.4102 112.877 98.4102 112.12V111.129C98.2598 111.225 98.0661 111.305 97.8291 111.368C97.5921 111.432 97.3597 111.478 97.1318 111.505L96.3867 111.601C95.9401 111.66 95.6051 111.753 95.3818 111.881C95.0036 112.095 94.8145 112.437 94.8145 112.906ZM97.7949 110.418C98.0775 110.382 98.2666 110.263 98.3623 110.063C98.417 109.953 98.4443 109.796 98.4443 109.591C98.4443 109.172 98.2939 108.869 97.9932 108.682C97.6969 108.49 97.2708 108.395 96.7148 108.395C96.0723 108.395 95.6165 108.568 95.3477 108.914C95.1973 109.106 95.0993 109.391 95.0537 109.769H93.9053C93.9281 108.866 94.2197 108.24 94.7803 107.889C95.3454 107.533 95.9993 107.356 96.7422 107.356C97.6035 107.356 98.3031 107.52 98.8408 107.848C99.374 108.176 99.6406 108.686 99.6406 109.379V113.597C99.6406 113.725 99.6657 113.827 99.7158 113.905C99.7705 113.982 99.8822 114.021 100.051 114.021C100.105 114.021 100.167 114.018 100.235 114.014C100.304 114.005 100.377 113.993 100.454 113.98V114.889C100.263 114.944 100.117 114.978 100.017 114.991C99.9163 115.005 99.7796 115.012 99.6064 115.012C99.1826 115.012 98.875 114.862 98.6836 114.561C98.5833 114.401 98.5127 114.176 98.4717 113.884C98.221 114.212 97.861 114.497 97.3916 114.739C96.9222 114.98 96.4049 115.101 95.8398 115.101C95.1608 115.101 94.6048 114.896 94.1719 114.486C93.7435 114.071 93.5293 113.554 93.5293 112.934C93.5293 112.255 93.7412 111.728 94.165 111.355C94.5889 110.981 95.1449 110.751 95.833 110.664L97.7949 110.418ZM101.914 107.533H103.083V108.573C103.429 108.144 103.796 107.837 104.184 107.65C104.571 107.463 105.002 107.369 105.476 107.369C106.515 107.369 107.216 107.732 107.581 108.456C107.782 108.853 107.882 109.42 107.882 110.158V114.855H106.631V110.24C106.631 109.794 106.565 109.434 106.433 109.16C106.214 108.705 105.817 108.477 105.243 108.477C104.951 108.477 104.712 108.506 104.525 108.566C104.188 108.666 103.892 108.866 103.637 109.167C103.432 109.409 103.297 109.659 103.233 109.919C103.174 110.174 103.145 110.541 103.145 111.02V114.855H101.914V107.533ZM110.736 111.28C110.736 112.063 110.903 112.72 111.235 113.248C111.568 113.777 112.101 114.041 112.835 114.041C113.405 114.041 113.872 113.797 114.236 113.31C114.605 112.818 114.79 112.114 114.79 111.198C114.79 110.272 114.601 109.589 114.223 109.147C113.844 108.7 113.377 108.477 112.821 108.477C112.201 108.477 111.698 108.714 111.311 109.188C110.928 109.662 110.736 110.359 110.736 111.28ZM112.589 107.404C113.149 107.404 113.619 107.522 113.997 107.759C114.216 107.896 114.464 108.135 114.742 108.477V104.779H115.925V114.855H114.817V113.836C114.53 114.287 114.191 114.613 113.799 114.814C113.407 115.014 112.958 115.115 112.452 115.115C111.636 115.115 110.93 114.773 110.333 114.089C109.736 113.401 109.438 112.487 109.438 111.348C109.438 110.281 109.709 109.359 110.251 108.579C110.798 107.795 111.577 107.404 112.589 107.404ZM125.236 114.028C125.811 114.028 126.287 113.788 126.665 113.31C127.048 112.827 127.239 112.107 127.239 111.15C127.239 110.566 127.155 110.065 126.986 109.646C126.667 108.839 126.084 108.436 125.236 108.436C124.384 108.436 123.801 108.862 123.486 109.714C123.318 110.17 123.233 110.749 123.233 111.45C123.233 112.016 123.318 112.496 123.486 112.893C123.805 113.649 124.389 114.028 125.236 114.028ZM122.051 107.568H123.247V108.538C123.493 108.206 123.762 107.948 124.054 107.766C124.468 107.492 124.956 107.356 125.517 107.356C126.346 107.356 127.05 107.675 127.629 108.313C128.208 108.946 128.497 109.853 128.497 111.033C128.497 112.628 128.08 113.768 127.246 114.451C126.717 114.884 126.102 115.101 125.4 115.101C124.849 115.101 124.386 114.98 124.013 114.739C123.794 114.602 123.55 114.367 123.281 114.034V117.774H122.051V107.568ZM130.224 107.533H131.393V108.798C131.488 108.552 131.723 108.253 132.097 107.903C132.47 107.547 132.901 107.369 133.389 107.369C133.411 107.369 133.45 107.372 133.505 107.376C133.56 107.381 133.653 107.39 133.785 107.404V108.702C133.712 108.689 133.644 108.68 133.58 108.675C133.521 108.67 133.455 108.668 133.382 108.668C132.762 108.668 132.286 108.869 131.953 109.27C131.62 109.666 131.454 110.124 131.454 110.644V114.855H130.224V107.533ZM138.007 114.062C138.823 114.062 139.381 113.754 139.682 113.139C139.987 112.519 140.14 111.831 140.14 111.074C140.14 110.391 140.03 109.835 139.812 109.406C139.465 108.732 138.868 108.395 138.021 108.395C137.269 108.395 136.722 108.682 136.38 109.256C136.038 109.83 135.867 110.523 135.867 111.334C135.867 112.114 136.038 112.763 136.38 113.282C136.722 113.802 137.264 114.062 138.007 114.062ZM138.055 107.322C138.998 107.322 139.796 107.636 140.447 108.265C141.099 108.894 141.425 109.819 141.425 111.04C141.425 112.221 141.138 113.196 140.563 113.966C139.989 114.736 139.098 115.121 137.891 115.121C136.883 115.121 136.084 114.782 135.491 114.103C134.899 113.419 134.603 112.503 134.603 111.355C134.603 110.124 134.915 109.144 135.539 108.415C136.163 107.686 137.002 107.322 138.055 107.322ZM144.375 106.235H143.145V104.813H144.375V106.235ZM141.982 116.707C142.534 116.689 142.864 116.639 142.974 116.557C143.088 116.479 143.145 116.231 143.145 115.812V107.568H144.375V115.942C144.375 116.475 144.288 116.874 144.115 117.138C143.828 117.585 143.284 117.808 142.481 117.808C142.422 117.808 142.358 117.806 142.29 117.801C142.226 117.796 142.124 117.787 141.982 117.774V116.707ZM149.561 107.369C150.08 107.369 150.584 107.492 151.071 107.739C151.559 107.98 151.93 108.295 152.186 108.682C152.432 109.051 152.596 109.482 152.678 109.974C152.751 110.311 152.787 110.849 152.787 111.587H147.421C147.444 112.33 147.619 112.927 147.947 113.378C148.275 113.825 148.784 114.048 149.472 114.048C150.114 114.048 150.627 113.836 151.01 113.412C151.229 113.166 151.383 112.881 151.475 112.558H152.685C152.653 112.827 152.546 113.128 152.363 113.46C152.186 113.788 151.985 114.057 151.762 114.267C151.388 114.631 150.925 114.878 150.374 115.005C150.078 115.078 149.743 115.115 149.369 115.115C148.458 115.115 147.685 114.784 147.052 114.123C146.418 113.458 146.102 112.528 146.102 111.334C146.102 110.158 146.421 109.204 147.059 108.47C147.697 107.736 148.531 107.369 149.561 107.369ZM151.522 110.61C151.472 110.076 151.356 109.65 151.174 109.331C150.837 108.739 150.274 108.443 149.485 108.443C148.92 108.443 148.446 108.648 148.063 109.058C147.681 109.463 147.478 109.981 147.455 110.61H151.522ZM157.378 107.322C158.203 107.322 158.873 107.522 159.388 107.923C159.907 108.324 160.219 109.015 160.324 109.994H159.128C159.055 109.543 158.889 109.17 158.629 108.873C158.369 108.573 157.952 108.422 157.378 108.422C156.594 108.422 156.034 108.805 155.696 109.571C155.478 110.067 155.368 110.68 155.368 111.409C155.368 112.143 155.523 112.761 155.833 113.262C156.143 113.763 156.631 114.014 157.296 114.014C157.806 114.014 158.21 113.859 158.506 113.549C158.807 113.235 159.014 112.806 159.128 112.264H160.324C160.188 113.235 159.846 113.946 159.299 114.397C158.752 114.843 158.052 115.067 157.2 115.067C156.243 115.067 155.48 114.718 154.91 114.021C154.34 113.319 154.056 112.444 154.056 111.396C154.056 110.111 154.368 109.11 154.992 108.395C155.617 107.679 156.412 107.322 157.378 107.322ZM162.051 105.49H163.295V107.533H164.464V108.538H163.295V113.317C163.295 113.572 163.382 113.743 163.555 113.829C163.65 113.879 163.81 113.905 164.033 113.905C164.092 113.905 164.156 113.905 164.225 113.905C164.293 113.9 164.373 113.893 164.464 113.884V114.855C164.323 114.896 164.174 114.925 164.02 114.944C163.869 114.962 163.705 114.971 163.527 114.971C162.953 114.971 162.563 114.825 162.358 114.533C162.153 114.237 162.051 113.854 162.051 113.385V108.538H161.06V107.533H162.051V105.49ZM166.211 116.283C166.525 116.229 166.746 116.008 166.874 115.62C166.942 115.415 166.977 115.217 166.977 115.026C166.977 114.994 166.974 114.964 166.97 114.937C166.97 114.914 166.965 114.887 166.956 114.855H166.211V113.365H167.674V114.745C167.674 115.288 167.564 115.764 167.346 116.174C167.127 116.584 166.749 116.837 166.211 116.933V116.283ZM177.293 107.369C177.812 107.369 178.316 107.492 178.804 107.739C179.291 107.98 179.663 108.295 179.918 108.682C180.164 109.051 180.328 109.482 180.41 109.974C180.483 110.311 180.52 110.849 180.52 111.587H175.153C175.176 112.33 175.352 112.927 175.68 113.378C176.008 113.825 176.516 114.048 177.204 114.048C177.847 114.048 178.359 113.836 178.742 113.412C178.961 113.166 179.116 112.881 179.207 112.558H180.417C180.385 112.827 180.278 113.128 180.096 113.46C179.918 113.788 179.717 114.057 179.494 114.267C179.12 114.631 178.658 114.878 178.106 115.005C177.81 115.078 177.475 115.115 177.102 115.115C176.19 115.115 175.418 114.784 174.784 114.123C174.151 113.458 173.834 112.528 173.834 111.334C173.834 110.158 174.153 109.204 174.791 108.47C175.429 107.736 176.263 107.369 177.293 107.369ZM179.255 110.61C179.205 110.076 179.089 109.65 178.906 109.331C178.569 108.739 178.006 108.443 177.218 108.443C176.653 108.443 176.179 108.648 175.796 109.058C175.413 109.463 175.21 109.981 175.188 110.61H179.255ZM182.287 107.533H183.456V108.573C183.802 108.144 184.169 107.837 184.557 107.65C184.944 107.463 185.375 107.369 185.849 107.369C186.888 107.369 187.59 107.732 187.954 108.456C188.155 108.853 188.255 109.42 188.255 110.158V114.855H187.004V110.24C187.004 109.794 186.938 109.434 186.806 109.16C186.587 108.705 186.19 108.477 185.616 108.477C185.325 108.477 185.085 108.506 184.898 108.566C184.561 108.666 184.265 108.866 184.01 109.167C183.805 109.409 183.67 109.659 183.606 109.919C183.547 110.174 183.518 110.541 183.518 111.02V114.855H182.287V107.533ZM191.062 112.558C191.098 112.968 191.201 113.282 191.369 113.501C191.679 113.898 192.217 114.096 192.982 114.096C193.438 114.096 193.839 113.998 194.186 113.802C194.532 113.601 194.705 113.294 194.705 112.879C194.705 112.565 194.566 112.325 194.288 112.161C194.11 112.061 193.759 111.945 193.235 111.813L192.258 111.567C191.633 111.412 191.173 111.239 190.877 111.047C190.348 110.714 190.084 110.254 190.084 109.666C190.084 108.974 190.332 108.413 190.829 107.985C191.33 107.556 192.003 107.342 192.846 107.342C193.949 107.342 194.744 107.666 195.231 108.313C195.537 108.723 195.685 109.165 195.676 109.639H194.514C194.491 109.361 194.393 109.108 194.22 108.88C193.937 108.557 193.447 108.395 192.75 108.395C192.285 108.395 191.932 108.484 191.69 108.661C191.453 108.839 191.335 109.074 191.335 109.365C191.335 109.684 191.492 109.94 191.807 110.131C191.989 110.245 192.258 110.345 192.613 110.432L193.427 110.63C194.311 110.844 194.903 111.052 195.204 111.252C195.683 111.567 195.922 112.061 195.922 112.736C195.922 113.387 195.674 113.95 195.177 114.424C194.685 114.898 193.933 115.135 192.921 115.135C191.832 115.135 191.059 114.889 190.604 114.397C190.152 113.9 189.911 113.287 189.879 112.558H191.062ZM198.811 107.533V112.394C198.811 112.767 198.87 113.073 198.988 113.31C199.207 113.747 199.615 113.966 200.212 113.966C201.069 113.966 201.652 113.583 201.962 112.818C202.131 112.407 202.215 111.845 202.215 111.129V107.533H203.445V114.855H202.283L202.297 113.775C202.137 114.053 201.939 114.287 201.702 114.479C201.233 114.862 200.663 115.053 199.993 115.053C198.95 115.053 198.239 114.704 197.86 114.007C197.655 113.633 197.553 113.134 197.553 112.51V107.533H198.811ZM205.657 107.533H206.826V108.798C206.922 108.552 207.157 108.253 207.53 107.903C207.904 107.547 208.335 107.369 208.822 107.369C208.845 107.369 208.884 107.372 208.938 107.376C208.993 107.381 209.087 107.39 209.219 107.404V108.702C209.146 108.689 209.077 108.68 209.014 108.675C208.954 108.67 208.888 108.668 208.815 108.668C208.196 108.668 207.719 108.869 207.387 109.27C207.054 109.666 206.888 110.124 206.888 110.644V114.855H205.657V107.533ZM210.535 107.568H211.786V114.855H210.535V107.568ZM210.535 104.813H211.786V106.207H210.535V104.813ZM213.902 107.533H215.071V108.573C215.418 108.144 215.785 107.837 216.172 107.65C216.559 107.463 216.99 107.369 217.464 107.369C218.503 107.369 219.205 107.732 219.569 108.456C219.77 108.853 219.87 109.42 219.87 110.158V114.855H218.619V110.24C218.619 109.794 218.553 109.434 218.421 109.16C218.202 108.705 217.806 108.477 217.231 108.477C216.94 108.477 216.701 108.506 216.514 108.566C216.176 108.666 215.88 108.866 215.625 109.167C215.42 109.409 215.285 109.659 215.222 109.919C215.162 110.174 215.133 110.541 215.133 111.02V114.855H213.902V107.533ZM224.529 107.404C225.104 107.404 225.605 107.545 226.033 107.827C226.266 107.987 226.503 108.219 226.744 108.525V107.602H227.879V114.26C227.879 115.19 227.742 115.923 227.469 116.461C226.958 117.455 225.994 117.951 224.577 117.951C223.789 117.951 223.126 117.774 222.588 117.418C222.05 117.067 221.749 116.516 221.686 115.764H222.937C222.996 116.092 223.114 116.345 223.292 116.523C223.57 116.796 224.007 116.933 224.604 116.933C225.548 116.933 226.165 116.6 226.457 115.935C226.63 115.543 226.71 114.843 226.696 113.836C226.45 114.21 226.154 114.488 225.808 114.67C225.461 114.852 225.003 114.944 224.434 114.944C223.641 114.944 222.946 114.663 222.349 114.103C221.756 113.538 221.46 112.606 221.46 111.307C221.46 110.081 221.758 109.124 222.355 108.436C222.957 107.748 223.682 107.404 224.529 107.404ZM226.744 111.163C226.744 110.256 226.557 109.584 226.184 109.147C225.81 108.709 225.334 108.49 224.755 108.49C223.889 108.49 223.297 108.896 222.978 109.707C222.809 110.14 222.725 110.708 222.725 111.409C222.725 112.234 222.891 112.863 223.224 113.296C223.561 113.725 224.012 113.939 224.577 113.939C225.461 113.939 226.083 113.54 226.443 112.742C226.644 112.291 226.744 111.765 226.744 111.163ZM234.702 107.533L236.11 113.303L237.539 107.533H238.92L240.355 113.269L241.853 107.533H243.083L240.957 114.855H239.679L238.188 109.188L236.746 114.855H235.468L233.355 107.533H234.702ZM247.551 107.369C248.07 107.369 248.574 107.492 249.062 107.739C249.549 107.98 249.921 108.295 250.176 108.682C250.422 109.051 250.586 109.482 250.668 109.974C250.741 110.311 250.777 110.849 250.777 111.587H245.411C245.434 112.33 245.609 112.927 245.938 113.378C246.266 113.825 246.774 114.048 247.462 114.048C248.104 114.048 248.617 113.836 249 113.412C249.219 113.166 249.374 112.881 249.465 112.558H250.675C250.643 112.827 250.536 113.128 250.354 113.46C250.176 113.788 249.975 114.057 249.752 114.267C249.378 114.631 248.916 114.878 248.364 115.005C248.068 115.078 247.733 115.115 247.359 115.115C246.448 115.115 245.675 114.784 245.042 114.123C244.409 113.458 244.092 112.528 244.092 111.334C244.092 110.158 244.411 109.204 245.049 108.47C245.687 107.736 246.521 107.369 247.551 107.369ZM249.513 110.61C249.463 110.076 249.346 109.65 249.164 109.331C248.827 108.739 248.264 108.443 247.476 108.443C246.91 108.443 246.437 108.648 246.054 109.058C245.671 109.463 245.468 109.981 245.445 110.61H249.513ZM257.635 112.906C257.635 113.262 257.765 113.542 258.024 113.747C258.284 113.952 258.592 114.055 258.947 114.055C259.38 114.055 259.799 113.955 260.205 113.754C260.889 113.421 261.23 112.877 261.23 112.12V111.129C261.08 111.225 260.886 111.305 260.649 111.368C260.412 111.432 260.18 111.478 259.952 111.505L259.207 111.601C258.76 111.66 258.425 111.753 258.202 111.881C257.824 112.095 257.635 112.437 257.635 112.906ZM260.615 110.418C260.898 110.382 261.087 110.263 261.183 110.063C261.237 109.953 261.265 109.796 261.265 109.591C261.265 109.172 261.114 108.869 260.813 108.682C260.517 108.49 260.091 108.395 259.535 108.395C258.893 108.395 258.437 108.568 258.168 108.914C258.018 109.106 257.92 109.391 257.874 109.769H256.726C256.748 108.866 257.04 108.24 257.601 107.889C258.166 107.533 258.82 107.356 259.562 107.356C260.424 107.356 261.123 107.52 261.661 107.848C262.194 108.176 262.461 108.686 262.461 109.379V113.597C262.461 113.725 262.486 113.827 262.536 113.905C262.591 113.982 262.702 114.021 262.871 114.021C262.926 114.021 262.987 114.018 263.056 114.014C263.124 114.005 263.197 113.993 263.274 113.98V114.889C263.083 114.944 262.937 114.978 262.837 114.991C262.737 115.005 262.6 115.012 262.427 115.012C262.003 115.012 261.695 114.862 261.504 114.561C261.404 114.401 261.333 114.176 261.292 113.884C261.041 114.212 260.681 114.497 260.212 114.739C259.743 114.98 259.225 115.101 258.66 115.101C257.981 115.101 257.425 114.896 256.992 114.486C256.564 114.071 256.35 113.554 256.35 112.934C256.35 112.255 256.562 111.728 256.985 111.355C257.409 110.981 257.965 110.751 258.653 110.664L260.615 110.418ZM264.769 104.813H265.999V114.855H264.769V104.813ZM268.102 107.568H269.353V114.855H268.102V107.568ZM268.102 104.813H269.353V106.207H268.102V104.813ZM274.053 107.404C274.627 107.404 275.128 107.545 275.557 107.827C275.789 107.987 276.026 108.219 276.268 108.525V107.602H277.402V114.26C277.402 115.19 277.266 115.923 276.992 116.461C276.482 117.455 275.518 117.951 274.101 117.951C273.312 117.951 272.649 117.774 272.111 117.418C271.574 117.067 271.273 116.516 271.209 115.764H272.46C272.519 116.092 272.638 116.345 272.815 116.523C273.093 116.796 273.531 116.933 274.128 116.933C275.071 116.933 275.689 116.6 275.98 115.935C276.154 115.543 276.233 114.843 276.22 113.836C275.974 114.21 275.677 114.488 275.331 114.67C274.985 114.852 274.527 114.944 273.957 114.944C273.164 114.944 272.469 114.663 271.872 114.103C271.28 113.538 270.983 112.606 270.983 111.307C270.983 110.081 271.282 109.124 271.879 108.436C272.48 107.748 273.205 107.404 274.053 107.404ZM276.268 111.163C276.268 110.256 276.081 109.584 275.707 109.147C275.333 108.709 274.857 108.49 274.278 108.49C273.412 108.49 272.82 108.896 272.501 109.707C272.332 110.14 272.248 110.708 272.248 111.409C272.248 112.234 272.414 112.863 272.747 113.296C273.084 113.725 273.535 113.939 274.101 113.939C274.985 113.939 275.607 113.54 275.967 112.742C276.167 112.291 276.268 111.765 276.268 111.163ZM279.512 107.533H280.681V108.573C281.027 108.144 281.394 107.837 281.781 107.65C282.169 107.463 282.599 107.369 283.073 107.369C284.112 107.369 284.814 107.732 285.179 108.456C285.379 108.853 285.479 109.42 285.479 110.158V114.855H284.229V110.24C284.229 109.794 284.162 109.434 284.03 109.16C283.812 108.705 283.415 108.477 282.841 108.477C282.549 108.477 282.31 108.506 282.123 108.566C281.786 108.666 281.49 108.866 281.234 109.167C281.029 109.409 280.895 109.659 280.831 109.919C280.772 110.174 280.742 110.541 280.742 111.02V114.855H279.512V107.533ZM94.4385 127.533L95.8467 133.303L97.2754 127.533H98.6562L100.092 133.269L101.589 127.533H102.819L100.693 134.855H99.415L97.9248 129.188L96.4824 134.855H95.2041L93.0918 127.533H94.4385ZM104.238 127.568H105.489V134.855H104.238V127.568ZM104.238 124.813H105.489V126.207H104.238V124.813ZM107.852 125.49H109.096V127.533H110.265V128.538H109.096V133.317C109.096 133.572 109.182 133.743 109.355 133.829C109.451 133.879 109.611 133.905 109.834 133.905C109.893 133.905 109.957 133.905 110.025 133.905C110.094 133.9 110.174 133.893 110.265 133.884V134.855C110.123 134.896 109.975 134.925 109.82 134.944C109.67 134.962 109.506 134.971 109.328 134.971C108.754 134.971 108.364 134.825 108.159 134.533C107.954 134.237 107.852 133.854 107.852 133.385V128.538H106.86V127.533H107.852V125.49ZM111.752 124.779H112.982V128.525C113.274 128.156 113.536 127.896 113.769 127.745C114.165 127.486 114.66 127.356 115.252 127.356C116.314 127.356 117.034 127.727 117.412 128.47C117.617 128.876 117.72 129.438 117.72 130.158V134.855H116.455V130.24C116.455 129.703 116.387 129.309 116.25 129.058C116.027 128.657 115.607 128.456 114.992 128.456C114.482 128.456 114.019 128.632 113.604 128.983C113.19 129.334 112.982 129.997 112.982 130.972V134.855H111.752V124.779ZM128.515 127.533H129.875C129.702 128.003 129.317 129.074 128.72 130.746C128.273 132.004 127.899 133.03 127.599 133.823C126.888 135.691 126.386 136.83 126.095 137.24C125.803 137.651 125.302 137.856 124.591 137.856C124.418 137.856 124.283 137.849 124.188 137.835C124.096 137.822 123.982 137.796 123.846 137.76V136.639C124.06 136.698 124.215 136.735 124.311 136.748C124.406 136.762 124.491 136.769 124.563 136.769C124.791 136.769 124.958 136.73 125.062 136.653C125.172 136.58 125.263 136.489 125.336 136.379C125.359 136.343 125.441 136.156 125.582 135.819C125.723 135.481 125.826 135.231 125.89 135.067L123.183 127.533H124.577L126.539 133.494L128.515 127.533ZM134.097 134.062C134.912 134.062 135.471 133.754 135.771 133.139C136.077 132.519 136.229 131.831 136.229 131.074C136.229 130.391 136.12 129.835 135.901 129.406C135.555 128.732 134.958 128.395 134.11 128.395C133.358 128.395 132.812 128.682 132.47 129.256C132.128 129.83 131.957 130.523 131.957 131.334C131.957 132.114 132.128 132.763 132.47 133.282C132.812 133.802 133.354 134.062 134.097 134.062ZM134.145 127.322C135.088 127.322 135.885 127.636 136.537 128.265C137.189 128.894 137.515 129.819 137.515 131.04C137.515 132.221 137.228 133.196 136.653 133.966C136.079 134.736 135.188 135.121 133.98 135.121C132.973 135.121 132.174 134.782 131.581 134.103C130.989 133.419 130.692 132.503 130.692 131.355C130.692 130.124 131.005 129.144 131.629 128.415C132.253 127.686 133.092 127.322 134.145 127.322ZM140.465 127.533V132.394C140.465 132.767 140.524 133.073 140.643 133.31C140.861 133.747 141.269 133.966 141.866 133.966C142.723 133.966 143.306 133.583 143.616 132.818C143.785 132.407 143.869 131.845 143.869 131.129V127.533H145.1V134.855H143.938L143.951 133.775C143.792 134.053 143.593 134.287 143.356 134.479C142.887 134.862 142.317 135.053 141.647 135.053C140.604 135.053 139.893 134.704 139.515 134.007C139.31 133.633 139.207 133.134 139.207 132.51V127.533H140.465ZM147.312 127.533H148.48V128.798C148.576 128.552 148.811 128.253 149.185 127.903C149.558 127.547 149.989 127.369 150.477 127.369C150.499 127.369 150.538 127.372 150.593 127.376C150.647 127.381 150.741 127.39 150.873 127.404V128.702C150.8 128.689 150.732 128.68 150.668 128.675C150.609 128.67 150.543 128.668 150.47 128.668C149.85 128.668 149.374 128.869 149.041 129.27C148.708 129.666 148.542 130.124 148.542 130.644V134.855H147.312V127.533ZM159.385 127.369C159.904 127.369 160.408 127.492 160.896 127.739C161.383 127.98 161.755 128.295 162.01 128.682C162.256 129.051 162.42 129.482 162.502 129.974C162.575 130.311 162.611 130.849 162.611 131.587H157.245C157.268 132.33 157.443 132.927 157.771 133.378C158.1 133.825 158.608 134.048 159.296 134.048C159.938 134.048 160.451 133.836 160.834 133.412C161.053 133.166 161.208 132.881 161.299 132.558H162.509C162.477 132.827 162.37 133.128 162.188 133.46C162.01 133.788 161.809 134.057 161.586 134.267C161.212 134.631 160.75 134.878 160.198 135.005C159.902 135.078 159.567 135.115 159.193 135.115C158.282 135.115 157.509 134.784 156.876 134.123C156.243 133.458 155.926 132.528 155.926 131.334C155.926 130.158 156.245 129.204 156.883 128.47C157.521 127.736 158.355 127.369 159.385 127.369ZM161.347 130.61C161.297 130.076 161.18 129.65 160.998 129.331C160.661 128.739 160.098 128.443 159.31 128.443C158.744 128.443 158.271 128.648 157.888 129.058C157.505 129.463 157.302 129.981 157.279 130.61H161.347ZM163.682 127.533H165.274L166.956 130.111L168.658 127.533L170.155 127.568L167.688 131.102L170.265 134.855H168.692L166.874 132.107L165.11 134.855H163.552L166.129 131.102L163.682 127.533ZM174.719 134.028C175.293 134.028 175.769 133.788 176.147 133.31C176.53 132.827 176.722 132.107 176.722 131.15C176.722 130.566 176.637 130.065 176.469 129.646C176.15 128.839 175.566 128.436 174.719 128.436C173.867 128.436 173.283 128.862 172.969 129.714C172.8 130.17 172.716 130.749 172.716 131.45C172.716 132.016 172.8 132.496 172.969 132.893C173.288 133.649 173.871 134.028 174.719 134.028ZM171.533 127.568H172.729V128.538C172.976 128.206 173.244 127.948 173.536 127.766C173.951 127.492 174.438 127.356 174.999 127.356C175.828 127.356 176.533 127.675 177.111 128.313C177.69 128.946 177.979 129.853 177.979 131.033C177.979 132.628 177.562 133.768 176.729 134.451C176.2 134.884 175.585 135.101 174.883 135.101C174.331 135.101 173.869 134.98 173.495 134.739C173.276 134.602 173.033 134.367 172.764 134.034V137.774H171.533V127.568ZM182.721 127.369C183.24 127.369 183.744 127.492 184.231 127.739C184.719 127.98 185.09 128.295 185.346 128.682C185.592 129.051 185.756 129.482 185.838 129.974C185.911 130.311 185.947 130.849 185.947 131.587H180.581C180.604 132.33 180.779 132.927 181.107 133.378C181.436 133.825 181.944 134.048 182.632 134.048C183.274 134.048 183.787 133.836 184.17 133.412C184.389 133.166 184.544 132.881 184.635 132.558H185.845C185.813 132.827 185.706 133.128 185.523 133.46C185.346 133.788 185.145 134.057 184.922 134.267C184.548 134.631 184.086 134.878 183.534 135.005C183.238 135.078 182.903 135.115 182.529 135.115C181.618 135.115 180.845 134.784 180.212 134.123C179.578 133.458 179.262 132.528 179.262 131.334C179.262 130.158 179.581 129.204 180.219 128.47C180.857 127.736 181.691 127.369 182.721 127.369ZM184.683 130.61C184.632 130.076 184.516 129.65 184.334 129.331C183.997 128.739 183.434 128.443 182.646 128.443C182.08 128.443 181.606 128.648 181.224 129.058C180.841 129.463 180.638 129.981 180.615 130.61H184.683ZM190.538 127.322C191.363 127.322 192.033 127.522 192.548 127.923C193.067 128.324 193.38 129.015 193.484 129.994H192.288C192.215 129.543 192.049 129.17 191.789 128.873C191.529 128.573 191.112 128.422 190.538 128.422C189.754 128.422 189.194 128.805 188.856 129.571C188.638 130.067 188.528 130.68 188.528 131.409C188.528 132.143 188.683 132.761 188.993 133.262C189.303 133.763 189.791 134.014 190.456 134.014C190.966 134.014 191.37 133.859 191.666 133.549C191.967 133.235 192.174 132.806 192.288 132.264H193.484C193.348 133.235 193.006 133.946 192.459 134.397C191.912 134.843 191.213 135.067 190.36 135.067C189.403 135.067 188.64 134.718 188.07 134.021C187.501 133.319 187.216 132.444 187.216 131.396C187.216 130.111 187.528 129.11 188.152 128.395C188.777 127.679 189.572 127.322 190.538 127.322ZM195.211 125.49H196.455V127.533H197.624V128.538H196.455V133.317C196.455 133.572 196.542 133.743 196.715 133.829C196.811 133.879 196.97 133.905 197.193 133.905C197.253 133.905 197.316 133.905 197.385 133.905C197.453 133.9 197.533 133.893 197.624 133.884V134.855C197.483 134.896 197.335 134.925 197.18 134.944C197.029 134.962 196.865 134.971 196.688 134.971C196.113 134.971 195.724 134.825 195.519 134.533C195.313 134.237 195.211 133.854 195.211 133.385V128.538H194.22V127.533H195.211V125.49ZM200.055 132.906C200.055 133.262 200.185 133.542 200.444 133.747C200.704 133.952 201.012 134.055 201.367 134.055C201.8 134.055 202.219 133.955 202.625 133.754C203.309 133.421 203.65 132.877 203.65 132.12V131.129C203.5 131.225 203.306 131.305 203.069 131.368C202.832 131.432 202.6 131.478 202.372 131.505L201.627 131.601C201.18 131.66 200.845 131.753 200.622 131.881C200.244 132.095 200.055 132.437 200.055 132.906ZM203.035 130.418C203.318 130.382 203.507 130.263 203.603 130.063C203.657 129.953 203.685 129.796 203.685 129.591C203.685 129.172 203.534 128.869 203.233 128.682C202.937 128.49 202.511 128.395 201.955 128.395C201.312 128.395 200.857 128.568 200.588 128.914C200.438 129.106 200.34 129.391 200.294 129.769H199.146C199.168 128.866 199.46 128.24 200.021 127.889C200.586 127.533 201.24 127.356 201.982 127.356C202.844 127.356 203.543 127.52 204.081 127.848C204.614 128.176 204.881 128.686 204.881 129.379V133.597C204.881 133.725 204.906 133.827 204.956 133.905C205.011 133.982 205.122 134.021 205.291 134.021C205.346 134.021 205.407 134.018 205.476 134.014C205.544 134.005 205.617 133.993 205.694 133.98V134.889C205.503 134.944 205.357 134.978 205.257 134.991C205.157 135.005 205.02 135.012 204.847 135.012C204.423 135.012 204.115 134.862 203.924 134.561C203.824 134.401 203.753 134.176 203.712 133.884C203.461 134.212 203.101 134.497 202.632 134.739C202.162 134.98 201.645 135.101 201.08 135.101C200.401 135.101 199.845 134.896 199.412 134.486C198.984 134.071 198.77 133.554 198.77 132.934C198.77 132.255 198.981 131.728 199.405 131.355C199.829 130.981 200.385 130.751 201.073 130.664L203.035 130.418ZM207.4 125.49H208.645V127.533H209.813V128.538H208.645V133.317C208.645 133.572 208.731 133.743 208.904 133.829C209 133.879 209.16 133.905 209.383 133.905C209.442 133.905 209.506 133.905 209.574 133.905C209.643 133.9 209.722 133.893 209.813 133.884V134.855C209.672 134.896 209.524 134.925 209.369 134.944C209.219 134.962 209.055 134.971 208.877 134.971C208.303 134.971 207.913 134.825 207.708 134.533C207.503 134.237 207.4 133.854 207.4 133.385V128.538H206.409V127.533H207.4V125.49ZM211.301 127.568H212.552V134.855H211.301V127.568ZM211.301 124.813H212.552V126.207H211.301V124.813ZM217.573 134.062C218.389 134.062 218.947 133.754 219.248 133.139C219.553 132.519 219.706 131.831 219.706 131.074C219.706 130.391 219.597 129.835 219.378 129.406C219.032 128.732 218.435 128.395 217.587 128.395C216.835 128.395 216.288 128.682 215.946 129.256C215.604 129.83 215.434 130.523 215.434 131.334C215.434 132.114 215.604 132.763 215.946 133.282C216.288 133.802 216.83 134.062 217.573 134.062ZM217.621 127.322C218.564 127.322 219.362 127.636 220.014 128.265C220.665 128.894 220.991 129.819 220.991 131.04C220.991 132.221 220.704 133.196 220.13 133.966C219.556 134.736 218.665 135.121 217.457 135.121C216.45 135.121 215.65 134.782 215.058 134.103C214.465 133.419 214.169 132.503 214.169 131.355C214.169 130.124 214.481 129.144 215.105 128.415C215.73 127.686 216.568 127.322 217.621 127.322ZM222.711 127.533H223.88V128.573C224.226 128.144 224.593 127.837 224.98 127.65C225.368 127.463 225.799 127.369 226.272 127.369C227.312 127.369 228.013 127.732 228.378 128.456C228.578 128.853 228.679 129.42 228.679 130.158V134.855H227.428V130.24C227.428 129.794 227.362 129.434 227.229 129.16C227.011 128.705 226.614 128.477 226.04 128.477C225.748 128.477 225.509 128.506 225.322 128.566C224.985 128.666 224.689 128.866 224.434 129.167C224.229 129.409 224.094 129.659 224.03 129.919C223.971 130.174 223.941 130.541 223.941 131.02V134.855H222.711V127.533ZM231.485 132.558C231.522 132.968 231.624 133.282 231.793 133.501C232.103 133.898 232.641 134.096 233.406 134.096C233.862 134.096 234.263 133.998 234.609 133.802C234.956 133.601 235.129 133.294 235.129 132.879C235.129 132.565 234.99 132.325 234.712 132.161C234.534 132.061 234.183 131.945 233.659 131.813L232.682 131.567C232.057 131.412 231.597 131.239 231.301 131.047C230.772 130.714 230.508 130.254 230.508 129.666C230.508 128.974 230.756 128.413 231.253 127.985C231.754 127.556 232.426 127.342 233.27 127.342C234.372 127.342 235.168 127.666 235.655 128.313C235.961 128.723 236.109 129.165 236.1 129.639H234.938C234.915 129.361 234.817 129.108 234.644 128.88C234.361 128.557 233.871 128.395 233.174 128.395C232.709 128.395 232.356 128.484 232.114 128.661C231.877 128.839 231.759 129.074 231.759 129.365C231.759 129.684 231.916 129.94 232.23 130.131C232.413 130.245 232.682 130.345 233.037 130.432L233.851 130.63C234.735 130.844 235.327 131.052 235.628 131.252C236.106 131.567 236.346 132.061 236.346 132.736C236.346 133.387 236.097 133.95 235.601 134.424C235.108 134.898 234.356 135.135 233.345 135.135C232.256 135.135 231.483 134.889 231.027 134.397C230.576 133.9 230.335 133.287 230.303 132.558H231.485ZM238.298 133.365H239.727V134.855H238.298V133.365Z" fill="white"/>
</svg>
