<svg width="327" height="187" viewBox="0 0 327 187" fill="none" xmlns="http://www.w3.org/2000/svg">
<path fill-rule="evenodd" clip-rule="evenodd" d="M249.09 114.381C249.833 127.911 251.914 134.804 244.421 148.248C230.065 174.004 197.531 179.965 175.152 162.974C170.528 159.464 167.969 154.938 164.729 152.735C148.984 188.633 110.162 193.358 86.7776 175.79C82.4305 172.522 79.0893 169.014 76.4545 165.428C72.3111 159.783 71.58 157.03 69.112 152.821C56.8312 153.566 49.4544 155.978 39.1852 146.692C36.0279 143.839 33.0547 140.059 31.2564 136.001C29.2988 131.59 29.23 129.24 28.8743 124.847L28.369 121.471C27.66 118.191 13.8459 117.843 4.37653 94.645C-0.834137 81.8809 1.32227 65.5792 8.54944 53.5437C18.718 36.6092 39.9187 28.0401 59.7456 33.0937C68.17 35.2403 71.5555 38.2994 77.6689 41.7658C88.7672 -0.316678 138.705 -11.9744 167.236 20.8693C170.57 24.7062 171.806 28.781 175.135 33.8689C186.415 31.9481 193.821 27.0759 211.44 34.2737C227.009 40.63 230.281 50.487 234.986 55.6952C245.202 54.9642 249.865 51.066 261.793 58.2981C268.328 62.2625 273.414 68.9867 275.469 76.7659C275.874 77.1829 279.466 71.3541 300.043 76.1035C310.305 78.4709 326.666 90.7517 324.575 90.006C303.951 82.6365 301.071 81.665 283.28 89.3877C274.189 93.335 275.467 95.7759 270.146 102.817C264.739 109.948 259.58 112.257 249.092 114.379L249.09 114.381Z" fill="#454545" stroke="#616161" stroke-width="2.55544" stroke-miterlimit="22.9256" stroke-linecap="square"/>
<path d="M45.6973 79.5583C45.7292 80.128 45.8636 80.5906 46.1006 80.946C46.5518 81.6114 47.347 81.9441 48.4863 81.9441C48.9967 81.9441 49.4616 81.8712 49.8809 81.7253C50.6921 81.4428 51.0977 80.9369 51.0977 80.2078C51.0977 79.6609 50.9268 79.2712 50.585 79.0388C50.2386 78.811 49.6963 78.6127 48.958 78.4441L47.5977 78.1365C46.709 77.936 46.0801 77.7149 45.7109 77.4734C45.0729 77.0541 44.7539 76.4275 44.7539 75.5935C44.7539 74.6912 45.0661 73.9506 45.6904 73.3718C46.3148 72.7931 47.1989 72.5037 48.3428 72.5037C49.3955 72.5037 50.2887 72.7589 51.0225 73.2693C51.7607 73.7751 52.1299 74.5863 52.1299 75.7029H50.8516C50.7832 75.1651 50.6374 74.7527 50.4141 74.4656C49.9993 73.9415 49.2952 73.6794 48.3018 73.6794C47.4997 73.6794 46.9232 73.8481 46.5723 74.1853C46.2214 74.5225 46.0459 74.9145 46.0459 75.3611C46.0459 75.8533 46.251 76.2133 46.6611 76.4412C46.93 76.587 47.5384 76.7693 48.4863 76.988L49.8945 77.3093C50.5736 77.4643 51.0977 77.6762 51.4668 77.9451C52.1048 78.4145 52.4238 79.0958 52.4238 79.989C52.4238 81.101 52.0182 81.8962 51.207 82.3748C50.4004 82.8533 49.4616 83.0925 48.3906 83.0925C47.1419 83.0925 46.1644 82.7735 45.458 82.1355C44.7516 81.502 44.4053 80.643 44.4189 79.5583H45.6973ZM57.2812 75.3132C57.8008 75.3132 58.3044 75.4363 58.792 75.6824C59.2796 75.9239 59.651 76.2384 59.9062 76.6257C60.1523 76.9949 60.3164 77.4255 60.3984 77.9177C60.4714 78.255 60.5078 78.7927 60.5078 79.531H55.1416C55.1644 80.2738 55.3398 80.8708 55.668 81.322C55.9961 81.7686 56.5042 81.9919 57.1924 81.9919C57.835 81.9919 58.3477 81.78 58.7305 81.3562C58.9492 81.1101 59.1042 80.8253 59.1953 80.5017H60.4053C60.3734 80.7706 60.2663 81.0714 60.084 81.4041C59.9062 81.7322 59.7057 82.0011 59.4824 82.2107C59.1087 82.5753 58.6462 82.8214 58.0947 82.949C57.7985 83.0219 57.4635 83.0583 57.0898 83.0583C56.1784 83.0583 55.4059 82.7279 54.7725 82.0671C54.139 81.4018 53.8223 80.4721 53.8223 79.2781C53.8223 78.1023 54.1413 77.1475 54.7793 76.4138C55.4173 75.6801 56.2513 75.3132 57.2812 75.3132ZM59.2432 78.5535C59.193 78.0203 59.0768 77.5942 58.8945 77.2751C58.5573 76.6827 57.9945 76.3865 57.2061 76.3865C56.641 76.3865 56.167 76.5916 55.7842 77.0017C55.4014 77.4073 55.1986 77.9246 55.1758 78.5535H59.2432ZM62.2754 75.4773H63.4443V76.5164C63.7907 76.088 64.1576 75.7804 64.5449 75.5935C64.9323 75.4067 65.363 75.3132 65.8369 75.3132C66.876 75.3132 67.5778 75.6755 67.9424 76.4001C68.1429 76.7966 68.2432 77.364 68.2432 78.1023V82.7986H66.9922V78.1843C66.9922 77.7377 66.9261 77.3777 66.7939 77.1042C66.5752 76.6485 66.1787 76.4207 65.6045 76.4207C65.3128 76.4207 65.0736 76.4503 64.8867 76.5095C64.5495 76.6098 64.2533 76.8103 63.998 77.1111C63.793 77.3526 63.6585 77.6033 63.5947 77.863C63.5355 78.1182 63.5059 78.4851 63.5059 78.9636V82.7986H62.2754V75.4773ZM71.0977 79.2234C71.0977 80.0072 71.264 80.6635 71.5967 81.1921C71.9294 81.7208 72.4626 81.9851 73.1963 81.9851C73.766 81.9851 74.2331 81.7413 74.5977 81.2537C74.9668 80.7615 75.1514 80.0574 75.1514 79.1414C75.1514 78.2162 74.9622 77.5326 74.584 77.0906C74.2057 76.644 73.7386 76.4207 73.1826 76.4207C72.5628 76.4207 72.0592 76.6576 71.6719 77.1316C71.2891 77.6056 71.0977 78.3028 71.0977 79.2234ZM72.9502 75.3474C73.5107 75.3474 73.9801 75.4659 74.3584 75.7029C74.5771 75.8396 74.8255 76.0789 75.1035 76.4207V72.7224H76.2861V82.7986H75.1787V81.78C74.8916 82.2312 74.5521 82.557 74.1602 82.7576C73.7682 82.9581 73.3193 83.0583 72.8135 83.0583C71.9977 83.0583 71.2913 82.7166 70.6943 82.033C70.0973 81.3448 69.7988 80.4311 69.7988 79.2917C69.7988 78.2253 70.07 77.3025 70.6123 76.5232C71.1592 75.7393 71.9385 75.3474 72.9502 75.3474ZM82.5078 75.5115H83.7588V82.7986H82.5078V75.5115ZM82.5078 72.7566H83.7588V74.1511H82.5078V72.7566ZM85.875 75.4773H87.0439V76.5164C87.3903 76.088 87.7572 75.7804 88.1445 75.5935C88.5319 75.4067 88.9626 75.3132 89.4365 75.3132C90.4756 75.3132 91.1774 75.6755 91.542 76.4001C91.7425 76.7966 91.8428 77.364 91.8428 78.1023V82.7986H90.5918V78.1843C90.5918 77.7377 90.5257 77.3777 90.3936 77.1042C90.1748 76.6485 89.7783 76.4207 89.2041 76.4207C88.9124 76.4207 88.6732 76.4503 88.4863 76.5095C88.1491 76.6098 87.8529 76.8103 87.5977 77.1111C87.3926 77.3526 87.2581 77.6033 87.1943 77.863C87.1351 78.1182 87.1055 78.4851 87.1055 78.9636V82.7986H85.875V75.4773ZM98.0645 75.4773H99.2334V76.5164C99.5798 76.088 99.9466 75.7804 100.334 75.5935C100.721 75.4067 101.152 75.3132 101.626 75.3132C102.665 75.3132 103.367 75.6755 103.731 76.4001C103.932 76.7966 104.032 77.364 104.032 78.1023V82.7986H102.781V78.1843C102.781 77.7377 102.715 77.3777 102.583 77.1042C102.364 76.6485 101.968 76.4207 101.394 76.4207C101.102 76.4207 100.863 76.4503 100.676 76.5095C100.339 76.6098 100.042 76.8103 99.7871 77.1111C99.582 77.3526 99.4476 77.6033 99.3838 77.863C99.3245 78.1182 99.2949 78.4851 99.2949 78.9636V82.7986H98.0645V75.4773ZM109.156 75.3132C109.676 75.3132 110.179 75.4363 110.667 75.6824C111.155 75.9239 111.526 76.2384 111.781 76.6257C112.027 76.9949 112.191 77.4255 112.273 77.9177C112.346 78.255 112.383 78.7927 112.383 79.531H107.017C107.039 80.2738 107.215 80.8708 107.543 81.322C107.871 81.7686 108.379 81.9919 109.067 81.9919C109.71 81.9919 110.223 81.78 110.605 81.3562C110.824 81.1101 110.979 80.8253 111.07 80.5017H112.28C112.248 80.7706 112.141 81.0714 111.959 81.4041C111.781 81.7322 111.581 82.0011 111.357 82.2107C110.984 82.5753 110.521 82.8214 109.97 82.949C109.674 83.0219 109.339 83.0583 108.965 83.0583C108.053 83.0583 107.281 82.7279 106.647 82.0671C106.014 81.4018 105.697 80.4721 105.697 79.2781C105.697 78.1023 106.016 77.1475 106.654 76.4138C107.292 75.6801 108.126 75.3132 109.156 75.3132ZM111.118 78.5535C111.068 78.0203 110.952 77.5942 110.77 77.2751C110.432 76.6827 109.869 76.3865 109.081 76.3865C108.516 76.3865 108.042 76.5916 107.659 77.0017C107.276 77.4073 107.074 77.9246 107.051 78.5535H111.118ZM116.974 75.2654C117.799 75.2654 118.468 75.4659 118.983 75.8669C119.503 76.268 119.815 76.9584 119.92 77.9382H118.724C118.651 77.4871 118.484 77.1134 118.225 76.8171C117.965 76.5164 117.548 76.366 116.974 76.366C116.19 76.366 115.629 76.7488 115.292 77.5144C115.073 78.0111 114.964 78.6241 114.964 79.3533C114.964 80.087 115.119 80.7045 115.429 81.2058C115.739 81.7071 116.226 81.9578 116.892 81.9578C117.402 81.9578 117.805 81.8028 118.102 81.4929C118.402 81.1785 118.61 80.7501 118.724 80.2078H119.92C119.783 81.1785 119.441 81.8894 118.895 82.3406C118.348 82.7872 117.648 83.0105 116.796 83.0105C115.839 83.0105 115.076 82.6619 114.506 81.9646C113.936 81.2628 113.651 80.3878 113.651 79.3396C113.651 78.0544 113.964 77.0541 114.588 76.3386C115.212 75.6231 116.007 75.2654 116.974 75.2654ZM124.449 75.3132C124.969 75.3132 125.472 75.4363 125.96 75.6824C126.448 75.9239 126.819 76.2384 127.074 76.6257C127.32 76.9949 127.484 77.4255 127.566 77.9177C127.639 78.255 127.676 78.7927 127.676 79.531H122.31C122.332 80.2738 122.508 80.8708 122.836 81.322C123.164 81.7686 123.672 81.9919 124.36 81.9919C125.003 81.9919 125.516 81.78 125.898 81.3562C126.117 81.1101 126.272 80.8253 126.363 80.5017H127.573C127.541 80.7706 127.434 81.0714 127.252 81.4041C127.074 81.7322 126.874 82.0011 126.65 82.2107C126.277 82.5753 125.814 82.8214 125.263 82.949C124.966 83.0219 124.632 83.0583 124.258 83.0583C123.346 83.0583 122.574 82.7279 121.94 82.0671C121.307 81.4018 120.99 80.4721 120.99 79.2781C120.99 78.1023 121.309 77.1475 121.947 76.4138C122.585 75.6801 123.419 75.3132 124.449 75.3132ZM126.411 78.5535C126.361 78.0203 126.245 77.5942 126.062 77.2751C125.725 76.6827 125.162 76.3865 124.374 76.3865C123.809 76.3865 123.335 76.5916 122.952 77.0017C122.569 77.4073 122.367 77.9246 122.344 78.5535H126.411ZM130.175 80.5017C130.211 80.9119 130.314 81.2263 130.482 81.4451C130.792 81.8416 131.33 82.0398 132.096 82.0398C132.551 82.0398 132.952 81.9418 133.299 81.7458C133.645 81.5453 133.818 81.2377 133.818 80.823C133.818 80.5085 133.679 80.2693 133.401 80.1052C133.224 80.005 132.873 79.8888 132.349 79.7566L131.371 79.5105C130.747 79.3556 130.286 79.1824 129.99 78.991C129.462 78.6583 129.197 78.198 129.197 77.6101C129.197 76.9174 129.446 76.3569 129.942 75.9285C130.444 75.5001 131.116 75.2859 131.959 75.2859C133.062 75.2859 133.857 75.6095 134.345 76.2566C134.65 76.6667 134.798 77.1088 134.789 77.5828H133.627C133.604 77.3048 133.506 77.0518 133.333 76.824C133.05 76.5004 132.561 76.3386 131.863 76.3386C131.398 76.3386 131.045 76.4275 130.804 76.6052C130.567 76.783 130.448 77.0177 130.448 77.3093C130.448 77.6283 130.605 77.8835 130.92 78.075C131.102 78.1889 131.371 78.2891 131.727 78.3757L132.54 78.574C133.424 78.7882 134.017 78.9955 134.317 79.196C134.796 79.5105 135.035 80.005 135.035 80.6794C135.035 81.3311 134.787 81.894 134.29 82.3679C133.798 82.8419 133.046 83.0789 132.034 83.0789C130.945 83.0789 130.173 82.8328 129.717 82.3406C129.266 81.8438 129.024 81.2309 128.992 80.5017H130.175ZM137.425 80.5017C137.461 80.9119 137.564 81.2263 137.732 81.4451C138.042 81.8416 138.58 82.0398 139.346 82.0398C139.801 82.0398 140.202 81.9418 140.549 81.7458C140.895 81.5453 141.068 81.2377 141.068 80.823C141.068 80.5085 140.929 80.2693 140.651 80.1052C140.474 80.005 140.123 79.8888 139.599 79.7566L138.621 79.5105C137.997 79.3556 137.536 79.1824 137.24 78.991C136.712 78.6583 136.447 78.198 136.447 77.6101C136.447 76.9174 136.696 76.3569 137.192 75.9285C137.694 75.5001 138.366 75.2859 139.209 75.2859C140.312 75.2859 141.107 75.6095 141.595 76.2566C141.9 76.6667 142.048 77.1088 142.039 77.5828H140.877C140.854 77.3048 140.756 77.0518 140.583 76.824C140.3 76.5004 139.811 76.3386 139.113 76.3386C138.648 76.3386 138.295 76.4275 138.054 76.6052C137.817 76.783 137.698 77.0177 137.698 77.3093C137.698 77.6283 137.855 77.8835 138.17 78.075C138.352 78.1889 138.621 78.2891 138.977 78.3757L139.79 78.574C140.674 78.7882 141.267 78.9955 141.567 79.196C142.046 79.5105 142.285 80.005 142.285 80.6794C142.285 81.3311 142.037 81.894 141.54 82.3679C141.048 82.8419 140.296 83.0789 139.284 83.0789C138.195 83.0789 137.423 82.8328 136.967 82.3406C136.516 81.8438 136.274 81.2309 136.242 80.5017H137.425ZM144.887 80.8503C144.887 81.2058 145.017 81.4861 145.276 81.6912C145.536 81.8962 145.844 81.9988 146.199 81.9988C146.632 81.9988 147.051 81.8985 147.457 81.698C148.141 81.3653 148.482 80.8207 148.482 80.0642V79.073C148.332 79.1687 148.138 79.2485 147.901 79.3123C147.664 79.3761 147.432 79.4216 147.204 79.449L146.459 79.5447C146.012 79.6039 145.677 79.6973 145.454 79.825C145.076 80.0391 144.887 80.3809 144.887 80.8503ZM147.867 78.3621C148.15 78.3256 148.339 78.2071 148.435 78.0066C148.489 77.8972 148.517 77.74 148.517 77.5349C148.517 77.1156 148.366 76.8126 148.065 76.6257C147.769 76.4343 147.343 76.3386 146.787 76.3386C146.145 76.3386 145.689 76.5118 145.42 76.8582C145.27 77.0496 145.172 77.3344 145.126 77.7126H143.978C144 76.8103 144.292 76.1837 144.853 75.8328C145.418 75.4773 146.072 75.2996 146.814 75.2996C147.676 75.2996 148.375 75.4636 148.913 75.7917C149.446 76.1199 149.713 76.6303 149.713 77.323V81.5408C149.713 81.6684 149.738 81.7709 149.788 81.8484C149.843 81.9259 149.954 81.9646 150.123 81.9646C150.178 81.9646 150.239 81.9623 150.308 81.9578C150.376 81.9486 150.449 81.9373 150.526 81.9236V82.8328C150.335 82.8875 150.189 82.9216 150.089 82.9353C149.989 82.949 149.852 82.9558 149.679 82.9558C149.255 82.9558 148.947 82.8054 148.756 82.5046C148.656 82.3451 148.585 82.1195 148.544 81.8279C148.293 82.156 147.933 82.4408 147.464 82.6824C146.994 82.9239 146.477 83.0447 145.912 83.0447C145.233 83.0447 144.677 82.8396 144.244 82.4294C143.816 82.0147 143.602 81.4975 143.602 80.8777C143.602 80.1986 143.813 79.6723 144.237 79.2986C144.661 78.9249 145.217 78.6947 145.905 78.6082L147.867 78.3621ZM152.021 75.4773H153.189V76.7419C153.285 76.4958 153.52 76.1973 153.894 75.8464C154.267 75.491 154.698 75.3132 155.186 75.3132C155.208 75.3132 155.247 75.3155 155.302 75.3201C155.356 75.3246 155.45 75.3337 155.582 75.3474V76.6462C155.509 76.6326 155.441 76.6235 155.377 76.6189C155.318 76.6143 155.252 76.6121 155.179 76.6121C154.559 76.6121 154.083 76.8126 153.75 77.2136C153.417 77.6101 153.251 78.0681 153.251 78.5876V82.7986H152.021V75.4773ZM161.472 75.4773H162.832C162.659 75.9467 162.274 77.0177 161.677 78.6902C161.23 79.948 160.856 80.9734 160.556 81.7664C159.845 83.6348 159.343 84.7742 159.052 85.1843C158.76 85.5945 158.259 85.7996 157.548 85.7996C157.375 85.7996 157.24 85.7927 157.145 85.7791C157.053 85.7654 156.939 85.7403 156.803 85.7039V84.5828C157.017 84.642 157.172 84.6785 157.268 84.6921C157.363 84.7058 157.448 84.7126 157.521 84.7126C157.748 84.7126 157.915 84.6739 158.02 84.5964C158.129 84.5235 158.22 84.4324 158.293 84.323C158.316 84.2865 158.398 84.0997 158.539 83.7625C158.68 83.4252 158.783 83.1746 158.847 83.0105L156.14 75.4773H157.534L159.496 81.4382L161.472 75.4773ZM168.295 75.4773H169.512V76.5164C169.803 76.1563 170.068 75.8943 170.305 75.7302C170.71 75.4522 171.171 75.3132 171.686 75.3132C172.269 75.3132 172.738 75.4568 173.094 75.7439C173.294 75.908 173.477 76.1495 173.641 76.4685C173.914 76.0766 174.235 75.7872 174.604 75.6003C174.974 75.4089 175.388 75.3132 175.849 75.3132C176.833 75.3132 177.503 75.6687 177.858 76.3796C178.05 76.7625 178.146 77.2774 178.146 77.9246V82.7986H176.867V77.7126C176.867 77.225 176.744 76.8901 176.498 76.7078C176.257 76.5255 175.96 76.4343 175.609 76.4343C175.126 76.4343 174.709 76.5961 174.358 76.9197C174.012 77.2432 173.839 77.7833 173.839 78.5398V82.7986H172.588V78.0203C172.588 77.5235 172.529 77.1612 172.41 76.9333C172.223 76.5916 171.875 76.4207 171.364 76.4207C170.899 76.4207 170.476 76.6007 170.093 76.9607C169.715 77.3207 169.525 77.9724 169.525 78.9158V82.7986H168.295V75.4773ZM181.15 80.8503C181.15 81.2058 181.28 81.4861 181.54 81.6912C181.8 81.8962 182.107 81.9988 182.463 81.9988C182.896 81.9988 183.315 81.8985 183.721 81.698C184.404 81.3653 184.746 80.8207 184.746 80.0642V79.073C184.596 79.1687 184.402 79.2485 184.165 79.3123C183.928 79.3761 183.696 79.4216 183.468 79.449L182.723 79.5447C182.276 79.6039 181.941 79.6973 181.718 79.825C181.34 80.0391 181.15 80.3809 181.15 80.8503ZM184.131 78.3621C184.413 78.3256 184.603 78.2071 184.698 78.0066C184.753 77.8972 184.78 77.74 184.78 77.5349C184.78 77.1156 184.63 76.8126 184.329 76.6257C184.033 76.4343 183.607 76.3386 183.051 76.3386C182.408 76.3386 181.952 76.5118 181.684 76.8582C181.533 77.0496 181.435 77.3344 181.39 77.7126H180.241C180.264 76.8103 180.556 76.1837 181.116 75.8328C181.681 75.4773 182.335 75.2996 183.078 75.2996C183.939 75.2996 184.639 75.4636 185.177 75.7917C185.71 76.1199 185.977 76.6303 185.977 77.323V81.5408C185.977 81.6684 186.002 81.7709 186.052 81.8484C186.106 81.9259 186.218 81.9646 186.387 81.9646C186.441 81.9646 186.503 81.9623 186.571 81.9578C186.64 81.9486 186.713 81.9373 186.79 81.9236V82.8328C186.599 82.8875 186.453 82.9216 186.353 82.9353C186.252 82.949 186.116 82.9558 185.942 82.9558C185.519 82.9558 185.211 82.8054 185.02 82.5046C184.919 82.3451 184.849 82.1195 184.808 81.8279C184.557 82.156 184.197 82.4408 183.728 82.6824C183.258 82.9239 182.741 83.0447 182.176 83.0447C181.497 83.0447 180.941 82.8396 180.508 82.4294C180.079 82.0147 179.865 81.4975 179.865 80.8777C179.865 80.1986 180.077 79.6723 180.501 79.2986C180.925 78.9249 181.481 78.6947 182.169 78.6082L184.131 78.3621ZM188.496 73.4333H189.74V75.4773H190.909V76.4822H189.74V81.2605C189.74 81.5157 189.827 81.6866 190 81.7732C190.096 81.8233 190.255 81.8484 190.479 81.8484C190.538 81.8484 190.602 81.8484 190.67 81.8484C190.738 81.8438 190.818 81.837 190.909 81.8279V82.7986C190.768 82.8396 190.62 82.8692 190.465 82.8875C190.314 82.9057 190.15 82.9148 189.973 82.9148C189.398 82.9148 189.009 82.769 188.804 82.4773C188.599 82.1811 188.496 81.7983 188.496 81.3289V76.4822H187.505V75.4773H188.496V73.4333ZM195.445 75.3132C195.965 75.3132 196.468 75.4363 196.956 75.6824C197.444 75.9239 197.815 76.2384 198.07 76.6257C198.316 76.9949 198.48 77.4255 198.562 77.9177C198.635 78.255 198.672 78.7927 198.672 79.531H193.306C193.328 80.2738 193.504 80.8708 193.832 81.322C194.16 81.7686 194.668 81.9919 195.356 81.9919C195.999 81.9919 196.512 81.78 196.895 81.3562C197.113 81.1101 197.268 80.8253 197.359 80.5017H198.569C198.537 80.7706 198.43 81.0714 198.248 81.4041C198.07 81.7322 197.87 82.0011 197.646 82.2107C197.273 82.5753 196.81 82.8214 196.259 82.949C195.963 83.0219 195.628 83.0583 195.254 83.0583C194.342 83.0583 193.57 82.7279 192.937 82.0671C192.303 81.4018 191.986 80.4721 191.986 79.2781C191.986 78.1023 192.305 77.1475 192.943 76.4138C193.581 75.6801 194.415 75.3132 195.445 75.3132ZM197.407 78.5535C197.357 78.0203 197.241 77.5942 197.059 77.2751C196.721 76.6827 196.159 76.3865 195.37 76.3865C194.805 76.3865 194.331 76.5916 193.948 77.0017C193.565 77.4073 193.363 77.9246 193.34 78.5535H197.407ZM200.474 75.4773H201.643V76.7419C201.738 76.4958 201.973 76.1973 202.347 75.8464C202.72 75.491 203.151 75.3132 203.639 75.3132C203.661 75.3132 203.7 75.3155 203.755 75.3201C203.81 75.3246 203.903 75.3337 204.035 75.3474V76.6462C203.962 76.6326 203.894 76.6235 203.83 76.6189C203.771 76.6143 203.705 76.6121 203.632 76.6121C203.012 76.6121 202.536 76.8126 202.203 77.2136C201.87 77.6101 201.704 78.0681 201.704 78.5876V82.7986H200.474V75.4773ZM205.352 75.5115H206.603V82.7986H205.352V75.5115ZM205.352 72.7566H206.603V74.1511H205.352V72.7566ZM209.662 80.8503C209.662 81.2058 209.792 81.4861 210.052 81.6912C210.312 81.8962 210.619 81.9988 210.975 81.9988C211.408 81.9988 211.827 81.8985 212.232 81.698C212.916 81.3653 213.258 80.8207 213.258 80.0642V79.073C213.107 79.1687 212.914 79.2485 212.677 79.3123C212.44 79.3761 212.207 79.4216 211.979 79.449L211.234 79.5447C210.788 79.6039 210.453 79.6973 210.229 79.825C209.851 80.0391 209.662 80.3809 209.662 80.8503ZM212.643 78.3621C212.925 78.3256 213.114 78.2071 213.21 78.0066C213.265 77.8972 213.292 77.74 213.292 77.5349C213.292 77.1156 213.142 76.8126 212.841 76.6257C212.545 76.4343 212.118 76.3386 211.562 76.3386C210.92 76.3386 210.464 76.5118 210.195 76.8582C210.045 77.0496 209.947 77.3344 209.901 77.7126H208.753C208.776 76.8103 209.067 76.1837 209.628 75.8328C210.193 75.4773 210.847 75.2996 211.59 75.2996C212.451 75.2996 213.151 75.4636 213.688 75.7917C214.222 76.1199 214.488 76.6303 214.488 77.323V81.5408C214.488 81.6684 214.513 81.7709 214.563 81.8484C214.618 81.9259 214.73 81.9646 214.898 81.9646C214.953 81.9646 215.015 81.9623 215.083 81.9578C215.151 81.9486 215.224 81.9373 215.302 81.9236V82.8328C215.11 82.8875 214.965 82.9216 214.864 82.9353C214.764 82.949 214.627 82.9558 214.454 82.9558C214.03 82.9558 213.723 82.8054 213.531 82.5046C213.431 82.3451 213.36 82.1195 213.319 81.8279C213.069 82.156 212.709 82.4408 212.239 82.6824C211.77 82.9239 211.253 83.0447 210.688 83.0447C210.008 83.0447 209.452 82.8396 209.02 82.4294C208.591 82.0147 208.377 81.4975 208.377 80.8777C208.377 80.1986 208.589 79.6723 209.013 79.2986C209.437 78.9249 209.993 78.6947 210.681 78.6082L212.643 78.3621ZM216.796 72.7566H218.026V82.7986H216.796V72.7566ZM220.86 80.5017C220.897 80.9119 220.999 81.2263 221.168 81.4451C221.478 81.8416 222.016 82.0398 222.781 82.0398C223.237 82.0398 223.638 81.9418 223.984 81.7458C224.331 81.5453 224.504 81.2377 224.504 80.823C224.504 80.5085 224.365 80.2693 224.087 80.1052C223.909 80.005 223.558 79.8888 223.034 79.7566L222.057 79.5105C221.432 79.3556 220.972 79.1824 220.676 78.991C220.147 78.6583 219.883 78.198 219.883 77.6101C219.883 76.9174 220.131 76.3569 220.628 75.9285C221.129 75.5001 221.801 75.2859 222.645 75.2859C223.747 75.2859 224.543 75.6095 225.03 76.2566C225.336 76.6667 225.484 77.1088 225.475 77.5828H224.312C224.29 77.3048 224.192 77.0518 224.019 76.824C223.736 76.5004 223.246 76.3386 222.549 76.3386C222.084 76.3386 221.731 76.4275 221.489 76.6052C221.252 76.783 221.134 77.0177 221.134 77.3093C221.134 77.6283 221.291 77.8835 221.605 78.075C221.788 78.1889 222.057 78.2891 222.412 78.3757L223.226 78.574C224.11 78.7882 224.702 78.9955 225.003 79.196C225.481 79.5105 225.721 80.005 225.721 80.6794C225.721 81.3311 225.472 81.894 224.976 82.3679C224.483 82.8419 223.731 83.0789 222.72 83.0789C221.631 83.0789 220.858 82.8328 220.402 82.3406C219.951 81.8438 219.71 81.2309 219.678 80.5017H220.86ZM44.6445 95.4773H45.8135V96.5164C46.1598 96.088 46.5267 95.7804 46.9141 95.5935C47.3014 95.4067 47.7321 95.3132 48.2061 95.3132C49.2451 95.3132 49.9469 95.6755 50.3115 96.4001C50.512 96.7966 50.6123 97.364 50.6123 98.1023V102.799H49.3613V98.1843C49.3613 97.7377 49.2952 97.3777 49.1631 97.1042C48.9443 96.6485 48.5479 96.4207 47.9736 96.4207C47.682 96.4207 47.4427 96.4503 47.2559 96.5095C46.9186 96.6098 46.6224 96.8103 46.3672 97.1111C46.1621 97.3526 46.0277 97.6033 45.9639 97.863C45.9046 98.1182 45.875 98.4851 45.875 98.9636V102.799H44.6445V95.4773ZM55.7363 95.3132C56.2559 95.3132 56.7594 95.4363 57.2471 95.6824C57.7347 95.9239 58.1061 96.2384 58.3613 96.6257C58.6074 96.9949 58.7715 97.4255 58.8535 97.9177C58.9264 98.255 58.9629 98.7927 58.9629 99.531H53.5967C53.6195 100.274 53.7949 100.871 54.123 101.322C54.4512 101.769 54.9593 101.992 55.6475 101.992C56.29 101.992 56.8027 101.78 57.1855 101.356C57.4043 101.11 57.5592 100.825 57.6504 100.502H58.8604C58.8285 100.771 58.7214 101.071 58.5391 101.404C58.3613 101.732 58.1608 102.001 57.9375 102.211C57.5638 102.575 57.1012 102.821 56.5498 102.949C56.2536 103.022 55.9186 103.058 55.5449 103.058C54.6335 103.058 53.861 102.728 53.2275 102.067C52.5941 101.402 52.2773 100.472 52.2773 99.2781C52.2773 98.1023 52.5964 97.1475 53.2344 96.4138C53.8724 95.6801 54.7064 95.3132 55.7363 95.3132ZM57.6982 98.5535C57.6481 98.0203 57.5319 97.5942 57.3496 97.2751C57.0124 96.6827 56.4495 96.3865 55.6611 96.3865C55.096 96.3865 54.6221 96.5916 54.2393 97.0017C53.8564 97.4073 53.6536 97.9246 53.6309 98.5535H57.6982ZM63.7793 95.3132C64.2988 95.3132 64.8024 95.4363 65.29 95.6824C65.7777 95.9239 66.1491 96.2384 66.4043 96.6257C66.6504 96.9949 66.8145 97.4255 66.8965 97.9177C66.9694 98.255 67.0059 98.7927 67.0059 99.531H61.6396C61.6624 100.274 61.8379 100.871 62.166 101.322C62.4941 101.769 63.0023 101.992 63.6904 101.992C64.333 101.992 64.8457 101.78 65.2285 101.356C65.4473 101.11 65.6022 100.825 65.6934 100.502H66.9033C66.8714 100.771 66.7643 101.071 66.582 101.404C66.4043 101.732 66.2038 102.001 65.9805 102.211C65.6068 102.575 65.1442 102.821 64.5928 102.949C64.2965 103.022 63.9616 103.058 63.5879 103.058C62.6764 103.058 61.904 102.728 61.2705 102.067C60.637 101.402 60.3203 100.472 60.3203 99.2781C60.3203 98.1023 60.6393 97.1475 61.2773 96.4138C61.9154 95.6801 62.7493 95.3132 63.7793 95.3132ZM65.7412 98.5535C65.6911 98.0203 65.5749 97.5942 65.3926 97.2751C65.0553 96.6827 64.4925 96.3865 63.7041 96.3865C63.139 96.3865 62.665 96.5916 62.2822 97.0017C61.8994 97.4073 61.6966 97.9246 61.6738 98.5535H65.7412ZM69.5527 99.2234C69.5527 100.007 69.7191 100.663 70.0518 101.192C70.3844 101.721 70.9176 101.985 71.6514 101.985C72.221 101.985 72.6882 101.741 73.0527 101.254C73.4219 100.761 73.6064 100.057 73.6064 99.1414C73.6064 98.2162 73.4173 97.5326 73.0391 97.0906C72.6608 96.644 72.1937 96.4207 71.6377 96.4207C71.0179 96.4207 70.5143 96.6576 70.127 97.1316C69.7441 97.6056 69.5527 98.3028 69.5527 99.2234ZM71.4053 95.3474C71.9658 95.3474 72.4352 95.4659 72.8135 95.7029C73.0322 95.8396 73.2806 96.0789 73.5586 96.4207V92.7224H74.7412V102.799H73.6338V101.78C73.3467 102.231 73.0072 102.557 72.6152 102.758C72.2233 102.958 71.7744 103.058 71.2686 103.058C70.4528 103.058 69.7464 102.717 69.1494 102.033C68.5524 101.345 68.2539 100.431 68.2539 99.2917C68.2539 98.2253 68.5251 97.3025 69.0674 96.5232C69.6143 95.7393 70.3936 95.3474 71.4053 95.3474ZM79.8652 95.3132C80.3848 95.3132 80.8883 95.4363 81.376 95.6824C81.8636 95.9239 82.235 96.2384 82.4902 96.6257C82.7363 96.9949 82.9004 97.4255 82.9824 97.9177C83.0553 98.255 83.0918 98.7927 83.0918 99.531H77.7256C77.7484 100.274 77.9238 100.871 78.252 101.322C78.5801 101.769 79.0882 101.992 79.7764 101.992C80.4189 101.992 80.9316 101.78 81.3145 101.356C81.5332 101.11 81.6882 100.825 81.7793 100.502H82.9893C82.9574 100.771 82.8503 101.071 82.668 101.404C82.4902 101.732 82.2897 102.001 82.0664 102.211C81.6927 102.575 81.2301 102.821 80.6787 102.949C80.3825 103.022 80.0475 103.058 79.6738 103.058C78.7624 103.058 77.9899 102.728 77.3564 102.067C76.723 101.402 76.4062 100.472 76.4062 99.2781C76.4062 98.1023 76.7253 97.1475 77.3633 96.4138C78.0013 95.6801 78.8353 95.3132 79.8652 95.3132ZM81.8271 98.5535C81.777 98.0203 81.6608 97.5942 81.4785 97.2751C81.1413 96.6827 80.5785 96.3865 79.79 96.3865C79.2249 96.3865 78.751 96.5916 78.3682 97.0017C77.9854 97.4073 77.7826 97.9246 77.7598 98.5535H81.8271ZM85.6387 99.2234C85.6387 100.007 85.805 100.663 86.1377 101.192C86.4704 101.721 87.0036 101.985 87.7373 101.985C88.307 101.985 88.7741 101.741 89.1387 101.254C89.5078 100.761 89.6924 100.057 89.6924 99.1414C89.6924 98.2162 89.5033 97.5326 89.125 97.0906C88.7467 96.644 88.2796 96.4207 87.7236 96.4207C87.1038 96.4207 86.6003 96.6576 86.2129 97.1316C85.8301 97.6056 85.6387 98.3028 85.6387 99.2234ZM87.4912 95.3474C88.0518 95.3474 88.5212 95.4659 88.8994 95.7029C89.1182 95.8396 89.3665 96.0789 89.6445 96.4207V92.7224H90.8271V102.799H89.7197V101.78C89.4326 102.231 89.0931 102.557 88.7012 102.758C88.3092 102.958 87.8604 103.058 87.3545 103.058C86.5387 103.058 85.8324 102.717 85.2354 102.033C84.6383 101.345 84.3398 100.431 84.3398 99.2917C84.3398 98.2253 84.611 97.3025 85.1533 96.5232C85.7002 95.7393 86.4795 95.3474 87.4912 95.3474ZM97.2949 93.4333H98.5391V95.4773H99.708V96.4822H98.5391V101.26C98.5391 101.516 98.6257 101.687 98.7988 101.773C98.8945 101.823 99.054 101.848 99.2773 101.848C99.3366 101.848 99.4004 101.848 99.4688 101.848C99.5371 101.844 99.6169 101.837 99.708 101.828V102.799C99.5667 102.84 99.4186 102.869 99.2637 102.887C99.1133 102.906 98.9492 102.915 98.7715 102.915C98.1973 102.915 97.8076 102.769 97.6025 102.477C97.3975 102.181 97.2949 101.798 97.2949 101.329V96.4822H96.3037V95.4773H97.2949V93.4333ZM104.101 102.006C104.916 102.006 105.475 101.698 105.775 101.083C106.081 100.463 106.233 99.7748 106.233 99.0183C106.233 98.3347 106.124 97.7787 105.905 97.3503C105.559 96.6759 104.962 96.3386 104.114 96.3386C103.362 96.3386 102.815 96.6257 102.474 97.2C102.132 97.7742 101.961 98.4669 101.961 99.2781C101.961 100.057 102.132 100.707 102.474 101.226C102.815 101.746 103.358 102.006 104.101 102.006ZM104.148 95.2654C105.092 95.2654 105.889 95.5798 106.541 96.2087C107.193 96.8376 107.519 97.7628 107.519 98.9841C107.519 100.164 107.231 101.14 106.657 101.91C106.083 102.68 105.192 103.065 103.984 103.065C102.977 103.065 102.177 102.726 101.585 102.047C100.993 101.363 100.696 100.447 100.696 99.2986C100.696 98.0681 101.008 97.0883 101.633 96.3591C102.257 95.63 103.096 95.2654 104.148 95.2654ZM113.357 92.7566H114.54V98.5876L117.698 95.4773H119.271L116.468 98.2185L119.428 102.799H117.855L115.572 99.1072L114.54 100.051V102.799H113.357V92.7566ZM120.635 95.5115H121.886V102.799H120.635V95.5115ZM120.635 92.7566H121.886V94.1511H120.635V92.7566ZM126.825 95.2654C127.65 95.2654 128.32 95.4659 128.835 95.8669C129.354 96.268 129.667 96.9584 129.771 97.9382H128.575C128.502 97.4871 128.336 97.1134 128.076 96.8171C127.816 96.5164 127.399 96.366 126.825 96.366C126.041 96.366 125.481 96.7488 125.144 97.5144C124.925 98.0111 124.815 98.6241 124.815 99.3533C124.815 100.087 124.97 100.705 125.28 101.206C125.59 101.707 126.078 101.958 126.743 101.958C127.254 101.958 127.657 101.803 127.953 101.493C128.254 101.178 128.461 100.75 128.575 100.208H129.771C129.635 101.178 129.293 101.889 128.746 102.341C128.199 102.787 127.5 103.01 126.647 103.01C125.69 103.01 124.927 102.662 124.357 101.965C123.788 101.263 123.503 100.388 123.503 99.3396C123.503 98.0544 123.815 97.0541 124.439 96.3386C125.064 95.6231 125.859 95.2654 126.825 95.2654ZM131.225 92.7566H132.407V98.5876L135.565 95.4773H137.138L134.335 98.2185L137.295 102.799H135.723L133.439 99.1072L132.407 100.051V102.799H131.225V92.7566ZM139.233 100.502C139.27 100.912 139.372 101.226 139.541 101.445C139.851 101.842 140.389 102.04 141.154 102.04C141.61 102.04 142.011 101.942 142.357 101.746C142.704 101.545 142.877 101.238 142.877 100.823C142.877 100.509 142.738 100.269 142.46 100.105C142.282 100.005 141.931 99.8888 141.407 99.7566L140.43 99.5105C139.805 99.3556 139.345 99.1824 139.049 98.991C138.52 98.6583 138.256 98.198 138.256 97.6101C138.256 96.9174 138.504 96.3569 139.001 95.9285C139.502 95.5001 140.174 95.2859 141.018 95.2859C142.12 95.2859 142.916 95.6095 143.403 96.2566C143.709 96.6667 143.857 97.1088 143.848 97.5828H142.686C142.663 97.3048 142.565 97.0518 142.392 96.824C142.109 96.5004 141.619 96.3386 140.922 96.3386C140.457 96.3386 140.104 96.4275 139.862 96.6052C139.625 96.783 139.507 97.0177 139.507 97.3093C139.507 97.6283 139.664 97.8835 139.979 98.075C140.161 98.1889 140.43 98.2891 140.785 98.3757L141.599 98.574C142.483 98.7882 143.075 98.9955 143.376 99.196C143.854 99.5105 144.094 100.005 144.094 100.679C144.094 101.331 143.845 101.894 143.349 102.368C142.856 102.842 142.104 103.079 141.093 103.079C140.004 103.079 139.231 102.833 138.775 102.341C138.324 101.844 138.083 101.231 138.051 100.502H139.233ZM145.998 93.4333H147.242V95.4773H148.411V96.4822H147.242V101.26C147.242 101.516 147.329 101.687 147.502 101.773C147.598 101.823 147.757 101.848 147.98 101.848C148.04 101.848 148.104 101.848 148.172 101.848C148.24 101.844 148.32 101.837 148.411 101.828V102.799C148.27 102.84 148.122 102.869 147.967 102.887C147.816 102.906 147.652 102.915 147.475 102.915C146.9 102.915 146.511 102.769 146.306 102.477C146.101 102.181 145.998 101.798 145.998 101.329V96.4822H145.007V95.4773H145.998V93.4333ZM150.842 100.85C150.842 101.206 150.972 101.486 151.231 101.691C151.491 101.896 151.799 101.999 152.154 101.999C152.587 101.999 153.007 101.899 153.412 101.698C154.096 101.365 154.438 100.821 154.438 100.064V99.073C154.287 99.1687 154.093 99.2485 153.856 99.3123C153.619 99.3761 153.387 99.4216 153.159 99.449L152.414 99.5447C151.967 99.6039 151.632 99.6973 151.409 99.825C151.031 100.039 150.842 100.381 150.842 100.85ZM153.822 98.3621C154.105 98.3256 154.294 98.2071 154.39 98.0066C154.444 97.8972 154.472 97.74 154.472 97.5349C154.472 97.1156 154.321 96.8126 154.021 96.6257C153.724 96.4343 153.298 96.3386 152.742 96.3386C152.1 96.3386 151.644 96.5118 151.375 96.8582C151.225 97.0496 151.127 97.3344 151.081 97.7126H149.933C149.955 96.8103 150.247 96.1837 150.808 95.8328C151.373 95.4773 152.027 95.2996 152.77 95.2996C153.631 95.2996 154.33 95.4636 154.868 95.7917C155.401 96.1199 155.668 96.6303 155.668 97.323V101.541C155.668 101.668 155.693 101.771 155.743 101.848C155.798 101.926 155.91 101.965 156.078 101.965C156.133 101.965 156.194 101.962 156.263 101.958C156.331 101.949 156.404 101.937 156.481 101.924V102.833C156.29 102.887 156.144 102.922 156.044 102.935C155.944 102.949 155.807 102.956 155.634 102.956C155.21 102.956 154.902 102.805 154.711 102.505C154.611 102.345 154.54 102.12 154.499 101.828C154.248 102.156 153.888 102.441 153.419 102.682C152.95 102.924 152.432 103.045 151.867 103.045C151.188 103.045 150.632 102.84 150.199 102.429C149.771 102.015 149.557 101.497 149.557 100.878C149.557 100.199 149.769 99.6723 150.192 99.2986C150.616 98.9249 151.172 98.6947 151.86 98.6082L153.822 98.3621ZM157.976 95.4773H159.145V96.7419C159.24 96.4958 159.475 96.1973 159.849 95.8464C160.222 95.491 160.653 95.3132 161.141 95.3132C161.163 95.3132 161.202 95.3155 161.257 95.3201C161.312 95.3246 161.405 95.3337 161.537 95.3474V96.6462C161.464 96.6326 161.396 96.6235 161.332 96.6189C161.273 96.6143 161.207 96.6121 161.134 96.6121C160.514 96.6121 160.038 96.8126 159.705 97.2136C159.372 97.6101 159.206 98.0681 159.206 98.5876V102.799H157.976V95.4773ZM163.1 93.4333H164.344V95.4773H165.513V96.4822H164.344V101.26C164.344 101.516 164.43 101.687 164.604 101.773C164.699 101.823 164.859 101.848 165.082 101.848C165.141 101.848 165.205 101.848 165.273 101.848C165.342 101.844 165.422 101.837 165.513 101.828V102.799C165.371 102.84 165.223 102.869 165.068 102.887C164.918 102.906 164.754 102.915 164.576 102.915C164.002 102.915 163.612 102.769 163.407 102.477C163.202 102.181 163.1 101.798 163.1 101.329V96.4822H162.108V95.4773H163.1V93.4333ZM171.393 93.4333H172.637V95.4773H173.806V96.4822H172.637V101.26C172.637 101.516 172.723 101.687 172.896 101.773C172.992 101.823 173.152 101.848 173.375 101.848C173.434 101.848 173.498 101.848 173.566 101.848C173.635 101.844 173.715 101.837 173.806 101.828V102.799C173.664 102.84 173.516 102.869 173.361 102.887C173.211 102.906 173.047 102.915 172.869 102.915C172.295 102.915 171.905 102.769 171.7 102.477C171.495 102.181 171.393 101.798 171.393 101.329V96.4822H170.401V95.4773H171.393V93.4333ZM175.293 92.7224H176.523V96.4685C176.815 96.0994 177.077 95.8396 177.31 95.6892C177.706 95.4294 178.201 95.2996 178.793 95.2996C179.855 95.2996 180.575 95.671 180.953 96.4138C181.158 96.8194 181.261 97.3822 181.261 98.1023V102.799H179.996V98.1843C179.996 97.6466 179.928 97.2524 179.791 97.0017C179.568 96.6007 179.148 96.4001 178.533 96.4001C178.023 96.4001 177.56 96.5756 177.146 96.9265C176.731 97.2774 176.523 97.9405 176.523 98.9158V102.799H175.293V92.7224ZM186.385 95.3132C186.904 95.3132 187.408 95.4363 187.896 95.6824C188.383 95.9239 188.755 96.2384 189.01 96.6257C189.256 96.9949 189.42 97.4255 189.502 97.9177C189.575 98.255 189.611 98.7927 189.611 99.531H184.245C184.268 100.274 184.443 100.871 184.771 101.322C185.1 101.769 185.608 101.992 186.296 101.992C186.938 101.992 187.451 101.78 187.834 101.356C188.053 101.11 188.208 100.825 188.299 100.502H189.509C189.477 100.771 189.37 101.071 189.188 101.404C189.01 101.732 188.809 102.001 188.586 102.211C188.212 102.575 187.75 102.821 187.198 102.949C186.902 103.022 186.567 103.058 186.193 103.058C185.282 103.058 184.509 102.728 183.876 102.067C183.243 101.402 182.926 100.472 182.926 99.2781C182.926 98.1023 183.245 97.1475 183.883 96.4138C184.521 95.6801 185.355 95.3132 186.385 95.3132ZM188.347 98.5535C188.297 98.0203 188.18 97.5942 187.998 97.2751C187.661 96.6827 187.098 96.3865 186.31 96.3865C185.744 96.3865 185.271 96.5916 184.888 97.0017C184.505 97.4073 184.302 97.9246 184.279 98.5535H188.347ZM45.4238 119.223C45.4238 120.007 45.5902 120.663 45.9229 121.192C46.2555 121.721 46.7887 121.985 47.5225 121.985C48.0921 121.985 48.5592 121.741 48.9238 121.254C49.293 120.761 49.4775 120.057 49.4775 119.141C49.4775 118.216 49.2884 117.533 48.9102 117.091C48.5319 116.644 48.0648 116.421 47.5088 116.421C46.889 116.421 46.3854 116.658 45.998 117.132C45.6152 117.606 45.4238 118.303 45.4238 119.223ZM47.2764 115.347C47.8369 115.347 48.3063 115.466 48.6846 115.703C48.9033 115.84 49.1517 116.079 49.4297 116.421V112.722H50.6123V122.799H49.5049V121.78C49.2178 122.231 48.8783 122.557 48.4863 122.758C48.0944 122.958 47.6455 123.058 47.1396 123.058C46.3239 123.058 45.6175 122.717 45.0205 122.033C44.4235 121.345 44.125 120.431 44.125 119.292C44.125 118.225 44.3962 117.302 44.9385 116.523C45.4854 115.739 46.2646 115.347 47.2764 115.347ZM55.7363 115.313C56.2559 115.313 56.7594 115.436 57.2471 115.682C57.7347 115.924 58.1061 116.238 58.3613 116.626C58.6074 116.995 58.7715 117.426 58.8535 117.918C58.9264 118.255 58.9629 118.793 58.9629 119.531H53.5967C53.6195 120.274 53.7949 120.871 54.123 121.322C54.4512 121.769 54.9593 121.992 55.6475 121.992C56.29 121.992 56.8027 121.78 57.1855 121.356C57.4043 121.11 57.5592 120.825 57.6504 120.502H58.8604C58.8285 120.771 58.7214 121.071 58.5391 121.404C58.3613 121.732 58.1608 122.001 57.9375 122.211C57.5638 122.575 57.1012 122.821 56.5498 122.949C56.2536 123.022 55.9186 123.058 55.5449 123.058C54.6335 123.058 53.861 122.728 53.2275 122.067C52.5941 121.402 52.2773 120.472 52.2773 119.278C52.2773 118.102 52.5964 117.148 53.2344 116.414C53.8724 115.68 54.7064 115.313 55.7363 115.313ZM57.6982 118.553C57.6481 118.02 57.5319 117.594 57.3496 117.275C57.0124 116.683 56.4495 116.386 55.6611 116.386C55.096 116.386 54.6221 116.592 54.2393 117.002C53.8564 117.407 53.6536 117.925 53.6309 118.553H57.6982ZM61.4619 120.502C61.4984 120.912 61.6009 121.226 61.7695 121.445C62.0794 121.842 62.6172 122.04 63.3828 122.04C63.8385 122.04 64.2396 121.942 64.5859 121.746C64.9323 121.545 65.1055 121.238 65.1055 120.823C65.1055 120.509 64.9665 120.269 64.6885 120.105C64.5107 120.005 64.1598 119.889 63.6357 119.757L62.6582 119.51C62.0339 119.356 61.5736 119.182 61.2773 118.991C60.7487 118.658 60.4844 118.198 60.4844 117.61C60.4844 116.917 60.7327 116.357 61.2295 115.928C61.7308 115.5 62.403 115.286 63.2461 115.286C64.349 115.286 65.1442 115.609 65.6318 116.257C65.9372 116.667 66.0853 117.109 66.0762 117.583H64.9141C64.8913 117.305 64.7933 117.052 64.6201 116.824C64.3376 116.5 63.8477 116.339 63.1504 116.339C62.6855 116.339 62.3324 116.427 62.0908 116.605C61.8538 116.783 61.7354 117.018 61.7354 117.309C61.7354 117.628 61.8926 117.884 62.207 118.075C62.3893 118.189 62.6582 118.289 63.0137 118.376L63.8271 118.574C64.7113 118.788 65.3037 118.996 65.6045 119.196C66.083 119.51 66.3223 120.005 66.3223 120.679C66.3223 121.331 66.0739 121.894 65.5771 122.368C65.085 122.842 64.333 123.079 63.3213 123.079C62.2321 123.079 61.4596 122.833 61.0039 122.341C60.5527 121.844 60.3112 121.231 60.2793 120.502H61.4619ZM67.9805 115.511H69.2314V122.799H67.9805V115.511ZM67.9805 112.757H69.2314V114.151H67.9805V112.757ZM73.9316 115.347C74.5059 115.347 75.0072 115.489 75.4355 115.771C75.668 115.931 75.9049 116.163 76.1465 116.469V115.546H77.2812V122.204C77.2812 123.134 77.1445 123.867 76.8711 124.405C76.3607 125.399 75.3968 125.895 73.9795 125.895C73.1911 125.895 72.528 125.718 71.9902 125.362C71.4525 125.011 71.1517 124.46 71.0879 123.708H72.3389C72.3981 124.036 72.5166 124.289 72.6943 124.467C72.9723 124.74 73.4098 124.877 74.0068 124.877C74.9502 124.877 75.5677 124.544 75.8594 123.879C76.0326 123.487 76.1123 122.787 76.0986 121.78C75.8525 122.154 75.5563 122.432 75.21 122.614C74.8636 122.796 74.4056 122.887 73.8359 122.887C73.043 122.887 72.348 122.607 71.751 122.047C71.1585 121.482 70.8623 120.55 70.8623 119.251C70.8623 118.025 71.1608 117.068 71.7578 116.38C72.3594 115.691 73.084 115.347 73.9316 115.347ZM76.1465 119.107C76.1465 118.2 75.9596 117.528 75.5859 117.091C75.2122 116.653 74.736 116.434 74.1572 116.434C73.2913 116.434 72.6989 116.84 72.3799 117.651C72.2113 118.084 72.127 118.651 72.127 119.353C72.127 120.178 72.2933 120.807 72.626 121.24C72.9632 121.668 73.4144 121.883 73.9795 121.883C74.8636 121.883 75.4857 121.484 75.8457 120.686C76.0462 120.235 76.1465 119.709 76.1465 119.107ZM79.3906 115.477H80.5596V116.516C80.9059 116.088 81.2728 115.78 81.6602 115.594C82.0475 115.407 82.4782 115.313 82.9521 115.313C83.9912 115.313 84.693 115.676 85.0576 116.4C85.2581 116.797 85.3584 117.364 85.3584 118.102V122.799H84.1074V118.184C84.1074 117.738 84.0413 117.378 83.9092 117.104C83.6904 116.649 83.2939 116.421 82.7197 116.421C82.4281 116.421 82.1888 116.45 82.002 116.51C81.6647 116.61 81.3685 116.81 81.1133 117.111C80.9082 117.353 80.7738 117.603 80.71 117.863C80.6507 118.118 80.6211 118.485 80.6211 118.964V122.799H79.3906V115.477ZM94.6699 121.971C95.2441 121.971 95.7204 121.732 96.0986 121.254C96.4814 120.771 96.6729 120.051 96.6729 119.094C96.6729 118.51 96.5885 118.009 96.4199 117.59C96.1009 116.783 95.5176 116.38 94.6699 116.38C93.8177 116.38 93.2344 116.806 92.9199 117.658C92.7513 118.114 92.667 118.692 92.667 119.394C92.667 119.959 92.7513 120.44 92.9199 120.837C93.2389 121.593 93.8223 121.971 94.6699 121.971ZM91.4844 115.511H92.6807V116.482C92.9268 116.149 93.1956 115.892 93.4873 115.71C93.902 115.436 94.3896 115.3 94.9502 115.3C95.7796 115.3 96.4837 115.619 97.0625 116.257C97.6413 116.89 97.9307 117.797 97.9307 118.977C97.9307 120.572 97.5137 121.712 96.6797 122.395C96.151 122.828 95.5358 123.045 94.834 123.045C94.2826 123.045 93.82 122.924 93.4463 122.682C93.2275 122.546 92.9837 122.311 92.7148 121.978V125.718H91.4844V115.511ZM99.6572 115.477H100.826V116.742C100.922 116.496 101.157 116.197 101.53 115.846C101.904 115.491 102.335 115.313 102.822 115.313C102.845 115.313 102.884 115.316 102.938 115.32C102.993 115.325 103.087 115.334 103.219 115.347V116.646C103.146 116.633 103.077 116.623 103.014 116.619C102.954 116.614 102.888 116.612 102.815 116.612C102.196 116.612 101.719 116.813 101.387 117.214C101.054 117.61 100.888 118.068 100.888 118.588V122.799H99.6572V115.477ZM107.44 122.006C108.256 122.006 108.814 121.698 109.115 121.083C109.421 120.463 109.573 119.775 109.573 119.018C109.573 118.335 109.464 117.779 109.245 117.35C108.899 116.676 108.302 116.339 107.454 116.339C106.702 116.339 106.155 116.626 105.813 117.2C105.472 117.774 105.301 118.467 105.301 119.278C105.301 120.057 105.472 120.707 105.813 121.226C106.155 121.746 106.698 122.006 107.44 122.006ZM107.488 115.265C108.432 115.265 109.229 115.58 109.881 116.209C110.533 116.838 110.858 117.763 110.858 118.984C110.858 120.164 110.571 121.14 109.997 121.91C109.423 122.68 108.532 123.065 107.324 123.065C106.317 123.065 105.517 122.726 104.925 122.047C104.332 121.363 104.036 120.447 104.036 119.299C104.036 118.068 104.348 117.088 104.973 116.359C105.597 115.63 106.436 115.265 107.488 115.265ZM115.401 115.265C116.226 115.265 116.896 115.466 117.411 115.867C117.931 116.268 118.243 116.958 118.348 117.938H117.151C117.078 117.487 116.912 117.113 116.652 116.817C116.393 116.516 115.976 116.366 115.401 116.366C114.618 116.366 114.057 116.749 113.72 117.514C113.501 118.011 113.392 118.624 113.392 119.353C113.392 120.087 113.547 120.705 113.856 121.206C114.166 121.707 114.654 121.958 115.319 121.958C115.83 121.958 116.233 121.803 116.529 121.493C116.83 121.178 117.037 120.75 117.151 120.208H118.348C118.211 121.178 117.869 121.889 117.322 122.341C116.775 122.787 116.076 123.01 115.224 123.01C114.267 123.01 113.503 122.662 112.934 121.965C112.364 121.263 112.079 120.388 112.079 119.34C112.079 118.054 112.391 117.054 113.016 116.339C113.64 115.623 114.435 115.265 115.401 115.265ZM122.877 115.313C123.396 115.313 123.9 115.436 124.388 115.682C124.875 115.924 125.247 116.238 125.502 116.626C125.748 116.995 125.912 117.426 125.994 117.918C126.067 118.255 126.104 118.793 126.104 119.531H120.737C120.76 120.274 120.936 120.871 121.264 121.322C121.592 121.769 122.1 121.992 122.788 121.992C123.431 121.992 123.943 121.78 124.326 121.356C124.545 121.11 124.7 120.825 124.791 120.502H126.001C125.969 120.771 125.862 121.071 125.68 121.404C125.502 121.732 125.301 122.001 125.078 122.211C124.704 122.575 124.242 122.821 123.69 122.949C123.394 123.022 123.059 123.058 122.686 123.058C121.774 123.058 121.002 122.728 120.368 122.067C119.735 121.402 119.418 120.472 119.418 119.278C119.418 118.102 119.737 117.148 120.375 116.414C121.013 115.68 121.847 115.313 122.877 115.313ZM124.839 118.553C124.789 118.02 124.673 117.594 124.49 117.275C124.153 116.683 123.59 116.386 122.802 116.386C122.237 116.386 121.763 116.592 121.38 117.002C120.997 117.407 120.794 117.925 120.771 118.553H124.839ZM128.603 120.502C128.639 120.912 128.742 121.226 128.91 121.445C129.22 121.842 129.758 122.04 130.523 122.04C130.979 122.04 131.38 121.942 131.727 121.746C132.073 121.545 132.246 121.238 132.246 120.823C132.246 120.509 132.107 120.269 131.829 120.105C131.651 120.005 131.3 119.889 130.776 119.757L129.799 119.51C129.174 119.356 128.714 119.182 128.418 118.991C127.889 118.658 127.625 118.198 127.625 117.61C127.625 116.917 127.873 116.357 128.37 115.928C128.871 115.5 129.544 115.286 130.387 115.286C131.49 115.286 132.285 115.609 132.772 116.257C133.078 116.667 133.226 117.109 133.217 117.583H132.055C132.032 117.305 131.934 117.052 131.761 116.824C131.478 116.5 130.988 116.339 130.291 116.339C129.826 116.339 129.473 116.427 129.231 116.605C128.994 116.783 128.876 117.018 128.876 117.309C128.876 117.628 129.033 117.884 129.348 118.075C129.53 118.189 129.799 118.289 130.154 118.376L130.968 118.574C131.852 118.788 132.444 118.996 132.745 119.196C133.224 119.51 133.463 120.005 133.463 120.679C133.463 121.331 133.215 121.894 132.718 122.368C132.226 122.842 131.474 123.079 130.462 123.079C129.373 123.079 128.6 122.833 128.145 122.341C127.693 121.844 127.452 121.231 127.42 120.502H128.603ZM135.853 120.502C135.889 120.912 135.992 121.226 136.16 121.445C136.47 121.842 137.008 122.04 137.773 122.04C138.229 122.04 138.63 121.942 138.977 121.746C139.323 121.545 139.496 121.238 139.496 120.823C139.496 120.509 139.357 120.269 139.079 120.105C138.901 120.005 138.55 119.889 138.026 119.757L137.049 119.51C136.424 119.356 135.964 119.182 135.668 118.991C135.139 118.658 134.875 118.198 134.875 117.61C134.875 116.917 135.123 116.357 135.62 115.928C136.121 115.5 136.794 115.286 137.637 115.286C138.74 115.286 139.535 115.609 140.022 116.257C140.328 116.667 140.476 117.109 140.467 117.583H139.305C139.282 117.305 139.184 117.052 139.011 116.824C138.728 116.5 138.238 116.339 137.541 116.339C137.076 116.339 136.723 116.427 136.481 116.605C136.244 116.783 136.126 117.018 136.126 117.309C136.126 117.628 136.283 117.884 136.598 118.075C136.78 118.189 137.049 118.289 137.404 118.376L138.218 118.574C139.102 118.788 139.694 118.996 139.995 119.196C140.474 119.51 140.713 120.005 140.713 120.679C140.713 121.331 140.465 121.894 139.968 122.368C139.476 122.842 138.724 123.079 137.712 123.079C136.623 123.079 135.85 122.833 135.395 122.341C134.943 121.844 134.702 121.231 134.67 120.502H135.853ZM142.665 121.308H144.094V122.799H142.665V121.308Z" fill="white"/>
</svg>
