<svg width="327" height="187" viewBox="0 0 327 187" fill="none" xmlns="http://www.w3.org/2000/svg">
<path fill-rule="evenodd" clip-rule="evenodd" d="M77.1444 113.858C76.4011 127.388 74.3208 134.281 81.8129 147.725C96.1691 173.481 128.704 179.442 151.082 162.451C155.706 158.941 158.265 154.415 161.506 152.212C177.25 188.11 216.073 192.835 239.457 175.267C243.804 171.999 247.145 168.491 249.78 164.905C253.923 159.26 254.654 156.507 257.122 152.298C269.403 153.043 276.78 155.455 287.049 146.169C290.206 143.316 293.18 139.536 294.978 135.478C296.936 131.067 297.004 128.717 297.36 124.323L297.865 120.948C298.574 117.668 312.388 117.32 321.858 94.1219C327.069 81.3578 324.912 65.0562 317.685 53.0207C307.516 36.0861 286.316 27.517 266.489 32.5706C258.064 34.7172 254.679 37.7764 248.566 41.2428C237.467 -0.839749 187.529 -12.4974 158.999 20.3463C155.665 24.1831 154.428 28.2579 151.099 33.3459C139.819 31.425 132.413 26.5529 114.794 33.7506C99.2258 40.1069 95.9533 49.964 91.248 55.1721C81.0328 54.4411 76.3692 50.5429 64.4417 57.775C57.9063 61.7394 52.8208 68.4637 50.765 76.2428C50.3602 76.6599 46.7687 70.831 26.1911 75.5805C15.9293 77.9478 -0.431263 90.2287 1.65888 89.4829C22.2831 82.1134 25.1632 81.1419 42.9539 88.8647C52.0456 92.8119 50.7674 95.2528 56.0884 102.294C61.4953 109.425 66.6545 111.734 77.142 113.856L77.1444 113.858Z" fill="#454545" stroke="#616161" stroke-width="2.55544" stroke-miterlimit="22.9256" stroke-linecap="square"/>
<path d="M98.4082 63.1997C100.181 63.1997 101.493 63.7694 102.346 64.9087C103.011 65.7974 103.344 66.9344 103.344 68.3198C103.344 69.8192 102.963 71.0656 102.202 72.0591C101.309 73.2257 100.035 73.8091 98.3809 73.8091C96.8359 73.8091 95.6214 73.2987 94.7373 72.2778C93.9489 71.2935 93.5547 70.0493 93.5547 68.5454C93.5547 67.1873 93.8919 66.0252 94.5664 65.0591C95.4323 63.8195 96.7129 63.1997 98.4082 63.1997ZM98.5449 72.5923C99.7435 72.5923 100.609 72.1639 101.143 71.3071C101.68 70.4458 101.949 69.4569 101.949 68.3403C101.949 67.16 101.639 66.2098 101.02 65.4897C100.404 64.7697 99.5612 64.4097 98.4902 64.4097C97.4512 64.4097 96.6035 64.7674 95.9473 65.4829C95.291 66.1938 94.9629 67.2443 94.9629 68.6343C94.9629 69.7463 95.2432 70.6851 95.8037 71.4507C96.3688 72.2118 97.2826 72.5923 98.5449 72.5923ZM105.057 66.1938H106.226V67.2329C106.572 66.8045 106.939 66.4969 107.326 66.3101C107.714 66.1232 108.144 66.0298 108.618 66.0298C109.657 66.0298 110.359 66.3921 110.724 67.1167C110.924 67.5132 111.024 68.0806 111.024 68.8188V73.5151H109.773V68.9009C109.773 68.4543 109.707 68.0942 109.575 67.8208C109.356 67.3651 108.96 67.1372 108.386 67.1372C108.094 67.1372 107.855 67.1668 107.668 67.2261C107.331 67.3263 107.035 67.5269 106.779 67.8276C106.574 68.0692 106.44 68.3198 106.376 68.5796C106.317 68.8348 106.287 69.2017 106.287 69.6802V73.5151H105.057V66.1938ZM115.923 65.9819C116.748 65.9819 117.418 66.1825 117.933 66.5835C118.452 66.9845 118.764 67.675 118.869 68.6548H117.673C117.6 68.2036 117.434 67.8299 117.174 67.5337C116.914 67.2329 116.497 67.0825 115.923 67.0825C115.139 67.0825 114.578 67.4653 114.241 68.231C114.022 68.7277 113.913 69.3407 113.913 70.0698C113.913 70.8035 114.068 71.4211 114.378 71.9224C114.688 72.4237 115.175 72.6743 115.841 72.6743C116.351 72.6743 116.755 72.5194 117.051 72.2095C117.352 71.895 117.559 71.4666 117.673 70.9243H118.869C118.732 71.895 118.391 72.606 117.844 73.0571C117.297 73.5037 116.597 73.7271 115.745 73.7271C114.788 73.7271 114.025 73.3784 113.455 72.6812C112.885 71.9793 112.601 71.1043 112.601 70.0562C112.601 68.771 112.913 67.7707 113.537 67.0552C114.161 66.3397 114.957 65.9819 115.923 65.9819ZM123.398 66.0298C123.918 66.0298 124.422 66.1528 124.909 66.3989C125.397 66.6405 125.768 66.9549 126.023 67.3423C126.27 67.7114 126.434 68.1421 126.516 68.6343C126.589 68.9715 126.625 69.5093 126.625 70.2476H121.259C121.282 70.9904 121.457 71.5874 121.785 72.0386C122.113 72.4852 122.621 72.7085 123.31 72.7085C123.952 72.7085 124.465 72.4966 124.848 72.0728C125.066 71.8267 125.221 71.5418 125.312 71.2183H126.522C126.491 71.4871 126.383 71.7879 126.201 72.1206C126.023 72.4487 125.823 72.7176 125.6 72.9272C125.226 73.2918 124.763 73.5379 124.212 73.6655C123.916 73.7384 123.581 73.7749 123.207 73.7749C122.296 73.7749 121.523 73.4445 120.89 72.7837C120.256 72.1183 119.939 71.1886 119.939 69.9946C119.939 68.8188 120.258 67.8641 120.896 67.1304C121.535 66.3966 122.368 66.0298 123.398 66.0298ZM125.36 69.27C125.31 68.7368 125.194 68.3107 125.012 67.9917C124.674 67.3993 124.112 67.103 123.323 67.103C122.758 67.103 122.284 67.3081 121.901 67.7183C121.519 68.1239 121.316 68.6411 121.293 69.27H125.36ZM132.847 65.0796C132.865 64.5692 132.954 64.1955 133.113 63.9585C133.4 63.5392 133.954 63.3296 134.774 63.3296C134.852 63.3296 134.932 63.3319 135.014 63.3364C135.096 63.341 135.189 63.3478 135.294 63.3569V64.478C135.166 64.4689 135.073 64.4644 135.014 64.4644C134.959 64.4598 134.907 64.4575 134.856 64.4575C134.483 64.4575 134.259 64.5555 134.187 64.7515C134.114 64.9429 134.077 65.4351 134.077 66.228H135.294V67.1987H134.063V73.5151H132.847V67.1987H131.828V66.228H132.847V65.0796ZM136.477 64.8677V63.4731H137.707V64.8677H136.477ZM136.477 66.228H137.707V73.5151H136.477V66.228ZM139.789 66.1938H140.958V67.2329C141.304 66.8045 141.671 66.4969 142.059 66.3101C142.446 66.1232 142.877 66.0298 143.351 66.0298C144.39 66.0298 145.091 66.3921 145.456 67.1167C145.657 67.5132 145.757 68.0806 145.757 68.8188V73.5151H144.506V68.9009C144.506 68.4543 144.44 68.0942 144.308 67.8208C144.089 67.3651 143.692 67.1372 143.118 67.1372C142.826 67.1372 142.587 67.1668 142.4 67.2261C142.063 67.3263 141.767 67.5269 141.512 67.8276C141.307 68.0692 141.172 68.3198 141.108 68.5796C141.049 68.8348 141.02 69.2017 141.02 69.6802V73.5151H139.789V66.1938ZM148.775 71.5669C148.775 71.9224 148.905 72.2026 149.165 72.4077C149.425 72.6128 149.732 72.7153 150.088 72.7153C150.521 72.7153 150.94 72.6151 151.346 72.4146C152.029 72.0819 152.371 71.5373 152.371 70.7808V69.7896C152.221 69.8853 152.027 69.965 151.79 70.0288C151.553 70.0926 151.321 70.1382 151.093 70.1655L150.348 70.2612C149.901 70.3205 149.566 70.4139 149.343 70.5415C148.965 70.7557 148.775 71.0975 148.775 71.5669ZM151.756 69.0786C152.038 69.0422 152.228 68.9237 152.323 68.7231C152.378 68.6138 152.405 68.4565 152.405 68.2515C152.405 67.8322 152.255 67.5291 151.954 67.3423C151.658 67.1509 151.232 67.0552 150.676 67.0552C150.033 67.0552 149.577 67.2284 149.309 67.5747C149.158 67.7661 149.06 68.0509 149.015 68.4292H147.866C147.889 67.5269 148.181 66.9002 148.741 66.5493C149.306 66.1938 149.96 66.0161 150.703 66.0161C151.564 66.0161 152.264 66.1802 152.802 66.5083C153.335 66.8364 153.602 67.3468 153.602 68.0396V72.2573C153.602 72.3849 153.627 72.4875 153.677 72.5649C153.731 72.6424 153.843 72.6812 154.012 72.6812C154.066 72.6812 154.128 72.6789 154.196 72.6743C154.265 72.6652 154.338 72.6538 154.415 72.6401V73.5493C154.224 73.604 154.078 73.6382 153.978 73.6519C153.877 73.6655 153.741 73.6724 153.567 73.6724C153.144 73.6724 152.836 73.522 152.645 73.2212C152.544 73.0617 152.474 72.8361 152.433 72.5444C152.182 72.8726 151.822 73.1574 151.353 73.3989C150.883 73.6405 150.366 73.7612 149.801 73.7612C149.122 73.7612 148.566 73.5562 148.133 73.146C147.704 72.7313 147.49 72.214 147.49 71.5942C147.49 70.9152 147.702 70.3888 148.126 70.0151C148.55 69.6414 149.106 69.4113 149.794 69.3247L151.756 69.0786ZM155.909 63.4731H157.14V73.5151H155.909V63.4731ZM159.242 66.228H160.493V73.5151H159.242V66.228ZM159.242 63.4731H160.493V64.8677H159.242V63.4731ZM162.062 72.5444L166.403 67.2944H162.384V66.1938H168.058V67.1987L163.744 72.4146H168.188V73.5151H162.062V72.5444ZM172.908 66.0298C173.428 66.0298 173.931 66.1528 174.419 66.3989C174.907 66.6405 175.278 66.9549 175.533 67.3423C175.779 67.7114 175.943 68.1421 176.025 68.6343C176.098 68.9715 176.135 69.5093 176.135 70.2476H170.769C170.791 70.9904 170.967 71.5874 171.295 72.0386C171.623 72.4852 172.131 72.7085 172.819 72.7085C173.462 72.7085 173.975 72.4966 174.357 72.0728C174.576 71.8267 174.731 71.5418 174.822 71.2183H176.032C176 71.4871 175.893 71.7879 175.711 72.1206C175.533 72.4487 175.333 72.7176 175.109 72.9272C174.736 73.2918 174.273 73.5379 173.722 73.6655C173.425 73.7384 173.09 73.7749 172.717 73.7749C171.805 73.7749 171.033 73.4445 170.399 72.7837C169.766 72.1183 169.449 71.1886 169.449 69.9946C169.449 68.8188 169.768 67.8641 170.406 67.1304C171.044 66.3966 171.878 66.0298 172.908 66.0298ZM174.87 69.27C174.82 68.7368 174.704 68.3107 174.521 67.9917C174.184 67.3993 173.621 67.103 172.833 67.103C172.268 67.103 171.794 67.3081 171.411 67.7183C171.028 68.1239 170.826 68.6411 170.803 69.27H174.87ZM178.682 69.9399C178.682 70.7238 178.848 71.38 179.181 71.9087C179.513 72.4373 180.047 72.7017 180.78 72.7017C181.35 72.7017 181.817 72.4578 182.182 71.9702C182.551 71.478 182.735 70.7739 182.735 69.8579C182.735 68.9328 182.546 68.2492 182.168 67.8071C181.79 67.3605 181.323 67.1372 180.767 67.1372C180.147 67.1372 179.643 67.3742 179.256 67.8481C178.873 68.3221 178.682 69.0194 178.682 69.9399ZM180.534 66.064C181.095 66.064 181.564 66.1825 181.942 66.4194C182.161 66.5562 182.41 66.7954 182.688 67.1372V63.439H183.87V73.5151H182.763V72.4966C182.476 72.9478 182.136 73.2736 181.744 73.4741C181.352 73.6746 180.903 73.7749 180.397 73.7749C179.582 73.7749 178.875 73.4331 178.278 72.7495C177.681 72.0614 177.383 71.1476 177.383 70.0083C177.383 68.9419 177.654 68.019 178.196 67.2397C178.743 66.4559 179.522 66.064 180.534 66.064ZM186.205 74.9438C186.52 74.8892 186.741 74.6681 186.868 74.2808C186.937 74.0757 186.971 73.8774 186.971 73.686C186.971 73.6541 186.968 73.6245 186.964 73.5972C186.964 73.5744 186.959 73.547 186.95 73.5151H186.205V72.0249H187.668V73.4058C187.668 73.9481 187.559 74.4243 187.34 74.8345C187.121 75.2446 186.743 75.4976 186.205 75.5933V74.9438ZM194.806 66.1938L196.214 71.9634L197.643 66.1938H199.023L200.459 71.9292L201.956 66.1938H203.187L201.061 73.5151H199.782L198.292 67.8481L196.85 73.5151H195.571L193.459 66.1938H194.806ZM207.654 66.0298C208.174 66.0298 208.677 66.1528 209.165 66.3989C209.653 66.6405 210.024 66.9549 210.279 67.3423C210.525 67.7114 210.689 68.1421 210.771 68.6343C210.844 68.9715 210.881 69.5093 210.881 70.2476H205.515C205.537 70.9904 205.713 71.5874 206.041 72.0386C206.369 72.4852 206.877 72.7085 207.565 72.7085C208.208 72.7085 208.721 72.4966 209.104 72.0728C209.322 71.8267 209.477 71.5418 209.568 71.2183H210.778C210.746 71.4871 210.639 71.7879 210.457 72.1206C210.279 72.4487 210.079 72.7176 209.855 72.9272C209.482 73.2918 209.019 73.5379 208.468 73.6655C208.172 73.7384 207.837 73.7749 207.463 73.7749C206.551 73.7749 205.779 73.4445 205.146 72.7837C204.512 72.1183 204.195 71.1886 204.195 69.9946C204.195 68.8188 204.514 67.8641 205.152 67.1304C205.79 66.3966 206.624 66.0298 207.654 66.0298ZM209.616 69.27C209.566 68.7368 209.45 68.3107 209.268 67.9917C208.93 67.3993 208.368 67.103 207.579 67.103C207.014 67.103 206.54 67.3081 206.157 67.7183C205.774 68.1239 205.572 68.6411 205.549 69.27H209.616ZM212.908 66.3921C213.159 66.3511 213.348 66.2098 213.476 65.9683C213.608 65.7267 213.674 65.4487 213.674 65.1343C213.674 65.1024 213.672 65.075 213.667 65.0522C213.667 65.0249 213.662 64.9953 213.653 64.9634H212.908V63.4731H214.371V64.8472C214.371 65.4305 214.25 65.9272 214.009 66.3374C213.767 66.743 213.4 66.9754 212.908 67.0347V66.3921ZM216.05 63.4731H217.28V73.5151H216.05V63.4731ZM219.417 63.4731H220.647V73.5151H219.417V63.4731ZM227.676 69.9399C227.676 70.7238 227.842 71.38 228.175 71.9087C228.507 72.4373 229.041 72.7017 229.774 72.7017C230.344 72.7017 230.811 72.4578 231.176 71.9702C231.545 71.478 231.729 70.7739 231.729 69.8579C231.729 68.9328 231.54 68.2492 231.162 67.8071C230.784 67.3605 230.317 67.1372 229.761 67.1372C229.141 67.1372 228.637 67.3742 228.25 67.8481C227.867 68.3221 227.676 69.0194 227.676 69.9399ZM229.528 66.064C230.089 66.064 230.558 66.1825 230.937 66.4194C231.155 66.5562 231.404 66.7954 231.682 67.1372V63.439H232.864V73.5151H231.757V72.4966C231.47 72.9478 231.13 73.2736 230.738 73.4741C230.346 73.6746 229.897 73.7749 229.392 73.7749C228.576 73.7749 227.869 73.4331 227.272 72.7495C226.675 72.0614 226.377 71.1476 226.377 70.0083C226.377 68.9419 226.648 68.019 227.19 67.2397C227.737 66.4559 228.517 66.064 229.528 66.064ZM237.988 66.0298C238.508 66.0298 239.011 66.1528 239.499 66.3989C239.987 66.6405 240.358 66.9549 240.613 67.3423C240.859 67.7114 241.023 68.1421 241.105 68.6343C241.178 68.9715 241.215 69.5093 241.215 70.2476H235.849C235.871 70.9904 236.047 71.5874 236.375 72.0386C236.703 72.4852 237.211 72.7085 237.899 72.7085C238.542 72.7085 239.055 72.4966 239.438 72.0728C239.656 71.8267 239.811 71.5418 239.902 71.2183H241.112C241.08 71.4871 240.973 71.7879 240.791 72.1206C240.613 72.4487 240.413 72.7176 240.189 72.9272C239.816 73.2918 239.353 73.5379 238.802 73.6655C238.506 73.7384 238.171 73.7749 237.797 73.7749C236.885 73.7749 236.113 73.4445 235.479 72.7837C234.846 72.1183 234.529 71.1886 234.529 69.9946C234.529 68.8188 234.848 67.8641 235.486 67.1304C236.124 66.3966 236.958 66.0298 237.988 66.0298ZM239.95 69.27C239.9 68.7368 239.784 68.3107 239.602 67.9917C239.264 67.3993 238.701 67.103 237.913 67.103C237.348 67.103 236.874 67.3081 236.491 67.7183C236.108 68.1239 235.906 68.6411 235.883 69.27H239.95ZM243.017 63.4731H244.247V73.5151H243.017V63.4731ZM246.35 66.228H247.601V73.5151H246.35V66.228ZM246.35 63.4731H247.601V64.8677H246.35V63.4731ZM250.318 66.1938L252.273 72.1548L254.317 66.1938H255.664L252.902 73.5151H251.59L248.89 66.1938H250.318ZM260.016 66.0298C260.535 66.0298 261.039 66.1528 261.526 66.3989C262.014 66.6405 262.385 66.9549 262.641 67.3423C262.887 67.7114 263.051 68.1421 263.133 68.6343C263.206 68.9715 263.242 69.5093 263.242 70.2476H257.876C257.899 70.9904 258.074 71.5874 258.402 72.0386C258.73 72.4852 259.239 72.7085 259.927 72.7085C260.569 72.7085 261.082 72.4966 261.465 72.0728C261.684 71.8267 261.839 71.5418 261.93 71.2183H263.14C263.108 71.4871 263.001 71.7879 262.818 72.1206C262.641 72.4487 262.44 72.7176 262.217 72.9272C261.843 73.2918 261.381 73.5379 260.829 73.6655C260.533 73.7384 260.198 73.7749 259.824 73.7749C258.913 73.7749 258.14 73.4445 257.507 72.7837C256.873 72.1183 256.557 71.1886 256.557 69.9946C256.557 68.8188 256.876 67.8641 257.514 67.1304C258.152 66.3966 258.986 66.0298 260.016 66.0298ZM261.978 69.27C261.927 68.7368 261.811 68.3107 261.629 67.9917C261.292 67.3993 260.729 67.103 259.94 67.103C259.375 67.103 258.901 67.3081 258.519 67.7183C258.136 68.1239 257.933 68.6411 257.91 69.27H261.978ZM265.044 66.1938H266.213V67.4585C266.309 67.2124 266.543 66.9139 266.917 66.563C267.291 66.2075 267.721 66.0298 268.209 66.0298C268.232 66.0298 268.271 66.0321 268.325 66.0366C268.38 66.0412 268.473 66.0503 268.605 66.064V67.3628C268.533 67.3491 268.464 67.34 268.4 67.3354C268.341 67.3309 268.275 67.3286 268.202 67.3286C267.582 67.3286 267.106 67.5291 266.773 67.9302C266.441 68.3267 266.274 68.7847 266.274 69.3042V73.5151H265.044V66.1938ZM274.314 64.1499H275.559V66.1938H276.728V67.1987H275.559V71.9771C275.559 72.2323 275.645 72.4032 275.818 72.4897C275.914 72.5399 276.074 72.5649 276.297 72.5649C276.356 72.5649 276.42 72.5649 276.488 72.5649C276.557 72.5604 276.636 72.5535 276.728 72.5444V73.5151C276.586 73.5562 276.438 73.5858 276.283 73.604C276.133 73.6222 275.969 73.6313 275.791 73.6313C275.217 73.6313 274.827 73.4855 274.622 73.1938C274.417 72.8976 274.314 72.5148 274.314 72.0454V67.1987H273.323V66.1938H274.314V64.1499ZM278.215 63.439H279.445V67.1851C279.737 66.8159 279.999 66.5562 280.231 66.4058C280.628 66.146 281.122 66.0161 281.715 66.0161C282.777 66.0161 283.497 66.3875 283.875 67.1304C284.08 67.536 284.183 68.0988 284.183 68.8188V73.5151H282.918V68.9009C282.918 68.3631 282.85 67.9689 282.713 67.7183C282.49 67.3172 282.07 67.1167 281.455 67.1167C280.945 67.1167 280.482 67.2922 280.067 67.6431C279.653 67.994 279.445 68.6571 279.445 69.6323V73.5151H278.215V63.439ZM289.307 66.0298C289.826 66.0298 290.33 66.1528 290.817 66.3989C291.305 66.6405 291.676 66.9549 291.932 67.3423C292.178 67.7114 292.342 68.1421 292.424 68.6343C292.497 68.9715 292.533 69.5093 292.533 70.2476H287.167C287.19 70.9904 287.365 71.5874 287.693 72.0386C288.021 72.4852 288.53 72.7085 289.218 72.7085C289.86 72.7085 290.373 72.4966 290.756 72.0728C290.975 71.8267 291.13 71.5418 291.221 71.2183H292.431C292.399 71.4871 292.292 71.7879 292.109 72.1206C291.932 72.4487 291.731 72.7176 291.508 72.9272C291.134 73.2918 290.672 73.5379 290.12 73.6655C289.824 73.7384 289.489 73.7749 289.115 73.7749C288.204 73.7749 287.431 73.4445 286.798 72.7837C286.164 72.1183 285.848 71.1886 285.848 69.9946C285.848 68.8188 286.167 67.8641 286.805 67.1304C287.443 66.3966 288.277 66.0298 289.307 66.0298ZM291.269 69.27C291.218 68.7368 291.102 68.3107 290.92 67.9917C290.583 67.3993 290.02 67.103 289.231 67.103C288.666 67.103 288.192 67.3081 287.81 67.7183C287.427 68.1239 287.224 68.6411 287.201 69.27H291.269ZM96.7334 85.9819C97.5583 85.9819 98.2282 86.1825 98.7432 86.5835C99.2627 86.9845 99.5749 87.675 99.6797 88.6548H98.4834C98.4105 88.2036 98.2441 87.8299 97.9844 87.5337C97.7246 87.2329 97.3076 87.0825 96.7334 87.0825C95.9495 87.0825 95.389 87.4653 95.0518 88.231C94.833 88.7277 94.7236 89.3407 94.7236 90.0698C94.7236 90.8035 94.8786 91.4211 95.1885 91.9224C95.4984 92.4237 95.986 92.6743 96.6514 92.6743C97.1618 92.6743 97.5651 92.5194 97.8613 92.2095C98.1621 91.895 98.3695 91.4666 98.4834 90.9243H99.6797C99.543 91.895 99.2012 92.606 98.6543 93.0571C98.1074 93.5037 97.4079 93.7271 96.5557 93.7271C95.5986 93.7271 94.8353 93.3784 94.2656 92.6812C93.696 91.9793 93.4111 91.1043 93.4111 90.0562C93.4111 88.771 93.7233 87.7707 94.3477 87.0552C94.972 86.3397 95.7673 85.9819 96.7334 85.9819ZM104.065 92.7222C104.881 92.7222 105.439 92.4146 105.74 91.7993C106.046 91.1795 106.198 90.4914 106.198 89.7349C106.198 89.0513 106.089 88.4953 105.87 88.0669C105.524 87.3924 104.927 87.0552 104.079 87.0552C103.327 87.0552 102.78 87.3423 102.438 87.9165C102.097 88.4907 101.926 89.1834 101.926 89.9946C101.926 90.7739 102.097 91.4233 102.438 91.9429C102.78 92.4624 103.323 92.7222 104.065 92.7222ZM104.113 85.9819C105.057 85.9819 105.854 86.2964 106.506 86.9253C107.158 87.5542 107.483 88.4793 107.483 89.7007C107.483 90.881 107.196 91.8563 106.622 92.6265C106.048 93.3966 105.157 93.7817 103.949 93.7817C102.942 93.7817 102.142 93.4422 101.55 92.7632C100.957 92.0796 100.661 91.1636 100.661 90.0151C100.661 88.7847 100.973 87.8049 101.598 87.0757C102.222 86.3465 103.061 85.9819 104.113 85.9819ZM109.203 86.1938H110.42V87.2329C110.712 86.8729 110.976 86.6108 111.213 86.4468C111.618 86.1688 112.079 86.0298 112.594 86.0298C113.177 86.0298 113.646 86.1733 114.002 86.4604C114.202 86.6245 114.385 86.866 114.549 87.1851C114.822 86.7931 115.144 86.5037 115.513 86.3169C115.882 86.1255 116.297 86.0298 116.757 86.0298C117.741 86.0298 118.411 86.3853 118.767 87.0962C118.958 87.479 119.054 87.994 119.054 88.6411V93.5151H117.775V88.4292C117.775 87.9416 117.652 87.6066 117.406 87.4243C117.165 87.242 116.868 87.1509 116.518 87.1509C116.035 87.1509 115.618 87.3127 115.267 87.6362C114.92 87.9598 114.747 88.4998 114.747 89.2563V93.5151H113.496V88.7368C113.496 88.2401 113.437 87.8778 113.318 87.6499C113.132 87.3081 112.783 87.1372 112.272 87.1372C111.808 87.1372 111.384 87.3172 111.001 87.6772C110.623 88.0373 110.434 88.689 110.434 89.6323V93.5151H109.203V86.1938ZM124.205 92.688C124.779 92.688 125.256 92.4487 125.634 91.9702C126.017 91.4871 126.208 90.7671 126.208 89.8101C126.208 89.2267 126.124 88.7254 125.955 88.3062C125.636 87.4995 125.053 87.0962 124.205 87.0962C123.353 87.0962 122.77 87.5223 122.455 88.3745C122.286 88.8302 122.202 89.409 122.202 90.1108C122.202 90.6759 122.286 91.1567 122.455 91.5532C122.774 92.3097 123.357 92.688 124.205 92.688ZM121.02 86.228H122.216V87.1987C122.462 86.866 122.731 86.6086 123.022 86.4263C123.437 86.1528 123.925 86.0161 124.485 86.0161C125.315 86.0161 126.019 86.3351 126.598 86.9731C127.176 87.6066 127.466 88.5135 127.466 89.6938C127.466 91.2889 127.049 92.4282 126.215 93.1118C125.686 93.5448 125.071 93.7612 124.369 93.7612C123.818 93.7612 123.355 93.6405 122.981 93.3989C122.763 93.2622 122.519 93.0275 122.25 92.6948V96.4341H121.02V86.228ZM129.192 83.4731H130.423V93.5151H129.192V83.4731ZM135.574 86.0298C136.094 86.0298 136.597 86.1528 137.085 86.3989C137.573 86.6405 137.944 86.9549 138.199 87.3423C138.445 87.7114 138.609 88.1421 138.691 88.6343C138.764 88.9715 138.801 89.5093 138.801 90.2476H133.435C133.457 90.9904 133.633 91.5874 133.961 92.0386C134.289 92.4852 134.797 92.7085 135.485 92.7085C136.128 92.7085 136.641 92.4966 137.023 92.0728C137.242 91.8267 137.397 91.5418 137.488 91.2183H138.698C138.666 91.4871 138.559 91.7879 138.377 92.1206C138.199 92.4487 137.999 92.7176 137.775 92.9272C137.402 93.2918 136.939 93.5379 136.388 93.6655C136.091 93.7384 135.757 93.7749 135.383 93.7749C134.471 93.7749 133.699 93.4445 133.065 92.7837C132.432 92.1183 132.115 91.1886 132.115 89.9946C132.115 88.8188 132.434 87.8641 133.072 87.1304C133.71 86.3966 134.544 86.0298 135.574 86.0298ZM137.536 89.27C137.486 88.7368 137.37 88.3107 137.188 87.9917C136.85 87.3993 136.287 87.103 135.499 87.103C134.934 87.103 134.46 87.3081 134.077 87.7183C133.694 88.1239 133.492 88.6411 133.469 89.27H137.536ZM140.814 84.1499H142.059V86.1938H143.228V87.1987H142.059V91.9771C142.059 92.2323 142.145 92.4032 142.318 92.4897C142.414 92.5399 142.574 92.5649 142.797 92.5649C142.856 92.5649 142.92 92.5649 142.988 92.5649C143.057 92.5604 143.136 92.5535 143.228 92.5444V93.5151C143.086 93.5562 142.938 93.5858 142.783 93.604C142.633 93.6222 142.469 93.6313 142.291 93.6313C141.717 93.6313 141.327 93.4855 141.122 93.1938C140.917 92.8976 140.814 92.5148 140.814 92.0454V87.1987H139.823V86.1938H140.814V84.1499ZM147.764 86.0298C148.283 86.0298 148.787 86.1528 149.274 86.3989C149.762 86.6405 150.133 86.9549 150.389 87.3423C150.635 87.7114 150.799 88.1421 150.881 88.6343C150.954 88.9715 150.99 89.5093 150.99 90.2476H145.624C145.647 90.9904 145.822 91.5874 146.15 92.0386C146.479 92.4852 146.987 92.7085 147.675 92.7085C148.317 92.7085 148.83 92.4966 149.213 92.0728C149.432 91.8267 149.587 91.5418 149.678 91.2183H150.888C150.856 91.4871 150.749 91.7879 150.566 92.1206C150.389 92.4487 150.188 92.7176 149.965 92.9272C149.591 93.2918 149.129 93.5379 148.577 93.6655C148.281 93.7384 147.946 93.7749 147.572 93.7749C146.661 93.7749 145.888 93.4445 145.255 92.7837C144.621 92.1183 144.305 91.1886 144.305 89.9946C144.305 88.8188 144.624 87.8641 145.262 87.1304C145.9 86.3966 146.734 86.0298 147.764 86.0298ZM149.726 89.27C149.675 88.7368 149.559 88.3107 149.377 87.9917C149.04 87.3993 148.477 87.103 147.688 87.103C147.123 87.103 146.649 87.3081 146.267 87.7183C145.884 88.1239 145.681 88.6411 145.658 89.27H149.726ZM153.537 89.9399C153.537 90.7238 153.703 91.38 154.036 91.9087C154.369 92.4373 154.902 92.7017 155.636 92.7017C156.205 92.7017 156.673 92.4578 157.037 91.9702C157.406 91.478 157.591 90.7739 157.591 89.8579C157.591 88.9328 157.402 88.2492 157.023 87.8071C156.645 87.3605 156.178 87.1372 155.622 87.1372C155.002 87.1372 154.499 87.3742 154.111 87.8481C153.729 88.3221 153.537 89.0194 153.537 89.9399ZM155.39 86.064C155.95 86.064 156.42 86.1825 156.798 86.4194C157.017 86.5562 157.265 86.7954 157.543 87.1372V83.439H158.726V93.5151H157.618V92.4966C157.331 92.9478 156.992 93.2736 156.6 93.4741C156.208 93.6746 155.759 93.7749 155.253 93.7749C154.437 93.7749 153.731 93.4331 153.134 92.7495C152.537 92.0614 152.238 91.1476 152.238 90.0083C152.238 88.9419 152.509 88.019 153.052 87.2397C153.599 86.4559 154.378 86.064 155.39 86.064ZM168.037 92.688C168.611 92.688 169.088 92.4487 169.466 91.9702C169.849 91.4871 170.04 90.7671 170.04 89.8101C170.04 89.2267 169.956 88.7254 169.787 88.3062C169.468 87.4995 168.885 87.0962 168.037 87.0962C167.185 87.0962 166.602 87.5223 166.287 88.3745C166.118 88.8302 166.034 89.409 166.034 90.1108C166.034 90.6759 166.118 91.1567 166.287 91.5532C166.606 92.3097 167.189 92.688 168.037 92.688ZM164.852 86.228H166.048V87.1987C166.294 86.866 166.563 86.6086 166.854 86.4263C167.269 86.1528 167.757 86.0161 168.317 86.0161C169.147 86.0161 169.851 86.3351 170.43 86.9731C171.008 87.6066 171.298 88.5135 171.298 89.6938C171.298 91.2889 170.881 92.4282 170.047 93.1118C169.518 93.5448 168.903 93.7612 168.201 93.7612C167.65 93.7612 167.187 93.6405 166.813 93.3989C166.595 93.2622 166.351 93.0275 166.082 92.6948V96.4341H164.852V86.228ZM173.024 86.1938H174.193V87.4585C174.289 87.2124 174.524 86.9139 174.897 86.563C175.271 86.2075 175.702 86.0298 176.189 86.0298C176.212 86.0298 176.251 86.0321 176.306 86.0366C176.36 86.0412 176.454 86.0503 176.586 86.064V87.3628C176.513 87.3491 176.445 87.34 176.381 87.3354C176.322 87.3309 176.256 87.3286 176.183 87.3286C175.563 87.3286 175.087 87.5291 174.754 87.9302C174.421 88.3267 174.255 88.7847 174.255 89.3042V93.5151H173.024V86.1938ZM180.808 92.7222C181.623 92.7222 182.182 92.4146 182.482 91.7993C182.788 91.1795 182.94 90.4914 182.94 89.7349C182.94 89.0513 182.831 88.4953 182.612 88.0669C182.266 87.3924 181.669 87.0552 180.821 87.0552C180.069 87.0552 179.522 87.3423 179.181 87.9165C178.839 88.4907 178.668 89.1834 178.668 89.9946C178.668 90.7739 178.839 91.4233 179.181 91.9429C179.522 92.4624 180.065 92.7222 180.808 92.7222ZM180.855 85.9819C181.799 85.9819 182.596 86.2964 183.248 86.9253C183.9 87.5542 184.226 88.4793 184.226 89.7007C184.226 90.881 183.938 91.8563 183.364 92.6265C182.79 93.3966 181.899 93.7817 180.691 93.7817C179.684 93.7817 178.884 93.4422 178.292 92.7632C177.7 92.0796 177.403 91.1636 177.403 90.0151C177.403 88.7847 177.715 87.8049 178.34 87.0757C178.964 86.3465 179.803 85.9819 180.855 85.9819ZM187.176 84.895H185.945V83.4731H187.176V84.895ZM184.783 95.3677C185.335 95.3494 185.665 95.2993 185.774 95.2173C185.888 95.1398 185.945 94.8914 185.945 94.4722V86.228H187.176V94.6021C187.176 95.1353 187.089 95.534 186.916 95.7983C186.629 96.245 186.084 96.4683 185.282 96.4683C185.223 96.4683 185.159 96.466 185.091 96.4614C185.027 96.4569 184.924 96.4478 184.783 96.4341V95.3677ZM192.361 86.0298C192.881 86.0298 193.384 86.1528 193.872 86.3989C194.36 86.6405 194.731 86.9549 194.986 87.3423C195.232 87.7114 195.396 88.1421 195.479 88.6343C195.551 88.9715 195.588 89.5093 195.588 90.2476H190.222C190.244 90.9904 190.42 91.5874 190.748 92.0386C191.076 92.4852 191.584 92.7085 192.272 92.7085C192.915 92.7085 193.428 92.4966 193.811 92.0728C194.029 91.8267 194.184 91.5418 194.275 91.2183H195.485C195.453 91.4871 195.346 91.7879 195.164 92.1206C194.986 92.4487 194.786 92.7176 194.562 92.9272C194.189 93.2918 193.726 93.5379 193.175 93.6655C192.879 93.7384 192.544 93.7749 192.17 93.7749C191.258 93.7749 190.486 93.4445 189.853 92.7837C189.219 92.1183 188.902 91.1886 188.902 89.9946C188.902 88.8188 189.221 87.8641 189.859 87.1304C190.497 86.3966 191.331 86.0298 192.361 86.0298ZM194.323 89.27C194.273 88.7368 194.157 88.3107 193.975 87.9917C193.637 87.3993 193.075 87.103 192.286 87.103C191.721 87.103 191.247 87.3081 190.864 87.7183C190.481 88.1239 190.279 88.6411 190.256 89.27H194.323ZM200.179 85.9819C201.004 85.9819 201.674 86.1825 202.188 86.5835C202.708 86.9845 203.02 87.675 203.125 88.6548H201.929C201.856 88.2036 201.689 87.8299 201.43 87.5337C201.17 87.2329 200.753 87.0825 200.179 87.0825C199.395 87.0825 198.834 87.4653 198.497 88.231C198.278 88.7277 198.169 89.3407 198.169 90.0698C198.169 90.8035 198.324 91.4211 198.634 91.9224C198.944 92.4237 199.431 92.6743 200.097 92.6743C200.607 92.6743 201.01 92.5194 201.307 92.2095C201.607 91.895 201.815 91.4666 201.929 90.9243H203.125C202.988 91.895 202.646 92.606 202.1 93.0571C201.553 93.5037 200.853 93.7271 200.001 93.7271C199.044 93.7271 198.281 93.3784 197.711 92.6812C197.141 91.9793 196.856 91.1043 196.856 90.0562C196.856 88.771 197.169 87.7707 197.793 87.0552C198.417 86.3397 199.213 85.9819 200.179 85.9819ZM204.852 84.1499H206.096V86.1938H207.265V87.1987H206.096V91.9771C206.096 92.2323 206.182 92.4032 206.355 92.4897C206.451 92.5399 206.611 92.5649 206.834 92.5649C206.893 92.5649 206.957 92.5649 207.025 92.5649C207.094 92.5604 207.174 92.5535 207.265 92.5444V93.5151C207.123 93.5562 206.975 93.5858 206.82 93.604C206.67 93.6222 206.506 93.6313 206.328 93.6313C205.754 93.6313 205.364 93.4855 205.159 93.1938C204.954 92.8976 204.852 92.5148 204.852 92.0454V87.1987H203.86V86.1938H204.852V84.1499ZM213.842 91.5669C213.842 91.9224 213.972 92.2026 214.231 92.4077C214.491 92.6128 214.799 92.7153 215.154 92.7153C215.587 92.7153 216.007 92.6151 216.412 92.4146C217.096 92.0819 217.438 91.5373 217.438 90.7808V89.7896C217.287 89.8853 217.093 89.965 216.856 90.0288C216.619 90.0926 216.387 90.1382 216.159 90.1655L215.414 90.2612C214.967 90.3205 214.632 90.4139 214.409 90.5415C214.031 90.7557 213.842 91.0975 213.842 91.5669ZM216.822 89.0786C217.105 89.0422 217.294 88.9237 217.39 88.7231C217.444 88.6138 217.472 88.4565 217.472 88.2515C217.472 87.8322 217.321 87.5291 217.021 87.3423C216.724 87.1509 216.298 87.0552 215.742 87.0552C215.1 87.0552 214.644 87.2284 214.375 87.5747C214.225 87.7661 214.127 88.0509 214.081 88.4292H212.933C212.955 87.5269 213.247 86.9002 213.808 86.5493C214.373 86.1938 215.027 86.0161 215.77 86.0161C216.631 86.0161 217.33 86.1802 217.868 86.5083C218.401 86.8364 218.668 87.3468 218.668 88.0396V92.2573C218.668 92.3849 218.693 92.4875 218.743 92.5649C218.798 92.6424 218.91 92.6812 219.078 92.6812C219.133 92.6812 219.194 92.6789 219.263 92.6743C219.331 92.6652 219.404 92.6538 219.481 92.6401V93.5493C219.29 93.604 219.144 93.6382 219.044 93.6519C218.944 93.6655 218.807 93.6724 218.634 93.6724C218.21 93.6724 217.902 93.522 217.711 93.2212C217.611 93.0617 217.54 92.8361 217.499 92.5444C217.248 92.8726 216.888 93.1574 216.419 93.3989C215.95 93.6405 215.432 93.7612 214.867 93.7612C214.188 93.7612 213.632 93.5562 213.199 93.146C212.771 92.7313 212.557 92.214 212.557 91.5942C212.557 90.9152 212.769 90.3888 213.192 90.0151C213.616 89.6414 214.172 89.4113 214.86 89.3247L216.822 89.0786ZM220.941 86.1938H222.11V87.2329C222.457 86.8045 222.824 86.4969 223.211 86.3101C223.598 86.1232 224.029 86.0298 224.503 86.0298C225.542 86.0298 226.244 86.3921 226.608 87.1167C226.809 87.5132 226.909 88.0806 226.909 88.8188V93.5151H225.658V88.9009C225.658 88.4543 225.592 88.0942 225.46 87.8208C225.241 87.3651 224.845 87.1372 224.271 87.1372C223.979 87.1372 223.74 87.1668 223.553 87.2261C223.215 87.3263 222.919 87.5269 222.664 87.8276C222.459 88.0692 222.325 88.3198 222.261 88.5796C222.201 88.8348 222.172 89.2017 222.172 89.6802V93.5151H220.941V86.1938ZM229.764 89.9399C229.764 90.7238 229.93 91.38 230.263 91.9087C230.595 92.4373 231.129 92.7017 231.862 92.7017C232.432 92.7017 232.899 92.4578 233.264 91.9702C233.633 91.478 233.817 90.7739 233.817 89.8579C233.817 88.9328 233.628 88.2492 233.25 87.8071C232.872 87.3605 232.405 87.1372 231.849 87.1372C231.229 87.1372 230.725 87.3742 230.338 87.8481C229.955 88.3221 229.764 89.0194 229.764 89.9399ZM231.616 86.064C232.177 86.064 232.646 86.1825 233.024 86.4194C233.243 86.5562 233.492 86.7954 233.77 87.1372V83.439H234.952V93.5151H233.845V92.4966C233.558 92.9478 233.218 93.2736 232.826 93.4741C232.434 93.6746 231.985 93.7749 231.479 93.7749C230.664 93.7749 229.957 93.4331 229.36 92.7495C228.763 92.0614 228.465 91.1476 228.465 90.0083C228.465 88.9419 228.736 88.019 229.278 87.2397C229.825 86.4559 230.604 86.064 231.616 86.064ZM244.264 92.688C244.838 92.688 245.314 92.4487 245.692 91.9702C246.075 91.4871 246.267 90.7671 246.267 89.8101C246.267 89.2267 246.182 88.7254 246.014 88.3062C245.695 87.4995 245.111 87.0962 244.264 87.0962C243.411 87.0962 242.828 87.5223 242.514 88.3745C242.345 88.8302 242.261 89.409 242.261 90.1108C242.261 90.6759 242.345 91.1567 242.514 91.5532C242.833 92.3097 243.416 92.688 244.264 92.688ZM241.078 86.228H242.274V87.1987C242.521 86.866 242.789 86.6086 243.081 86.4263C243.496 86.1528 243.983 86.0161 244.544 86.0161C245.373 86.0161 246.077 86.3351 246.656 86.9731C247.235 87.6066 247.524 88.5135 247.524 89.6938C247.524 91.2889 247.107 92.4282 246.273 93.1118C245.745 93.5448 245.13 93.7612 244.428 93.7612C243.876 93.7612 243.414 93.6405 243.04 93.3989C242.821 93.2622 242.577 93.0275 242.309 92.6948V96.4341H241.078V86.228ZM249.251 86.1938H250.42V87.4585C250.516 87.2124 250.75 86.9139 251.124 86.563C251.498 86.2075 251.928 86.0298 252.416 86.0298C252.439 86.0298 252.478 86.0321 252.532 86.0366C252.587 86.0412 252.68 86.0503 252.812 86.064V87.3628C252.74 87.3491 252.671 87.34 252.607 87.3354C252.548 87.3309 252.482 87.3286 252.409 87.3286C251.789 87.3286 251.313 87.5291 250.98 87.9302C250.648 88.3267 250.481 88.7847 250.481 89.3042V93.5151H249.251V86.1938ZM257.034 92.7222C257.85 92.7222 258.408 92.4146 258.709 91.7993C259.014 91.1795 259.167 90.4914 259.167 89.7349C259.167 89.0513 259.058 88.4953 258.839 88.0669C258.493 87.3924 257.896 87.0552 257.048 87.0552C256.296 87.0552 255.749 87.3423 255.407 87.9165C255.065 88.4907 254.895 89.1834 254.895 89.9946C254.895 90.7739 255.065 91.4233 255.407 91.9429C255.749 92.4624 256.291 92.7222 257.034 92.7222ZM257.082 85.9819C258.025 85.9819 258.823 86.2964 259.475 86.9253C260.126 87.5542 260.452 88.4793 260.452 89.7007C260.452 90.881 260.165 91.8563 259.591 92.6265C259.017 93.3966 258.126 93.7817 256.918 93.7817C255.911 93.7817 255.111 93.4422 254.519 92.7632C253.926 92.0796 253.63 91.1636 253.63 90.0151C253.63 88.7847 253.942 87.8049 254.566 87.0757C255.191 86.3465 256.029 85.9819 257.082 85.9819ZM262.773 86.1938L264.729 92.1548L266.772 86.1938H268.119L265.357 93.5151H264.045L261.345 86.1938H262.773ZM269.422 86.228H270.673V93.5151H269.422V86.228ZM269.422 83.4731H270.673V84.8677H269.422V83.4731ZM273.568 89.9399C273.568 90.7238 273.735 91.38 274.067 91.9087C274.4 92.4373 274.933 92.7017 275.667 92.7017C276.237 92.7017 276.704 92.4578 277.068 91.9702C277.438 91.478 277.622 90.7739 277.622 89.8579C277.622 88.9328 277.433 88.2492 277.055 87.8071C276.676 87.3605 276.209 87.1372 275.653 87.1372C275.034 87.1372 274.53 87.3742 274.143 87.8481C273.76 88.3221 273.568 89.0194 273.568 89.9399ZM275.421 86.064C275.981 86.064 276.451 86.1825 276.829 86.4194C277.048 86.5562 277.296 86.7954 277.574 87.1372V83.439H278.757V93.5151H277.649V92.4966C277.362 92.9478 277.023 93.2736 276.631 93.4741C276.239 93.6746 275.79 93.7749 275.284 93.7749C274.468 93.7749 273.762 93.4331 273.165 92.7495C272.568 92.0614 272.27 91.1476 272.27 90.0083C272.27 88.9419 272.541 88.019 273.083 87.2397C273.63 86.4559 274.409 86.064 275.421 86.064ZM283.881 86.0298C284.4 86.0298 284.904 86.1528 285.392 86.3989C285.879 86.6405 286.251 86.9549 286.506 87.3423C286.752 87.7114 286.916 88.1421 286.998 88.6343C287.071 88.9715 287.107 89.5093 287.107 90.2476H281.741C281.764 90.9904 281.939 91.5874 282.268 92.0386C282.596 92.4852 283.104 92.7085 283.792 92.7085C284.435 92.7085 284.947 92.4966 285.33 92.0728C285.549 91.8267 285.704 91.5418 285.795 91.2183H287.005C286.973 91.4871 286.866 91.7879 286.684 92.1206C286.506 92.4487 286.305 92.7176 286.082 92.9272C285.708 93.2918 285.246 93.5379 284.694 93.6655C284.398 93.7384 284.063 93.7749 283.689 93.7749C282.778 93.7749 282.006 93.4445 281.372 92.7837C280.739 92.1183 280.422 91.1886 280.422 89.9946C280.422 88.8188 280.741 87.8641 281.379 87.1304C282.017 86.3966 282.851 86.0298 283.881 86.0298ZM285.843 89.27C285.793 88.7368 285.676 88.3107 285.494 87.9917C285.157 87.3993 284.594 87.103 283.806 87.103C283.241 87.103 282.767 87.3081 282.384 87.7183C282.001 88.1239 281.798 88.6411 281.775 89.27H285.843ZM94.8535 111.567C94.8535 111.922 94.9834 112.203 95.2432 112.408C95.5029 112.613 95.8105 112.715 96.166 112.715C96.599 112.715 97.0182 112.615 97.4238 112.415C98.1074 112.082 98.4492 111.537 98.4492 110.781V109.79C98.2988 109.885 98.1051 109.965 97.8682 110.029C97.6312 110.093 97.3988 110.138 97.1709 110.166L96.4258 110.261C95.9792 110.32 95.6442 110.414 95.4209 110.542C95.0426 110.756 94.8535 111.097 94.8535 111.567ZM97.834 109.079C98.1165 109.042 98.3057 108.924 98.4014 108.723C98.4561 108.614 98.4834 108.457 98.4834 108.251C98.4834 107.832 98.333 107.529 98.0322 107.342C97.736 107.151 97.3099 107.055 96.7539 107.055C96.1113 107.055 95.6556 107.228 95.3867 107.575C95.2363 107.766 95.1383 108.051 95.0928 108.429H93.9443C93.9671 107.527 94.2588 106.9 94.8193 106.549C95.3844 106.194 96.0384 106.016 96.7812 106.016C97.6426 106.016 98.3421 106.18 98.8799 106.508C99.4131 106.836 99.6797 107.347 99.6797 108.04V112.257C99.6797 112.385 99.7048 112.487 99.7549 112.565C99.8096 112.642 99.9212 112.681 100.09 112.681C100.145 112.681 100.206 112.679 100.274 112.674C100.343 112.665 100.416 112.654 100.493 112.64V113.549C100.302 113.604 100.156 113.638 100.056 113.652C99.9554 113.666 99.8187 113.672 99.6455 113.672C99.2217 113.672 98.9141 113.522 98.7227 113.221C98.6224 113.062 98.5518 112.836 98.5107 112.544C98.2601 112.873 97.9001 113.157 97.4307 113.399C96.9613 113.64 96.444 113.761 95.8789 113.761C95.1999 113.761 94.6439 113.556 94.2109 113.146C93.7826 112.731 93.5684 112.214 93.5684 111.594C93.5684 110.915 93.7803 110.389 94.2041 110.015C94.6279 109.641 95.1839 109.411 95.8721 109.325L97.834 109.079ZM101.953 106.194H103.122V107.233C103.468 106.805 103.835 106.497 104.223 106.31C104.61 106.123 105.041 106.03 105.515 106.03C106.554 106.03 107.256 106.392 107.62 107.117C107.821 107.513 107.921 108.081 107.921 108.819V113.515H106.67V108.901C106.67 108.454 106.604 108.094 106.472 107.821C106.253 107.365 105.856 107.137 105.282 107.137C104.991 107.137 104.751 107.167 104.564 107.226C104.227 107.326 103.931 107.527 103.676 107.828C103.471 108.069 103.336 108.32 103.272 108.58C103.213 108.835 103.184 109.202 103.184 109.68V113.515H101.953V106.194ZM114.569 106.194H115.93C115.757 106.663 115.371 107.734 114.774 109.407C114.328 110.665 113.954 111.69 113.653 112.483C112.942 114.351 112.441 115.491 112.149 115.901C111.858 116.311 111.356 116.516 110.646 116.516C110.472 116.516 110.338 116.509 110.242 116.496C110.151 116.482 110.037 116.457 109.9 116.42V115.299C110.115 115.359 110.27 115.395 110.365 115.409C110.461 115.422 110.545 115.429 110.618 115.429C110.846 115.429 111.012 115.39 111.117 115.313C111.227 115.24 111.318 115.149 111.391 115.04C111.413 115.003 111.495 114.816 111.637 114.479C111.778 114.142 111.881 113.891 111.944 113.727L109.237 106.194H110.632L112.594 112.155L114.569 106.194ZM121.393 106.194H122.562V107.233C122.908 106.805 123.275 106.497 123.662 106.31C124.049 106.123 124.48 106.03 124.954 106.03C125.993 106.03 126.695 106.392 127.06 107.117C127.26 107.513 127.36 108.081 127.36 108.819V113.515H126.109V108.901C126.109 108.454 126.043 108.094 125.911 107.821C125.692 107.365 125.296 107.137 124.722 107.137C124.43 107.137 124.191 107.167 124.004 107.226C123.667 107.326 123.37 107.527 123.115 107.828C122.91 108.069 122.776 108.32 122.712 108.58C122.653 108.835 122.623 109.202 122.623 109.68V113.515H121.393V106.194ZM132.484 106.03C133.004 106.03 133.507 106.153 133.995 106.399C134.483 106.64 134.854 106.955 135.109 107.342C135.355 107.711 135.52 108.142 135.602 108.634C135.674 108.972 135.711 109.509 135.711 110.248H130.345C130.368 110.99 130.543 111.587 130.871 112.039C131.199 112.485 131.707 112.708 132.396 112.708C133.038 112.708 133.551 112.497 133.934 112.073C134.152 111.827 134.307 111.542 134.398 111.218H135.608C135.576 111.487 135.469 111.788 135.287 112.121C135.109 112.449 134.909 112.718 134.686 112.927C134.312 113.292 133.849 113.538 133.298 113.666C133.002 113.738 132.667 113.775 132.293 113.775C131.382 113.775 130.609 113.444 129.976 112.784C129.342 112.118 129.025 111.189 129.025 109.995C129.025 108.819 129.344 107.864 129.982 107.13C130.62 106.397 131.454 106.03 132.484 106.03ZM134.446 109.27C134.396 108.737 134.28 108.311 134.098 107.992C133.76 107.399 133.198 107.103 132.409 107.103C131.844 107.103 131.37 107.308 130.987 107.718C130.604 108.124 130.402 108.641 130.379 109.27H134.446ZM140.302 105.982C141.127 105.982 141.797 106.182 142.312 106.583C142.831 106.985 143.143 107.675 143.248 108.655H142.052C141.979 108.204 141.812 107.83 141.553 107.534C141.293 107.233 140.876 107.083 140.302 107.083C139.518 107.083 138.957 107.465 138.62 108.231C138.401 108.728 138.292 109.341 138.292 110.07C138.292 110.804 138.447 111.421 138.757 111.922C139.067 112.424 139.554 112.674 140.22 112.674C140.73 112.674 141.133 112.519 141.43 112.209C141.73 111.895 141.938 111.467 142.052 110.924H143.248C143.111 111.895 142.77 112.606 142.223 113.057C141.676 113.504 140.976 113.727 140.124 113.727C139.167 113.727 138.404 113.378 137.834 112.681C137.264 111.979 136.979 111.104 136.979 110.056C136.979 108.771 137.292 107.771 137.916 107.055C138.54 106.34 139.336 105.982 140.302 105.982ZM147.777 106.03C148.297 106.03 148.8 106.153 149.288 106.399C149.776 106.64 150.147 106.955 150.402 107.342C150.648 107.711 150.812 108.142 150.895 108.634C150.967 108.972 151.004 109.509 151.004 110.248H145.638C145.66 110.99 145.836 111.587 146.164 112.039C146.492 112.485 147 112.708 147.688 112.708C148.331 112.708 148.844 112.497 149.227 112.073C149.445 111.827 149.6 111.542 149.691 111.218H150.901C150.869 111.487 150.762 111.788 150.58 112.121C150.402 112.449 150.202 112.718 149.979 112.927C149.605 113.292 149.142 113.538 148.591 113.666C148.295 113.738 147.96 113.775 147.586 113.775C146.674 113.775 145.902 113.444 145.269 112.784C144.635 112.118 144.318 111.189 144.318 109.995C144.318 108.819 144.637 107.864 145.275 107.13C145.913 106.397 146.747 106.03 147.777 106.03ZM149.739 109.27C149.689 108.737 149.573 108.311 149.391 107.992C149.053 107.399 148.491 107.103 147.702 107.103C147.137 107.103 146.663 107.308 146.28 107.718C145.897 108.124 145.695 108.641 145.672 109.27H149.739ZM153.503 111.218C153.539 111.628 153.642 111.943 153.811 112.162C154.12 112.558 154.658 112.756 155.424 112.756C155.88 112.756 156.281 112.658 156.627 112.462C156.973 112.262 157.146 111.954 157.146 111.54C157.146 111.225 157.007 110.986 156.729 110.822C156.552 110.722 156.201 110.605 155.677 110.473L154.699 110.227C154.075 110.072 153.615 109.899 153.318 109.708C152.79 109.375 152.525 108.915 152.525 108.327C152.525 107.634 152.774 107.073 153.271 106.645C153.772 106.217 154.444 106.002 155.287 106.002C156.39 106.002 157.185 106.326 157.673 106.973C157.978 107.383 158.126 107.825 158.117 108.299H156.955C156.932 108.021 156.834 107.768 156.661 107.541C156.379 107.217 155.889 107.055 155.191 107.055C154.727 107.055 154.373 107.144 154.132 107.322C153.895 107.5 153.776 107.734 153.776 108.026C153.776 108.345 153.934 108.6 154.248 108.792C154.43 108.905 154.699 109.006 155.055 109.092L155.868 109.291C156.752 109.505 157.345 109.712 157.646 109.913C158.124 110.227 158.363 110.722 158.363 111.396C158.363 112.048 158.115 112.611 157.618 113.084C157.126 113.558 156.374 113.795 155.362 113.795C154.273 113.795 153.501 113.549 153.045 113.057C152.594 112.56 152.352 111.947 152.32 111.218H153.503ZM160.753 111.218C160.789 111.628 160.892 111.943 161.061 112.162C161.37 112.558 161.908 112.756 162.674 112.756C163.13 112.756 163.531 112.658 163.877 112.462C164.223 112.262 164.396 111.954 164.396 111.54C164.396 111.225 164.257 110.986 163.979 110.822C163.802 110.722 163.451 110.605 162.927 110.473L161.949 110.227C161.325 110.072 160.865 109.899 160.568 109.708C160.04 109.375 159.775 108.915 159.775 108.327C159.775 107.634 160.024 107.073 160.521 106.645C161.022 106.217 161.694 106.002 162.537 106.002C163.64 106.002 164.435 106.326 164.923 106.973C165.228 107.383 165.376 107.825 165.367 108.299H164.205C164.182 108.021 164.084 107.768 163.911 107.541C163.629 107.217 163.139 107.055 162.441 107.055C161.977 107.055 161.623 107.144 161.382 107.322C161.145 107.5 161.026 107.734 161.026 108.026C161.026 108.345 161.184 108.6 161.498 108.792C161.68 108.905 161.949 109.006 162.305 109.092L163.118 109.291C164.002 109.505 164.595 109.712 164.896 109.913C165.374 110.227 165.613 110.722 165.613 111.396C165.613 112.048 165.365 112.611 164.868 113.084C164.376 113.558 163.624 113.795 162.612 113.795C161.523 113.795 160.751 113.549 160.295 113.057C159.844 112.56 159.602 111.947 159.57 111.218H160.753ZM168.215 111.567C168.215 111.922 168.345 112.203 168.604 112.408C168.864 112.613 169.172 112.715 169.527 112.715C169.96 112.715 170.38 112.615 170.785 112.415C171.469 112.082 171.811 111.537 171.811 110.781V109.79C171.66 109.885 171.466 109.965 171.229 110.029C170.993 110.093 170.76 110.138 170.532 110.166L169.787 110.261C169.34 110.32 169.006 110.414 168.782 110.542C168.404 110.756 168.215 111.097 168.215 111.567ZM171.195 109.079C171.478 109.042 171.667 108.924 171.763 108.723C171.817 108.614 171.845 108.457 171.845 108.251C171.845 107.832 171.694 107.529 171.394 107.342C171.097 107.151 170.671 107.055 170.115 107.055C169.473 107.055 169.017 107.228 168.748 107.575C168.598 107.766 168.5 108.051 168.454 108.429H167.306C167.328 107.527 167.62 106.9 168.181 106.549C168.746 106.194 169.4 106.016 170.143 106.016C171.004 106.016 171.703 106.18 172.241 106.508C172.774 106.836 173.041 107.347 173.041 108.04V112.257C173.041 112.385 173.066 112.487 173.116 112.565C173.171 112.642 173.283 112.681 173.451 112.681C173.506 112.681 173.567 112.679 173.636 112.674C173.704 112.665 173.777 112.654 173.854 112.64V113.549C173.663 113.604 173.517 113.638 173.417 113.652C173.317 113.666 173.18 113.672 173.007 113.672C172.583 113.672 172.275 113.522 172.084 113.221C171.984 113.062 171.913 112.836 171.872 112.544C171.621 112.873 171.261 113.157 170.792 113.399C170.323 113.64 169.805 113.761 169.24 113.761C168.561 113.761 168.005 113.556 167.572 113.146C167.144 112.731 166.93 112.214 166.93 111.594C166.93 110.915 167.142 110.389 167.565 110.015C167.989 109.641 168.545 109.411 169.233 109.325L171.195 109.079ZM175.349 106.194H176.518V107.458C176.613 107.212 176.848 106.914 177.222 106.563C177.595 106.208 178.026 106.03 178.514 106.03C178.536 106.03 178.575 106.032 178.63 106.037C178.685 106.041 178.778 106.05 178.91 106.064V107.363C178.837 107.349 178.769 107.34 178.705 107.335C178.646 107.331 178.58 107.329 178.507 107.329C177.887 107.329 177.411 107.529 177.078 107.93C176.745 108.327 176.579 108.785 176.579 109.304V113.515H175.349V106.194ZM184.8 106.194H186.16C185.987 106.663 185.602 107.734 185.005 109.407C184.558 110.665 184.185 111.69 183.884 112.483C183.173 114.351 182.672 115.491 182.38 115.901C182.088 116.311 181.587 116.516 180.876 116.516C180.703 116.516 180.568 116.509 180.473 116.496C180.382 116.482 180.268 116.457 180.131 116.42V115.299C180.345 115.359 180.5 115.395 180.596 115.409C180.691 115.422 180.776 115.429 180.849 115.429C181.076 115.429 181.243 115.39 181.348 115.313C181.457 115.24 181.548 115.149 181.621 115.04C181.644 115.003 181.726 114.816 181.867 114.479C182.008 114.142 182.111 113.891 182.175 113.727L179.468 106.194H180.862L182.824 112.155L184.8 106.194ZM192.354 111.218C192.391 111.628 192.493 111.943 192.662 112.162C192.972 112.558 193.51 112.756 194.275 112.756C194.731 112.756 195.132 112.658 195.479 112.462C195.825 112.262 195.998 111.954 195.998 111.54C195.998 111.225 195.859 110.986 195.581 110.822C195.403 110.722 195.052 110.605 194.528 110.473L193.551 110.227C192.926 110.072 192.466 109.899 192.17 109.708C191.641 109.375 191.377 108.915 191.377 108.327C191.377 107.634 191.625 107.073 192.122 106.645C192.623 106.217 193.296 106.002 194.139 106.002C195.242 106.002 196.037 106.326 196.524 106.973C196.83 107.383 196.978 107.825 196.969 108.299H195.807C195.784 108.021 195.686 107.768 195.513 107.541C195.23 107.217 194.74 107.055 194.043 107.055C193.578 107.055 193.225 107.144 192.983 107.322C192.746 107.5 192.628 107.734 192.628 108.026C192.628 108.345 192.785 108.6 193.1 108.792C193.282 108.905 193.551 109.006 193.906 109.092L194.72 109.291C195.604 109.505 196.196 109.712 196.497 109.913C196.976 110.227 197.215 110.722 197.215 111.396C197.215 112.048 196.966 112.611 196.47 113.084C195.978 113.558 195.226 113.795 194.214 113.795C193.125 113.795 192.352 113.549 191.896 113.057C191.445 112.56 191.204 111.947 191.172 111.218H192.354ZM200.104 106.194V111.054C200.104 111.428 200.163 111.733 200.281 111.97C200.5 112.408 200.908 112.626 201.505 112.626C202.362 112.626 202.945 112.244 203.255 111.478C203.424 111.068 203.508 110.505 203.508 109.79V106.194H204.738V113.515H203.576L203.59 112.435C203.43 112.713 203.232 112.948 202.995 113.139C202.526 113.522 201.956 113.713 201.286 113.713C200.243 113.713 199.532 113.365 199.153 112.667C198.948 112.294 198.846 111.795 198.846 111.17V106.194H200.104ZM210.006 112.688C210.58 112.688 211.056 112.449 211.435 111.97C211.817 111.487 212.009 110.767 212.009 109.81C212.009 109.227 211.924 108.725 211.756 108.306C211.437 107.5 210.854 107.096 210.006 107.096C209.154 107.096 208.57 107.522 208.256 108.375C208.087 108.83 208.003 109.409 208.003 110.111C208.003 110.676 208.087 111.157 208.256 111.553C208.575 112.31 209.158 112.688 210.006 112.688ZM206.82 106.228H208.017V107.199C208.263 106.866 208.532 106.609 208.823 106.426C209.238 106.153 209.726 106.016 210.286 106.016C211.116 106.016 211.82 106.335 212.398 106.973C212.977 107.607 213.267 108.514 213.267 109.694C213.267 111.289 212.85 112.428 212.016 113.112C211.487 113.545 210.872 113.761 210.17 113.761C209.618 113.761 209.156 113.64 208.782 113.399C208.563 113.262 208.32 113.028 208.051 112.695V116.434H206.82V106.228ZM218.049 112.688C218.623 112.688 219.099 112.449 219.478 111.97C219.86 111.487 220.052 110.767 220.052 109.81C220.052 109.227 219.967 108.725 219.799 108.306C219.48 107.5 218.896 107.096 218.049 107.096C217.197 107.096 216.613 107.522 216.299 108.375C216.13 108.83 216.046 109.409 216.046 110.111C216.046 110.676 216.13 111.157 216.299 111.553C216.618 112.31 217.201 112.688 218.049 112.688ZM214.863 106.228H216.06V107.199C216.306 106.866 216.575 106.609 216.866 106.426C217.281 106.153 217.769 106.016 218.329 106.016C219.159 106.016 219.863 106.335 220.441 106.973C221.02 107.607 221.31 108.514 221.31 109.694C221.31 111.289 220.893 112.428 220.059 113.112C219.53 113.545 218.915 113.761 218.213 113.761C217.661 113.761 217.199 113.64 216.825 113.399C216.606 113.262 216.363 113.028 216.094 112.695V116.434H214.863V106.228ZM225.907 112.722C226.723 112.722 227.281 112.415 227.582 111.799C227.887 111.18 228.04 110.491 228.04 109.735C228.04 109.051 227.931 108.495 227.712 108.067C227.366 107.392 226.769 107.055 225.921 107.055C225.169 107.055 224.622 107.342 224.28 107.917C223.938 108.491 223.768 109.183 223.768 109.995C223.768 110.774 223.938 111.423 224.28 111.943C224.622 112.462 225.164 112.722 225.907 112.722ZM225.955 105.982C226.898 105.982 227.696 106.296 228.348 106.925C228.999 107.554 229.325 108.479 229.325 109.701C229.325 110.881 229.038 111.856 228.464 112.626C227.89 113.397 226.999 113.782 225.791 113.782C224.784 113.782 223.984 113.442 223.392 112.763C222.799 112.08 222.503 111.164 222.503 110.015C222.503 108.785 222.815 107.805 223.439 107.076C224.064 106.347 224.902 105.982 225.955 105.982ZM231.079 106.194H232.248V107.458C232.344 107.212 232.578 106.914 232.952 106.563C233.326 106.208 233.757 106.03 234.244 106.03C234.267 106.03 234.306 106.032 234.36 106.037C234.415 106.041 234.508 106.05 234.641 106.064V107.363C234.568 107.349 234.499 107.34 234.436 107.335C234.376 107.331 234.31 107.329 234.237 107.329C233.618 107.329 233.141 107.529 232.809 107.93C232.476 108.327 232.31 108.785 232.31 109.304V113.515H231.079V106.194ZM236.203 104.15H237.447V106.194H238.616V107.199H237.447V111.977C237.447 112.232 237.534 112.403 237.707 112.49C237.803 112.54 237.962 112.565 238.186 112.565C238.245 112.565 238.309 112.565 238.377 112.565C238.445 112.56 238.525 112.554 238.616 112.544V113.515C238.475 113.556 238.327 113.586 238.172 113.604C238.021 113.622 237.857 113.631 237.68 113.631C237.105 113.631 236.716 113.486 236.511 113.194C236.306 112.898 236.203 112.515 236.203 112.045V107.199H235.212V106.194H236.203V104.15ZM244.496 104.15H245.74V106.194H246.909V107.199H245.74V111.977C245.74 112.232 245.827 112.403 246 112.49C246.096 112.54 246.255 112.565 246.479 112.565C246.538 112.565 246.602 112.565 246.67 112.565C246.738 112.56 246.818 112.554 246.909 112.544V113.515C246.768 113.556 246.62 113.586 246.465 113.604C246.314 113.622 246.15 113.631 245.973 113.631C245.398 113.631 245.009 113.486 244.804 113.194C244.599 112.898 244.496 112.515 244.496 112.045V107.199H243.505V106.194H244.496V104.15ZM251.302 112.722C252.118 112.722 252.676 112.415 252.977 111.799C253.282 111.18 253.435 110.491 253.435 109.735C253.435 109.051 253.325 108.495 253.106 108.067C252.76 107.392 252.163 107.055 251.315 107.055C250.563 107.055 250.017 107.342 249.675 107.917C249.333 108.491 249.162 109.183 249.162 109.995C249.162 110.774 249.333 111.423 249.675 111.943C250.017 112.462 250.559 112.722 251.302 112.722ZM251.35 105.982C252.293 105.982 253.09 106.296 253.742 106.925C254.394 107.554 254.72 108.479 254.72 109.701C254.72 110.881 254.433 111.856 253.858 112.626C253.284 113.397 252.393 113.782 251.186 113.782C250.178 113.782 249.379 113.442 248.786 112.763C248.194 112.08 247.897 111.164 247.897 110.015C247.897 108.785 248.21 107.805 248.834 107.076C249.458 106.347 250.297 105.982 251.35 105.982ZM96.959 126.03C97.4785 126.03 97.9821 126.153 98.4697 126.399C98.9574 126.64 99.3288 126.955 99.584 127.342C99.8301 127.711 99.9941 128.142 100.076 128.634C100.149 128.972 100.186 129.509 100.186 130.248H94.8193C94.8421 130.99 95.0176 131.587 95.3457 132.039C95.6738 132.485 96.182 132.708 96.8701 132.708C97.5127 132.708 98.0254 132.497 98.4082 132.073C98.627 131.827 98.7819 131.542 98.873 131.218H100.083C100.051 131.487 99.944 131.788 99.7617 132.121C99.584 132.449 99.3835 132.718 99.1602 132.927C98.7865 133.292 98.3239 133.538 97.7725 133.666C97.4762 133.738 97.1413 133.775 96.7676 133.775C95.8561 133.775 95.0837 133.444 94.4502 132.784C93.8167 132.118 93.5 131.189 93.5 129.995C93.5 128.819 93.819 127.864 94.457 127.13C95.0951 126.397 95.929 126.03 96.959 126.03ZM98.9209 129.27C98.8708 128.737 98.7546 128.311 98.5723 127.992C98.235 127.399 97.6722 127.103 96.8838 127.103C96.3187 127.103 95.8447 127.308 95.4619 127.718C95.0791 128.124 94.8763 128.641 94.8535 129.27H98.9209ZM101.953 126.194H103.122V127.233C103.468 126.805 103.835 126.497 104.223 126.31C104.61 126.123 105.041 126.03 105.515 126.03C106.554 126.03 107.256 126.392 107.62 127.117C107.821 127.513 107.921 128.081 107.921 128.819V133.515H106.67V128.901C106.67 128.454 106.604 128.094 106.472 127.821C106.253 127.365 105.856 127.137 105.282 127.137C104.991 127.137 104.751 127.167 104.564 127.226C104.227 127.326 103.931 127.527 103.676 127.828C103.471 128.069 103.336 128.32 103.272 128.58C103.213 128.835 103.184 129.202 103.184 129.68V133.515H101.953V126.194ZM110.728 131.218C110.764 131.628 110.867 131.943 111.035 132.162C111.345 132.558 111.883 132.756 112.648 132.756C113.104 132.756 113.505 132.658 113.852 132.462C114.198 132.262 114.371 131.954 114.371 131.54C114.371 131.225 114.232 130.986 113.954 130.822C113.776 130.722 113.425 130.605 112.901 130.473L111.924 130.227C111.299 130.072 110.839 129.899 110.543 129.708C110.014 129.375 109.75 128.915 109.75 128.327C109.75 127.634 109.998 127.073 110.495 126.645C110.996 126.217 111.669 126.002 112.512 126.002C113.615 126.002 114.41 126.326 114.897 126.973C115.203 127.383 115.351 127.825 115.342 128.299H114.18C114.157 128.021 114.059 127.768 113.886 127.541C113.603 127.217 113.113 127.055 112.416 127.055C111.951 127.055 111.598 127.144 111.356 127.322C111.119 127.5 111.001 127.734 111.001 128.026C111.001 128.345 111.158 128.6 111.473 128.792C111.655 128.905 111.924 129.006 112.279 129.092L113.093 129.291C113.977 129.505 114.569 129.712 114.87 129.913C115.349 130.227 115.588 130.722 115.588 131.396C115.588 132.048 115.34 132.611 114.843 133.084C114.351 133.558 113.599 133.795 112.587 133.795C111.498 133.795 110.725 133.549 110.27 133.057C109.818 132.56 109.577 131.947 109.545 131.218H110.728ZM118.477 126.194V131.054C118.477 131.428 118.536 131.733 118.654 131.97C118.873 132.408 119.281 132.626 119.878 132.626C120.735 132.626 121.318 132.244 121.628 131.478C121.797 131.068 121.881 130.505 121.881 129.79V126.194H123.111V133.515H121.949L121.963 132.435C121.803 132.713 121.605 132.948 121.368 133.139C120.899 133.522 120.329 133.713 119.659 133.713C118.616 133.713 117.905 133.365 117.526 132.667C117.321 132.294 117.219 131.795 117.219 131.17V126.194H118.477ZM125.323 126.194H126.492V127.458C126.588 127.212 126.823 126.914 127.196 126.563C127.57 126.208 128.001 126.03 128.488 126.03C128.511 126.03 128.55 126.032 128.604 126.037C128.659 126.041 128.753 126.05 128.885 126.064V127.363C128.812 127.349 128.743 127.34 128.68 127.335C128.62 127.331 128.554 127.329 128.481 127.329C127.862 127.329 127.385 127.529 127.053 127.93C126.72 128.327 126.554 128.785 126.554 129.304V133.515H125.323V126.194ZM133.25 126.03C133.77 126.03 134.273 126.153 134.761 126.399C135.248 126.64 135.62 126.955 135.875 127.342C136.121 127.711 136.285 128.142 136.367 128.634C136.44 128.972 136.477 129.509 136.477 130.248H131.11C131.133 130.99 131.309 131.587 131.637 132.039C131.965 132.485 132.473 132.708 133.161 132.708C133.804 132.708 134.316 132.497 134.699 132.073C134.918 131.827 135.073 131.542 135.164 131.218H136.374C136.342 131.487 136.235 131.788 136.053 132.121C135.875 132.449 135.674 132.718 135.451 132.927C135.077 133.292 134.615 133.538 134.063 133.666C133.767 133.738 133.432 133.775 133.059 133.775C132.147 133.775 131.375 133.444 130.741 132.784C130.108 132.118 129.791 131.189 129.791 129.995C129.791 128.819 130.11 127.864 130.748 127.13C131.386 126.397 132.22 126.03 133.25 126.03ZM135.212 129.27C135.162 128.737 135.046 128.311 134.863 127.992C134.526 127.399 133.963 127.103 133.175 127.103C132.61 127.103 132.136 127.308 131.753 127.718C131.37 128.124 131.167 128.641 131.145 129.27H135.212ZM143.334 131.567C143.334 131.922 143.464 132.203 143.724 132.408C143.983 132.613 144.291 132.715 144.646 132.715C145.079 132.715 145.499 132.615 145.904 132.415C146.588 132.082 146.93 131.537 146.93 130.781V129.79C146.779 129.885 146.586 129.965 146.349 130.029C146.112 130.093 145.879 130.138 145.651 130.166L144.906 130.261C144.46 130.32 144.125 130.414 143.901 130.542C143.523 130.756 143.334 131.097 143.334 131.567ZM146.314 129.079C146.597 129.042 146.786 128.924 146.882 128.723C146.937 128.614 146.964 128.457 146.964 128.251C146.964 127.832 146.813 127.529 146.513 127.342C146.216 127.151 145.79 127.055 145.234 127.055C144.592 127.055 144.136 127.228 143.867 127.575C143.717 127.766 143.619 128.051 143.573 128.429H142.425C142.448 127.527 142.739 126.9 143.3 126.549C143.865 126.194 144.519 126.016 145.262 126.016C146.123 126.016 146.823 126.18 147.36 126.508C147.894 126.836 148.16 127.347 148.16 128.04V132.257C148.16 132.385 148.185 132.487 148.235 132.565C148.29 132.642 148.402 132.681 148.57 132.681C148.625 132.681 148.687 132.679 148.755 132.674C148.823 132.665 148.896 132.654 148.974 132.64V133.549C148.782 133.604 148.636 133.638 148.536 133.652C148.436 133.666 148.299 133.672 148.126 133.672C147.702 133.672 147.395 133.522 147.203 133.221C147.103 133.062 147.032 132.836 146.991 132.544C146.741 132.873 146.381 133.157 145.911 133.399C145.442 133.64 144.924 133.761 144.359 133.761C143.68 133.761 143.124 133.556 142.691 133.146C142.263 132.731 142.049 132.214 142.049 131.594C142.049 130.915 142.261 130.389 142.685 130.015C143.108 129.641 143.664 129.411 144.353 129.325L146.314 129.079ZM155.312 131.218C155.348 131.628 155.451 131.943 155.619 132.162C155.929 132.558 156.467 132.756 157.232 132.756C157.688 132.756 158.089 132.658 158.436 132.462C158.782 132.262 158.955 131.954 158.955 131.54C158.955 131.225 158.816 130.986 158.538 130.822C158.36 130.722 158.009 130.605 157.485 130.473L156.508 130.227C155.883 130.072 155.423 129.899 155.127 129.708C154.598 129.375 154.334 128.915 154.334 128.327C154.334 127.634 154.582 127.073 155.079 126.645C155.58 126.217 156.253 126.002 157.096 126.002C158.199 126.002 158.994 126.326 159.481 126.973C159.787 127.383 159.935 127.825 159.926 128.299H158.764C158.741 128.021 158.643 127.768 158.47 127.541C158.187 127.217 157.697 127.055 157 127.055C156.535 127.055 156.182 127.144 155.94 127.322C155.703 127.5 155.585 127.734 155.585 128.026C155.585 128.345 155.742 128.6 156.057 128.792C156.239 128.905 156.508 129.006 156.863 129.092L157.677 129.291C158.561 129.505 159.153 129.712 159.454 129.913C159.933 130.227 160.172 130.722 160.172 131.396C160.172 132.048 159.924 132.611 159.427 133.084C158.935 133.558 158.183 133.795 157.171 133.795C156.082 133.795 155.309 133.549 154.854 133.057C154.402 132.56 154.161 131.947 154.129 131.218H155.312ZM164.879 126.03C165.398 126.03 165.902 126.153 166.39 126.399C166.877 126.64 167.249 126.955 167.504 127.342C167.75 127.711 167.914 128.142 167.996 128.634C168.069 128.972 168.105 129.509 168.105 130.248H162.739C162.762 130.99 162.938 131.587 163.266 132.039C163.594 132.485 164.102 132.708 164.79 132.708C165.433 132.708 165.945 132.497 166.328 132.073C166.547 131.827 166.702 131.542 166.793 131.218H168.003C167.971 131.487 167.864 131.788 167.682 132.121C167.504 132.449 167.303 132.718 167.08 132.927C166.706 133.292 166.244 133.538 165.692 133.666C165.396 133.738 165.061 133.775 164.688 133.775C163.776 133.775 163.004 133.444 162.37 132.784C161.737 132.118 161.42 131.189 161.42 129.995C161.42 128.819 161.739 127.864 162.377 127.13C163.015 126.397 163.849 126.03 164.879 126.03ZM166.841 129.27C166.791 128.737 166.674 128.311 166.492 127.992C166.155 127.399 165.592 127.103 164.804 127.103C164.239 127.103 163.765 127.308 163.382 127.718C162.999 128.124 162.796 128.641 162.773 129.27H166.841ZM170.816 131.567C170.816 131.922 170.946 132.203 171.206 132.408C171.466 132.613 171.773 132.715 172.129 132.715C172.562 132.715 172.981 132.615 173.387 132.415C174.07 132.082 174.412 131.537 174.412 130.781V129.79C174.262 129.885 174.068 129.965 173.831 130.029C173.594 130.093 173.362 130.138 173.134 130.166L172.389 130.261C171.942 130.32 171.607 130.414 171.384 130.542C171.006 130.756 170.816 131.097 170.816 131.567ZM173.797 129.079C174.079 129.042 174.269 128.924 174.364 128.723C174.419 128.614 174.446 128.457 174.446 128.251C174.446 127.832 174.296 127.529 173.995 127.342C173.699 127.151 173.273 127.055 172.717 127.055C172.074 127.055 171.618 127.228 171.35 127.575C171.199 127.766 171.101 128.051 171.056 128.429H169.907C169.93 127.527 170.222 126.9 170.782 126.549C171.347 126.194 172.001 126.016 172.744 126.016C173.605 126.016 174.305 126.18 174.843 126.508C175.376 126.836 175.643 127.347 175.643 128.04V132.257C175.643 132.385 175.668 132.487 175.718 132.565C175.772 132.642 175.884 132.681 176.053 132.681C176.107 132.681 176.169 132.679 176.237 132.674C176.306 132.665 176.379 132.654 176.456 132.64V133.549C176.265 133.604 176.119 133.638 176.019 133.652C175.918 133.666 175.782 133.672 175.608 133.672C175.185 133.672 174.877 133.522 174.686 133.221C174.585 133.062 174.515 132.836 174.474 132.544C174.223 132.873 173.863 133.157 173.394 133.399C172.924 133.64 172.407 133.761 171.842 133.761C171.163 133.761 170.607 133.556 170.174 133.146C169.745 132.731 169.531 132.214 169.531 131.594C169.531 130.915 169.743 130.389 170.167 130.015C170.591 129.641 171.147 129.411 171.835 129.325L173.797 129.079ZM177.916 126.194H179.133V127.233C179.424 126.873 179.689 126.611 179.926 126.447C180.331 126.169 180.792 126.03 181.307 126.03C181.89 126.03 182.359 126.173 182.715 126.46C182.915 126.625 183.098 126.866 183.262 127.185C183.535 126.793 183.856 126.504 184.226 126.317C184.595 126.125 185.009 126.03 185.47 126.03C186.454 126.03 187.124 126.385 187.479 127.096C187.671 127.479 187.767 127.994 187.767 128.641V133.515H186.488V128.429C186.488 127.942 186.365 127.607 186.119 127.424C185.878 127.242 185.581 127.151 185.23 127.151C184.747 127.151 184.33 127.313 183.979 127.636C183.633 127.96 183.46 128.5 183.46 129.256V133.515H182.209V128.737C182.209 128.24 182.15 127.878 182.031 127.65C181.844 127.308 181.496 127.137 180.985 127.137C180.521 127.137 180.097 127.317 179.714 127.677C179.336 128.037 179.146 128.689 179.146 129.632V133.515H177.916V126.194ZM189.862 123.473H191.093V133.515H189.862V123.473ZM196.244 126.03C196.764 126.03 197.267 126.153 197.755 126.399C198.243 126.64 198.614 126.955 198.869 127.342C199.115 127.711 199.279 128.142 199.361 128.634C199.434 128.972 199.471 129.509 199.471 130.248H194.104C194.127 130.99 194.303 131.587 194.631 132.039C194.959 132.485 195.467 132.708 196.155 132.708C196.798 132.708 197.311 132.497 197.693 132.073C197.912 131.827 198.067 131.542 198.158 131.218H199.368C199.336 131.487 199.229 131.788 199.047 132.121C198.869 132.449 198.669 132.718 198.445 132.927C198.072 133.292 197.609 133.538 197.058 133.666C196.761 133.738 196.426 133.775 196.053 133.775C195.141 133.775 194.369 133.444 193.735 132.784C193.102 132.118 192.785 131.189 192.785 129.995C192.785 128.819 193.104 127.864 193.742 127.13C194.38 126.397 195.214 126.03 196.244 126.03ZM198.206 129.27C198.156 128.737 198.04 128.311 197.857 127.992C197.52 127.399 196.957 127.103 196.169 127.103C195.604 127.103 195.13 127.308 194.747 127.718C194.364 128.124 194.161 128.641 194.139 129.27H198.206ZM201.97 131.218C202.006 131.628 202.109 131.943 202.277 132.162C202.587 132.558 203.125 132.756 203.891 132.756C204.346 132.756 204.747 132.658 205.094 132.462C205.44 132.262 205.613 131.954 205.613 131.54C205.613 131.225 205.474 130.986 205.196 130.822C205.019 130.722 204.668 130.605 204.144 130.473L203.166 130.227C202.542 130.072 202.081 129.899 201.785 129.708C201.257 129.375 200.992 128.915 200.992 128.327C200.992 127.634 201.241 127.073 201.737 126.645C202.239 126.217 202.911 126.002 203.754 126.002C204.857 126.002 205.652 126.326 206.14 126.973C206.445 127.383 206.593 127.825 206.584 128.299H205.422C205.399 128.021 205.301 127.768 205.128 127.541C204.845 127.217 204.355 127.055 203.658 127.055C203.193 127.055 202.84 127.144 202.599 127.322C202.362 127.5 202.243 127.734 202.243 128.026C202.243 128.345 202.4 128.6 202.715 128.792C202.897 128.905 203.166 129.006 203.521 129.092L204.335 129.291C205.219 129.505 205.812 129.712 206.112 129.913C206.591 130.227 206.83 130.722 206.83 131.396C206.83 132.048 206.582 132.611 206.085 133.084C205.593 133.558 204.841 133.795 203.829 133.795C202.74 133.795 201.967 133.549 201.512 133.057C201.061 132.56 200.819 131.947 200.787 131.218H201.97ZM209.22 131.218C209.256 131.628 209.359 131.943 209.527 132.162C209.837 132.558 210.375 132.756 211.141 132.756C211.596 132.756 211.997 132.658 212.344 132.462C212.69 132.262 212.863 131.954 212.863 131.54C212.863 131.225 212.724 130.986 212.446 130.822C212.269 130.722 211.918 130.605 211.394 130.473L210.416 130.227C209.792 130.072 209.331 129.899 209.035 129.708C208.507 129.375 208.242 128.915 208.242 128.327C208.242 127.634 208.491 127.073 208.987 126.645C209.489 126.217 210.161 126.002 211.004 126.002C212.107 126.002 212.902 126.326 213.39 126.973C213.695 127.383 213.843 127.825 213.834 128.299H212.672C212.649 128.021 212.551 127.768 212.378 127.541C212.095 127.217 211.605 127.055 210.908 127.055C210.443 127.055 210.09 127.144 209.849 127.322C209.612 127.5 209.493 127.734 209.493 128.026C209.493 128.345 209.65 128.6 209.965 128.792C210.147 128.905 210.416 129.006 210.771 129.092L211.585 129.291C212.469 129.505 213.062 129.712 213.362 129.913C213.841 130.227 214.08 130.722 214.08 131.396C214.08 132.048 213.832 132.611 213.335 133.084C212.843 133.558 212.091 133.795 211.079 133.795C209.99 133.795 209.217 133.549 208.762 133.057C208.311 132.56 208.069 131.947 208.037 131.218H209.22ZM222.934 126.03C223.453 126.03 223.957 126.153 224.444 126.399C224.932 126.64 225.303 126.955 225.559 127.342C225.805 127.711 225.969 128.142 226.051 128.634C226.124 128.972 226.16 129.509 226.16 130.248H220.794C220.817 130.99 220.992 131.587 221.32 132.039C221.648 132.485 222.157 132.708 222.845 132.708C223.487 132.708 224 132.497 224.383 132.073C224.602 131.827 224.757 131.542 224.848 131.218H226.058C226.026 131.487 225.919 131.788 225.736 132.121C225.559 132.449 225.358 132.718 225.135 132.927C224.761 133.292 224.299 133.538 223.747 133.666C223.451 133.738 223.116 133.775 222.742 133.775C221.831 133.775 221.058 133.444 220.425 132.784C219.791 132.118 219.475 131.189 219.475 129.995C219.475 128.819 219.794 127.864 220.432 127.13C221.07 126.397 221.904 126.03 222.934 126.03ZM224.896 129.27C224.845 128.737 224.729 128.311 224.547 127.992C224.21 127.399 223.647 127.103 222.858 127.103C222.293 127.103 221.819 127.308 221.437 127.718C221.054 128.124 220.851 128.641 220.828 129.27H224.896ZM227.23 126.194H228.823L230.505 128.771L232.207 126.194L233.704 126.228L231.236 129.762L233.813 133.515H232.241L230.423 130.767L228.659 133.515H227.101L229.678 129.762L227.23 126.194ZM238.268 132.688C238.842 132.688 239.318 132.449 239.696 131.97C240.079 131.487 240.271 130.767 240.271 129.81C240.271 129.227 240.186 128.725 240.018 128.306C239.699 127.5 239.115 127.096 238.268 127.096C237.415 127.096 236.832 127.522 236.518 128.375C236.349 128.83 236.265 129.409 236.265 130.111C236.265 130.676 236.349 131.157 236.518 131.553C236.837 132.31 237.42 132.688 238.268 132.688ZM235.082 126.228H236.278V127.199C236.524 126.866 236.793 126.609 237.085 126.426C237.5 126.153 237.987 126.016 238.548 126.016C239.377 126.016 240.081 126.335 240.66 126.973C241.239 127.607 241.528 128.514 241.528 129.694C241.528 131.289 241.111 132.428 240.277 133.112C239.749 133.545 239.133 133.761 238.432 133.761C237.88 133.761 237.418 133.64 237.044 133.399C236.825 133.262 236.581 133.028 236.312 132.695V136.434H235.082V126.228ZM246.27 126.03C246.789 126.03 247.293 126.153 247.78 126.399C248.268 126.64 248.639 126.955 248.895 127.342C249.141 127.711 249.305 128.142 249.387 128.634C249.46 128.972 249.496 129.509 249.496 130.248H244.13C244.153 130.99 244.328 131.587 244.656 132.039C244.984 132.485 245.493 132.708 246.181 132.708C246.823 132.708 247.336 132.497 247.719 132.073C247.938 131.827 248.092 131.542 248.184 131.218H249.394C249.362 131.487 249.255 131.788 249.072 132.121C248.895 132.449 248.694 132.718 248.471 132.927C248.097 133.292 247.634 133.538 247.083 133.666C246.787 133.738 246.452 133.775 246.078 133.775C245.167 133.775 244.394 133.444 243.761 132.784C243.127 132.118 242.811 131.189 242.811 129.995C242.811 128.819 243.13 127.864 243.768 127.13C244.406 126.397 245.24 126.03 246.27 126.03ZM248.231 129.27C248.181 128.737 248.065 128.311 247.883 127.992C247.546 127.399 246.983 127.103 246.194 127.103C245.629 127.103 245.155 127.308 244.772 127.718C244.39 128.124 244.187 128.641 244.164 129.27H248.231ZM251.298 126.194H252.467V127.458C252.562 127.212 252.797 126.914 253.171 126.563C253.545 126.208 253.975 126.03 254.463 126.03C254.486 126.03 254.524 126.032 254.579 126.037C254.634 126.041 254.727 126.05 254.859 126.064V127.363C254.786 127.349 254.718 127.34 254.654 127.335C254.595 127.331 254.529 127.329 254.456 127.329C253.836 127.329 253.36 127.529 253.027 127.93C252.695 128.327 252.528 128.785 252.528 129.304V133.515H251.298V126.194ZM256.176 126.228H257.427V133.515H256.176V126.228ZM256.176 123.473H257.427V124.868H256.176V123.473ZM262.592 126.03C263.111 126.03 263.615 126.153 264.103 126.399C264.59 126.64 264.962 126.955 265.217 127.342C265.463 127.711 265.627 128.142 265.709 128.634C265.782 128.972 265.818 129.509 265.818 130.248H260.452C260.475 130.99 260.65 131.587 260.979 132.039C261.307 132.485 261.815 132.708 262.503 132.708C263.146 132.708 263.658 132.497 264.041 132.073C264.26 131.827 264.415 131.542 264.506 131.218H265.716C265.684 131.487 265.577 131.788 265.395 132.121C265.217 132.449 265.016 132.718 264.793 132.927C264.419 133.292 263.957 133.538 263.405 133.666C263.109 133.738 262.774 133.775 262.4 133.775C261.489 133.775 260.716 133.444 260.083 132.784C259.45 132.118 259.133 131.189 259.133 129.995C259.133 128.819 259.452 127.864 260.09 127.13C260.728 126.397 261.562 126.03 262.592 126.03ZM264.554 129.27C264.504 128.737 264.387 128.311 264.205 127.992C263.868 127.399 263.305 127.103 262.517 127.103C261.951 127.103 261.478 127.308 261.095 127.718C260.712 128.124 260.509 128.641 260.486 129.27H264.554ZM267.586 126.194H268.755V127.233C269.101 126.805 269.468 126.497 269.855 126.31C270.243 126.123 270.674 126.03 271.147 126.03C272.187 126.03 272.888 126.392 273.253 127.117C273.453 127.513 273.554 128.081 273.554 128.819V133.515H272.303V128.901C272.303 128.454 272.237 128.094 272.104 127.821C271.886 127.365 271.489 127.137 270.915 127.137C270.623 127.137 270.384 127.167 270.197 127.226C269.86 127.326 269.564 127.527 269.309 127.828C269.104 128.069 268.969 128.32 268.905 128.58C268.846 128.835 268.816 129.202 268.816 129.68V133.515H267.586V126.194ZM278.452 125.982C279.277 125.982 279.947 126.182 280.462 126.583C280.981 126.985 281.294 127.675 281.398 128.655H280.202C280.129 128.204 279.963 127.83 279.703 127.534C279.443 127.233 279.026 127.083 278.452 127.083C277.668 127.083 277.108 127.465 276.771 128.231C276.552 128.728 276.442 129.341 276.442 130.07C276.442 130.804 276.597 131.421 276.907 131.922C277.217 132.424 277.705 132.674 278.37 132.674C278.881 132.674 279.284 132.519 279.58 132.209C279.881 131.895 280.088 131.467 280.202 130.924H281.398C281.262 131.895 280.92 132.606 280.373 133.057C279.826 133.504 279.127 133.727 278.274 133.727C277.317 133.727 276.554 133.378 275.984 132.681C275.415 131.979 275.13 131.104 275.13 130.056C275.13 128.771 275.442 127.771 276.066 127.055C276.691 126.34 277.486 125.982 278.452 125.982ZM285.928 126.03C286.447 126.03 286.951 126.153 287.438 126.399C287.926 126.64 288.298 126.955 288.553 127.342C288.799 127.711 288.963 128.142 289.045 128.634C289.118 128.972 289.154 129.509 289.154 130.248H283.788C283.811 130.99 283.986 131.587 284.314 132.039C284.643 132.485 285.151 132.708 285.839 132.708C286.481 132.708 286.994 132.497 287.377 132.073C287.596 131.827 287.751 131.542 287.842 131.218H289.052C289.02 131.487 288.913 131.788 288.73 132.121C288.553 132.449 288.352 132.718 288.129 132.927C287.755 133.292 287.293 133.538 286.741 133.666C286.445 133.738 286.11 133.775 285.736 133.775C284.825 133.775 284.052 133.444 283.419 132.784C282.785 132.118 282.469 131.189 282.469 129.995C282.469 128.819 282.788 127.864 283.426 127.13C284.064 126.397 284.898 126.03 285.928 126.03ZM287.89 129.27C287.84 128.737 287.723 128.311 287.541 127.992C287.204 127.399 286.641 127.103 285.853 127.103C285.287 127.103 284.813 127.308 284.431 127.718C284.048 128.124 283.845 128.641 283.822 129.27H287.89ZM291.216 132.025H292.645V133.515H291.216V132.025Z" fill="white"/>
</svg>
