<svg width="251" height="179" viewBox="0 0 251 179" fill="none" xmlns="http://www.w3.org/2000/svg">
<path fill-rule="evenodd" clip-rule="evenodd" d="M149.448 177.951C148.172 178.907 142.857 177.187 141.287 176.764C135.04 175.081 129.984 171.236 124.771 167.415C121.295 164.305 118.195 160.223 116.17 155.826C115.251 153.831 114.389 150.961 113.502 149.294C113.168 148.126 113.402 147.993 112.354 147.36L107.867 148.03C85.8372 152.073 75.9684 142.655 61.4275 129.276L60.4458 128.663C59.8624 128.907 59.586 129.008 58.9017 129.065C40.443 142.155 19.9995 131.972 9.98441 112.207C7.29482 106.899 4.99637 101.598 3.39977 95.7712C-0.800751 80.4333 -0.632874 62.3362 6.48514 47.9383C13.5962 33.5512 27.9528 23.4994 41.9965 18.6471C50.3381 15.7651 57.505 15.8346 66.0902 16.963C70.8043 18.6205 73.5137 18.9164 78.1374 21.5986C81.9736 23.6764 81.7235 20.0656 87.0753 15.2771C94.9534 8.80449 107.505 1.677 118.329 1.10427C131.042 0.432925 145.748 6.15642 155.471 14.8554L159.163 18.6483C160.573 20.5012 161.459 22.1568 163.826 20.9664C172.509 13.3294 184.545 8.10994 196.276 10.2199C206.418 13.7858 216.647 20.7477 218.815 33.1878L219.592 34.0304C226.113 36.4775 228.851 38.9119 234.554 43.091C236.736 45.0431 238.939 47.3979 240.772 49.8342C249.079 60.8759 250.563 74.56 249.127 88.1848C248.031 91.8487 247.53 95.1662 246.148 98.9313C244.565 103.244 241.965 107.541 239.217 111.153C236.897 114.202 232.134 118.451 228.725 120.06C227.606 120.589 226.248 121.05 225.227 121.689C224.293 121.766 224.186 121.84 223.479 122.531C223.322 129.309 223.799 133.674 220.501 139.599C217.162 145.598 210.477 149.438 204.825 151.872C185.993 159.986 161.798 158.222 143.619 151.399L142.55 151.294L141.481 151.189C141.163 151.915 140.972 152.679 141.093 153.507C142.855 159.402 141.173 161.643 145.367 170.785C146.344 172.087 148.924 174.943 149.447 177.949L149.448 177.951Z" fill="#454545" stroke="#616161" stroke-miterlimit="22.9256" stroke-linecap="square"/>
</svg>
