<svg width="327" height="187" viewBox="0 0 327 187" fill="none" xmlns="http://www.w3.org/2000/svg">
<path fill-rule="evenodd" clip-rule="evenodd" d="M249.09 114.381C249.833 127.911 251.914 134.804 244.421 148.248C230.065 174.004 197.531 179.965 175.152 162.974C170.528 159.464 167.969 154.938 164.729 152.735C148.984 188.633 110.162 193.358 86.7776 175.79C82.4305 172.522 79.0893 169.014 76.4545 165.428C72.3111 159.783 71.58 157.03 69.112 152.821C56.8312 153.566 49.4544 155.978 39.1852 146.692C36.0279 143.839 33.0547 140.059 31.2564 136.001C29.2988 131.59 29.23 129.24 28.8743 124.847L28.369 121.471C27.66 118.191 13.8459 117.843 4.37653 94.645C-0.834137 81.8809 1.32227 65.5792 8.54944 53.5437C18.718 36.6092 39.9187 28.0401 59.7456 33.0937C68.17 35.2403 71.5555 38.2994 77.6689 41.7658C88.7672 -0.316678 138.705 -11.9744 167.236 20.8693C170.57 24.7062 171.806 28.781 175.135 33.8689C186.415 31.9481 193.821 27.0759 211.44 34.2737C227.009 40.63 230.281 50.487 234.986 55.6952C245.202 54.9642 249.865 51.066 261.793 58.2981C268.328 62.2625 273.414 68.9867 275.469 76.7659C275.874 77.1829 279.466 71.3541 300.043 76.1035C310.305 78.4709 326.666 90.7517 324.575 90.006C303.951 82.6365 301.071 81.665 283.28 89.3877C274.189 93.335 275.467 95.7759 270.146 102.817C264.739 109.948 259.58 112.257 249.092 114.379L249.09 114.381Z" fill="#454545" stroke="#616161" stroke-width="2.55544" stroke-miterlimit="22.9256" stroke-linecap="square"/>
</svg>
