<svg width="251" height="179" viewBox="0 0 251 179" fill="none" xmlns="http://www.w3.org/2000/svg">
<path fill-rule="evenodd" clip-rule="evenodd" d="M101.153 177.794C102.43 178.75 107.745 177.03 109.314 176.607C115.561 174.924 120.618 171.079 125.83 167.258C129.307 164.148 132.407 160.066 134.432 155.669C135.35 153.674 136.212 150.804 137.1 149.137C137.433 147.969 137.2 147.836 138.248 147.203L142.735 147.872C164.764 151.916 174.633 142.498 189.174 129.118L190.156 128.506C190.739 128.75 191.016 128.85 191.7 128.907C210.159 141.998 230.602 131.815 240.617 112.05C243.307 106.742 245.605 101.44 247.202 95.6139C251.402 80.2761 251.234 62.1789 244.116 47.7811C237.005 33.394 222.649 23.3422 208.605 18.4898C200.264 15.6079 193.097 15.6774 184.511 16.8058C179.797 18.4633 177.088 18.7591 172.464 21.4413C168.628 23.5192 168.878 19.9084 163.526 15.1198C155.648 8.64727 143.097 1.51977 132.273 0.947041C119.559 0.275698 104.853 5.9992 95.1302 14.6982L91.4386 18.4911C90.0285 20.3439 89.1431 21.9995 86.7752 20.8092C78.0921 13.1722 66.0567 7.95271 54.326 10.0626C44.1838 13.6286 33.9541 20.5905 31.7863 33.0305L31.0092 33.8732C24.4881 36.3202 21.7508 38.7547 16.0475 42.9338C13.8656 44.8859 11.6628 47.2406 9.8295 49.6769C1.52292 60.7187 0.0388101 74.4028 1.47454 88.0275C2.57042 91.6915 3.07115 95.009 4.45325 98.7741C6.03646 103.087 8.63627 107.384 11.3841 110.995C13.7042 114.045 18.4678 118.294 21.8767 119.903C22.9959 120.431 24.3535 120.893 25.3742 121.531C26.3086 121.609 26.4158 121.683 27.1229 122.374C27.2792 129.152 26.8023 133.516 30.101 139.442C33.44 145.441 40.1249 149.28 45.7763 151.715C64.6086 159.828 88.8032 158.065 106.983 151.242L108.051 151.137L109.12 151.031C109.438 151.758 109.63 152.522 109.509 153.349C107.746 159.245 109.429 161.486 105.234 170.628C104.258 171.929 101.678 174.786 101.154 177.792L101.153 177.794Z" fill="#454545" stroke="#616161" stroke-miterlimit="22.9256" stroke-linecap="square"/>
</svg>
