<svg width="327" height="188" viewBox="0 0 327 188" fill="none" xmlns="http://www.w3.org/2000/svg">
<path fill-rule="evenodd" clip-rule="evenodd" d="M77.1444 114.437C76.4011 127.967 74.3208 134.86 81.8129 148.304C96.1691 174.06 128.704 180.022 151.082 163.031C155.706 159.52 158.265 154.994 161.506 152.791C177.25 188.689 216.073 193.414 239.457 175.846C243.804 172.579 247.145 169.07 249.78 165.484C253.923 159.839 254.654 157.086 257.122 152.877C269.403 153.623 276.78 156.034 287.049 146.749C290.206 143.895 293.18 140.115 294.978 136.058C296.936 131.647 297.004 129.296 297.36 124.903L297.865 121.527C298.574 118.247 312.388 117.899 321.858 94.7011C327.069 81.937 324.912 65.6354 317.685 53.5999C307.516 36.6653 286.316 28.0962 266.489 33.1499C258.064 35.2964 254.679 38.3556 248.566 41.822C237.467 -0.260526 187.529 -11.9182 158.999 20.9255C155.665 24.7623 154.428 28.8371 151.099 33.9251C139.819 32.0042 132.413 27.1321 114.794 34.3298C99.2258 40.6861 95.9533 50.5432 91.248 55.7514C81.0328 55.0203 76.3692 51.1221 64.4417 58.3542C57.9063 62.3186 52.8208 69.0429 50.765 76.822C50.3602 77.2391 46.7687 71.4102 26.1911 76.1597C15.9293 78.527 -0.431263 90.8079 1.65888 90.0621C22.2831 82.6926 25.1632 81.7212 42.9539 89.4439C52.0456 93.3911 50.7674 95.8321 56.0884 102.873C61.4953 110.004 66.6545 112.313 77.142 114.435L77.1444 114.437Z" fill="#454545" stroke="#616161" stroke-width="2.55544" stroke-miterlimit="22.9256" stroke-linecap="square"/>
</svg>
